<?xml version="1.0" standalone="no"?>
<!DOCTYPE svg PUBLIC "-//W3C//DTD SVG 20010904//EN"
 "http://www.w3.org/TR/2001/REC-SVG-20010904/DTD/svg10.dtd">
<svg version="1.0" xmlns="http://www.w3.org/2000/svg"
 width="333.000000pt" height="500.000000pt" viewBox="0 0 333.000000 500.000000"
 preserveAspectRatio="xMidYMid meet">

<g transform="translate(0.000000,500.000000) scale(0.100000,-0.100000)"
fill="#000000" stroke="none">
<path d="M1607 1997 c-1 -4 -21 -8 -43 -10 -23 -1 -39 -6 -36 -11 3 -5 -5 -7
-16 -4 -12 4 -20 3 -18 -1 6 -10 -49 -42 -65 -39 -7 2 -13 -2 -14 -8 0 -14
-65 -79 -79 -79 -6 0 -11 -7 -11 -15 -1 -23 -27 -70 -36 -65 -4 3 -5 -5 -1
-17 3 -13 1 -19 -5 -15 -7 5 -9 -1 -5 -15 3 -13 1 -19 -5 -15 -6 4 -8 -4 -5
-20 3 -14 1 -23 -4 -20 -5 3 -7 -32 -3 -86 4 -51 4 -96 1 -101 -3 -5 1 -6 8
-1 10 6 12 3 8 -13 -4 -12 -3 -20 1 -17 11 6 43 -64 35 -77 -4 -7 -2 -8 4 -4
10 6 38 -31 34 -44 -1 -3 1 -5 6 -5 14 0 32 -17 27 -25 -6 -10 14 -24 35 -25
8 0 14 -5 13 -12 -2 -7 4 -10 12 -7 13 5 15 -34 15 -310 l0 -316 205 0 205 0
0 316 c0 276 2 315 15 310 8 -3 14 0 12 7 -1 7 5 12 13 12 21 1 41 15 35 25
-5 8 13 25 28 25 4 0 6 2 5 5 -4 13 24 50 34 44 6 -4 8 -3 4 4 -8 13 24 83 35
77 4 -3 5 5 1 17 -4 16 -2 19 8 13 7 -5 11 -4 8 1 -3 5 -3 50 1 101 4 54 2 89
-3 86 -5 -3 -7 6 -4 20 3 16 1 24 -5 20 -6 -4 -8 2 -5 15 4 14 2 20 -5 15 -6
-4 -8 2 -5 15 4 12 3 20 -1 17 -9 -5 -35 42 -36 65 0 8 -5 15 -11 15 -14 0
-79 65 -79 79 -1 6 -7 10 -14 8 -16 -3 -71 29 -65 39 2 4 -6 5 -18 1 -11 -3
-19 -1 -16 4 3 5 -12 10 -35 11 -22 2 -43 6 -46 10 -8 10 -110 10 -114 0z"/>
</g>
</svg>
