<?xml version="1.0" standalone="yes"?>
<svg xmlns="http://www.w3.org/2000/svg" width="333" height="500">
<path style="fill:#ffffff; stroke:none;" d="M0 0L0 256L24 256C24 182.219 7.9849 90.5707 71 36.5795C80.9318 28.0699 91.2849 20.6249 103 14.7531C117.257 7.60696 133.86 1.33319 150 1C138.306 -3.90692 117.73 0 105 0L0 0z"/>
<path style="fill:#fa9849; stroke:none;" d="M144 1L144 2L165 1L144 1z"/>
<path style="fill:#fb7d19; stroke:none;" d="M34 87C34.0436 93.473 31.1055 103.99 27 109L24.0039 147L24 257L0 257L0 500L333 500L333 257L147 257L100 257C95.7594 257 86.87 258.663 83.6034 255.397C80.3368 252.13 82 243.241 82 239L82 192C82 152.356 77.0102 110.879 109.001 81.0903C147.678 45.0748 209.54 53.7374 237.91 98C249.03 115.35 251 133.96 251 154L309 154C309 120.195 302.626 89.4395 285 63C243.42 0.629822 161.828 -14.4141 99 17C79.0535 26.9732 58.4575 46.3586 47 66C44.3823 70.4875 35.6345 87.4086 34 87z"/>
<path style="fill:#fa9849; stroke:none;" d="M168 0L168 1L189 2L168 0z"/>
<path style="fill:#ffffff; stroke:none;" d="M183 0L183 1C238.32 2.14203 288.452 51.4968 303.562 102C308.814 119.557 309 136.868 309 155L251 155C251 131.032 247.199 108.101 231.535 89C198.921 49.2269 135.577 49.1204 102.3 88C82.0306 111.682 82 140.583 82 170L82 256L333 256L333 0L183 0z"/>
<path style="fill:#818181; stroke:none;" d="M143 1L144 2L143 1M189 1L190 2L189 1z"/>
<path style="fill:#fa9849; stroke:none;" d="M137 2L137 3L143 3L137 2M190 2L190 3L196 3L190 2M133 3L133 4L137 4L133 3M196 3L196 4L200 4L196 3M129 4L129 5L133 5L129 4M200 4L200 5L204 5L200 4z"/>
<path style="fill:#818181; stroke:none;" d="M125 5L126 6L125 5z"/>
<path style="fill:#fa9849; stroke:none;" d="M126 5L126 6L129 6L126 5M204 5L204 6L207 6L204 5z"/>
<path style="fill:#818181; stroke:none;" d="M207 5L208 6L207 5z"/>
<path style="fill:#fa9849; stroke:none;" d="M122 6L122 7L125 7L122 6M208 6L208 7L211 7L208 6M120.667 7.33334L121.333 7.66666L120.667 7.33334M211.667 7.33334L212.333 7.66666L211.667 7.33334M117 8L117 9L120 9L117 8M213 8L213 9L216 9L213 8M114 9L114 10L117 10L114 9M216 9L216 10L219 10L216 9M109 11L109 12L114 11L109 11M219 10L219 11L224 12L224 11L219 10M107.667 12.3333L108.333 12.6667L107.667 12.3333M224.667 12.3333L225.333 12.6667L224.667 12.3333M105.667 13.3333L106.333 13.6667L105.667 13.3333M226.667 13.3333L227.333 13.6667L226.667 13.3333M103.667 14.3333L104.333 14.6667L103.667 14.3333M228.667 14.3333L229.333 14.6667L228.667 14.3333M101.667 15.3333L102.333 15.6667L101.667 15.3333M230.667 15.3333L231.333 15.6667L230.667 15.3333M99.6667 16.3333L100.333 16.6667L99.6667 16.3333M232.667 16.3333L233.333 16.6667L232.667 16.3333M97.6667 17.3333L98.3333 17.6667L97.6667 17.3333M234.667 17.3333L235.333 17.6667L234.667 17.3333M94 20L97 18L94 20M236 18L239 20L236 18M92.6667 20.3333L93.3333 20.6667L92.6667 20.3333M239.667 20.3333L240.333 20.6667L239.667 20.3333M89 23L92 21L89 23M241 21L244 23L241 21M87.6667 23.3333L88.3333 23.6667L87.6667 23.3333M244.667 23.3333L245.333 23.6667L244.667 23.3333M86 24L87 25L86 24M246 24L247 25L246 24M83 27L86 25L83 27M247 25L250 27L247 25M82 27L83 28L82 27M250 27L251 28L250 27M79 30L82 28L79 30M251 28L254 30L251 28M78 30L79 31L78 30M254 30L255 31L254 30M75 33L78 31L75 33M255 31L258 33L255 31M74 33L75 34L74 33M258 33L259 34L258 33M73 34L74 35L73 34M259 34L260 35L259 34M72 35L73 36L72 35M260 35L261 36L260 35M71 36L72 37L71 36M261 36L262 37L261 36z"/>
<path style="fill:#818181; stroke:none;" d="M69 37L70 38L69 37z"/>
<path style="fill:#fa9849; stroke:none;" d="M70 37L71 38L70 37M262 37L272 47L262 37z"/>
<path style="fill:#818181; stroke:none;" d="M263 37L264 38L263 37z"/>
<path style="fill:#fa9849; stroke:none;" d="M61 47L70 38L61 47z"/>
<path style="fill:#818181; stroke:none;" d="M61 45L62 46L61 45M271 45L272 46L271 45z"/>
<path style="fill:#fa9849; stroke:none;" d="M60 47L61 48L60 47M272 47L273 48L272 47M59 48L60 49L59 48M273 48L274 49L273 48M58 49L59 50L58 49M274 49L275 50L274 49M57 50L58 51L57 50M275 50L276 51L275 50M56 51L55 54L56 51M276 51L278 54L276 51M54 54L55 55L54 54M278 54L279 55L278 54M53 55L52 58L53 55M279 55L281 58L279 55M51 58L52 59L51 58M158 58L158 59L175 59L158 58M281 58L282 59L281 58M50 59L49 62L50 59M151 59L151 60L154 60L151 59M178 59L178 60L182 60L178 59M282 59L284 62L282 59M147.667 60.3333L148.333 60.6667L147.667 60.3333M184.667 60.3333L185.333 60.6667L184.667 60.3333M143.667 61.3333L144.333 61.6667L143.667 61.3333M188.667 61.3333L189.333 61.6667L188.667 61.3333M48 62L49 63L48 62M140 62L141 63L140 62M192 62L193 63L192 62M284 62L285 63L284 62M47.3333 63.6667L47.6667 64.3333L47.3333 63.6667M137 63L138 64L137 63M195 63L196 64L195 63M285.333 63.6667L285.667 64.3333L285.333 63.6667M134 64L135 65L134 64M198 64L199 65L198 64M46 65L45 68L46 65M132 65L133 66L132 65M200 65L201 66L200 65M286 65L288 68L286 65M130 66L131 67L130 66M202 66L203 67L202 66M128 67L129 68L128 67M204 67L205 68L204 67M44.3333 68.6667L44.6667 69.3333L44.3333 68.6667M126 68L127 69L126 68M206 68L207 69L206 68M288.333 68.6667L288.667 69.3333L288.333 68.6667M124 69L125 70L124 69M208 69L209 70L208 69M43 70L42 73L43 70M122 70L123 71L122 70M210 70L211 71L210 70M289 70L291 73L289 70M121 71L122 72L121 71M211 71L212 72L211 71M119 72L120 73L119 72M213 72L214 73L213 72M41.3333 73.6667L41.6667 74.3333L41.3333 73.6667M118 73L119 74L118 73M214 73L215 74L214 73M291.333 73.6667L291.667 74.3333L291.333 73.6667M40.3333 75.6667L40.6667 76.3333L40.3333 75.6667M115 75L116 76L115 75M217 75L218 76L217 75M292.333 75.6667L292.667 76.3333L292.333 75.6667M114 76L115 77L114 76M218 76L219 77L218 76M39.3333 77.6667L39.6667 78.3333L39.3333 77.6667M293.333 77.6667L293.667 78.3333L293.333 77.6667M111 78L112 79L111 78M221 78L222 79L221 78M38.3333 79.6667L38.6667 80.3333L38.3333 79.6667M110 79L111 80L110 79M222 79L223 80L222 79M294.333 79.6667L294.667 80.3333L294.333 79.6667M109 80L110 81L109 80M223 80L224 81L223 80M37.3333 81.6667L37.6667 82.3333L37.3333 81.6667M108 81L109 82L108 81M224 81L225 82L224 81M295.333 81.6667L295.667 82.3333L295.333 81.6667M107 82L108 83L107 82M225 82L226 83L225 82M36.3333 83.6667L36.6667 84.3333L36.3333 83.6667M106 83L107 84L106 83M226 83L227 84L226 83M296 83L298 90L299 90L296 83M105 84L106 85L105 84M227 84L228 85L227 84M35 85L35 88L36 88L35 85M104 85L105 86L104 85M228 85L229 86L228 85M103 86L104 87L103 86M229 86L230 87L229 86M102 87L103 88L102 87M230 87L231 88L230 87M34.3333 88.6667L34.6667 89.3333L34.3333 88.6667M33 90L33 93L34 93L33 90M100 90L101 91L100 90M232 90L233 91L232 90M299 90L299 93L300 93L299 90M99 91L100 92L99 91M233 91L234 92L233 91M32 93L32 96L33 96L32 93M300 93L300 96L301 96L300 93M97 94L98 95L97 94M235 94L236 95L235 94M96 95L97 96L96 95M236 95L237 96L236 95M31 96L30 101L31 101L31 96M301 96L302 101L303 101L301 96M95 97L96 98L95 97M237 97L238 98L237 97z"/>
<path style="fill:#818181; stroke:none;" d="M30 98L31 99L30 98z"/>
<path style="fill:#fa9849; stroke:none;" d="M94 98L95 99L94 98M238 98L239 99L238 98z"/>
<path style="fill:#818181; stroke:none;" d="M302 98L303 99L302 98z"/>
<path style="fill:#fa9849; stroke:none;" d="M93 100L94 101L93 100M239 100L240 101L239 100z"/>
<path style="fill:#818181; stroke:none;" d="M29 101L30 102L29 101M303 101L304 102L303 101z"/>
<path style="fill:#fa9849; stroke:none;" d="M29 102L29 105L30 105L29 102M92 102L93 103L92 102M240 102L241 103L240 102M303 102L303 105L304 105L303 102M91 104L92 105L91 104M241 104L242 105L241 104z"/>
<path style="fill:#818181; stroke:none;" d="M28 105L29 106L28 105M304 105L305 106L304 105z"/>
<path style="fill:#fa9849; stroke:none;" d="M28 106L28 109L29 109L28 106M90 106L91 107L90 106M242 106L243 107L242 106M304 106L304 109L305 109L304 106M89 108L90 109L89 108M243 108L244 109L243 108z"/>
<path style="fill:#818181; stroke:none;" d="M305 109L306 110L305 109z"/>
<path style="fill:#fa9849; stroke:none;" d="M27 110L27 113L28 113L27 110M88 110L89 111L88 110M244 110L245 111L244 110M305 110L305 113L306 113L305 110M26 113L26 119L27 119L26 113M87 113L88 114L87 113M245 113L246 114L245 113z"/>
<path style="fill:#818181; stroke:none;" d="M306 113L307 114L306 113z"/>
<path style="fill:#fa9849; stroke:none;" d="M306 114L306 119L307 119L306 114M86.3333 115.667L86.6667 116.333L86.3333 115.667M246.333 115.667L246.667 116.333L246.333 115.667M85.3333 118.667L85.6667 119.333L85.3333 118.667M247.333 118.667L247.667 119.333L247.333 118.667z"/>
<path style="fill:#818181; stroke:none;" d="M25 119L26 120L25 119z"/>
<path style="fill:#010101; stroke:none;" d="M307 119L308 120L307 119z"/>
<path style="fill:#fa9849; stroke:none;" d="M25 120L25 126L26 126L25 120M307 120L307 126L308 126L307 120M84.3333 122.667L84.6667 123.333L84.3333 122.667M248.333 122.667L248.667 123.333L248.333 122.667M24 126L24 141L25 141L24 126M83 126L83 130L84 130L83 126M308 126L308 141L309 141L308 126M249 127L249 130L250 130L249 127M82 133L82 141L83 141L82 133M250 133L250 142L251 142L250 133M251 154L251 155L309 155L290 154L251 154M0 256L0 257L24 257L0 256M83 256L83 257L333 257L310 256L259 256L83 256M162 299L162 300L171 300L162 299M156.667 300.333L157.333 300.667L156.667 300.333z"/>
<path style="fill:#ffffff; stroke:none;" d="M146 437L187 437C187 419.436 182.853 395.985 187.318 379.04C188.717 373.729 195.99 370.353 199.239 365.999C207.88 354.419 210.004 338.407 204.546 325C187.776 283.805 127.499 297.37 125.375 340C124.881 349.906 128.949 360.53 135.326 367.985C138.241 371.394 143.7 373.863 145.397 378.093C147.389 383.062 146 390.71 146 396L146 437z"/>
<path style="fill:#fa9849; stroke:none;" d="M175.667 300.333L176.333 300.667L175.667 300.333M153.667 301.333L154.333 301.667L153.667 301.333M178.667 301.333L179.333 301.667L178.667 301.333M150 302L151 303L150 302M182 302L183 303L182 302M148 303L149 304L148 303M184 303L185 304L184 303M146 304L147 305L146 304M186 304L187 305L186 304M144 305L145 306L144 305M188 305L189 306L188 305M143 306L144 307L143 306M189 306L190 307L189 306M140 308L141 309L140 308M192 308L193 309L192 308M139 309L140 310L139 309M193 309L194 310L193 309M138 310L139 311L138 310M194 310L195 311L194 310M137 311L138 312L137 311M195 311L196 312L195 311M136 312L137 313L136 312M196 312L197 313L196 312M135 313L136 314L135 313M197 313L198 314L197 313M134 314L135 315L134 314M198 314L199 315L198 314M132 317L133 318L132 317M200 317L201 318L200 317M131 318L132 319L131 318M201 318L202 319L201 318M130 320L131 321L130 320M202 320L203 321L202 320M129 322L130 323L129 322M203 322L204 323L203 322M128 324L129 325L128 324M204 324L205 325L204 324M127 327L128 328L127 327M205 327L206 328L205 327M126 330L127 331L126 330M206 330L207 331L206 330M125 334L125 339L126 339L125 334M207 334L207 339L208 339L207 334M125 343L125 348L126 348L125 343M207 343L207 348L208 348L207 343M126.333 350.667L126.667 351.333L126.333 350.667M206.333 350.667L206.667 351.333L206.333 350.667M127 354L128 355L127 354M205 354L206 355L205 354M128.333 356.667L128.667 357.333L128.333 356.667M204.333 356.667L204.667 357.333L204.333 356.667M129 359L130 360L129 359M203 359L204 360L203 359M130 361L131 362L130 361M202 361L203 362L202 361M131 362L132 363L131 362M201 362L202 363L201 362M132 364L133 365L132 364M200 364L201 365L200 364M133 365L134 366L133 365M199 365L200 366L199 365M136 369L137 370L136 369M196 369L197 370L196 369M137 370L138 371L137 370M195 370L196 371L195 370M141 373L142 374L141 373M191 373L192 374L191 373M142 374L143 375L142 374M190 374L191 375L190 374M144 375L145 376L144 375M188 375L189 376L188 375M145 376L145 437L146 437L146 396L145 376M187 376L187 437L188 437L188 396L187 376z"/>
</svg>
