<?xml version="1.0" standalone="no"?>
<!DOCTYPE svg PUBLIC "-//W3C//DTD SVG 20010904//EN"
 "http://www.w3.org/TR/2001/REC-SVG-20010904/DTD/svg10.dtd">
<svg version="1.0" xmlns="http://www.w3.org/2000/svg"
 width="2400.000000pt" height="2400.000000pt" viewBox="0 0 2400.000000 2400.000000"
 preserveAspectRatio="xMidYMid meet">

<g transform="translate(0.000000,2400.000000) scale(0.100000,-0.100000)"
fill="#000000" stroke="none">
<path d="M15884 19089 l-1098 -2199 -5393 0 -5393 0 0 -890 0 -890 -1335 0
-1335 0 0 -3110 0 -3110 1335 0 1335 0 0 -890 0 -890 2945 0 c1620 0 2945 -2
2945 -5 0 -3 -403 -811 -895 -1795 -492 -984 -895 -1794 -895 -1800 0 -7 1568
-800 1582 -800 2 0 498 990 1103 2200 l1100 2200 5392 0 5393 0 0 4890 0 4890
-2950 0 -2950 0 901 1801 c495 991 899 1802 897 1804 -2 2 -359 181 -794 398
l-791 396 -1099 -2200z m-3544 -7089 l-2000 -4000 -2725 0 -2725 0 0 4000 0
4000 4725 0 4725 0 -2000 -4000z m9440 0 l0 -4000 -4724 0 -4725 0 1643 3293
c904 1810 1802 3610 1997 4000 l354 707 2727 0 2728 0 0 -4000z m-17780 0 l0
-2220 -890 0 -890 0 0 2220 0 2220 890 0 890 0 0 -2220z"/>
<path d="M19552 11995 c-974 -1950 -1772 -3547 -1772 -3550 0 -3 799 -5 1775
-5 l1775 0 0 3550 c0 1953 -1 3550 -3 3550 -1 0 -800 -1595 -1775 -3545z"/>
</g>
</svg>
