<?xml version="1.0" standalone="no"?>
<!DOCTYPE svg PUBLIC "-//W3C//DTD SVG 20010904//EN"
 "http://www.w3.org/TR/2001/REC-SVG-20010904/DTD/svg10.dtd">
<svg version="1.0" xmlns="http://www.w3.org/2000/svg"
 width="2400.000000pt" height="2400.000000pt" viewBox="0 0 2400.000000 2400.000000"
 preserveAspectRatio="xMidYMid meet">

<g transform="translate(0.000000,2400.000000) scale(0.100000,-0.100000)"
fill="#000000" stroke="none">
<path d="M3037 17308 c-3 -79 -16 -536 -29 -1015 l-22 -873 -1491 -2 -1490 -3
0 -3360 0 -3360 1458 -3 1457 -2 0 -1070 0 -1070 10540 0 10540 0 0 5450 0
5450 -10478 0 -10479 0 -6 -142z m19963 -5308 l0 -4450 -9545 0 -9545 0 0
1070 0 1070 -1455 0 -1455 0 0 2365 0 2365 1480 0 1480 0 0 98 c0 53 11 500
25 992 14 492 25 905 25 918 l0 22 9495 0 9495 0 0 -4450z"/>
<path d="M20680 14808 c-239 -4 -1044 -19 -1789 -33 -745 -14 -1356 -27 -1358
-29 -4 -4 -73 -5045 -73 -5343 l0 -173 1995 0 1995 0 0 278 c0 152 11 1377 25
2722 14 1345 25 2478 25 2518 l0 72 -192 -2 c-106 0 -389 -5 -628 -10z"/>
<path d="M14215 14749 c-2043 -39 -2529 -50 -2534 -54 -3 -4 -48 -3224 -73
-5248 l-3 -267 1991 0 1992 0 6 173 c3 94 15 1203 26 2462 11 1260 23 2440 26
2623 l6 332 -258 -1 c-143 -1 -673 -10 -1179 -20z"/>
</g>
</svg>
