<?xml version="1.0" encoding="utf-8"?>
<!-- Generator: Adobe Illustrator 26.0.2, SVG Export Plug-In . SVG Version: 6.00 Build 0)  -->
<svg version="1.1" id="Capa_1" xmlns="http://www.w3.org/2000/svg" xmlns:xlink="http://www.w3.org/1999/xlink" x="0px" y="0px"
	 viewBox="0 0 300 300" style="enable-background:new 0 0 300 300;" xml:space="preserve">
<style type="text/css">
	.st0{fill:#003C82;}
</style>
<g>
	<path class="st0" d="M7.1,212.1c3.1-6.8,8.6-8.8,15.8-8.8c39.1,0.2,78.2,0.1,117.4,0.2c2.8,0,4.3-0.9,5.6-3.3
		c23.2-40.4,46.5-80.7,69.8-121c5.2-9,10.3-18.1,15.5-27c2.7-4.6,5.9-5.4,10.5-2.7c15.4,8.9,30.9,17.9,46.3,26.8
		c2,1.1,3.9,2.3,5.4,4.2c0,1.7,0,3.4,0,5.2c-5.7,9.8-11.5,19.6-17.1,29.4c-26.4,45.7-52.7,91.3-79,137c-1,1.8-2.3,3.2-4,4.3
		c-12.3,8.2-24.5,16.5-36.7,24.8c-1.1,0.8-2.2,1.5-2.6,2.9c-1.2,4.8-4.4,7.7-8.8,9.4c-45.3,0-90.5,0-135.8,0.1c-2,0-2.4-0.5-2.3-2.4
		c0.2-4.4,0.1-8.8,0.1-13.1c1.5-3.5,3.6-6.5,7.4-8c2.6-1,5.4-1.2,8.2-1.2c34.9,0,69.8,0,104.7,0.1c2.9,0,3.9-0.7,4.1-3.8
		c0.6-10.9,1.5-21.9,2.3-32.8c0.3-4.1,0.4-4.1-3.7-4.1c-36.2,0-72.3-0.1-108.5,0c-7,0-12-2.6-14.5-9.3
		C7.1,216.7,7.1,214.4,7.1,212.1z M263.9,111.1c-0.2-1.3-1.2-1.5-2-2c-11.1-6.5-22.3-12.9-33.5-19.3c-3.3-1.9-3.3-1.9-5.2,1.5
		c-10,17.4-20,34.7-30,52.1c-14,24.3-28,48.6-42,72.9c-0.8,1.5-1.8,2.6,0.5,3.9c11.8,6.7,23.5,13.5,35.2,20.3c1.4,0.8,2.2,0.6,3-0.8
		c1.5-2.7,3-5.3,4.6-7.9c22.9-39.6,45.7-79.1,68.6-118.7C263.3,112.3,263.6,111.6,263.9,111.1z M143.6,271.7c0,0.3-0.5,1.5,0.3,2.1
		c1,0.6,1.7-0.5,2.5-1c10.1-7,20.2-14,30.4-20.9c1.8-1.2,1.7-1.8-0.1-2.8c-9.2-5.2-18.3-10.6-27.5-15.9c-2.6-1.5-3-1.3-3.2,1.7
		C145.1,246.9,144.4,259,143.6,271.7z M240.4,63.5c-1-0.1-1.4,0.5-1.7,1.1c-2.1,3.5-4.1,7.1-6.2,10.6c-0.9,1.4-0.4,2.2,0.9,2.9
		c11.7,6.7,23.4,13.5,35.1,20.3c1.5,0.9,2.4,0.6,3.2-0.9c1.8-3.2,3.5-6.3,5.4-9.4c1.3-2,1-3-1.1-4.2c-11.4-6.5-22.8-13.1-34.1-19.7
		C241.5,63.9,240.8,63.7,240.4,63.5z"/>
	<path class="st0" d="M145.1,7.1c3.9,1.5,7,3.9,8.4,8c2.5,7.1-1.9,14.8-9.3,16.1c-1.6,0.3-3.2,0.4-4.8,0.4c-39.1,0-78.2,0-117.3,0
		c-7,0-12.3-2.3-14.9-9.2c0-4.4,0.1-8.8-0.1-13.1C6.9,7.5,7.3,7,9.3,7c26.6,0.1,53.2,0.1,79.7,0.1C107.8,7.1,126.4,7.1,145.1,7.1z"
		/>
	<path class="st0" d="M7.1,81.5c2.5-6.7,7.5-9.3,14.5-9.3c39.5,0.1,79,0.1,118.5,0c4.5,0,8.6,1.1,11.4,4.8c3,3.9,3.6,8.2,1.6,12.7
		c-2.1,4.5-5.7,6.8-10.5,7.3c-1.1,0.1-2.3,0.1-3.4,0.1c-38.8,0-77.5-0.1-116.3,0.1c-7.3,0-12.7-2-15.8-8.8
		C7.1,86.1,7.1,83.8,7.1,81.5z"/>
	<path class="st0" d="M7.1,146.8c2.7-6.5,7.5-8.9,14.4-8.9c39.9,0.2,79.8,0.1,119.7,0.1c6.8,0,11.4,3.6,12.8,9.9
		c1.5,6.8-3.9,14-10.8,14.4c-1.2,0.1-2.5,0.1-3.7,0.1c-39.3,0-78.6-0.1-118,0.1c-7,0-11.8-2.4-14.4-8.9
		C7.1,151.4,7.1,149.1,7.1,146.8z"/>
</g>
</svg>
