<?xml version="1.0" encoding="utf-8"?>
<!-- Generator: Adobe Illustrator 26.0.2, SVG Export Plug-In . SVG Version: 6.00 Build 0)  -->
<svg version="1.1" id="Capa_1" xmlns="http://www.w3.org/2000/svg" xmlns:xlink="http://www.w3.org/1999/xlink" x="0px" y="0px"
	 viewBox="0 0 300 300" style="enable-background:new 0 0 300 300;" xml:space="preserve">
<style type="text/css">
	.st0{fill:#003C82;}
</style>
<g>
	<path class="st0" d="M7.6,81.2c1.9-6.9,5.1-12.9,11.1-17.1c4.7-3.4,9.9-5.2,15.7-5.2c13-0.1,26.1-0.1,39.1,0
		c15,0.1,27.2,12.3,27.3,27.3c0.1,21.8,0,43.5,0,65.3c0,16.8-11.4,28.7-28.2,29c-12.5,0.2-24.9,0.2-37.4,0
		c-13.2-0.2-23-7.8-26.9-20.3c-0.2-0.6-0.4-1.3-0.7-1.9C7.6,132.6,7.6,106.9,7.6,81.2z"/>
	<path class="st0" d="M150.3,293.6c-0.5-17.7,3.7-34.3,11.9-49.9c6.7-12.7,15.9-23.2,28.3-30.7c22.4-13.6,50.1-11.4,70.2,5.6
		c18,15.2,27.5,35.1,31.2,58c0.9,5.6,1.6,11.3,1.1,17C245.4,293.6,197.9,293.6,150.3,293.6z"/>
	<path class="st0" d="M260,153.5c0,21.2-17.4,38.6-38.5,38.5c-21.2-0.1-38.3-17.4-38.3-38.7c0-21.2,17.3-38.5,38.5-38.4
		C242.9,114.9,260.1,132.2,260,153.5z"/>
	<path class="st0" d="M103.4,261.2c0-2.7-0.1-5.3,0-8c0.1-2.1-0.7-2.9-2.8-2.9c-4.6,0-9.1,0.3-13.7-0.5c-22.2-3.7-39-21.4-41.3-43.8
		c-0.3-2.6-0.7-5.1,0-7.6c1.2-4.4,5-7.1,9.4-6.6c4.2,0.5,7.3,3.9,7.5,8.3c0.7,14.8,7.5,25.4,21.5,31c5.7,2.3,11.6,1.8,17.5,1.7
		c1.8,0,1.9-1.3,1.9-2.6c0-5.2,0-10.5,0-15.7c0-1-0.5-2.3,0.7-2.9c1-0.5,1.7,0.6,2.4,1.2c12,8.9,23.9,17.9,35.9,26.8
		c1.9,1.4,2.3,2.3,0.1,3.9c-12.1,8.9-24.1,18-36.1,27c-0.7,0.5-1.4,1.7-2.4,1.1c-0.9-0.5-0.5-1.7-0.5-2.6
		C103.4,266.5,103.4,263.9,103.4,261.2z"/>
	<path class="st0" d="M87.6,8c23.5,1.9,41.7,12.5,54,32.9c5.9,9.8,8.9,20.5,8.9,32c0,3.9-1.7,6-4.8,6.1c-3.2,0.1-5.1-2.1-5.2-6.1
		c-0.7-27.2-20.3-49.8-47.1-54.2c-2.7-0.4-5.5-0.6-8.2-0.7c-3.6-0.2-5.7-1.9-5.7-5c0-3.1,2.1-5,5.9-5C86.1,8,86.8,8,87.6,8z"/>
	<path class="st0" d="M85.2,24.8c24.6,0.9,44.2,18.4,47.9,42.5c0.3,1.7,0.3,3.4,0.5,5.1c0.3,3.8-1.7,6.6-4.9,6.7
		c-3.1,0.1-5.1-2.2-5.3-6.1c-0.8-15.6-8.2-27-22-34.1c-5-2.6-10.5-3.7-16.2-3.9c-4.6-0.1-7.1-3.9-5.1-7.5
		C81.2,25.3,83.3,24.8,85.2,24.8z"/>
	<path class="st0" d="M116.6,72.5c0,3.9-1.9,6.4-4.7,6.5c-3.2,0.2-5.3-2.1-5.6-6.1c-0.8-10.2-7-17.8-16.7-20.3
		c-1.5-0.4-3-0.4-4.5-0.5c-3.7-0.4-5.8-2.5-5.7-5.5c0.1-2.9,2.7-4.9,6.3-4.8c14.8,0.4,28.3,12.3,30.5,26.9
		C116.3,70.1,116.5,71.5,116.6,72.5z"/>
</g>
</svg>
