<?xml version="1.0" encoding="utf-8"?>
<!-- Generator: Adobe Illustrator 26.0.2, SVG Export Plug-In . SVG Version: 6.00 Build 0)  -->
<svg version="1.1" id="Capa_1" xmlns="http://www.w3.org/2000/svg" xmlns:xlink="http://www.w3.org/1999/xlink" x="0px" y="0px"
	 viewBox="0 0 300 300" style="enable-background:new 0 0 300 300;" xml:space="preserve">
<style type="text/css">
	.st0{fill:#003C82;}
</style>
<g>
	<path class="st0" d="M240.6,265.2c0,3.6,0,7.2,0,10.8c-0.5,1.5-0.9,3.1-1.4,4.6c-4,11-12.1,17.3-23.2,20c-3.6,0-7.2,0-10.8,0
		c-7.7-1.7-13.7-6.1-19.2-11.6c-37.9-38.1-76-76.1-114-114c-5.5-5.4-9.7-11.4-11.4-19c0-3.6,0-7.2,0-10.8c1.7-7.6,5.9-13.5,11.4-19
		c38.1-37.9,76.1-75.9,114-114c5.5-5.5,11.5-9.9,19.2-11.6c3.6,0,7.2,0,10.8,0c1.5,0.5,3.1,0.9,4.6,1.4c11,4,17.3,12.1,20,23.2
		c0,3.6,0,7.2,0,10.8c-1.7,7.6-5.9,13.5-11.4,19c-30.9,30.7-61.7,61.6-92.5,92.4c-3.3,3.3-3.3,3.3,0,6.5
		c30.8,30.8,61.6,61.7,92.5,92.4C234.7,251.7,238.9,257.6,240.6,265.2z"/>
</g>
</svg>
