<?xml version="1.0" encoding="utf-8"?>
<!-- Generator: Adobe Illustrator 26.0.2, SVG Export Plug-In . SVG Version: 6.00 Build 0)  -->
<svg version="1.1" id="Capa_1" xmlns="http://www.w3.org/2000/svg" xmlns:xlink="http://www.w3.org/1999/xlink" x="0px" y="0px"
	 viewBox="0 0 300 300" style="enable-background:new 0 0 300 300;" xml:space="preserve">
<style type="text/css">
	.st0{fill:#003C82;}
</style>
<g>
	<path class="st0" d="M72.8,4.6c46,0,92,0,138.1,0c1.1,0.3,2.2,0.6,3.4,0.9c16.4,4.6,26.7,15.2,30.9,31.6c1.2,4.7,1.2,9.6,1.2,14.5
		c0,55.4,0,110.7,0,166.1c0,1.1,0,2.1,0,3.2c0,0.8,0.1,1.8-0.7,2.1c-0.8,0.3-1.4-0.6-1.9-1.1c-10.6-10.6-21.3-21.3-31.9-31.9
		c-1.4-1.4-1.6-2.6-0.7-4.4c4.2-8.3,6.6-17.2,7.6-26.4c0.2-1.7,0.6-3.1,2-4.3c2.1-2,2.7-5.5,0.7-7.4c-2.6-2.4-2.8-5.3-3.3-8.4
		c-6.8-41-44.3-69.2-85.6-64.3c-34.8,4.1-63,32.1-67.2,67c-0.2,1.8-0.7,3.3-2.1,4.6c-2.2,2.1-2.9,5.4-0.9,7.3
		c2.9,2.8,2.8,6.2,3.3,9.6c8.2,51.5,62.9,80.2,110,57.6c2.1-1,3.4-0.8,5.1,0.8c7.6,7.8,15.4,15.4,23,23.1c0.9,0.9,2.6,1.7,2.2,2.8
		c-0.5,1.4-2.4,0.7-3.7,0.7c-44,0-87.9,0-131.9,0c-1.4,0-2.9,0-4.3,0.3c-3,0.6-4.7,3-4.6,5.9c0.1,2.8,2.1,5.1,5,5.6
		c1.3,0.2,2.7,0.1,4.1,0.1c47.4,0,94.7,0.1,142.1-0.1c4.8,0,8.3,1,11.3,4.8c3.6,4.4,8.4,7.2,14.1,8.1c3.5,0.6,3.7,0.9,1.6,3.9
		c-8.3,12.2-19.7,19.2-34.6,19.2c-41.9,0.1-83.9,0.1-125.8,0c-22.8,0-41.4-18.6-41.4-41.4c0-69.6,0-139.3,0-208.9
		c0-17,10.5-32.3,26.3-38.5C66.8,6.2,69.9,5.5,72.8,4.6z M141.9,40.3c-24,0-47.9,0-71.9,0c-1.3,0-2.5-0.1-3.8,0.2
		c-2.8,0.5-4.7,2.7-4.9,5.4c-0.2,2.9,1.5,5.2,4.5,6c1.1,0.3,2.3,0.3,3.5,0.3c48.4,0,96.9,0,145.3,0c1.4,0,2.7,0,4-0.5
		c2.6-1,3.9-2.8,3.9-5.5c0-2.8-1.4-4.5-4-5.4c-1.4-0.5-2.9-0.4-4.3-0.4C190,40.3,166,40.3,141.9,40.3z"/>
	<path class="st0" d="M141.1,79.6c36.9,0,67.4,26.8,72.1,62.7c2,15.2-0.7,29.6-8,43.1c-1.6,2.9-1.1,4.5,1.1,6.6
		c15.5,15.3,30.8,30.7,46.2,46.1c4.7,4.7,6.9,10.3,5.2,17c-3.1,12.1-17.4,16.8-27.1,9c-1.1-0.9-2.1-2-3.2-3
		c-15.2-15.2-30.5-30.5-45.7-45.8c-1.7-1.7-3-2-5.2-0.8c-45.1,24.3-99.1-3.4-106-54.3c-5-36.9,21.3-72.8,58.1-79.4
		C133,80,137.4,79.4,141.1,79.6z M142,104.2c-26.2-0.1-47.4,20.9-47.5,46.9c-0.1,26.4,21.2,47.9,47.3,47.9c26,0,47.3-21.3,47.3-47.3
		C189.2,125.3,168.4,104.3,142,104.2z"/>
	<path class="st0" d="M142,162.9c12.2,0,24.4,0,36.7,0c3.6,0,3.8,0.3,2.6,3.6c-6,16.2-22,27.1-39.5,27c-17.3,0-33.2-11.1-39.1-27.2
		c-1.2-3.1-1-3.4,2.5-3.4C117.3,162.9,129.6,162.9,142,162.9z"/>
	<path class="st0" d="M141.8,138.6c-11.8,0-23.7,0-35.5,0c-4.4,0-4.7-0.4-2.7-4.4c7.9-16.2,21-24.9,39-24.6
		c17.7,0.3,30.4,9.2,38,25.3c1.5,3.3,1.1,3.8-2.6,3.8C165.9,138.6,153.8,138.6,141.8,138.6z"/>
</g>
</svg>
