<?xml version="1.0" encoding="utf-8"?>
<!-- Generator: Adobe Illustrator 26.0.2, SVG Export Plug-In . SVG Version: 6.00 Build 0)  -->
<svg version="1.1" id="Capa_1" xmlns="http://www.w3.org/2000/svg" xmlns:xlink="http://www.w3.org/1999/xlink" x="0px" y="0px"
	 viewBox="0 0 300 300" style="enable-background:new 0 0 300 300;" xml:space="preserve">
<style type="text/css">
	.st0{fill:#009B41;}
</style>
<g>
	<path class="st0" d="M45.6,173c0-27.4,0-54.8,0-82.2c0-8.9-0.8-9.7-9.7-10c-6.2-0.2-11.2-2.8-13.8-8.6c-2.6-5.8-1.7-11.5,1.7-16.8
		c2.3-3.6,6.2-4.1,10.1-4.1c13.9,0,27.9,0,41.8,0c9.7,0,11.9-1.6,15.3-10.5c2.5-6.6,5.3-13,8.4-19.4c5.7-11.8,15.2-17.8,28.5-17.7
		c18.5,0.1,36.9,0.3,55.4-0.1c15.7-0.3,25.7,7.2,31.9,21c2.6,5.7,4.8,11.6,7.2,17.5c3.1,7.5,5.5,9.2,13.6,9.2c13.9,0,27.9,0,41.8,0
		c10.2,0,12.7,2.6,12.7,12.8c0,2.3,0.1,4.7,0,7c-0.2,6.1-3,9-9.2,9.6c-3.1,0.3-6.1,0.6-9.2,0.8c-3.3,0.2-4.7,2-4.7,5.1
		c0,2.2,0,4.4,0,6.6c0,52.9,0,105.8,0,158.8c0,12.8-2.7,24.7-11.7,34.5c-6.4,7-14.2,9.9-23.5,9.8c-36.6-0.1-73.3-0.1-110-0.1
		c-12,0-24,0-36.1,0c-26.4-0.1-40.5-14.1-40.6-40.6C45.5,228.1,45.6,200.5,45.6,173C45.6,173,45.6,173,45.6,173z M238.2,172.6
		C238.3,172.6,238.3,172.6,238.2,172.6c0.1-27.1,0.1-54.2,0-81.4c0-8.6-1.8-10.5-10.2-10.5c-47.6,0-95.3,0-142.9,0
		c-8.5,0-10.3,1.9-10.3,10.4c0,53.7,0,107.3,0.1,161c0,2.3,0,4.7,0.3,7c0.8,5.3,3,7.3,8.4,7.8c3.2,0.3,6.4,0.7,9.6,0.7
		c42.9,0,85.9,0,128.8,0c2,0,4.1,0,6.1-0.3c7.8-1.1,9.7-3.3,10-11.2c0.1-1.9,0.1-3.8,0.1-5.7C238.2,224.5,238.2,198.5,238.2,172.6z
		 M156.6,51.2C156.6,51.2,156.6,51.2,156.6,51.2c10.6,0,21.1,0,31.7-0.1c4.4,0,5.7-1.9,4.5-6.2c-2.1-7.6-8.6-12.6-16.5-12.6
		c-13,0-26.1,0-39.1,0c-10.9,0-12.7,1.3-16,11.7c-1.9,5.9-1,7.1,5.1,7.2C136.4,51.2,146.5,51.2,156.6,51.2z"/>
</g>
</svg>
