<?xml version="1.0" standalone="no"?>
<!DOCTYPE svg PUBLIC "-//W3C//DTD SVG 20010904//EN"
 "http://www.w3.org/TR/2001/REC-SVG-20010904/DTD/svg10.dtd">
<svg version="1.0" xmlns="http://www.w3.org/2000/svg"
 width="500.000000pt" height="500.000000pt" viewBox="0 0 500.000000 500.000000"
 preserveAspectRatio="xMidYMid meet">

<g transform="translate(0.000000,500.000000) scale(0.100000,-0.100000)"
fill="#000000" stroke="none">
<path d="M2335 4994 c-255 -25 -414 -57 -618 -124 -252 -83 -502 -215 -725
-382 -120 -90 -329 -292 -427 -413 -293 -361 -481 -800 -546 -1275 -17 -122
-17 -478 0 -600 65 -475 253 -914 546 -1275 98 -121 307 -323 427 -413 357
-268 760 -432 1208 -493 122 -17 478 -17 600 0 475 65 914 253 1275 546 121
98 323 307 413 427 267 356 432 761 493 1208 17 122 17 478 0 600 -61 447
-226 852 -493 1208 -90 120 -292 329 -413 427 -353 286 -784 475 -1240 541
-99 14 -422 26 -500 18z m1448 -1535 c49 -13 105 -63 128 -114 17 -38 19 -88
19 -845 0 -757 -2 -807 -19 -845 -23 -51 -79 -101 -128 -114 -55 -16 -2513
-15 -2568 0 -52 15 -119 82 -134 134 -15 55 -15 1594 0 1649 14 50 73 113 124
131 34 12 239 14 1290 15 843 0 1262 -4 1288 -11z"/>
<path d="M2896 3084 c-9 -8 -16 -26 -16 -39 0 -55 1 -55 389 -55 389 0 384 -1
384 55 0 56 5 55 -384 55 -312 0 -360 -2 -373 -16z"/>
<path d="M1359 2863 c-19 -23 -20 -326 -1 -345 19 -19 422 -19 445 1 15 11 17
37 17 177 0 151 -1 164 -19 174 -12 6 -102 10 -224 10 -178 0 -206 -2 -218
-17z"/>
<path d="M1360 2185 c-18 -22 -15 -66 6 -82 28 -20 322 -18 352 3 27 18 29 55
4 77 -26 24 -343 25 -362 2z"/>
<path d="M1912 2188 c-20 -20 -15 -76 7 -88 11 -5 86 -10 173 -10 123 0 158 3
176 16 24 16 28 44 12 75 -10 18 -23 19 -183 19 -121 0 -177 -4 -185 -12z"/>
<path d="M2462 2188 c-20 -20 -15 -76 7 -88 21 -11 300 -14 339 -4 27 8 39 46
23 80 l-11 24 -173 0 c-121 0 -177 -4 -185 -12z"/>
<path d="M3013 2188 c-23 -30 -23 -49 2 -74 23 -23 28 -24 172 -24 81 0 158 3
171 6 27 8 39 46 23 80 l-11 24 -174 0 c-127 0 -176 -3 -183 -12z"/>
<path d="M1366 1917 c-23 -17 -24 -63 -2 -85 15 -15 66 -17 542 -17 l526 0 19
24 c24 30 24 46 -1 71 -19 19 -33 20 -543 20 -419 0 -527 -3 -541 -13z"/>
</g>
</svg>
