<?xml version="1.0" encoding="utf-8"?>
<!-- Generator: Adobe Illustrator 26.0.2, SVG Export Plug-In . SVG Version: 6.00 Build 0)  -->
<svg version="1.1" id="Capa_1" xmlns="http://www.w3.org/2000/svg" xmlns:xlink="http://www.w3.org/1999/xlink" x="0px" y="0px"
	 viewBox="0 0 300 300" style="enable-background:new 0 0 300 300;" xml:space="preserve">
<style type="text/css">
	.st0{fill:#003C82;}
</style>
<g>
	<path class="st0" d="M162.4,294.6c-8,0-16.1,0-24.1,0c-3.5-0.5-7-1-10.5-1.5c-55.6-8.3-102.6-50.8-116.7-105.3
		c-2.1-8.2-3.3-16.5-4.5-24.8c0-8,0-16.1,0-24.1c0.1-0.7,0.3-1.3,0.4-2c3.9-36,18.6-66.9,45.4-91.3C88.1,12.8,130.4,0.6,177.8,9.7
		c76.6,14.7,126.4,86.5,114.7,163.6c-8.5,56.1-50.9,102.9-105.9,116.9C178.6,292.3,170.5,293.4,162.4,294.6z M151.7,269.9
		c4.9,0.1,11.2-0.3,17.5-1.4c19.8-3.3,37.8-10.9,53.8-23.2c1.9-1.5,1.8-2.5,0.2-4.1c-4.3-4.1-8.5-8.3-12.6-12.6
		c-1.8-1.9-2.7-1.9-4.3,0.2c-9,11.3-20.5,18.9-34.5,22.5c-10.8,2.8-21.8,3.2-32.8,1.9c-16.7-2-31-8.7-42.3-21.5
		c-9.3-10.5-15-22.8-18.9-36.1c-6.4-21.8-8-44.2-8.1-66.8c0-2.4-0.5-4.4-1.8-6.5c-6.4-10.1-5.2-22.1,3.1-30.7
		c1.3-1.3,0.5-1.9-0.3-2.8c-3.5-3.5-7-7.1-10.6-10.6c-2.5-2.5-2.6-2.5-4.7,0.4c-20.4,27.4-28,58.1-22.6,91.6
		C42,227.9,91.9,269.8,151.7,269.9z M269.3,151c0.1-6.7-0.4-13.4-1.5-20c-11.9-66.3-73.4-109.1-139.5-97.1
		c-18.6,3.4-35.4,11-50.5,22.5c-1.9,1.5-2.1,2.6-0.3,4.3c2.9,2.7,5.6,5.5,8.3,8.3c1.4,1.5,2.4,1.6,4,0.1c3.4-3.3,7.2-6,11.3-8.3
		c23.4-13.4,48.2-16.1,74.1-9.5c21.6,5.5,38.9,17.2,49.8,37.3c0.5,1,1.2,1.7,2.1,2.3c11.7,6.3,11.6,25.4,5.1,32.8
		c-1,1.1-1.3,2.3-1.3,3.7c0,7.5,0,14.9-0.5,22.4c-1.1,17.2-3.5,34.1-9,50.5c-0.9,2.6-0.4,4.2,1.5,6c5.9,5.7,11.5,11.5,17.3,17.2
		c2.6,2.6,2.8,2.6,5-0.3C261.2,201.6,269.2,177.6,269.3,151z M150.1,241c2.3,0,4.6,0.2,6.9,0c16.4-1.3,30-7.9,40.2-21
		c1.5-1.9,1.4-3.1-0.3-4.8c-6.9-6.8-13.8-13.6-20.5-20.5c-1.5-1.5-3.2-2.4-5.3-2.6c-6.2-0.7-12.2-2.6-17.9-5.2
		c-1.9-0.9-3.5-0.8-5.4,0.1c-9.3,4.2-19,6.2-29.3,5.6c-10-0.5-19.2-3.5-27.9-8.1c-0.8-0.4-1.7-1.5-2.5-0.8c-0.8,0.7,0,1.8,0.2,2.7
		c1.7,7,3.9,13.8,7,20.3c3.9,8.3,8.9,15.9,16,21.8C122.6,237.9,135.8,241.3,150.1,241z M136.1,118.4c0.3,0.6,0.3,1,0.5,1.1
		c7.5,7.5,15,15.1,22.5,22.6c0.9,0.9,1.9,1,3.2,0.9c10.9-0.9,21.6-2.8,32.2-5.7c7-1.9,14.1-2.9,21.3-1.6c1.7,0.3,2.6-0.3,2.6-2
		c0-2.7,0-5.4,0-8c0-2.4-1.2-3.6-3.7-3.8c-6.3-0.6-12.6-1.3-18.8-1.9c-10.2-1-20.4-1.2-30.7-1.5C155.6,118.1,146,118.4,136.1,118.4z
		 M121.8,140.2c-6.7-6.7-12.9-13-19.1-19.2c-0.6-0.6-1.4-1-2.3-0.9c-5.1,0.6-10.2,1.3-15.3,2c-1.7,0.2-2.5,1.2-2.4,2.9
		c0,3,0,5.9,0,8.9c0,1.8,0.7,2.4,2.5,2c2.9-0.7,5.9-0.8,8.8-0.7c6.8,0.2,13.2,2.1,19.7,3.7C116,139.5,118.5,140.3,121.8,140.2z
		 M115.4,173.8c1.8,0.1,4.7-0.5,7.6-1.4c6.6-2.1,6.8-2.8,2.4-8.2c-8.4-10.2-18.5-11-29.9-5.9c-1.3,0.6-2.3,1.3-1.2,2.8
		C99,168.3,104.8,174,115.4,173.8z M193.4,155.1c-4.7,0.2-8.9,1.7-12.7,4.6c-1.7,1.3-2,2.2-0.3,3.8c2.9,2.7,5.8,5.6,8.5,8.5
		c1.4,1.5,2.8,1.7,4.6,1.1c6.2-2.2,10.4-6.6,13.8-11.9c0.9-1.3,0.3-2.1-0.9-2.7C202.3,156.4,198,155.4,193.4,155.1z M212.7,185.1
		c0-1.4-0.6-1.4-1.5-1c-1.5,0.7-2.9,1.4-4.3,2.2c-0.8,0.4-2.6,0.7-1.4,2.1c1.4,1.6,2.5,3.6,4.8,4.1c0.1,0,0.4-0.4,0.5-0.7
		C211.4,189.5,212.1,187.2,212.7,185.1z"/>
</g>
</svg>
