<?xml version="1.0" encoding="utf-8"?>
<!-- Generator: Adobe Illustrator 26.0.2, SVG Export Plug-In . SVG Version: 6.00 Build 0)  -->
<svg version="1.1" id="Capa_1" xmlns="http://www.w3.org/2000/svg" xmlns:xlink="http://www.w3.org/1999/xlink" x="0px" y="0px"
	 viewBox="0 0 300 300" style="enable-background:new 0 0 300 300;" xml:space="preserve">
<style type="text/css">
	.st0{fill:#003C82;}
</style>
<path class="st0" d="M271,228.6c-25-25-49.9-49.9-74.9-74.9c-3.4-3.4-3.4-3.4,0.1-6.9c31-31,62.1-62.1,93.1-93.2
	c10.9-10.9,12.7-26.6,4.5-38.7c-4.7-7-11.5-11-19.5-13c-3.6,0-7.1,0-10.7,0c-7.6,1.7-13.5,6-19,11.5c-30.3,30.5-60.7,60.8-91.1,91.2
	c-1.3,1.3-2.1,2-2.7,2.3c-0.7-0.3-1.4-1-2.7-2.3c-30.4-30.4-60.8-60.7-91.1-91.2C51.5,8,45.6,3.7,38,2c-3.6,0-7.1,0-10.7,0
	c-8.1,2-14.8,5.9-19.5,13c-8.2,12.2-6.4,27.8,4.5,38.7c31,31.1,62.1,62.1,93.1,93.2c3.5,3.5,3.5,3.5,0.1,6.9
	c-25,25-49.9,49.9-74.9,74.9c-6.4,6.4-12.8,12.6-19.1,19.1c-15.5,16-9.8,42,10.9,49.3c12.3,4.3,23.2,1.4,32.4-7.8
	c31.1-31,62.1-62.1,93.2-93.1c1.4-1.4,2.2-2.2,2.9-2.4c0.7,0.3,1.5,1.1,2.9,2.4c31,31,62.1,62.1,93.2,93.1
	c9.2,9.2,20.1,12.1,32.4,7.8c20.7-7.3,26.3-33.3,10.9-49.3C283.8,241.2,277.4,235,271,228.6z"/>
</svg>
