<?xml version="1.0" encoding="utf-8"?>
<!-- Generator: Adobe Illustrator 26.0.2, SVG Export Plug-In . SVG Version: 6.00 Build 0)  -->
<svg version="1.1" id="Capa_1" xmlns="http://www.w3.org/2000/svg" xmlns:xlink="http://www.w3.org/1999/xlink" x="0px" y="0px"
	 viewBox="0 0 300 300" style="enable-background:new 0 0 300 300;" xml:space="preserve">
<style type="text/css">
	.st0{fill:#003C82;}
</style>
<g>
	<path class="st0" d="M290.6,286.1c-2.6,4.1-5.1,4.9-9.7,3.2c-35.9-13.3-67.9-32.9-96.1-58.8c-8.4-7.7-15.8-16.3-24.1-24.1
		c-1.7-1.6-3.3-4-5.3-4.4c-2.1-0.5-3.1,2.7-4.8,4.1c-3.8,3.2-7.6,6.3-12.2,8.3c-9,3.9-17.6,1.2-22.6-7.3c-0.9-1.5-1.7-2.1-3.5-1.5
		c-13.2,4.2-23.5-4.7-24.2-18c-0.2-4.1,0.2-8.2,1.2-12.2c0.4-1.5-0.1-2.2-1.5-2.7c-9.5-3.6-13.6-11.1-14.2-20.8
		c-0.2-2.5-0.9-3.6-3.4-3.9c-30.7-4.2-54.9-28.8-58.8-59.6C6.7,50.7,32.8,16.3,70.4,11c0.5-0.1,1.1-0.3,1.6-0.4c5.4,0,10.8,0,16.2,0
		c4.2,0.9,8.4,1.5,12.5,2.9c18,5.9,31.7,17,40.6,33.8c1.2,2.2,2.4,3.2,5,3c4-0.3,8,0.1,11.9,0.9c16.7,3.7,33.6,6.4,50.8,6.5
		c9.1,0,17.4,3,23.6,10.3c3.1,3.6,5.9,7.5,8.4,11.5c16.5,26.2,33,52.5,49.5,78.8c0,1.5,0,3,0,4.5c-4,5.3-8.6,5.3-12-0.1
		c-11.7-18.6-23.3-37.3-35.1-55.8c-6.1-9.7-11.8-19.6-18.7-28.8c-3.2-4.3-7.4-6.7-12.6-7.4c-3.3-0.4-6.7-0.6-10-0.7
		c-10.2-0.1-20.2-1-30.2-3.2c-6.7-1.5-13.4-3-20.3-3.9c-3.8-0.5-4.1-0.2-3.4,3.5c1.6,8.4,1.7,16.8,0.2,25.3c-0.4,2,0.1,3.2,2,3.9
		c2.9,1.1,5.7,2.4,8.5,3.5c7.2,3,14.6,3.6,22.1,1.3c3.6-1.1,6.5,0.4,7.9,3.8c1.4,3.3,2.8,6.5,4.6,9.6c4.7,7.8,10.2,14.9,17.9,20
		c1.7,1.1,2.7,1.1,3-1.1c0.1-0.5,0.3-0.9,0.4-1.3c1.1-3.5,3.9-5.4,7.1-4.9c3.2,0.4,5.3,2.9,5.5,6.4c0.1,2.8-0.7,5.3-1.8,7.8
		c-5.4,12-17.8,18.2-31.4,15.7c-12.9-2.3-24.4-8.3-35.9-14.3c-11-5.7-21.6-12.1-33-17c-3.8-1.6-7.8-2.7-11.9-2.5
		c-7.7,0.3-12.4,5.4-11.6,12.3c0.4,3.3,2.4,5.6,4.5,7.8c7,7.5,14.9,14,22.9,20.4c19.4,15.6,38.5,31.5,55.5,49.8
		c4.8,5.2,10,10,15.4,14.6c25.3,21.7,53.5,38.4,84.8,49.9c2.4,0.9,4.3,2.1,5.7,4.2C290.6,283.1,290.6,284.6,290.6,286.1z M87,65.8
		c0-2,0-3.9,0-5.9c-0.1-2.4,1-2.7,3-1.9c2,0.8,3.3,2.2,4.6,3.9c1.9,2.5,5.1,3,7.4,1.4c2.5-1.7,3.1-4.8,1.3-7.7
		c-2.3-3.8-5.5-7.2-9.8-7.8c-6.3-0.8-7-4.2-6.7-9.4c0.3-3.9-2.9-6.9-6.5-7c-3.6-0.1-6.6,2.7-6.9,6.7c-0.1,1.6-0.2,3.2,0,4.7
		c0.3,2.6-0.8,3.6-3.3,4c-5.2,0.7-9.4,3.5-12.5,7.8c-8.4,11.6-1.5,28,12.7,30c2.4,0.3,3.1,1.3,3,3.6c-0.1,3.6,0,7.3-0.1,10.9
		c0,2.5-0.7,2.9-3.1,2c-1.8-0.7-3.1-2-4.2-3.5c-2.1-2.8-5.4-3.4-7.8-1.6c-2.5,1.8-2.9,5-0.9,7.9c2.9,4.4,7,7.2,12.1,8.3
		c4,0.8,4,0.8,4,5c0,1.4-0.1,2.8,0.1,4.2c0.5,3.8,3.5,6.5,7,6.3c3.6-0.2,6.3-3,6.5-6.8c0.1-1,0-2,0-3.1c0-4.7,0-4.7,4.5-5.7
		c8-1.8,14.2-9,14.6-17c0.5-9.5-4.5-17-12.7-19.9c-2.1-0.7-5.2,0.3-6.2-2.2c-0.8-2-0.2-4.6-0.3-6.9C87,66,87,65.9,87,65.8z
		 M203.3,143.9c-0.2-0.5-0.3-0.7-0.4-0.8c-9.8-7.3-17.1-16.7-22.6-27.6c-0.8-1.5-1.7-1.6-3.2-1.4c-8.4,1.2-16.3-0.6-24-3.7
		c-2.2-0.9-4.3-1.7-6.4-2.7c-1.9-0.9-3.1-0.8-3.9,1.3c-0.7,1.8-1.7,3.5-2.7,5.2c-1.7,3.1-1.7,3.1,1.6,4.8c4.4,2.3,8.7,4.6,13.1,7
		c10.5,5.6,20.9,11.5,32.1,15.5C192.2,143.2,197.4,144.7,203.3,143.9z M100.6,185.1c0,8.9,4,11.3,11.8,7.2c0.7-0.3,1.3-0.7,1.9-1.1
		c4.5-2.9,8.2-6.7,11.7-10.7c1.4-1.6,1.3-2.6-0.3-3.9c-3.6-2.8-7.1-5.7-10.6-8.7c-1.3-1.1-2.3-1.1-3.7-0.2c-1.9,1.3-4,2.4-6.1,3.5
		c-1,0.5-1.9,1.2-2.3,2.3C101.8,177.2,100.7,181,100.6,185.1z M130.8,203.5c0.3-0.1,0.7-0.1,1.1-0.2c5.7-1.4,9.3-5.5,13.1-9.5
		c0.9-0.9,0-1.5-0.6-2c-1.5-1.3-3.1-2.4-4.5-3.8c-1.8-1.9-3-1.3-4.4,0.5c-2.2,2.9-4.8,5.4-7.5,7.8c-1.1,1-2.6,1.7-1.7,3.6
		C127.2,201.9,128.3,203.5,130.8,203.5z M86.1,151.5c0,7.4,5.2,11.2,11.9,9c1.2-0.4,2.4-1,3.6-1.5c1.6-0.7,2-1.4,0.5-2.7
		c-1.9-1.7-4-3.4-5.4-5.6c-2.1-3-4.7-3-7.7-2.3C87,148.7,85.9,149.6,86.1,151.5z"/>
	<path class="st0" d="M87,93c0-1.9,0.1-3.7,0-5.6c-0.1-2.2,1-2.5,2.8-1.9c3.3,1.1,5.7,4.3,5.7,7.8c0.1,3.3-2.4,6.7-5.6,7.9
		c-1.8,0.7-2.9,0.4-2.8-1.8C87,97.3,87,95.1,87,93z"/>
	<path class="st0" d="M73.3,65.8c0,2-0.1,4.1,0,6.1c0.1,2.1-1,2.3-2.6,1.9c-3.2-0.9-5.9-4.6-5.8-8c0.1-3.6,3-7.3,6.3-8
		c1.5-0.3,2.1,0.2,2.1,1.6C73.3,61.5,73.3,63.6,73.3,65.8C73.3,65.8,73.3,65.8,73.3,65.8z"/>
</g>
</svg>
