<?xml version="1.0" encoding="utf-8"?>
<!-- Generator: Adobe Illustrator 26.0.2, SVG Export Plug-In . SVG Version: 6.00 Build 0)  -->
<svg version="1.1" id="Capa_1" xmlns="http://www.w3.org/2000/svg" xmlns:xlink="http://www.w3.org/1999/xlink" x="0px" y="0px"
	 viewBox="0 0 300 300" style="enable-background:new 0 0 300 300;" xml:space="preserve">
<style type="text/css">
	.st0{fill:#003C82;}
</style>
<g>
	<path class="st0" d="M41.2,261.4c0-50.4,0-100.7,0-151.1c0.2-0.8,0.5-1.7,0.7-2.5C46.1,91,58.5,79.5,75.5,76.9
		c5.2-0.8,10.4-0.2,15.6-0.3c4.4-0.1,4.4,0,4.4-4.3c0-14.5,0-28.9,0-43.4c0-5.9,1.8-11.2,5.6-15.7c3.3-3.9,7.7-6,12.4-7.6
		c24.5,0,49,0,73.5,0c13.6,4.1,18.4,14.4,18.1,26.2c-0.4,13.7-0.1,27.4-0.1,41.1c0,3.6,0.2,3.7,3.8,3.7c3.8,0,7.5,0,11.3,0
		c21.6,0.1,39.3,17.8,39.4,39.5c0.1,46.5,0,93,0,139.4c0,21.9-17.7,39.6-39.5,39.6c-46.4,0.1-92.9,0-139.3,0c-9.5,0-17.7-3.1-25-9
		C47.7,279.8,43.3,271.3,41.2,261.4z M150.3,76.6c9.1,0,18.1-0.1,27.2,0.1c2.8,0,3.7-0.9,3.7-3.7c-0.1-13.3-0.1-26.6,0-39.9
		c0-2.7-0.9-3.7-3.6-3.7c-18.1,0.1-36.2,0.1-54.3,0c-2.8,0-3.7,0.9-3.7,3.7c0.1,13.3,0.1,26.6,0,39.9c0,2.8,0.8,3.7,3.6,3.7
		C132.2,76.5,141.2,76.6,150.3,76.6z"/>
</g>
</svg>
