<?xml version="1.0" encoding="utf-8"?>
<!-- Generator: Adobe Illustrator 26.0.2, SVG Export Plug-In . SVG Version: 6.00 Build 0)  -->
<svg version="1.1" id="Capa_1" xmlns="http://www.w3.org/2000/svg" xmlns:xlink="http://www.w3.org/1999/xlink" x="0px" y="0px"
	 viewBox="0 0 300 300" style="enable-background:new 0 0 300 300;" xml:space="preserve">
<style type="text/css">
	.st0{fill:#003C82;}
</style>
<g>
	<path class="st0" d="M136.8,3.6c9,0,18,0,27,0c2.2,9,4.5,18,6.7,27c0.5,2,1.6,2.9,3.6,3.3c4.7,0.9,9.4,2.1,13.9,3.7
		c2.1,0.8,3.4,0.3,4.9-1.2c5.6-6,11.5-11.8,17.1-17.8c1.7-1.9,3.1-2,5.3-0.7c5.9,3.5,11.8,6.9,17.8,10.3c1.9,1,2.3,2.2,1.7,4.3
		c-2.3,7.8-4.4,15.6-6.8,23.4c-0.7,2.5-0.4,4.2,1.6,6c3.3,2.9,6.4,6.1,9.3,9.3c1.8,2,3.5,2.3,6,1.6c7.8-2.3,15.6-4.4,23.4-6.8
		c2.1-0.6,3.2-0.1,4.3,1.7c3.4,6.1,6.8,12.1,10.4,18c1.2,1.9,1,3.2-0.6,4.8c-6,5.7-11.9,11.6-18,17.3c-1.6,1.5-2,2.8-1.2,4.9
		c1.6,4.4,2.9,8.9,3.7,13.6c0.4,2.4,1.6,3.4,3.9,4c7.8,1.8,15.5,3.9,23.3,5.8c2.4,0.6,3.4,1.6,3.4,4.2c-0.2,6.7-0.2,13.5,0,20.2
		c0.1,2.6-1,3.6-3.4,4.2c-7.9,1.9-15.7,3.9-23.6,5.8c-2.1,0.5-3.2,1.5-3.6,3.6c-0.8,4.7-2.1,9.4-3.7,13.9c-0.8,2.1-0.3,3.4,1.2,4.9
		c6,5.7,11.9,11.6,18,17.3c1.7,1.6,1.8,2.9,0.6,4.8c-3.6,6-7,12-10.4,18c-1,1.9-2.2,2.3-4.3,1.7c-7.8-2.3-15.6-4.4-23.4-6.8
		c-2.5-0.7-4.2-0.4-6,1.6c-2.9,3.3-6.1,6.4-9.3,9.3c-2,1.8-2.3,3.5-1.6,6c2.3,7.8,4.4,15.6,6.8,23.4c0.6,2.1,0.1,3.2-1.7,4.3
		c-6.1,3.4-12.1,6.8-18,10.4c-1.9,1.2-3.2,1-4.8-0.6c-5.8-6.1-11.7-12.1-17.5-18.2c-1.3-1.4-2.6-1.8-4.4-1.1
		c-4.5,1.6-9.1,2.9-13.9,3.7c-2.4,0.4-3.4,1.6-4,3.9c-1.8,7.8-3.9,15.5-5.8,23.3c-0.6,2.4-1.6,3.4-4.2,3.4c-6.7-0.2-13.5-0.2-20.2,0
		c-2.6,0.1-3.6-1-4.2-3.4c-1.9-7.9-3.9-15.7-5.8-23.6c-0.5-2.1-1.5-3.2-3.6-3.6c-4.7-0.8-9.4-2.1-13.9-3.7c-2.1-0.8-3.4-0.3-4.9,1.2
		c-5.6,6-11.5,11.8-17.1,17.8c-1.7,1.9-3.1,2-5.3,0.7c-5.9-3.5-11.8-6.9-17.8-10.3c-1.9-1-2.3-2.2-1.7-4.3
		c2.3-7.8,4.4-15.6,6.8-23.4c0.7-2.5,0.4-4.2-1.6-6c-3.3-2.9-6.4-6.1-9.3-9.3c-1.8-2-3.5-2.3-6-1.6c-7.8,2.3-15.6,4.4-23.4,6.8
		c-2.1,0.6-3.2,0.2-4.3-1.7c-3.3-6-6.7-11.9-10.3-17.8c-1.3-2.1-1.2-3.5,0.7-5.3c6-5.6,11.8-11.4,17.8-17.1c1.6-1.5,2-2.8,1.2-4.9
		c-1.7-4.5-2.9-9.1-3.7-13.9c-0.4-2.2-1.5-3.1-3.6-3.6c-8.9-2.1-17.8-4.4-26.8-6.6c0-9,0-18,0-27c9-2.2,18-4.5,27-6.7
		c2-0.5,2.9-1.6,3.3-3.6c0.8-4.7,2.1-9.4,3.7-13.9c0.8-2.1,0.3-3.4-1.2-4.9c-6-5.6-11.8-11.5-17.8-17.1c-1.9-1.7-2-3.1-0.7-5.3
		c3.5-5.9,6.9-11.8,10.3-17.8c1-1.9,2.2-2.3,4.3-1.7c7.8,2.3,15.6,4.4,23.4,6.8c2.5,0.7,4.2,0.5,5.9-1.6c2.8-3.4,5.9-6.5,9.3-9.3
		c2.1-1.7,2.3-3.5,1.6-5.9c-2.3-7.8-4.4-15.6-6.8-23.4c-0.6-2.1-0.1-3.2,1.7-4.3c6-3.3,11.9-6.7,17.8-10.3c2.1-1.3,3.5-1.2,5.3,0.7
		c5.7,6.1,11.6,12,17.3,18c1.3,1.4,2.6,1.8,4.4,1.1c4.6-1.7,9.3-3,14.1-3.8c2.1-0.4,3.1-1.5,3.6-3.6
		C132.3,21.4,134.6,12.5,136.8,3.6z M150.1,235.4c47.3,0.1,85.1-37.5,85.3-84.7c0.2-47.4-37.5-85.4-84.8-85.5
		c-47.4-0.1-85.3,37.5-85.4,84.9C65.1,197.5,102.8,235.4,150.1,235.4z"/>
</g>
</svg>
