<?xml version="1.0" encoding="utf-8"?>
<!-- Generator: Adobe Illustrator 26.0.2, SVG Export Plug-In . SVG Version: 6.00 Build 0)  -->
<svg version="1.1" id="Capa_1" xmlns="http://www.w3.org/2000/svg" xmlns:xlink="http://www.w3.org/1999/xlink" x="0px" y="0px"
	 viewBox="0 0 300 300" style="enable-background:new 0 0 300 300;" xml:space="preserve">
<style type="text/css">
	.st0{fill:#003C82;}
</style>
<g>
	<path class="st0" d="M142.1,294.6c-4.4-0.9-8.8-1.7-13-3.5c-12-5-18.6-14.6-22.1-26.5c-4.6-15.6-5-31.6-4-47.6
		c0.6-10.2,2.3-20.2,6.1-29.7c5.8-14.6,16.8-22.5,32.2-24.7c6.8-1,13.6-0.8,20.4,0.5c14.6,2.7,24.4,11.1,29.8,24.9
		c3.4,8.7,4.9,17.7,5.6,26.9c1.1,14.6,0.8,29.1-2.2,43.4c-0.9,4.4-2.2,8.7-4,12.9c-5.7,13.5-16.1,20.7-30.3,23
		c-0.8,0.1-1.5,0.3-2.3,0.5C153,294.6,147.6,294.6,142.1,294.6z M132.3,228.8c0,2.7-0.1,5.5,0,8.2c0.4,6.8,1,13.6,3.3,20.2
		c1.1,3,2.8,5.4,5.6,6.9c10.6,5.6,22.2,0.6,24.8-11c2.9-12.9,2.6-26,1.5-39.1c-0.4-5.1-1.3-10.1-3.2-14.8c-1.4-3.5-3.7-6.3-7.5-7.3
		c-9.3-2.5-19.2-1.4-22.2,11.9C132.7,212.1,132.1,220.4,132.3,228.8z"/>
	<path class="st0" d="M3.6,192.5c1.3-5,2.4-10.1,5.3-14.5c7.1-10.9,17.8-15.2,30.1-16c12.7-0.8,25.1,1.4,37.5,4
		c3.5,0.8,5.4,3.1,5.2,6.7c-0.3,5.1-0.7,10.1-1.3,15.2c-0.5,4.1-3.7,6.2-7.8,5.6c-9.2-1.2-18.4-2.4-27.7-2.6c-1.5,0-2.9,0.1-4.4,0.3
		c-6.8,1.2-8.6,3.5-8.2,10.4c0.2,2.6,1.3,4.4,3.7,5.5c4.7,2.4,9.7,4.1,14.7,5.7c6.2,2.1,12.3,4.3,18,7.7c7.4,4.5,12.1,10.9,14,19.4
		c2.1,9.9,1.8,19.8-1.3,29.5c-4.4,13.7-14.2,21.6-28.1,24.5c-0.8,0.2-1.5,0.4-2.3,0.5c-5.9,0-11.7,0-17.6,0c-0.7-0.1-1.3-0.4-2-0.4
		c-7.4-0.7-14.7-2.2-21.9-4c-3.5-0.9-5.4-3.1-5.2-6.5c0.4-5.2,0.9-10.3,1.6-15.4c0.5-3.6,3.1-5.6,6.8-5.4c2.2,0.1,4.5,0.6,6.7,0.8
		c8.1,1,16.3,2.2,24.5,2c6.6-0.2,9.6-2.9,10.6-9.3c1.1-6.9-0.2-9.2-6.5-11.8c-0.8-0.3-1.6-0.6-2.5-0.9c-6.3-2.4-12.9-3.8-19.1-6.5
		C14.3,231.7,5.9,223.3,4,209.5c-0.1-0.4-0.2-0.7-0.4-1.1C3.6,203.1,3.6,197.8,3.6,192.5z"/>
	<path class="st0" d="M246.5,294.6c-7.3-1.3-14.7-2.3-21.9-4c-5.8-1.4-7.6-3.7-6.8-9.5c0.5-4.1,0.9-8.2,1.5-12.2
		c0.7-4.7,3.2-6.7,7.9-6c7.4,1,14.7,2,22.1,2.6c3.9,0.3,7.8,0.6,11.7-0.3c3.6-0.8,5.8-3,6.6-6.6c0.1-0.5,0.2-0.9,0.3-1.4
		c1.3-7.2-0.1-9.7-6.7-12.6c-4.7-2-9.6-3.2-14.5-4.8c-5.4-1.8-10.5-4.1-15.3-7.3c-7.2-4.7-11.6-11.2-13.4-19.5
		c-1.8-8-2-16.1-0.2-24.1c3.2-14.3,14.8-24.4,29.9-26.3c12.7-1.6,25.1,0.2,37.5,2.6c9.5,1.8,10.2,2.9,9.4,12.5
		c-0.3,3.4-0.6,6.8-1.1,10.2c-0.5,4.1-3.5,6.3-7.6,5.8c-9.3-1.1-18.6-2.4-28-2.6c-2.4,0-4.7,0.3-6.9,0.9c-3.5,1-5.2,3.1-5.5,6.7
		c-0.2,3.5,0.1,6.9,3.9,8.7c4.8,2.3,9.8,4,14.8,5.7c6,2,11.9,4.3,17.5,7.5c8.7,5.1,13.6,12.7,14.9,22.6c1.2,9.3,1,18.5-2.2,27.5
		c-4.1,11.6-12.2,19.1-24,22.5c-1.9,0.5-3.8,1-5.7,1.5C258.6,294.6,252.6,294.6,246.5,294.6z"/>
	<path class="st0" d="M150,129.3c-12.3,0-24.6,0-36.9,0c-2.3,0-3.5-0.6-3.3-3.1c1-17,5.1-33,16.4-46.4c13.3-15.8,34.8-15.8,48.2,0
		c9.9,11.6,14.4,25.3,15.9,40.2c0.2,1.8,0.3,3.7,0.5,5.5c0.3,2.7-0.6,3.8-3.6,3.8C174.9,129.2,162.4,129.3,150,129.3z"/>
	<path class="st0" d="M49.7,129.3c-12.2,0-24.4-0.1-36.6,0.1c-2.8,0-3.8-0.8-3.7-3.7c0.9-16,4.6-31.1,14.8-44
		c14.9-18.7,37-18.5,51.7,0.5c7.8,10.1,11.7,21.7,13.5,34.2c0.4,3,0.5,6,0.7,9c0.2,3.8,0.2,3.8-3.7,3.8
		C74.1,129.3,61.9,129.3,49.7,129.3z"/>
	<path class="st0" d="M250.5,129.3c-12.2,0-24.4-0.1-36.6,0.1c-2.9,0-3.5-0.8-3.4-3.7c0.5-12.8,3.3-25,9.6-36.2
		c4.8-8.6,11-15.8,20.4-19.5c12.1-4.7,22.7-1.5,31.8,7.1c9.7,9.1,14.5,20.9,17.3,33.6c1.1,5.1,1.7,10.2,1.8,15.4
		c0.1,2.4-0.8,3.2-3.2,3.2C275.5,129.3,263,129.3,250.5,129.3z"/>
	<path class="st0" d="M150.3,59.6c-14.8,0-26.6-11.7-26.5-26.3c0-14.6,11.8-26.2,26.6-26.2c14.6,0,26.4,11.7,26.4,26.2
		C176.9,47.9,165.1,59.6,150.3,59.6z"/>
	<path class="st0" d="M49.6,59.6c-14.9-0.1-26.1-11.6-26.2-26.9c0-13.6,11.9-26.3,27.3-25.8c13.9,0.5,25.9,12.5,25.6,26.5
		C76.1,48.2,64.4,59.6,49.6,59.6z"/>
	<path class="st0" d="M250.8,59.6c-14.7,0-26.7-11.8-26.6-26.3C224.3,18.8,236.1,7,250.6,7c15,0,26.5,11.4,26.5,26.2
		C277.2,48.1,265.7,59.6,250.8,59.6z"/>
</g>
</svg>
