<?xml version="1.0" encoding="utf-8"?>
<!-- Generator: Adobe Illustrator 26.0.2, SVG Export Plug-In . SVG Version: 6.00 Build 0)  -->
<svg version="1.1" id="Capa_1" xmlns="http://www.w3.org/2000/svg" xmlns:xlink="http://www.w3.org/1999/xlink" x="0px" y="0px"
	 viewBox="0 0 300 300" style="enable-background:new 0 0 300 300;" xml:space="preserve">
<style type="text/css">
	.st0{fill:#003C82;}
</style>
<g>
	<path class="st0" d="M50.8,25.6c66.3,0,132.6,0,198.9,0c0.7,0.2,1.3,0.3,2,0.5c26.2,5,44.2,26.5,44.2,53.2c0,47.8,0.1,95.5,0,143.3
		c0,28.8-23.8,52.6-52.6,52.6c-61.9,0.1-123.8,0.1-185.8,0c-17.8,0-31.9-7.8-42.6-21.9c-5.5-7.2-8.3-15.5-10-24.2
		c0-52.5,0-105,0-157.6c0.3-1.2,0.6-2.4,0.8-3.7c2.9-13.4,10-24.1,20.9-32.3C33.9,30.1,42.1,27.2,50.8,25.6z M81.2,113.8
		c7.4,0,14.7-0.1,22.1,0c2.5,0,3.5-0.8,3.5-3.4c-0.1-10.3-0.1-20.5,0-30.8c0-2.4-0.8-3.5-3.4-3.5c-14.8,0.1-29.6,0.1-44.4,0
		c-2.5,0-3.5,0.9-3.5,3.4c0.1,10.3,0.1,20.5,0,30.8c0,2.7,1.1,3.5,3.7,3.5C66.5,113.7,73.8,113.8,81.2,113.8z M150.2,113.8
		c7.4,0,14.7-0.1,22.1,0c2.6,0,3.6-0.8,3.6-3.5c-0.1-10.2-0.1-20.3,0-30.5c0-2.6-0.8-3.7-3.5-3.7c-14.7,0.1-29.4,0.1-44.2,0
		c-2.5,0-3.5,0.9-3.4,3.4c0.1,10.3,0.1,20.5,0,30.8c0,2.7,1.1,3.5,3.6,3.4C135.6,113.7,142.9,113.8,150.2,113.8z M219.5,113.8
		c7.4,0,14.7-0.1,22.1,0c2.7,0,3.6-1,3.6-3.6c-0.1-10.2-0.1-20.3,0-30.5c0-2.6-0.9-3.6-3.6-3.6c-14.7,0.1-29.4,0.1-44.1,0
		c-2.7,0-3.6,1.1-3.5,3.6c0.1,10.2,0.1,20.3,0,30.5c0,2.6,0.9,3.6,3.6,3.6C204.8,113.7,212.2,113.8,219.5,113.8z M81.1,131.5
		c-7.4,0-14.7,0.1-22.1,0c-2.4,0-3.6,0.7-3.6,3.3c0.1,10.4,0.1,20.7,0,31.1c0,2.4,1.1,3.2,3.4,3.2c14.8-0.1,29.6-0.1,44.5,0
		c2.5,0,3.4-1,3.4-3.4c-0.1-10.2-0.1-20.3,0-30.5c0-2.9-1.1-3.7-3.8-3.6C95.6,131.6,88.4,131.5,81.1,131.5z M150.1,169
		c7.4,0,14.7-0.1,22.1,0c2.6,0,3.7-0.7,3.6-3.5c-0.1-10.3-0.1-20.5,0-30.8c0-2.6-1-3.3-3.5-3.3c-14.7,0.1-29.4,0.1-44.1,0
		c-2.7,0-3.5,1.1-3.5,3.6c0.1,10.2,0.1,20.3,0,30.5c0,2.7,1,3.5,3.6,3.5C135.6,168.9,142.9,169,150.1,169z M219.8,131.5
		c-7.5,0-14.9,0.1-22.4,0c-2.5,0-3.5,0.8-3.5,3.4c0.1,10.3,0.1,20.5,0,30.8c0,2.5,0.9,3.4,3.4,3.4c14.8-0.1,29.6-0.1,44.5,0
		c2.6,0,3.4-1.1,3.4-3.5c-0.1-10.2-0.1-20.3,0-30.5c0-2.6-1-3.6-3.6-3.6C234.3,131.6,227,131.5,219.8,131.5z M81.1,186.8
		c-7.4,0-14.7,0.1-22.1,0c-2.7,0-3.6,0.9-3.6,3.6c0.1,10.2,0.1,20.3,0,30.5c0,2.6,0.9,3.6,3.6,3.6c14.7-0.1,29.4-0.1,44.1,0
		c2.7,0,3.6-1,3.6-3.6c-0.1-10.2-0.1-20.3,0-30.5c0-2.6-0.9-3.6-3.6-3.6C95.8,186.9,88.4,186.8,81.1,186.8z M150.3,186.8
		c-7.4,0-14.7,0.1-22.1,0c-2.5,0-3.5,0.8-3.4,3.4c0.1,10.3,0.1,20.5,0,30.8c0,2.7,1.1,3.5,3.6,3.5c14.6-0.1,29.2-0.1,43.9,0
		c2.6,0,3.6-0.9,3.6-3.6c-0.1-10.2-0.1-20.3,0-30.5c0-2.9-1.1-3.7-3.8-3.6C164.8,186.9,157.5,186.8,150.3,186.8z M219.6,224.4
		c7.4,0,14.7,0,22.1,0c2.5,0,3.5-0.9,3.5-3.4c-0.1-10.3-0.1-20.5,0-30.8c0-2.4-0.8-3.5-3.4-3.5c-14.8,0.1-29.6,0.1-44.4,0
		c-2.5,0-3.5,0.8-3.5,3.4c0.1,10.3,0.1,20.5,0,30.8c0,2.7,1.1,3.6,3.7,3.5C204.9,224.4,212.3,224.4,219.6,224.4z"/>
</g>
</svg>
