<?xml version="1.0" encoding="utf-8"?>
<!-- Generator: Adobe Illustrator 26.0.2, SVG Export Plug-In . SVG Version: 6.00 Build 0)  -->
<svg version="1.1" id="Capa_1" xmlns="http://www.w3.org/2000/svg" xmlns:xlink="http://www.w3.org/1999/xlink" x="0px" y="0px"
	 viewBox="0 0 300 300" style="enable-background:new 0 0 300 300;" xml:space="preserve">
<style type="text/css">
	.st0{fill:#003C82;}
</style>
<g>
	<path class="st0" d="M137.2,4.6c8.2,0,16.3,0,24.5,0c0.7,0.1,1.3,0.3,2,0.4c12.1,1.2,24,3.8,35.3,8.2c24.2,9.3,43.7,24.2,56.4,47.2
		c1.3,2.3,2.7,4.1,5,5.4c4.7,2.7,7.8,6.9,9.8,12c2.6,6.5,3,13.2,2,20.1c-0.7,4.8-2,9.4-5.3,13c-1.5,1.7-2,3.4-2,5.5
		c0,23-1.3,46-5.1,68.7c-3.4,20-8.7,39.5-18.2,57.5c-11.7,22.2-28.5,38.9-52.5,47.5c-16.8,6-34.1,7.1-51.7,5.5
		c-32.4-3-57.2-18.2-74.2-46c-12.3-20.2-18.4-42.5-22.1-65.5c-3.6-22.1-4.9-44.4-4.7-66.7c0-1.4,0.3-3-0.6-4.2
		c-3.9-5-5.9-10.9-7.3-17c0-4.3,0-8.5,0-12.8c1.5-5.8,3.1-11.9,8.2-15.3c4.9-3.3,7.4-8,10.3-12.7c0.9-1.6,2-3.1,3.1-4.6
		c15.7-21.8,37.4-34.5,62.8-41.6C120.7,6.8,128.9,5.8,137.2,4.6z M239.5,195.7c-2.9,1.5-5.1,2.7-7.4,3.8c-13.5,6.7-27.8,10.2-43,9.8
		c-11.8-0.3-23.1-3-33.8-7.9c-3.2-1.4-5.7-1.6-9-0.1c-10.5,4.9-21.6,7.6-33.2,8c-17.5,0.7-33.6-4-48.8-12.3
		c-0.9-0.5-1.7-1.4-2.8-1.1c-0.4,0.7-0.1,1.4,0,2c3.3,14,7.9,27.6,15.1,40.2c10.7,18.6,25.9,31.5,46.8,37.1
		c13.2,3.6,26.6,4,40.1,2.5c17.8-2,33.5-8.8,46.3-21.6c11.3-11.3,18.4-25.1,23.7-40C236,209.6,237.9,203,239.5,195.7z M147.9,103.8
		c-18.9,0.1-37.8,0.6-56.7,1.9c-11,0.7-22,1.9-33,3.4c-2.8,0.4-4.2,1.7-4.2,4.5c0,4.8,0,9.5-0.1,14.3c0,1.6,0.6,2.1,2.2,1.7
		c12-3,23.7-0.8,35.3,2.1c22.5,5.7,45.2,9.2,68.5,8c17-0.9,33.8-3.3,50.2-7.9c11.1-3.1,22.3-5.2,33.9-2.7c2,0.4,2.6-0.4,2.7-2.3
		c0.3-4.5,0.2-8.9,0-13.4c-0.2-3-1.5-4-4.2-4.3c-7.1-0.7-14.3-1.7-21.4-2.3C196.9,104.8,172.4,104.1,147.9,103.8z M210.7,156.2
		c-12.8,0.4-21.4,8.4-28.2,19.1c-0.8,1.3-0.5,2.2,0.9,2.8c8.5,4,17.3,6.5,26.7,4.1c10.1-2.6,16.4-9.8,21.7-18.2
		c1-1.6-0.1-2.3-1.3-2.9C224.5,158.2,218.2,156.4,210.7,156.2z M91.3,156.3c-6.5,0-15.3,2.4-20.1,5c-1.6,0.9-1.8,1.7-0.8,3.2
		c12.3,19.6,28.3,23,47.9,13.8c1.8-0.8,1.9-1.9,0.9-3.4c-3.6-5.6-7.8-10.6-13.5-14.2C101,157.7,95.9,156.4,91.3,156.3z"/>
</g>
</svg>
