<?xml version="1.0" encoding="utf-8"?>
<!-- Generator: Adobe Illustrator 26.0.2, SVG Export Plug-In . SVG Version: 6.00 Build 0)  -->
<svg version="1.1" id="Capa_1" xmlns="http://www.w3.org/2000/svg" xmlns:xlink="http://www.w3.org/1999/xlink" x="0px" y="0px"
	 viewBox="0 0 300 300" style="enable-background:new 0 0 300 300;" xml:space="preserve">
<style type="text/css">
	.st0{fill:#003C82;}
</style>
<g>
	<path class="st0" d="M162.2,292.5c-8,0-15.9,0-23.9,0c-3.5-0.5-6.9-1-10.4-1.5c-55-8.2-101.6-50.3-115.5-104.2
		c-2.1-8.1-3.3-16.3-4.4-24.6c0-8,0-15.9,0-23.9c0.7-4.7,1.1-9.4,2.1-14C22.7,66.7,57.3,29.5,113.7,12.5c8-2.4,16.3-3.3,24.6-4.5
		c8,0,15.9,0,23.9,0c3.5,0.5,6.9,1,10.4,1.5c54.9,8.2,101.6,50.4,115.5,104.2c2.1,8.1,3.3,16.3,4.4,24.6c0,8,0,15.9,0,23.9
		c-0.5,3.5-1,6.9-1.5,10.4c-8.2,55-50.3,101.6-104.2,115.5C178.7,290.1,170.4,291.3,162.2,292.5z M92.2,47.6c0,0.2,0.1,0.4,0.1,0.6
		c1,0,2,0,3,0c15.3,0,30.5,0,45.8,0c1,0,2.1,0,3.1,0c4.9,0.2,8.5,3.7,8.9,8.3c0.3,4.4-2.8,8.3-7.6,9.2c-1.5,0.3-3,0.3-4.5,0.3
		c-17.8,0-35.6,0-53.5,0c-1,0-2.4-0.5-2.8,0.6c-0.4,0.9,0.9,1.5,1.6,2.2c7.9,7.9,15.8,15.8,23.7,23.8c1.6,1.6,3.3,2.3,5.5,2.3
		c9.4-0.1,18.8,0,28.2,0c3,0,5.6,0.9,7.5,3.3c4.2,5.3,1.4,12.9-5.3,14.1c-4,0.8-8.1,0.2-12.2,0.4c-0.8,0-1.9-0.4-2.3,0.6
		c-0.4,0.9,0.7,1.4,1.3,2c10.8,10.9,21.8,21.7,32.5,32.6c2,2.1,2.8,1.5,4-0.7c5.9-10.5,12-20.9,18-31.3c6.7-11.7,13.4-23.3,20.1-35
		c2.1-3.6,4.1-4.5,7.2-2.8c11.8,6.7,23.5,13.5,35.2,20.3c2.6,1.5,3.1,3.9,1.7,6.6c-0.5,1-1.1,2-1.7,3
		c-14.6,25.2-29.1,50.4-43.8,75.5c-1.4,2.4-1.4,3.8,0.7,5.8c10.9,10.7,21.6,21.5,32.4,32.3c2.7,2.7,2.8,2.7,5.1-0.4
		c20.1-27,27.6-57.4,22.2-90.5C253.8,52.6,167.9,9.2,97.1,45C95.4,45.8,93.8,46.7,92.2,47.6z M76.6,94.9c-0.3-1.4-1.2-2-1.8-2.6
		c-4.5-4.6-9.1-9.1-13.7-13.7C58.6,76,58.5,76,56.3,79c-16.1,21.5-24.1,45.7-23.8,72.7c0.4,30.8,11.5,57.3,32.2,79.8
		c2,2.1,4.1,2.9,7,2.9c20-0.1,40-0.1,60-0.1c4.8,0,5-0.2,5.3-5.1c0.4-6.7,0.9-13.4,1.3-20.1c0.3-3.5,0.3-3.5-3.2-3.5
		c-16.4,0-32.8,0-49.2,0c-9.7,0-19.3,0.1-29,0c-4.7-0.1-8.3-3.6-8.6-8.2c-0.3-4.5,2.7-8.3,7.2-9.2c1.7-0.3,3.4-0.4,5.1-0.4
		c27.5,0,55,0,82.5,0c1.8,0,3-0.5,3.9-2.1c2-3.8,4.2-7.5,6.4-11.1c1.1-1.7,1-3-0.5-4.4c-2.9-2.7-5.8-5.5-8.4-8.4
		c-1.9-2.1-3.9-2.8-6.7-2.8C111.8,159,85.9,159,60,159c-1.2,0-2.5,0-3.7-0.1c-5.6-0.4-9.3-5.9-7.6-11.2c1.3-4.1,4.4-6.2,9.4-6.2
		c20.6,0,41.2,0,61.7,0c1.1,0,2.3,0.4,3.3-0.4c-0.1-0.9-0.8-1.3-1.3-1.8c-8.2-8.2-16.4-16.3-24.5-24.6c-1.5-1.5-3.1-2-5.1-2
		c-10.5,0-21,0-31.6,0c-1.8,0-3.6-0.1-5.4-0.4c-4.3-0.9-7.2-4.8-6.9-9.1c0.3-4.5,3.7-8,8.3-8.2c2.6-0.1,5.3,0,8,0
		C68.5,94.9,72.4,94.9,76.6,94.9z M92.2,252.6c1,1.1,2.4,1.6,3.6,2.3c23.3,12,47.9,15.7,73.6,11.7c19.3-3,36.8-10.7,52.4-22.6
		c1.3-1,2.7-1.9,0.8-3.7c-9.9-9.8-19.7-19.7-29.5-29.5c-1.4-1.5-2.1-0.9-2.9,0.6c-1.8,3.3-3.9,6.5-5.6,9.9c-1.2,2.3-2.9,4.1-5.1,5.6
		c-8.1,5.3-16,10.8-24,16.2c-1.1,0.7-2.2,1.5-2.7,2.8c-1.6,4.8-5.1,6.6-10.1,6.6c-15.8-0.1-31.6,0-47.5,0
		C94.3,252.3,93.2,251.9,92.2,252.6z M204.2,106.6c-1.3,0.1-1.6,1.1-2.1,1.9c-8.9,15.3-17.7,30.7-26.6,46c-1,1.7-0.9,2.8,0.5,4.2
		c6.6,6.5,13.2,13.1,19.7,19.7c1.5,1.6,2.3,1.3,3.3-0.5c10.2-17.8,20.4-35.5,30.7-53.2c1.2-2.1,0.8-3.1-1.2-4.3
		c-7.6-4.3-15.1-8.7-22.7-13C205.3,107.1,204.7,106.8,204.2,106.6z M161.4,179.5c-0.2,0.2-0.6,0.4-0.7,0.7
		c-2.9,6.1-8.5,11.1-7.9,18.7c0.1,1.4,0.6,2.1,1.6,2.7c7.1,4.1,14.1,8.1,21.2,12.3c1.4,0.8,2.2,0.6,3-0.8c1.7-3,3.4-5.9,5.1-8.9
		c0.8-1.4,0.7-2.4-0.5-3.5c-6.7-6.7-13.4-13.4-20.1-20.1C162.7,180.2,162.3,179.6,161.4,179.5z M145.5,238.6
		c8-5.5,15.5-10.7,23-15.8c2-1.4,0.7-2.1-0.5-2.8c-5.7-3.3-11.5-6.6-17.2-9.9c-2.9-1.7-3.3-1.5-3.5,1.8
		C146.5,220.5,146.1,229.2,145.5,238.6z M240.8,105.1c0-1.5-1.1-1.9-2-2.4c-5.9-3.4-11.8-6.8-17.7-10.2c-7.8-4.5-7.8-4.5-11.8,3.6
		c-0.7,1.5-0.6,2.4,0.9,3.2c7.8,4.5,15.6,9,23.4,13.5c0.7,0.4,1.7,1.1,2.3,0.4C238,110.8,239.3,107.8,240.8,105.1z"/>
</g>
</svg>
