<?xml version="1.0" encoding="utf-8"?>
<!-- Generator: Adobe Illustrator 26.0.2, SVG Export Plug-In . SVG Version: 6.00 Build 0)  -->
<svg version="1.1" id="Capa_1" xmlns="http://www.w3.org/2000/svg" xmlns:xlink="http://www.w3.org/1999/xlink" x="0px" y="0px"
	 viewBox="0 0 300 300" style="enable-background:new 0 0 300 300;" xml:space="preserve">
<style type="text/css">
	.st0{fill:#003C82;}
</style>
<g>
	<path class="st0" d="M3.7,246.4c0-37.1,0-74.2,0-111.4c9-0.1,18-0.2,26.9-0.1c3.1,0,5.3-0.9,7.5-3.1
		c36.2-36.3,72.5-72.5,108.8-108.8c3.4-3.4,3.4-3.4,6.8-0.1c36.4,36.4,72.8,72.7,109.2,109.1c1.8,1.8,3.5,2.8,6.1,2.7
		c7.9-0.2,15.8-0.1,23.7-0.1c4.4,0,4.4,0,4.4,4.4c0,33.6,0,67.2,0,100.8c0,17.1-10.5,32.4-26.4,38.7c-2.9,1.1-5.9,1.9-8.9,2.8
		c-74.3,0-148.5,0-222.8,0c-1-0.3-2-0.6-3.1-0.9c-15-4-25-13.3-30.3-27.8C4.8,250.8,4.3,248.6,3.7,246.4z M133.1,192.9
		c0-17.7,0-35.3,0-53c0-4-0.2-4.2-4.1-4.2c-29.8,0-59.6,0-89.4,0c-4,0-4.2,0.2-4.2,4.1c0,30.3,0,60.5,0,90.8
		c0,11.2,8,19.2,19.2,19.2c24.8,0.1,49.6,0,74.4,0c3.8,0,4-0.2,4-4C133.1,228.2,133.1,210.5,133.1,192.9z M167.5,192.6
		c0,17.8,0,35.5,0,53.3c0,3.8,0.2,3.9,4,3.9c24.8,0,49.6,0,74.4,0c11.2,0,19.2-8,19.2-19.2c0-30.3,0-60.5,0-90.8
		c0-3.9-0.2-4.1-4.2-4.1c-29.8,0-59.6,0-89.4,0c-3.9,0-4.1,0.2-4.1,4.2C167.5,157.4,167.5,175,167.5,192.6z"/>
</g>
</svg>
