<?xml version="1.0" encoding="utf-8"?>
<!-- Generator: Adobe Illustrator 26.0.2, SVG Export Plug-In . SVG Version: 6.00 Build 0)  -->
<svg version="1.1" id="Capa_1" xmlns="http://www.w3.org/2000/svg" xmlns:xlink="http://www.w3.org/1999/xlink" x="0px" y="0px"
	 viewBox="0 0 300 300" style="enable-background:new 0 0 300 300;" xml:space="preserve">
<style type="text/css">
	.st0{fill:#003C82;}
</style>
<g>
	<path class="st0" d="M241.2,300.6c-10.4,0-20.8,0-31.2,0c-13.2-4.5-17.2-14.1-17-25.7c0.3-27.4,0.2-54.8,0-82.2
		c-0.1-11.1-9.2-20.2-20.4-20.3c-14.7-0.2-29.4-0.1-44.1,0c-4.2,0-8.1,1.3-11.5,3.8c-6.3,4.6-9,10.8-9,18.6c0.1,27.7,0,55.4,0,83.1
		c0,6.8-2.2,12.7-7.3,17.4c-2.8,2.6-6.2,4-9.6,5.3c-10.4,0-20.8,0-31.2,0c-13.2-4.5-17.1-14.1-17-25.7c0.3-39.4,0.1-78.9,0.1-118.3
		c0-5.8,0-5.7-5.6-5.8c-12.3-0.1-24.6-0.1-36.8-0.2c0-0.2,0-0.4,0-0.6c0.9-0.9,1.9-1.8,2.8-2.7c48-48,95.9-95.9,143.9-143.9
		c0.9-0.9,1.8-1.9,2.7-2.8c0.4,0,0.8,0,1.2,0c0.9,0.9,1.8,1.9,2.7,2.8c48,48,95.9,95.9,143.9,143.9c0.9,0.9,1.9,1.8,2.8,2.7
		c0,0.2,0,0.4,0,0.6c-12.3,0.1-24.6,0.1-36.8,0.2c-5.6,0-5.7,0-5.7,5.8c0,40.3,0,80.7,0,121c0,6.7-2,12.6-6.9,17.3
		C248.4,297.7,244.8,299.2,241.2,300.6z"/>
</g>
</svg>
