<?xml version="1.0" encoding="utf-8"?>
<!-- Generator: Adobe Illustrator 26.0.2, SVG Export Plug-In . SVG Version: 6.00 Build 0)  -->
<svg version="1.1" id="Capa_1" xmlns="http://www.w3.org/2000/svg" xmlns:xlink="http://www.w3.org/1999/xlink" x="0px" y="0px"
	 viewBox="0 0 300 300" style="enable-background:new 0 0 300 300;" xml:space="preserve">
<style type="text/css">
	.st0{fill:#003C82;}
</style>
<g>
	<path class="st0" d="M273,119.1c-0.3,0.4-0.6,0.8-0.9,1.2c-2.8,3.6-6.1,5-9.7,3.8c-3.9-1.3-6-4.3-6.1-9
		c-0.7-43.4-29.3-80.5-71.2-92c-7.4-2-15-3-22.6-3.3c-6.2-0.3-9.1-1.9-10.5-6.1c-1.2-3.8,0.3-6.9,5-10.6c4.7,0,9.4,0,14.1,0
		c1.9,0.3,3.8,0.6,5.8,1c46.8,8.6,77.5,35.8,92.1,81c2.1,6.5,2.8,13.2,4,19.8C273,109.7,273,114.4,273,119.1z"/>
	<path class="st0" d="M28.6,193.9c0-19.1,0-38.3,0-57.4c0.1-25.7,20.7-46.3,46.5-46.4c22.1-0.1,44.1-0.1,66.2,0
		c25.9,0.1,46.5,20.7,46.6,46.6c0,38.2,0,76.3,0,114.5c0,25.8-20.6,46.4-46.4,46.4c-22.3,0-44.5,0.1-66.8,0
		c-25.5-0.1-46-20.6-46.1-46C28.5,232.4,28.6,213.2,28.6,193.9z"/>
	<path class="st0" d="M244.3,113.7c0,0.6,0,1.2,0,1.8c-0.2,5.1-3.6,8.8-8.3,9c-4.5,0.2-8.3-3.2-8.7-8.2c-0.4-4.6-0.5-9.2-1.4-13.7
		c-6-30.3-32.7-52.7-63.6-53.5c-6.7-0.2-10.8-3.5-10.6-8.8c0.2-5.4,4.2-8.6,11-8.3c40.5,1.4,73.9,30.9,80.4,70.4
		c0.6,3.8,0.9,7.6,1.3,11.4C244.4,113.7,244.3,113.7,244.3,113.7z"/>
	<path class="st0" d="M215.3,115.5c0.1,4.7-3.5,8.8-8.4,8.9c-4.9,0.1-8.5-3.7-8.7-9.1c-0.9-21.2-16.1-36.4-37.5-37.4
		c-5.4-0.2-9.2-4-9-8.8c0.2-4.9,4.3-8.4,9.6-8.3c27,0.6,49.9,21.2,53.4,47.9C215,110.8,215.1,112.8,215.3,115.5z"/>
</g>
</svg>
