<?xml version="1.0" encoding="utf-8"?>
<!-- Generator: Adobe Illustrator 26.0.2, SVG Export Plug-In . SVG Version: 6.00 Build 0)  -->
<svg version="1.1" id="Capa_1" xmlns="http://www.w3.org/2000/svg" xmlns:xlink="http://www.w3.org/1999/xlink" x="0px" y="0px"
	 viewBox="0 0 300 300" style="enable-background:new 0 0 300 300;" xml:space="preserve">
<style type="text/css">
	.st0{fill:#003C82;}
</style>
<g>
	<path class="st0" d="M102.6,5.6c45.7,0,91.4,0,137.1,0c0.9,0.3,1.8,0.6,2.8,0.8c19.7,5.1,32.1,21.1,32.1,41.4
		c0,68.8,0,137.5,0,206.3c0,22.6-18.5,41.1-41.1,41.1c-55.4,0.1-110.9,0-166.3,0c-18.2,0-34.3-12.1-39.5-29.6
		c-0.5-1.8-1-3.5-1.5-5.3c0-59.4,0-118.9,0-178.3c10.9-0.1,21.8-0.2,32.6-0.2c3.4,0,6.8-0.2,10.1-0.9c19.7-3.9,33.4-20.5,33.5-40.7
		C102.4,28.7,102.5,17.1,102.6,5.6z M150.2,135.3c26.4,0,52.8,0,79.2,0c1.3,0,2.7,0,4-0.1c3.1-0.3,5.2-2.4,5.4-5.4
		c0.1-2.9-2.2-5.5-5.3-5.9c-1-0.1-2.1-0.1-3.2-0.1c-53.4,0-106.8,0-160.2,0c-1.1,0-2.1,0-3.2,0.1c-3,0.4-5.2,2.8-5.3,5.6
		c0,3,2.2,5.4,5.4,5.7c1.3,0.1,2.7,0.1,4,0.1C97.5,135.3,123.8,135.3,150.2,135.3z M150.3,176.8c26.5,0,53,0,79.5,0
		c1.3,0,2.5,0.1,3.8-0.1c3.1-0.4,5.4-3,5.3-5.9c-0.1-2.9-2.3-5.1-5.4-5.4c-1.1-0.1-2.3-0.1-3.5-0.1c-53.1,0-106.2,0-159.4,0
		c-1.2,0-2.3,0-3.5,0.1c-3.2,0.3-5.5,2.6-5.4,5.6c0,2.8,2.3,5.3,5.2,5.7c1.2,0.2,2.5,0.1,3.8,0.1
		C97.2,176.8,123.7,176.8,150.3,176.8z M187.7,41.1c-12.1,0-24.1,0-36.2,0c-3.1,0-6.2-0.1-9.3,0.1c-3.4,0.1-5.8,2.4-6,5.5
		c-0.2,3.1,1.9,5.5,5.4,6.1c0.9,0.1,1.7,0.1,2.6,0.1c28.8,0,57.7,0,86.5,0c1.1,0,2.3,0,3.4-0.3c2.9-0.7,4.8-3.2,4.6-5.9
		c-0.2-2.7-2.3-5-5.2-5.5c-1-0.2-2.1-0.1-3.2-0.1C216.2,41.1,202,41.1,187.7,41.1z M208.6,241.8c0,0.6,0.1,1.2,0,1.7
		c-0.2,1.4,0.7,3.2-1,3.9c-1.8,0.7-3.3-0.5-4.6-1.7c-0.3-0.3-0.5-0.6-0.8-0.9c-1.8-1.9-4-2.3-5.6-0.9c-2,1.8-1.5,3.8-0.1,5.7
		c2.2,3,5.1,5,8.9,5.3c2.5,0.2,3.4,1.3,3.2,3.7c-0.1,1.2-0.1,2.5,0.1,3.8c0.3,1.9,1.5,3.3,3.5,3.3c2.1,0,3.4-1.3,3.6-3.5
		c0.1-1.1,0.2-2.3,0.1-3.5c-0.2-2.5,0.8-3.5,3.4-3.9c6-0.7,10.7-5.7,11.2-11.5c0.6-6.7-2.9-12.1-8.9-14.3c-1.8-0.7-4.6,0.4-5.4-2
		c-0.6-1.8-0.2-4-0.3-6c0-0.9,0-1.7,0-2.6c0.1-1.8,1.1-2.3,2.7-1.9c1.7,0.4,2.8,1.6,3.9,2.8c1.5,1.8,3.4,2.3,5.3,0.7
		c1.8-1.5,1.6-3.4,0.5-5.2c-1.5-2.3-3.5-4.6-6.2-4.9c-5.2-0.7-7.1-3.2-6.4-8.3c0.2-1.9-1.3-3.2-3.4-3.2c-2,0-3.2,1.2-3.5,3.1
		c-0.2,1.2-0.2,2.5-0.1,3.8c0.2,2.4-0.7,3.3-3.2,3.7c-6.7,1-11.2,6.2-11.4,12.6c-0.2,7,3.8,12.4,10.8,13.6c3.3,0.6,4.1,2.1,3.8,5
		C208.6,240.8,208.6,241.3,208.6,241.8z M187.5,94c14.3,0,28.5,0,42.8,0c1.1,0,2.1,0,3.2-0.1c2.9-0.3,5.3-2.7,5.3-5.5
		c0.1-2.9-2.2-5.5-5.4-5.7c-1.1-0.1-2.1-0.1-3.2-0.1c-28.5,0-57.1,0-85.6,0c-1.2,0-2.3,0-3.5,0.1c-2.9,0.3-4.9,2.5-5,5.5
		c-0.1,2.8,1.9,5.3,4.7,5.7c1.1,0.2,2.3,0.1,3.5,0.1C158.8,94,173.2,94,187.5,94z M106.6,259.5c12.3,0,24.7,0,37,0
		c5.6,0,8.3-1.9,8.3-5.8c0-3.9-2.7-5.9-8.2-5.9c-24.6,0-49.1,0-73.7,0c-1.1,0-2.1,0-3.2,0.2c-3.1,0.6-5.1,3-5.1,5.8
		c0.1,2.9,2.4,5.3,5.5,5.7c1,0.1,1.9,0.1,2.9,0.1C82.3,259.5,94.4,259.5,106.6,259.5z M107.1,218C107.1,218,107.1,218,107.1,218
		c12.9,0,25.8,0,38.7-0.1c3.8,0,5.9-2.2,5.9-5.6c0-3.3-2.1-5.7-5.6-5.7c-26.2-0.1-52.4,0-78.6,0c-0.1,0-0.2,0-0.3,0
		c-3.1,0.3-5.5,2.7-5.5,5.6c0,3,2.3,5.4,5.5,5.7c1.1,0.1,2.3,0.1,3.5,0.1C82.8,218,94.9,218,107.1,218z"/>
	<path class="st0" d="M49.4,70c-4.8,0-9.6,0-14.5,0c-0.7,0-1.7,0.3-2.1-0.5c-0.3-0.8,0.6-1.3,1.1-1.9C44.3,57.3,54.6,47,64.9,36.7
		c7.5-7.5,15-15,22.6-22.4c0.7-0.7,1.4-2.1,2.5-1.7c1.3,0.5,0.7,2,0.7,3.1c0,8.6,0.1,17.2,0,25.7C90.4,56.8,77.5,69.8,62.1,70
		C57.9,70.1,53.6,70,49.4,70z"/>
	<path class="st0" d="M215.8,241.5c0-0.8-0.1-1.5,0-2.3c0.1-1.1-0.3-2.5,0.9-3.1c1.4-0.6,2.6,0,3.8,0.8c3.6,2.5,3.2,8-0.6,10.1
		c-2.6,1.4-4,0.6-4.1-2.3C215.8,243.6,215.8,242.6,215.8,241.5z"/>
	<path class="st0" d="M208.6,222.5c0,0.9,0,1.7,0,2.6c-0.1,3.1-1.4,3.9-4.1,2.3c-2.1-1.2-3.2-3.1-3-5.5c0.2-2.4,1.4-4.1,3.6-5.1
		c2.4-1,3.4-0.4,3.5,2.2C208.6,220.2,208.6,221.3,208.6,222.5z"/>
</g>
</svg>
