<?xml version="1.0" encoding="utf-8"?>
<!-- Generator: Adobe Illustrator 26.0.2, SVG Export Plug-In . SVG Version: 6.00 Build 0)  -->
<svg version="1.1" id="Capa_1" xmlns="http://www.w3.org/2000/svg" xmlns:xlink="http://www.w3.org/1999/xlink" x="0px" y="0px"
	 viewBox="0 0 300 300" style="enable-background:new 0 0 300 300;" xml:space="preserve">
<style type="text/css">
	.st0{fill:#003C82;}
</style>
<g>
	<path class="st0" d="M287.7,293c-91.8,0-183.6,0-275.5,0c-4.1-2.1-5.9-5.5-5.5-10.1c0.2-2.6,0-5.3,0-7.9c0.1-6.1,3.2-9.4,9.4-9.6
		c2.6-0.1,5.3-0.1,7.9,0c1.9,0,2.9-0.8,2.9-2.8c0-1.2,0-2.3,0-3.5c0-46.6,0-93.2,0-139.8c0-5.7,0-5.7,5.9-5.7c40.3,0,80.7,0,121,0
		c38.3,0,76.6,0,114.9,0c4.1,0,4.3,0.3,4.4,4.3c0,1.1,0,2.1,0,3.2c0,46,0,92,0,138c0,1.2,0,2.3,0,3.5c0,2,0.9,2.8,2.9,2.8
		c2.7,0,5.5-0.1,8.2,0.1c5.8,0.3,9,3.5,9.1,9.3c0,2.7-0.1,5.5,0,8.2C293.6,287.5,291.9,290.9,287.7,293z M149.9,210.9
		c25.7,0,51.4,0,77.1,0c4.3,0,4.4-0.1,4.4-4.2c0-17.5,0-35,0-52.5c0-3.9-0.1-4-4.2-4c-51.5,0-102.9,0-154.4,0c-4,0-4.1,0.1-4.1,4.1
		c0,17.4,0,34.8,0,52.2c0,4.3,0.1,4.4,4.5,4.4C98.7,210.9,124.3,210.9,149.9,210.9z"/>
	<path class="st0" d="M252.6,7c8.9,22.4,17.9,44.8,26.8,67.2c0.4,0.9,0.7,1.8,1.1,2.7c0.2,0.5,0.6,1.2,0,1.6c-0.3,0.2-0.9,0-1.4-0.2
		c-14.7-4.6-24.4-1-32.3,12.4c-1.3,2.2-1.9,1.8-3-0.1c-5.4-9.3-12.9-15.1-24.2-14.4c-7.9,0.5-13.6,4.8-18.2,10.9
		c-1,1.3-1.8,2.8-2.6,4.2c-0.8,1.5-1.4,1.3-2.2,0c-0.7-1.3-1.5-2.5-2.3-3.7C183.4,72,163.5,72.3,153,88.1c-3,4.5-3,4.5-6,0
		c-11.1-16.6-32.1-15.9-42.6,1.4c-2.1,3.5-2.1,3.5-4.2,0c-6.6-10.8-17.3-15.6-28-12.6c-6.9,2-11.8,6.6-15.5,12.6
		c-2.1,3.4-2,3.4-4.1,0.1C47,80.6,39.3,75.4,28.2,76.3c-2.4,0.2-4.6,0.9-6.7,1.8c-0.6,0.3-1.3,0.9-1.9,0.4c-0.8-0.7,0-1.5,0.2-2.1
		c2.6-6.6,5.3-13.2,7.9-19.9C34.3,40,40.9,23.5,47.4,7C115.8,7,184.2,7,252.6,7z"/>
	<path class="st0" d="M269,104.5c-5.7,0-11.3-0.1-17,0c-2.5,0.1-3-0.9-2.4-3.2C252,92.2,260.5,85,269.1,85c8.8,0,17.3,7.1,19.7,16.4
		c0.5,2.1,0.2,3.1-2.2,3.1C280.7,104.4,274.9,104.5,269,104.5z"/>
	<path class="st0" d="M30.4,104.5c-5.7,0-11.3,0-17,0c-1.4,0-3,0-2.5-2.1c2.9-12.7,15.8-21.4,28-15.3c5.9,3,9.4,8,11.4,14.2
		c0.7,2.2,0.2,3.3-2.4,3.2C42.1,104.4,36.3,104.5,30.4,104.5z"/>
	<path class="st0" d="M126.2,104.5c-5.8,0-11.7,0-17.5,0c-1.6,0-2.7-0.4-2.2-2.4c2.9-11.7,13.1-18.4,22.3-16.9
		c7.9,1.3,15.8,8.9,17.2,16.8c0.3,1.9-0.5,2.4-2.2,2.4C137.9,104.5,132,104.5,126.2,104.5z"/>
	<path class="st0" d="M173.8,104.5c-5.8,0-11.5,0-17.3,0c-1.4,0-2.9,0-2.4-2.1c2.4-10.6,13.1-20.7,25.9-16.2
		c7.3,2.6,11.3,8.3,13.6,15.4c0.6,2,0.1,2.9-2.2,2.9C185.5,104.4,179.6,104.5,173.8,104.5z"/>
	<path class="st0" d="M78.5,104.5c-5.6,0-11.1,0-16.7,0c-3.3,0-3.6-0.4-2.7-3.5C61.7,91.7,69.9,85,78.5,85c8.5,0,16.8,6.8,19.4,16
		c0.9,3,0.6,3.5-2.5,3.5C89.8,104.5,84.1,104.5,78.5,104.5z"/>
	<path class="st0" d="M221.6,104.5c-5.7,0-11.5-0.1-17.2,0c-2.4,0-3.1-0.8-2.5-3.2c2.4-9.2,10.7-16.2,19.5-16.3
		c8.7-0.1,17.3,7.1,19.7,16.4c0.7,2.5-0.2,3.1-2.5,3.1C232.9,104.4,227.3,104.5,221.6,104.5z"/>
</g>
</svg>
