<?xml version="1.0" standalone="no"?>
<!DOCTYPE svg PUBLIC "-//W3C//DTD SVG 20010904//EN"
 "http://www.w3.org/TR/2001/REC-SVG-20010904/DTD/svg10.dtd">
<svg version="1.0" xmlns="http://www.w3.org/2000/svg"
 width="500.000000pt" height="300.000000pt" viewBox="0 0 500.000000 300.000000"
 preserveAspectRatio="xMidYMid meet">

<g transform="translate(0.000000,300.000000) scale(0.100000,-0.100000)"
fill="#000000" stroke="none">
<path d="M3130 2629 c-246 -63 -444 -248 -525 -487 l-22 -67 -128 -3 -128 -3
-97 96 c-95 93 -98 95 -144 95 -63 0 -87 -15 -176 -104 l-74 -76 -92 90 c-89
87 -93 90 -138 90 -62 0 -88 -15 -171 -99 -38 -39 -75 -71 -82 -71 -6 0 -38
30 -70 66 -71 80 -108 104 -162 104 -58 0 -84 -16 -176 -109 l-80 -81 -157 0
c-86 0 -168 -4 -181 -9 -20 -8 -274 -273 -463 -483 -55 -61 -68 -98 -52 -155
12 -45 478 -547 520 -562 21 -8 355 -11 1052 -11 l1022 0 33 -67 c41 -84 102
-164 179 -234 76 -70 151 -114 260 -153 l87 -31 589 -3 c669 -3 669 -3 836 80
69 34 103 60 180 138 78 77 104 111 138 180 23 47 52 121 64 165 22 78 22 95
22 580 0 485 0 502 -22 580 -12 44 -41 118 -64 165 -34 69 -60 103 -138 180
-77 78 -111 104 -180 138 -165 82 -166 82 -814 81 -532 0 -576 -1 -646 -20z
m1213 -264 c179 -38 319 -177 362 -357 22 -92 22 -914 0 -1006 -43 -180 -183
-319 -362 -357 -84 -18 -997 -21 -1103 -4 -98 15 -181 59 -254 132 -68 67
-104 128 -130 219 -20 70 -56 114 -104 128 -24 6 -397 10 -1074 10 l-1037 0
-150 161 c-83 89 -151 166 -151 171 0 5 68 82 150 171 l151 162 174 5 174 5
64 63 63 62 44 -46 c78 -79 96 -86 210 -82 l99 3 64 63 63 62 49 -51 c70 -71
89 -79 190 -79 101 0 120 8 190 79 l49 51 56 -54 c30 -29 65 -59 77 -65 14 -7
110 -11 280 -11 331 0 329 -1 357 160 36 205 174 359 362 404 87 21 1039 22
1137 1z"/>
<path d="M3913 2141 c-84 -21 -160 -90 -188 -172 -22 -62 -22 -867 0 -929 21
-61 66 -112 127 -146 l53 -29 195 0 c171 0 199 2 230 19 68 36 99 66 129 127
l31 62 -1 431 c0 303 -4 440 -12 463 -22 60 -72 117 -128 148 -54 30 -55 30
-229 32 -96 1 -189 -2 -207 -6z m297 -636 l0 -365 -110 0 -110 0 0 365 0 365
110 0 110 0 0 -365z"/>
</g>
</svg>
