<?xml version="1.0" standalone="no"?>
<!DOCTYPE svg PUBLIC "-//W3C//DTD SVG 20010904//EN"
 "http://www.w3.org/TR/2001/REC-SVG-20010904/DTD/svg10.dtd">
<svg version="1.0" xmlns="http://www.w3.org/2000/svg"
 width="512.000000pt" height="512.000000pt" viewBox="0 0 512.000000 512.000000"
 preserveAspectRatio="xMidYMid meet">

<g transform="translate(0.000000,512.000000) scale(0.100000,-0.100000)"
fill="#000000" stroke="none">
<path d="M3670 4744 c-148 -19 -339 -96 -484 -194 -123 -82 -302 -237 -525
-454 -114 -111 -366 -354 -561 -540 -976 -934 -1650 -1607 -1785 -1780 -212
-274 -200 -708 30 -1031 49 -68 159 -177 225 -222 308 -209 724 -197 1077 32
74 48 150 120 473 448 212 214 621 618 910 896 676 651 1062 1039 1112 1115
79 123 105 302 65 456 -44 169 -173 351 -310 438 -279 176 -596 131 -908 -130
-108 -90 -1658 -1616 -1675 -1650 -41 -79 13 -191 99 -205 89 -14 57 -42 780
670 933 918 983 966 1064 1020 128 85 174 101 283 102 85 0 101 -3 153 -29
112 -57 212 -194 237 -324 13 -69 -2 -141 -39 -195 -37 -53 -515 -527 -1041
-1032 -415 -399 -871 -850 -1135 -1126 -83 -85 -178 -175 -213 -198 -319 -215
-691 -182 -896 79 -54 69 -109 180 -131 265 -35 137 -12 316 54 414 16 24 124
143 239 265 345 363 672 683 2151 2101 327 314 523 452 708 500 35 9 103 15
174 15 425 0 775 -295 849 -716 8 -44 11 -116 7 -190 -5 -135 -26 -212 -85
-309 -42 -69 -589 -620 -1494 -1505 -335 -326 -574 -568 -584 -588 -36 -76 2
-167 81 -198 89 -33 77 -43 599 469 765 749 1554 1538 1603 1602 271 355 231
930 -92 1325 -154 188 -405 335 -659 386 -74 14 -295 26 -356 18z"/>
</g>
</svg>
