<?xml version="1.0" standalone="no"?>
<!DOCTYPE svg PUBLIC "-//W3C//DTD SVG 20010904//EN"
 "http://www.w3.org/TR/2001/REC-SVG-20010904/DTD/svg10.dtd">
<svg version="1.0" xmlns="http://www.w3.org/2000/svg"
 width="418.000000pt" height="500.000000pt" viewBox="0 0 418.000000 500.000000"
 preserveAspectRatio="xMidYMid meet">

<g transform="translate(0.000000,500.000000) scale(0.100000,-0.100000)"
fill="#000000" stroke="none">
<path d="M1609 4986 c-59 -21 -96 -53 -120 -104 -20 -40 -24 -67 -27 -174 l-4
-128 -647 0 c-724 0 -691 3 -758 -73 -105 -120 -34 -313 124 -335 l48 -7 5
-1655 5 -1655 23 -80 c53 -182 130 -320 251 -448 132 -140 305 -243 496 -295
l100 -27 985 0 985 0 100 28 c176 48 324 130 449 247 139 130 238 293 293 480
l28 95 5 1655 5 1655 48 7 c164 23 232 232 114 346 -66 64 -41 62 -750 62
l-645 0 -4 128 c-5 159 -25 209 -103 257 l-48 30 -461 2 c-360 2 -469 0 -497
-11z m1959 -2419 c2 -1785 7 -1673 -69 -1826 -77 -155 -224 -278 -399 -333
l-75 -23 -935 0 -935 0 -75 23 c-175 55 -322 178 -399 333 -75 152 -71 40 -71
1820 0 878 3 1599 7 1602 3 4 668 6 1477 5 l1471 -3 3 -1598z"/>
<path d="M1220 3530 c-77 -14 -140 -68 -160 -138 -8 -26 -10 -374 -8 -1133 l3
-1096 29 -41 c34 -49 112 -92 168 -92 78 0 155 51 189 125 18 38 19 90 19
1128 0 1179 2 1126 -53 1185 -45 48 -121 73 -187 62z"/>
<path d="M2890 3530 c-72 -13 -127 -56 -155 -122 -13 -33 -15 -166 -15 -1125
0 -1038 1 -1090 19 -1128 34 -74 111 -125 189 -125 56 0 134 43 168 92 l29 41
3 1096 c2 759 0 1107 -8 1133 -27 94 -130 155 -230 138z"/>
<path d="M2005 3516 c-40 -18 -79 -55 -102 -97 -17 -32 -18 -86 -21 -1104 -2
-744 0 -1085 8 -1121 36 -168 249 -221 357 -89 17 21 36 57 42 81 14 53 15
2130 2 2187 -12 49 -45 98 -89 128 -43 29 -149 37 -197 15z"/>
</g>
</svg>
