<?xml version="1.0" standalone="no"?>
<!DOCTYPE svg PUBLIC "-//W3C//DTD SVG 20010904//EN"
 "http://www.w3.org/TR/2001/REC-SVG-20010904/DTD/svg10.dtd">
<svg version="1.0" xmlns="http://www.w3.org/2000/svg"
 width="421.000000pt" height="500.000000pt" viewBox="0 0 421.000000 500.000000"
 preserveAspectRatio="xMidYMid meet">

<g transform="translate(0.000000,500.000000) scale(0.100000,-0.100000)"
fill="#000000" stroke="none">
<path d="M450 4993 c-188 -31 -348 -168 -424 -363 l-21 -55 -3 -2022 c-3
-2222 -6 -2094 58 -2225 78 -160 226 -277 397 -313 100 -21 3194 -22 3294 -1
167 36 316 152 393 306 28 55 48 113 55 156 9 51 11 603 9 2064 -3 1829 -5
1999 -20 2042 -61 171 -159 286 -305 358 -129 63 -43 60 -1803 58 -883 0
-1616 -3 -1630 -5z m3316 -303 c78 -40 134 -104 156 -179 19 -68 19 -3954 0
-4022 -22 -75 -78 -139 -156 -179 l-69 -35 -1592 0 -1592 0 -69 35 c-78 40
-134 104 -156 179 -20 70 -19 4008 1 4065 16 45 81 121 124 142 16 9 47 19 70
24 23 4 756 7 1628 7 l1586 -2 69 -35z"/>
<path d="M2040 4115 c-121 -77 -224 -98 -422 -84 -73 5 -149 11 -169 14 l-35
6 -107 -140 c-59 -77 -107 -144 -107 -149 0 -5 14 -39 30 -76 42 -92 61 -182
61 -290 0 -105 -8 -150 -51 -296 -53 -179 -52 -324 3 -450 26 -60 106 -157
165 -202 38 -29 683 -388 697 -388 15 0 661 360 701 391 131 100 204 247 204
409 0 81 -9 128 -59 315 -51 194 -42 354 29 511 16 37 30 71 30 76 0 5 -48 72
-107 149 l-107 140 -35 -6 c-20 -3 -96 -9 -169 -14 -198 -14 -296 5 -423 84
-31 19 -61 35 -66 35 -4 0 -33 -16 -63 -35z m216 -714 c2 -2 77 -15 166 -28
90 -14 165 -26 167 -28 1 -2 -51 -57 -118 -122 l-120 -118 29 -165 c16 -90 28
-166 26 -167 -1 -2 -67 32 -147 74 -79 42 -148 76 -154 76 -5 0 -75 -34 -154
-76 -80 -42 -146 -76 -147 -74 -1 1 11 76 27 167 l28 165 -120 118 c-66 66
-119 120 -117 122 2 2 68 13 148 24 80 12 154 24 165 26 14 3 41 47 95 155
l75 150 73 -147 c41 -82 76 -150 78 -152z"/>
<path d="M1054 1560 c-36 -14 -64 -59 -64 -102 0 -32 7 -47 34 -74 l34 -34
1047 0 1047 0 34 34 c46 46 48 101 5 148 l-29 33 -1044 2 c-574 1 -1053 -2
-1064 -7z"/>
<path d="M1063 1059 c-99 -29 -95 -181 5 -209 51 -14 2023 -14 2074 0 103 29
103 181 0 210 -48 13 -2033 12 -2079 -1z"/>
</g>
</svg>
