<?xml version="1.0" standalone="no"?>
<!DOCTYPE svg PUBLIC "-//W3C//DTD SVG 20010904//EN"
 "http://www.w3.org/TR/2001/REC-SVG-20010904/DTD/svg10.dtd">
<svg version="1.0" xmlns="http://www.w3.org/2000/svg"
 width="499.000000pt" height="490.000000pt" viewBox="0 0 499.000000 490.000000"
 preserveAspectRatio="xMidYMid meet">

<g transform="translate(0.000000,490.000000) scale(0.100000,-0.100000)"
fill="#000000" stroke="none">
<path d="M4414 4890 c-108 -16 -204 -62 -276 -133 -24 -23 -583 -774 -1243
-1669 -660 -895 -1202 -1628 -1205 -1628 -3 0 -155 287 -337 638 -183 350
-355 680 -383 733 -107 201 -259 300 -459 300 -232 0 -421 -141 -488 -365 -21
-70 -21 -197 1 -270 10 -32 277 -557 594 -1165 653 -1251 618 -1194 776 -1271
203 -100 427 -61 583 102 40 41 2895 3905 2941 3979 31 51 51 113 62 189 45
320 -246 608 -566 560z"/>
</g>
</svg>
