<?xml version="1.0" standalone="no"?>
<!DOCTYPE svg PUBLIC "-//W3C//DTD SVG 20010904//EN"
 "http://www.w3.org/TR/2001/REC-SVG-20010904/DTD/svg10.dtd">
<svg version="1.0" xmlns="http://www.w3.org/2000/svg"
 width="500.000000pt" height="500.000000pt" viewBox="0 0 500.000000 500.000000"
 preserveAspectRatio="xMidYMid meet">

<g transform="translate(0.000000,500.000000) scale(0.100000,-0.100000)"
fill="#000000" stroke="none">
<path d="M2335 4994 c-255 -25 -414 -57 -618 -124 -252 -83 -502 -215 -725
-382 -120 -90 -329 -292 -427 -413 -293 -361 -481 -800 -546 -1275 -17 -122
-17 -478 0 -600 65 -475 253 -914 546 -1275 98 -121 307 -323 427 -413 357
-268 760 -432 1208 -493 122 -17 478 -17 600 0 475 65 914 253 1275 546 121
98 323 307 413 427 267 356 432 761 493 1208 17 122 17 478 0 600 -61 447
-226 852 -493 1208 -90 120 -292 329 -413 427 -353 286 -784 475 -1240 541
-99 14 -422 26 -500 18z m386 -968 c335 -45 622 -184 868 -420 227 -219 374
-487 443 -806 19 -89 22 -135 22 -300 0 -165 -3 -211 -22 -300 -105 -485 -398
-863 -839 -1084 -538 -269 -1207 -182 -1675 218 -114 97 -133 126 -133 201 0
49 5 69 25 98 35 50 86 77 150 77 63 0 75 -6 174 -92 231 -200 490 -298 784
-298 325 0 610 118 837 345 153 152 255 331 312 542 25 90 27 114 27 293 0
179 -2 203 -27 293 -57 211 -159 390 -312 542 -226 227 -513 345 -835 345
-377 0 -718 -170 -947 -473 -61 -81 -135 -221 -168 -318 l-24 -69 27 7 c46 13
109 7 144 -15 64 -40 94 -128 68 -199 -14 -37 -356 -381 -397 -399 -52 -22
-104 -18 -154 15 -58 37 -355 340 -369 375 -29 77 -2 167 62 206 69 42 139 35
204 -22 24 -21 35 -26 38 -16 2 7 12 47 22 88 98 428 394 803 794 1009 278
143 593 198 901 157z m-115 -685 c18 -11 45 -36 60 -57 l29 -37 3 -323 3 -323
266 -153 c296 -171 314 -185 321 -274 6 -67 -9 -103 -59 -148 -41 -37 -89 -52
-144 -43 -40 7 -652 357 -691 395 -53 53 -54 65 -54 461 1 383 4 415 47 463
53 60 155 78 219 39z"/>
</g>
</svg>
