<?xml version="1.0" standalone="no"?>
<!DOCTYPE svg PUBLIC "-//W3C//DTD SVG 20010904//EN"
 "http://www.w3.org/TR/2001/REC-SVG-20010904/DTD/svg10.dtd">
<svg version="1.0" xmlns="http://www.w3.org/2000/svg"
 width="500.000000pt" height="300.000000pt" viewBox="0 0 500.000000 300.000000"
 preserveAspectRatio="xMidYMid meet">

<g transform="translate(0.000000,300.000000) scale(0.100000,-0.100000)"
fill="#000000" stroke="none">
<path d="M668 2650 c-307 -38 -551 -249 -640 -556 -23 -78 -23 -87 -23 -584 0
-393 3 -517 14 -560 73 -294 278 -503 567 -577 62 -16 125 -18 634 -18 557 0
566 0 648 23 222 60 392 200 493 405 l33 67 1029 0 c875 0 1032 2 1056 14 24
13 295 296 453 474 64 71 79 117 55 173 -16 39 -453 513 -501 544 -27 18 -51
20 -196 23 l-165 4 -90 87 c-135 132 -178 131 -317 -6 l-78 -77 -87 86 c-133
129 -177 128 -315 -9 l-78 -77 -87 86 c-134 130 -174 128 -318 -12 l-82 -81
-128 3 -127 3 -28 75 c-86 236 -270 404 -519 473 -72 20 -103 21 -606 23 -291
1 -560 -2 -597 -6z m1166 -298 c183 -68 296 -213 321 -408 8 -59 33 -105 72
-131 23 -16 55 -18 242 -21 304 -5 310 -4 388 70 l63 61 53 -50 c29 -27 61
-55 72 -60 32 -18 111 -26 172 -18 52 6 62 12 120 67 l63 61 53 -50 c68 -64
84 -73 160 -80 93 -8 140 9 209 75 l59 56 52 -51 c78 -76 82 -77 265 -81 l162
-4 151 -160 c82 -88 149 -164 147 -168 -2 -4 -70 -80 -152 -169 l-149 -161
-1049 0 c-1014 0 -1050 -1 -1086 -19 -43 -22 -58 -44 -79 -114 -53 -178 -169
-296 -344 -349 -34 -10 -165 -13 -584 -13 -540 0 -540 0 -608 23 -135 47 -252
164 -299 299 -23 68 -23 71 -23 548 0 477 0 480 23 548 58 167 210 293 382
317 30 5 287 7 570 6 504 -2 516 -3 574 -24z"/>
<path d="M683 2134 c-60 -22 -126 -84 -152 -144 -21 -50 -22 -57 -19 -498 3
-497 0 -469 74 -552 60 -66 115 -80 314 -80 145 0 177 3 223 20 62 23 117 76
146 140 20 43 21 64 21 485 0 421 -1 442 -21 485 -29 64 -84 117 -146 140 -47
17 -77 20 -226 19 -125 0 -183 -5 -214 -15z m327 -629 l0 -365 -110 0 -110 0
0 365 0 365 110 0 110 0 0 -365z"/>
</g>
</svg>
