<?xml version="1.0" encoding="utf-8"?>
<!-- Generator: Adobe Illustrator 26.0.2, SVG Export Plug-In . SVG Version: 6.00 Build 0)  -->
<svg version="1.1" id="Capa_1" xmlns="http://www.w3.org/2000/svg" xmlns:xlink="http://www.w3.org/1999/xlink" x="0px" y="0px"
	 viewBox="0 0 300 300" style="enable-background:new 0 0 300 300;" xml:space="preserve">
<style type="text/css">
	.st0{fill:#003C82;}
</style>
<g>
	<path class="st0" d="M162.2,295c-8.1,0-16.2,0-24.4,0c-2.9-0.4-5.7-0.7-8.6-1.2C72,285.3,25.5,244.1,9.9,188.3
		C7.5,179.8,6.2,171,5,162.2c0-8.1,0-16.2,0-24.4c0.4-2.9,0.7-5.7,1.2-8.6C15.1,70,58.8,22.4,117,8.5c6.9-1.6,13.9-2.4,20.8-3.5
		c8.1,0,16.2,0,24.4,0c2.8,0.4,5.5,0.7,8.3,1.1c57.3,8,105.4,51,120.1,107.2c2.1,8.1,3.2,16.3,4.4,24.5c0,8.1,0,16.2,0,24.4
		c-0.4,2.9-0.7,5.7-1.2,8.6c-8.9,59.2-52.3,106.5-110.5,120.7C176.3,293.1,169.2,293.9,162.2,295z M172.1,201.3
		c0,4.6,4.4,7.3,8.3,5.3c1.7-0.9,2.4-2.4,3.2-4c7-15,14-29.9,21-44.9c8.5-18.3,17.1-36.6,25.6-54.9c2.1-4.6,1.4-7.8-1.9-9.5
		c-3.3-1.6-6.4,0-8.6,4.5c-1.3,2.7-2.5,5.4-3.8,8.1c-14.1,30.2-28.2,60.4-42.2,90.6C172.9,198.1,172.1,199.6,172.1,201.3z
		 M170.7,151.6c10.7,0,17.2-4.8,19.5-14.8c1.9-8.5,1.9-17.1-0.2-25.5c-2.4-9.6-8.9-14.5-19-14.5c-10.1,0-16.6,4.8-19.1,14.4
		c-2.1,8.1-2.1,16.2-0.6,24.4C153.4,146.3,159.8,151.6,170.7,151.6z M253.1,176.2c0.1-3.7-0.1-7.1-0.7-10.6
		c-1.7-10.8-8.2-17-18.1-17.3c-12-0.4-18.7,4.7-21.1,16.2c-1.6,7.9-1.6,15.9,0.2,23.8c1.9,8.5,6.9,13.2,15.5,14.6
		c11.1,1.8,19.9-3.3,22.8-13.5C252.9,185.1,253.3,180.6,253.1,176.2z M84.1,90.5c-10.5,0-21,0.1-31.6,0c-2.5,0-3.5,0.8-3.4,3.4
		c0.1,2.9,0.1,5.8,0,8.7c-0.1,2.3,0.7,3.5,3.1,3.3c1.8-0.1,3.7,0,5.5,0c19.2,0,38.4,0,57.6,0c2.8,0,3.9-0.9,3.7-3.7
		c-0.2-2.6,0-5.2,0-7.8c0-3.7-0.1-3.8-4-3.8C104.8,90.5,94.5,90.5,84.1,90.5z M92.3,126.6c10.5,0,21.1,0,31.6,0
		c2.4,0,3.6-0.7,3.5-3.3c-0.1-3.1-0.1-6.2,0-9.3c0-1.9-0.8-2.8-2.8-2.8c-21.4,0-42.9,0-64.3,0c-2.2,0-2.9,0.9-2.8,3
		c0.1,2.9,0.2,5.8,0,8.7c-0.2,2.8,0.9,3.7,3.7,3.7C71.4,126.5,81.9,126.6,92.3,126.6z M84.5,173.4c-10.6,0-21.2,0.1-31.9,0
		c-2.5,0-3.5,0.8-3.4,3.3c0.1,3.1,0.1,6.2,0,9.3c0,2,0.8,2.8,2.8,2.8c21.4,0,42.9,0,64.3,0c2.2,0,2.9-1,2.8-3
		c-0.1-2.9-0.2-5.8,0-8.7c0.2-2.8-0.9-3.7-3.7-3.7C105.1,173.5,94.8,173.4,84.5,173.4z M92.3,194.3
		C92.3,194.3,92.3,194.3,92.3,194.3c-10.5,0-21,0.1-31.6,0c-2.5,0-3.5,0.9-3.3,3.4c0.1,3,0.1,6,0,9c-0.1,2.1,0.8,3,2.9,2.9
		c3.7-0.1,7.3,0,11,0c17.5,0,34.9,0,52.4,0c2.8,0,3.8-0.9,3.7-3.7c-0.2-2.7-0.1-5.4,0-8.1c0.1-2.6-0.8-3.6-3.5-3.5
		C113.3,194.3,102.8,194.3,92.3,194.3z M83.9,147.1c10.6,0,21.2,0,31.9,0c2.4,0,3.6-0.8,3.4-3.4c-0.1-3-0.1-6,0-9
		c0-1.8-0.8-2.6-2.6-2.6c-21.5,0-43.1,0-64.6,0c-2,0-2.7,1-2.7,2.9c0.1,2.7,0,5.4,0,8.1c0,3.7,0.3,4,3.9,4
		C63.4,147.1,73.6,147.1,83.9,147.1z M92.4,167.9c10.4,0,20.9-0.1,31.3,0c2.6,0,3.8-0.8,3.6-3.5c-0.1-2.7-0.1-5.4,0-8.1
		c0.1-2.5-0.9-3.5-3.4-3.4c-4,0.1-7.9,0.1-11.9,0.1c-17,0-34,0-51,0c-2.7,0-4,0.8-3.7,3.6c0.2,2.5,0,5,0,7.5c0,3.6,0.2,3.8,3.8,3.8
		C71.6,167.9,82,167.9,92.4,167.9z"/>
	<path class="st0" d="M162.6,124.2c-0.1-3.8,0-7.5,1.1-11.2c1.2-3.7,3.5-5.5,7.2-5.5c3.7,0,6.1,1.7,7.1,5.6c1.8,7.3,1.8,14.7,0.1,22
		c-0.9,4-3.2,5.6-7,5.7c-3.9,0.1-6.2-1.7-7.5-5.5C162.5,131.7,162.5,128,162.6,124.2z"/>
	<path class="st0" d="M241.2,175.8c0,3.7-0.2,7.3-1.2,10.9c-1.1,3.8-3.4,5.6-7,5.7c-3.8,0.1-6.4-1.7-7.4-5.6
		c-1.9-7.4-1.9-14.9,0.1-22.3c1-3.8,3.4-5.4,7.2-5.4c3.8,0,6,1.6,7.1,5.5C241,168.3,241.2,172,241.2,175.8z"/>
</g>
</svg>
