<?xml version="1.0" standalone="no"?>
<!DOCTYPE svg PUBLIC "-//W3C//DTD SVG 20010904//EN"
 "http://www.w3.org/TR/2001/REC-SVG-20010904/DTD/svg10.dtd">
<svg version="1.0" xmlns="http://www.w3.org/2000/svg"
 width="500.000000pt" height="500.000000pt" viewBox="0 0 500.000000 500.000000"
 preserveAspectRatio="xMidYMid meet">

<g transform="translate(0.000000,500.000000) scale(0.100000,-0.100000)"
fill="#000000" stroke="none">
<path d="M2282 4989 c-1043 -93 -1925 -831 -2193 -1834 -115 -434 -115 -876 0
-1310 164 -614 574 -1154 1129 -1489 781 -470 1782 -471 2562 -1 367 221 655
511 871 877 463 782 462 1762 -4 2544 -217 365 -512 658 -879 875 -445 264
-972 384 -1486 338z m518 -395 c843 -118 1545 -749 1750 -1573 47 -188 62
-316 62 -521 0 -205 -15 -333 -62 -521 -185 -744 -785 -1344 -1529 -1529 -189
-47 -316 -62 -521 -62 -205 0 -332 15 -521 62 -744 185 -1344 785 -1529 1529
-47 189 -62 316 -62 521 0 352 70 649 224 953 414 814 1283 1267 2188 1141z"/>
<path d="M2330 3715 l0 -195 170 0 170 0 0 195 0 195 -170 0 -170 0 0 -195z"/>
<path d="M2330 2110 l0 -1020 170 0 170 0 0 1020 0 1020 -170 0 -170 0 0
-1020z"/>
</g>
</svg>
