<?xml version="1.0" encoding="utf-8"?>
<!-- Generator: Adobe Illustrator 26.0.2, SVG Export Plug-In . SVG Version: 6.00 Build 0)  -->
<svg version="1.1" id="Capa_1" xmlns="http://www.w3.org/2000/svg" xmlns:xlink="http://www.w3.org/1999/xlink" x="0px" y="0px"
	 viewBox="0 0 300 300" style="enable-background:new 0 0 300 300;" xml:space="preserve">
<style type="text/css">
	.st0{fill:#003C82;}
</style>
<g>
	<path class="st0" d="M258.3,277.6c-72,0-144,0-216,0c-1-0.3-2-0.6-3-0.9c-14.5-3.9-24.3-12.9-29.3-27c-0.7-2-1.2-4.2-1.8-6.3
		c0-36,0-72,0-108c1.3-0.1,2.6-0.1,4-0.1c38,0,76,0,114,0c8.6,0,7.5,1.2,7.6-7.5c0-33.2,0-66.5,0-99.7c0-4.1,0.1-4.1,4.1-4.1
		c8.1,0,16.1,0,24.2,0c4.9,0,4.9,0,4.9,4.8c0,34,0,68,0,102c0,4.6,0,4.6,4.6,4.6c38.9,0,77.9,0,116.8,0c4.3,0,4.3,0,4.3,4.2
		c0,32.6,0,65.2,0,97.7c0,16.6-10.2,31.5-25.6,37.6C264.1,276,261.2,276.7,258.3,277.6z M39,137.5c0,1.3,0,2.3,0,3.4
		c0,28.8,0,57.5,0,86.3c0,12.2,7.5,19.6,19.6,19.6c19.8,0,39.6,0,59.4,0c9.3,0,18.6,0,27.8,0c0.8,0,2,0.4,2.3-0.5
		c0.3-0.9-0.8-1.4-1.3-2c-0.2-0.2-0.4-0.4-0.6-0.6c-34.8-34.7-69.5-69.4-104.3-104.1C41.2,138.8,40.6,137.8,39,137.5z M261.1,137.5
		c-1.2,0.4-1.8,1.3-2.6,2C223.8,174.3,189,209,154.3,243.7c-0.3,0.3-0.7,0.6-1,1c-0.4,0.5-1.2,0.9-0.8,1.6c0.4,0.7,1.2,0.4,1.8,0.4
		c0.4,0,0.8,0,1.1,0c28.9,0,57.7,0,86.6,0c12,0,19.5-7.5,19.5-19.5c0-28.9,0-57.7,0-86.6C261.6,139.7,261.8,138.6,261.1,137.5z"/>
</g>
</svg>
