<?xml version="1.0" encoding="utf-8"?>
<!-- Generator: Adobe Illustrator 26.0.2, SVG Export Plug-In . SVG Version: 6.00 Build 0)  -->
<svg version="1.1" id="Capa_1" xmlns="http://www.w3.org/2000/svg" xmlns:xlink="http://www.w3.org/1999/xlink" x="0px" y="0px"
	 viewBox="0 0 300 300" style="enable-background:new 0 0 300 300;" xml:space="preserve">
<style type="text/css">
	.st0{fill:#003C82;}
</style>
<g>
	<path class="st0" d="M276.2,152c0,21.5,0,43.1,0.1,64.6c0,2.6-0.9,4-3.1,5.3c-37.6,21.6-75.1,43.3-112.7,64.9
		c-0.6,0.3-1.2,0.7-1.8,1c-1.4,0.8-2.2,0.6-2.2-1.2c0-0.7,0-1.4,0-2c0-43,0-85.9-0.1-128.9c0-2.9,0.8-4.7,3.4-6.2
		c37.8-21.7,75.5-43.4,113.2-65.2c2.8-1.6,3.1-1.4,3.1,2C276.2,108.2,276.2,130.1,276.2,152z"/>
	<path class="st0" d="M30.1,151.5c0-21.6,0-43.3,0-64.9c0-3.9,0.2-4,3.5-2.1c12.8,7.4,25.6,14.8,38.4,22.1c2.1,1.2,2.9,2.7,2.9,5.1
		c-0.1,10.7,0,21.4-0.1,32.1c0,2.3,0.8,3.7,2.8,4.8c9.4,5.3,18.8,10.7,28.1,16.2c2.2,1.3,2.7,1,2.7-1.5c-0.1-10.6,0-21.2,0-31.9
		c0-3.3,0.4-3.5,3.2-1.9c11.7,6.7,23.4,13.6,35.1,20.2c2.1,1.2,3,2.6,3,5c-0.1,43.5,0,87.1-0.1,130.6c0,3.3-0.3,3.5-3.2,1.8
		c-35.6-20.5-71.2-41.1-106.8-61.6c-1.7-1-3.3-2.1-5-2.9c-3.6-1.5-4.7-3.9-4.7-7.8C30.3,193.8,30.1,172.7,30.1,151.5z"/>
	<path class="st0" d="M197.6,33c-10.1,5.8-20.2,11.7-30.3,17.5c-28.8,16.6-57.7,33.3-86.5,50c-1.8,1-3.2,1.3-5.1,0.2
		C62.6,93,49.5,85.5,36.4,77.9c-2.9-1.7-2.9-2-0.1-3.6c38-21.9,76.1-43.9,114.1-65.9c2-1.2,3.5-1.2,5.5,0
		c13.1,7.7,26.2,15.2,39.4,22.8C196.1,31.6,197.1,31.9,197.6,33z"/>
	<path class="st0" d="M153.2,145.1c-0.8-0.4-1.6-0.7-2.4-1.2c-11.9-6.8-23.7-13.7-35.6-20.6c-2.9-1.7-2.9-1.9,0-3.6
		c26.9-15.5,53.8-31.1,80.8-46.6c11.1-6.4,22.3-12.8,33.3-19.3c2-1.2,3.4-1.3,5.5-0.1c11.6,6.8,23.2,13.5,34.8,20.2
		c3.4,1.9,3.4,2.1,0.1,4.1c-38,22-76.1,43.9-114.1,65.8C154.8,144.3,154,144.7,153.2,145.1z"/>
</g>
</svg>
