<?xml version="1.0" encoding="utf-8"?>
<!-- Generator: Adobe Illustrator 26.0.2, SVG Export Plug-In . SVG Version: 6.00 Build 0)  -->
<svg version="1.1" id="Capa_1" xmlns="http://www.w3.org/2000/svg" xmlns:xlink="http://www.w3.org/1999/xlink" x="0px" y="0px"
	 viewBox="0 0 300 300" style="enable-background:new 0 0 300 300;" xml:space="preserve">
<style type="text/css">
	.st0{fill:#003C82;}
</style>
<g>
	<path class="st0" d="M8.6,284.1c1.8-2.7,4.2-3.8,7.5-3.6c3,0.2,6.1-0.1,9.1,0.1c2.7,0.2,3.4-1,3.3-3.5c-0.1-7.1,0-14.2,0-21.3
		c0-26.8,0-53.7,0-80.5c0-4.6,0-4.6,4.5-4.6c17.7,0,35.3,0,53,0c3.7,0,3.8,0.1,3.8,3.8c0,34,0,68,0,102c0,3.9,0,3.9,3.9,3.9
		c7.5,0,14.9-0.1,22.4,0.1c3,0.1,3.6-1,3.6-3.7c-0.1-47-0.1-94.1-0.1-141.1c0-0.9,0-1.9,0-2.8c-0.1-1.8,0.8-2.5,2.6-2.5
		c18.7,0,37.4,0,56.1,0c2,0,2.8,0.8,2.7,2.7c-0.1,0.9,0,1.9,0,2.8c0,46.8,0,93.5,0,140.3c0,4.3,0,4.3,4.4,4.3c7.2,0,14.4,0,21.5,0
		c3.9,0,3.9,0,3.9-3.9c0-60.4,0-120.7,0-181.1c0-5.9-1-5.8,5.8-5.8c17.1,0,34.2,0,51.3,0c4.2,0,4.3,0.1,4.3,4.3
		c0,60.7,0,121.3,0,182c0,4.5,0,4.5,4.5,4.5c2.8,0,5.7,0.1,8.5,0c3-0.1,5.4,0.9,6.6,3.8c1.1,2.8,0.3,5.4-2.5,7.7
		c-0.2,0.2-0.4,0.4-0.6,0.6c-92.5,0-185,0-277.5,0.1c-2.1,0-2.8-0.5-2.6-2.6C8.7,288,8.6,286,8.6,284.1z"/>
	<path class="st0" d="M8.6,61.9c1.4-6.7,3.1-13.4,6.3-19.6c11.9-22.9,35.9-36,61.7-33c28,3.3,48.7,25.2,52.9,50.5
		c5.7,34.2-18.6,66.8-52.8,70.6C44,134.2,15.1,112.5,9.1,79.9c-0.1-0.7-0.3-1.5-0.5-2.2C8.6,72.4,8.6,67.1,8.6,61.9z M75.3,57.9
		C75.3,57.9,75.3,57.9,75.3,57.9c0-1.7,0.1-3.4,0-5.1c-0.1-1.9,0.9-2.3,2.5-1.7c1.9,0.6,3,2.1,4.2,3.6c1.1,1.4,2.7,2.2,4.5,1.7
		c1.6-0.4,3-1.3,3.4-3c0.5-1.9,0.1-3.6-1-5.1c-2.7-3.7-6.2-6.1-10.7-6.7c-2.2-0.3-3.1-1.2-3-3.5c0.1-1.9,0.2-3.8-0.4-5.6
		c-0.9-2.7-3.3-4.5-6-4.2c-2.8,0.2-5,2.4-5.2,5.4c-0.1,1.5-0.1,3,0,4.5c0.1,2.1-0.8,3-2.8,3.4c-8.9,1.8-14.2,8.1-14.1,16.6
		c0.1,8.3,5.7,14.7,14.4,16.2c1.7,0.3,2.5,1,2.5,2.8c0,2.5,0.1,5.1,0,7.6c-0.1,1.4,0.8,3.5-0.9,4.1c-1.8,0.7-3.4-0.7-4.7-2
		c-0.3-0.3-0.6-0.7-0.9-1.1c-2-2.4-4.9-3-6.9-1.5c-2.1,1.6-2.4,4.4-0.5,7.1c2.8,4.1,6.7,6.3,11.5,7.1c1.9,0.3,2.6,1.2,2.5,3
		c-0.1,1.8-0.1,3.6,0.1,5.4c0.3,2.7,2.4,4.6,5.1,4.8c2.6,0.2,5-1.4,5.9-3.9c0.5-1.5,0.7-3,0.5-4.5c-0.5-3.2,0.7-4.6,4-5.2
		c7.1-1.3,12.3-7.9,12.6-14.9c0.3-8.1-4.1-14.7-11.4-17c-5.2-1.6-5.2-1.6-5.2-7.3C75.3,58.5,75.3,58.2,75.3,57.9z"/>
	<path class="st0" d="M63.6,57.9c0,1.8,0,3.6,0,5.4c0,1.5-0.8,1.9-2.2,1.6c-3-0.7-5.4-3.8-5.3-7.1c0.1-3.2,2.4-6.2,5.3-6.8
		c1.5-0.3,2.2,0.2,2.2,1.7C63.6,54.3,63.6,56.1,63.6,57.9z"/>
	<path class="st0" d="M75.3,81.9c0-1.7,0-3.4,0-5.1c0-1.8,0.9-2.3,2.5-1.8c2.9,0.9,4.7,3.7,4.6,7.1c-0.1,3.2-2.1,5.8-4.8,6.6
		c-1.6,0.5-2.3-0.1-2.3-1.7C75.3,85.3,75.3,83.6,75.3,81.9z"/>
</g>
</svg>
