<?xml version="1.0" encoding="utf-8"?>
<!-- Generator: Adobe Illustrator 26.0.2, SVG Export Plug-In . SVG Version: 6.00 Build 0)  -->
<svg version="1.1" id="Capa_1" xmlns="http://www.w3.org/2000/svg" xmlns:xlink="http://www.w3.org/1999/xlink" x="0px" y="0px"
	 viewBox="0 0 300 300" style="enable-background:new 0 0 300 300;" xml:space="preserve">
<style type="text/css">
	.st0{fill:#003C82;}
</style>
<g>
	<path class="st0" d="M273.3,42.4c0,72.3,0,144.6,0,216.9c-0.3,1.1-0.6,2.2-0.9,3.3c-3.9,14.3-12.9,24-26.8,29.1
		c-2.1,0.8-4.4,1.3-6.5,1.9c-58.8,0-117.6,0-176.3,0c-0.9-0.3-1.8-0.6-2.7-0.8C40.9,288,28.3,272,28.3,252.3c0-67.9,0-135.8,0-203.7
		C28.3,26.3,46.5,8,68.8,8c54.7-0.1,109.3,0,164,0c17.6,0,33.4,11.6,38.7,28.4C272.2,38.4,272.7,40.4,273.3,42.4z M156.1,75.1
		c0-2.6,0-4.5,0-6.4c0-2.1,1.1-2.7,2.9-2.3c2.3,0.4,4,1.7,5.4,3.5c2.5,3.1,5.4,3.8,7.8,1.9c2.6-2,2.8-5,0.4-8.3
		c-3.3-4.6-7.9-7.1-13.5-7.6c-2.6-0.2-3.2-1.3-3.1-3.6c0.1-1.5,0-3,0-4.6c-0.1-4.1-1.9-6.2-5.1-6.3c-3.3,0-5.1,2.2-5.2,6.4
		c0,1.4-0.1,2.9,0,4.3c0.2,2.4-0.5,3.5-3.2,3.8c-10.2,1.1-17,8.9-16.9,18.9c0.1,9.5,7,16.9,17.1,18.1c2.4,0.3,3.1,1.2,3,3.4
		c-0.1,2.8,0.1,5.7-0.1,8.6c-0.1,1.4,0.7,3.3-1,4.1c-1.7,0.8-3.4-0.1-4.8-1.1c-0.9-0.6-1.7-1.5-2.5-2.3c-2.6-3.1-5.2-3.8-7.8-1.9
		c-2.6,1.9-2.8,5.1-0.4,8.3c3.4,4.6,8.1,7.2,13.8,7.7c2.3,0.2,2.9,1.2,2.9,3.3c0,2.5-0.3,5,0.3,7.4c0.7,2.4,2.2,3.8,4.7,3.8
		c2.7,0,4.3-1.3,4.9-3.8c0.3-1.3,0.3-2.6,0.4-4c0.1-5.8,0-5.8,5.7-7.1c8.2-1.8,14.2-9.1,14.4-17.3c0.2-8.8-5.3-16.4-13.4-18.8
		c-2.1-0.6-5.1,0.4-6.3-1.8C155.3,79.4,156.2,76.8,156.1,75.1z M120,170.7c16.2,0,32.3,0,48.5,0c1.1,0,2.3,0.1,3.4-0.1
		c2.9-0.4,4.7-2.4,4.9-5.1c0.2-3-1.2-5.2-4.2-5.9c-1.3-0.3-2.6-0.4-3.9-0.4c-32.2,0-64.4,0-96.7,0c-1.2,0-2.5,0-3.7,0.3
		c-3,0.6-5,3.2-4.8,5.9c0.2,2.8,2.5,5,5.4,5.3c1,0.1,2.1,0.1,3.1,0.1C88.1,170.7,104.1,170.7,120,170.7z M120.3,213.5
		c16.1,0,32.1,0,48.2,0c1.1,0,2.3,0,3.4-0.1c3-0.4,4.9-2.7,4.8-5.7c-0.1-2.9-1.9-5-4.9-5.3c-1.1-0.1-2.3-0.1-3.4-0.1
		c-32.1,0-64.3,0-96.4,0c-1.2,0-2.5,0-3.7,0.1c-2.1,0.2-3.5,1.4-4.3,3.3c-1.7,4,1.2,7.8,6.1,7.8C86.8,213.5,103.6,213.5,120.3,213.5
		z M120.1,256.4c16.2,0,32.3,0,48.5,0c1.1,0,2.3,0,3.4-0.1c2.9-0.4,4.7-2.5,4.7-5.5c0-3-1.8-5.2-4.7-5.5c-1.1-0.1-2.3-0.1-3.4-0.1
		c-32.2,0-64.5,0-96.7,0c-1.1,0-2.3,0-3.4,0.1c-2.9,0.3-5.1,2.9-5,5.6c0.1,2.7,2.2,5.1,5,5.4c1.1,0.1,2.3,0.1,3.4,0.1
		C88,256.4,104.1,256.4,120.1,256.4z M218.1,170.7c4.4,0,8.7,0,13.1,0c4.1,0,6.8-2.2,7-5.6c0.1-3.3-2.5-5.9-6.6-5.9
		c-9-0.1-18-0.1-27,0c-3.9,0.1-6.4,2.6-6.4,5.9c0.1,3.3,2.7,5.6,6.6,5.6C209.2,170.7,213.7,170.7,218.1,170.7z M218,213.5
		c4.7,0,9.3,0,14,0c3.6-0.1,6.3-2.5,6.3-5.6c0-3.3-2.4-5.6-6.3-5.6c-9.1-0.1-18.2-0.1-27.4,0c-4,0-6.5,2.3-6.4,5.7
		c0.1,3.2,2.7,5.5,6.4,5.5C209,213.5,213.5,213.5,218,213.5z M217.9,256.4c4.7,0,9.3,0,14,0c3.7-0.1,6.3-2.4,6.3-5.5
		c0-3.2-2.5-5.6-6.2-5.7c-9.2-0.1-18.4-0.1-27.6,0c-3.7,0-6.2,2.5-6.2,5.7c0.1,3.2,2.6,5.5,6.3,5.5
		C209,256.4,213.4,256.4,217.9,256.4z"/>
	<path class="st0" d="M156.1,101.1c0-2,0-4,0-6c0-1.6,0.9-2.1,2.4-2.1c3.8,0.2,7.1,3.7,7.1,7.9c0.1,4.2-3.2,8-7.1,8.2
		c-1.5,0.1-2.3-0.5-2.3-2.1C156.1,105.1,156.1,103.1,156.1,101.1z"/>
	<path class="st0" d="M145.6,74.6c0,1.9,0,3.8,0,5.7c0,1.8-1,2.3-2.6,2.1c-3.8-0.4-6.8-3.8-6.9-7.8c-0.1-4.2,2.8-7.7,6.8-8.2
		c1.7-0.2,2.8,0.3,2.8,2.2C145.6,70.6,145.6,72.6,145.6,74.6z"/>
</g>
</svg>
