<?xml version="1.0" encoding="utf-8"?>
<!-- Generator: Adobe Illustrator 26.0.2, SVG Export Plug-In . SVG Version: 6.00 Build 0)  -->
<svg version="1.1" id="Capa_1" xmlns="http://www.w3.org/2000/svg" xmlns:xlink="http://www.w3.org/1999/xlink" x="0px" y="0px"
	 viewBox="0 0 300 300" style="enable-background:new 0 0 300 300;" xml:space="preserve">
<style type="text/css">
	.st0{fill:#003C82;}
</style>
<g>
	<path class="st0" d="M174.4,3.1c5.5,0.5,11.1,0.9,16.6,1.7c15.9,2.1,31.7,4.6,46.4,11.5c29.9,13.9,48.3,37.1,56,68.9
		c4.1,17.1,4.8,34.5,3.7,52c-0.8,12.9-2.6,25.6-7.1,37.7c-10.8,29.2-31.5,46.4-62.2,51.5c-10.9,1.8-21.9,1.8-32.9,1.6
		c-6.6-0.1-9.2-2.7-10.3-9.3c-0.5-2.9-1.2-5.8-1.7-8.6c-1-0.3-1.3,0.5-1.8,0.9c-11.3,10.9-24.5,17.7-40.6,18.4
		c-8.3,0.4-16.5,0.1-24.5-1.9c-14.9-3.7-25.2-12.5-30.3-27.3c-3.4-9.8-5.1-19.9-5.7-30.3c-0.7-14.3-0.3-28.7,2.9-42.7
		c4.7-20.8,15.5-37.5,34.7-48.1c11.9-6.6,24.8-9.5,38.3-10.5c17.5-1.2,34.9,0.1,52.1,3.6c2.1,0.4,4.2,1,6.2,1.8
		c5.3,2.1,6.8,4.4,6.4,10.1c-1.4,20.7-2.9,41.5-4.3,62.2c-0.9,13-1.7,26-2.5,39c-0.3,4.3-0.6,8.6-1,12.9c-0.3,3.2,0,3.6,3.3,3.5
		c18.8-0.9,31.4-10.7,39.4-27.3c5.2-10.7,7-22.3,8-33.9c1.5-17.2,0.8-34.3-3.4-51.1c-4.1-16.5-11.4-31.2-25.1-41.8
		c-11.4-8.8-24.5-13.5-38.5-16c-29.6-5.3-59-3.9-87.6,4.8c-36.6,11-58.3,36.8-68,73.2c-3.3,12.6-4.6,25.4-5,38.4
		c-0.6,17.8,0.7,35.3,5.6,52.4c4.5,15.6,11.7,29.8,23.6,41.1c11.9,11.2,26,18.5,41.8,22.6c14.7,3.8,29.6,6,44.7,6.7
		c14.5,0.7,29,0.6,43.5-0.3c9.4-0.6,18.6-2.6,28-3.1c2.4-0.1,4.9-0.3,7.3-0.2c5,0.2,8,3.3,8.2,8.3c0.1,3.5-0.1,7.1,0.1,10.6
		c0.1,2.1-0.8,3.2-2.8,3.7c-8.2,2.3-16.5,3.4-24.8,4.6c-21.5,3.3-43.2,3.7-64.9,2.8c-23-1-45.7-4.1-67.3-12.7
		c-39.3-15.6-62.5-44.6-71.8-85.4c-1.9-8.2-2.8-16.6-4-24.9c0-13.3,0-26.7,0-40c1.1-7.6,1.8-15.3,3.4-22.9
		C14.4,73.6,34.1,44,67.6,24.2c20.2-11.9,42.5-16.7,65.4-19.4c5.9-0.7,11.9-1.1,17.8-1.7C158.7,3.1,166.6,3.1,174.4,3.1z
		 M163.5,95.1c-2,0-4.3-0.2-6.5,0c-7.7,0.6-15.1,2.1-21.6,6.7c-9.7,6.9-15.5,16.3-17.9,27.8c-1.7,7.9-2.5,15.9-2.8,23.9
		c-0.5,11-0.2,22,2.9,32.7c2.7,9.6,9,15.1,18.9,16.5c4.2,0.6,8.4,0.7,12.6,0.5c10.5-0.5,19.9-3.9,27.8-11.1c1.3-1.2,2.6-2.3,2.7-4.4
		c1-17.5,2-35,3-52.5c0.7-11.6,1.2-23.3,2.1-34.9c0.2-2.7-0.6-3.6-3-3.8C175.7,95.7,169.8,94.6,163.5,95.1z"/>
</g>
</svg>
