<?xml version="1.0" encoding="utf-8"?>
<!-- Generator: Adobe Illustrator 26.0.2, SVG Export Plug-In . SVG Version: 6.00 Build 0)  -->
<svg version="1.1" id="Capa_1" xmlns="http://www.w3.org/2000/svg" xmlns:xlink="http://www.w3.org/1999/xlink" x="0px" y="0px"
	 viewBox="0 0 300 300" style="enable-background:new 0 0 300 300;" xml:space="preserve">
<style type="text/css">
	.st0{fill:#003C82;}
</style>
<g>
	<path class="st0" d="M7.6,128c0-7,0-14.1,0-21.1c1-5.1,1.5-10.3,2.8-15.4c0.5-1.9,1.2-2.6,2.8-0.9c0.6,0.6,1.2,1.2,1.8,1.8
		c20.6,20.6,41.2,41.2,61.7,61.8c1.8,1.8,3.4,2.2,5.8,1.6c18-4.9,36-9.8,54-14.5c2.5-0.7,3.6-1.9,4.2-4.3
		c4.7-17.8,9.4-35.5,14.3-53.2c0.8-3,0.3-4.9-1.9-7c-20.7-20.6-41.4-41.3-62-61.9c-0.8-0.8-2.4-1.6-1.9-2.9c0.4-1.1,1.9-1,3-1.3
		c13.4-3.2,26.9-3.6,40.5-1.7c64.8,9.4,107.1,73.6,89.9,136.7c-0.9,3.4-0.2,5.4,2.1,7.7c21.9,21.8,43.8,43.7,65.6,65.5c3,3,3,3,0,6
		c-21.7,21.7-43.5,43.5-65.2,65.2c-1.1,1.1-2,2.3-3.1,3.4c-0.4,0-0.8,0-1.1,0c-23-23-46-46-69-69c-1.7-1.7-3.3-2.4-5.8-1.6
		c-14.7,4.2-29.8,5.4-44.9,2.9c-42.8-7.2-71.9-31.2-87.7-71.5C10.4,145.9,9,136.9,7.6,128z"/>
</g>
</svg>
