<?xml version="1.0" encoding="utf-8"?>
<!-- Generator: Adobe Illustrator 26.0.2, SVG Export Plug-In . SVG Version: 6.00 Build 0)  -->
<svg version="1.1" id="Capa_1" xmlns="http://www.w3.org/2000/svg" xmlns:xlink="http://www.w3.org/1999/xlink" x="0px" y="0px"
	 viewBox="0 0 300 300" style="enable-background:new 0 0 300 300;" xml:space="preserve">
<style type="text/css">
	.st0{fill:#003C82;}
</style>
<g>
	<path class="st0" d="M295,5.6c1.2,0.5,0.5,1.6,0.5,2.3c0,13.9,0,27.8,0,41.7c0,81.8,0,163.6,0,245.4c-1.2,0.1-2.5,0.2-3.7,0.2
		c-93.6,0-187.3,0-280.9,0c-4.9,0-5,0-5-4.9c0-59.2,0-118.4-0.1-177.6c0-2.8,0.8-4.9,2.7-6.9C39.9,72.4,71.1,39,102.2,5.6
		c0.2,0,0.4,0,0.6,0c0,1.6,0.1,3.3,0.1,4.9c0,31,0,61.9,0,92.9c0,1.2-0.3,2.5,0.4,3.8c1.5-0.7,2.3-2,3.4-3.1
		C134,75,161.2,45.9,188.3,16.7c3.4-3.7,7.1-7,10.1-11.2c0.4,0,0.8,0,1.2,0c0,33.8,0,67.6,0,101.4c1.5,0,1.9-0.9,2.5-1.5
		c21-22.5,42-44.9,63-67.4C275,27.2,285,16.4,295,5.6z M54.5,150.5c-5.8,0-11.6,0.1-17.3,0c-2.2,0-3.1,0.8-3.1,3.1
		c0.1,11.6,0.1,23.1,0,34.7c0,2.2,0.8,3.1,3.1,3.1c11.6-0.1,23.1-0.1,34.7,0c2.2,0,3.1-0.8,3.1-3.1c-0.1-11.6-0.1-23.1,0-34.7
		c0-2.2-0.8-3.1-3.1-3.1C66,150.6,60.3,150.5,54.5,150.5z M267.7,170.9c0-5.7-0.1-11.4,0-17.1c0-2.4-0.8-3.4-3.3-3.4
		c-11.4,0.1-22.7,0.1-34.1,0c-2.4,0-3.4,0.7-3.4,3.3c0.1,11.4,0.1,22.7,0,34.1c0,2.4,0.7,3.5,3.3,3.4c11.4-0.1,22.7-0.1,34.1,0
		c2.7,0,3.5-1.1,3.4-3.6C267.6,182.1,267.7,176.5,267.7,170.9z M130.6,170.9c0,5.7,0,11.4,0,17.1c0,2.3,0.8,3.3,3.2,3.3
		c11.4-0.1,22.7-0.1,34.1,0c2.4,0,3.2-1,3.2-3.3c-0.1-11.5,0-22.9,0-34.4c0-2.2-0.8-3.1-3.1-3.1c-11.5,0.1-22.9,0.1-34.4,0
		c-2.3,0-3.1,1-3.1,3.1C130.7,159.4,130.6,165.2,130.6,170.9z"/>
</g>
</svg>
