<?xml version="1.0" encoding="utf-8"?>
<!-- Generator: Adobe Illustrator 26.0.2, SVG Export Plug-In . SVG Version: 6.00 Build 0)  -->
<svg version="1.1" id="Capa_1" xmlns="http://www.w3.org/2000/svg" xmlns:xlink="http://www.w3.org/1999/xlink" x="0px" y="0px"
	 viewBox="0 0 300 300" style="enable-background:new 0 0 300 300;" xml:space="preserve">
<style type="text/css">
	.st0{fill:#003C82;}
</style>
<g>
	<path class="st0" d="M146.8,294.6c-7-2.7-9.2-8.3-9.2-15.3c0.1-15.6,0-31.2,0.1-46.8c0-2.4-0.7-3.7-3-4.8
		c-15.1-7-23.3-19-23.4-35.5c-0.1-16.4,7.9-28.5,22.8-35.6c2.7-1.3,3.6-2.6,3.6-5.6c-0.1-42.3-0.1-84.7,0-127c0-2.2,0.1-4.4,0.4-6.6
		C138.9,11.3,144,7,150.3,7c6.3,0,11.4,4.3,12.2,10.4c0.3,2.3,0.4,4.6,0.4,6.9c0,42.2,0,84.5,0,126.7c0,2.9,0.8,4.3,3.5,5.6
		c15,7.1,23,19.4,22.9,35.8c-0.1,16.4-8.4,28.3-23.3,35.3c-2.3,1.1-3.1,2.3-3.1,4.7c0.1,15.4,0.1,30.8,0,46.3c0,3-0.1,5.9-1.3,8.8
		c-1.5,3.6-4.5,5.6-7.9,7.1C151.4,294.6,149.1,294.6,146.8,294.6z M170.4,192.1c0-11.4-8.8-20.3-20-20.4c-11.3,0-20.2,8.9-20.2,20.2
		c0,11.4,8.8,20.3,20,20.4C161.5,212.3,170.4,203.4,170.4,192.1z"/>
	<path class="st0" d="M6.6,123.8c0.9-2.7,1.6-5.5,2.7-8.2c4.1-9.8,10.9-17,20.8-21.2c2.2-0.9,3-2.2,3-4.5c-0.1-23.1,0-46.2-0.1-69.3
		c0-3.2,0.6-6.3,2.6-8.9C38.7,7.7,44,6,48.9,7.5c5.1,1.5,8.5,5.7,8.9,11.2c0.1,1.1,0.1,2.3,0.1,3.4c0,22.5,0,45,0,67.5
		c0,2.5,0.7,3.9,3.1,5c15.4,7.2,23.5,19.4,23.3,36.4c-0.2,16.7-8.7,28.3-23.8,35.2c-2.4,1.1-2.7,2.5-2.7,4.7
		c0,36.4,0,72.8,0.1,109.2c0,7.1-2.6,12-9.4,14.5c-2.1,0-4.2,0-6.3,0c-6.7-2.5-9.4-7.4-9.4-14.5c0.1-36.4,0-72.8,0.1-109.2
		c0-2.6-0.7-4-3.2-4.9c-4.3-1.6-7.9-4.3-11.2-7.4c-6.5-6-10-13.7-11.9-22.1C6.6,132.3,6.6,128.1,6.6,123.8z M65.7,130.3
		c0-11.3-9-20.2-20.3-20.2c-11.3,0-20.3,8.9-20.3,20.2c0,11.1,9.2,20.4,20.3,20.4C56.4,150.7,65.7,141.4,65.7,130.3z"/>
	<path class="st0" d="M252,294.6c-6.7-2.5-9.4-7.4-9.4-14.5c0.1-49.9,0-99.8,0.1-149.7c0-3.1-1-4.4-3.8-5.8
		c-14.8-7.2-22.8-19.1-22.7-35.6c0-16.4,8.2-28.2,22.8-35.3c2.8-1.4,3.7-2.8,3.7-5.8c-0.2-9.5-0.1-19,0-28.4
		c0.1-5.7,3.3-10.1,8.3-11.9c5-1.7,10.3-0.2,13.7,3.9c2.1,2.5,2.8,5.4,2.8,8.6c0,9.6,0.1,19.2,0,28.7c0,2.3,0.6,3.5,2.9,4.5
		c14.9,6.9,23.3,18.5,23.6,35.1c0.3,17-7.9,29.2-23.2,36.4c-2.6,1.2-3.2,2.6-3.2,5.2c0.1,50,0,100,0.1,150c0,7.1-2.6,12-9.4,14.5
		C256.3,294.6,254.1,294.6,252,294.6z M255.1,109.4c11.3,0,20.3-8.9,20.3-20.1c0-11.1-9.2-20.4-20.2-20.4
		c-11-0.1-20.3,9.3-20.3,20.3C234.9,100.5,243.8,109.4,255.1,109.4z"/>
</g>
</svg>
