<?xml version="1.0" encoding="utf-8"?>
<!-- Generator: Adobe Illustrator 26.0.2, SVG Export Plug-In . SVG Version: 6.00 Build 0)  -->
<svg version="1.1" id="Capa_1" xmlns="http://www.w3.org/2000/svg" xmlns:xlink="http://www.w3.org/1999/xlink" x="0px" y="0px"
	 viewBox="0 0 300 300" style="enable-background:new 0 0 300 300;" xml:space="preserve">
<style type="text/css">
	.st0{fill:#003C82;}
</style>
<g>
	<path class="st0" d="M255.9,173.8c0,41.2,0,82.4,0,123.7c-1.1,0.1-2.1,0.2-3.2,0.2c-67.6,0-135.1,0-202.7,0c-4.4,0-4.4,0-4.4-4.4
		c0-37.7,0-75.4,0-113c0-2,0-3.9,0.3-5.9c4.2-27.3,25.3-45.4,53-45.4c13.7,0,27.4,0,41.1,0c-0.9-0.4-1.8-0.7-2.8-0.9
		c-27.4-6-47-28.3-49.5-57.6c-2.2-25.6,12.4-51,37.4-62.2c5.7-2.6,11.7-3.9,17.7-5.1c5.3,0,10.6,0,15.9,0c0.8,0.2,1.5,0.4,2.3,0.5
		c29.6,5.3,50.9,28.9,53.1,58.9c1.8,24.6-12.4,49-34.9,60.4c-5.5,2.8-11.4,4.6-17.5,6c14.1,0.1,28.3-0.1,42.4,0.2
		c21.5,0.5,37.2,10.6,47.1,29.7C253.7,163.5,254.8,168.7,255.9,173.8z"/>
</g>
</svg>
