<?xml version="1.0" encoding="utf-8"?>
<!-- Generator: Adobe Illustrator 26.0.2, SVG Export Plug-In . SVG Version: 6.00 Build 0)  -->
<svg version="1.1" id="Capa_1" xmlns="http://www.w3.org/2000/svg" xmlns:xlink="http://www.w3.org/1999/xlink" x="0px" y="0px"
	 viewBox="0 0 300 300" style="enable-background:new 0 0 300 300;" xml:space="preserve">
<style type="text/css">
	.st0{fill:#003C82;}
</style>
<g>
	<path class="st0" d="M253.4,41.6c0,72.8,0,145.6,0,218.4c-0.4,1.3-0.7,2.6-1.1,3.9c-4,13.9-12.7,23.4-26.3,28.5
		c-2.3,0.9-4.7,1.4-7.1,2.1c-36.6,0-73.1,0-109.7,0c-1-1-1.9-2.1-2.9-3.1c-18.5-18.6-37.1-37.1-55.6-55.7c-1.8-1.8-2.5-3.5-2.5-6.1
		c0.1-60.6,0-121.3,0.1-181.9C48.2,25.4,66.5,7,88.9,7c41.3-0.1,82.5,0,123.8,0c17.7,0,33.6,11.7,39,28.6
		C252.3,37.6,252.8,39.6,253.4,41.6z M100,109.7c0,14.6,0,29.1,0,43.7c0,10.9,6.7,17.6,17.5,17.6c22.2,0.1,44.4,0,66.6,0
		c10.8,0,17.5-6.7,17.5-17.6c0-29,0-58,0-87.1c0-10.9-6.8-17.7-17.8-17.7c-22,0-44,0-66,0c-11.1,0-17.8,6.7-17.8,17.9
		C100,80.9,100,95.3,100,109.7z"/>
</g>
</svg>
