<?xml version="1.0" encoding="utf-8"?>
<!-- Generator: Adobe Illustrator 26.0.2, SVG Export Plug-In . SVG Version: 6.00 Build 0)  -->
<svg version="1.1" id="Capa_1" xmlns="http://www.w3.org/2000/svg" xmlns:xlink="http://www.w3.org/1999/xlink" x="0px" y="0px"
	 viewBox="0 0 300 300" style="enable-background:new 0 0 300 300;" xml:space="preserve">
<style type="text/css">
	.st0{fill:#003C82;}
</style>
<g>
	<path class="st0" d="M184.1,5.6c7.5,1.8,14.5,4.5,20.3,9.7c8.9,8,14.2,17.8,14.3,29.8c0.2,19.4,0.1,38.9,0,58.3
		c-0.1,19.5-16.2,37-35.6,39.4c-5.9,0.7-11.8,0.4-17.8,0.4c-12.8,0.1-25.7,0.1-38.5,0c-20.2-0.1-37-13.7-41.1-33.5
		c-0.6-2.9-0.9-5.9-0.9-9c0-17.6,0-35.2,0-52.8c0-21.2,12.9-37.3,33.7-42.1c0.5-0.1,0.9-0.3,1.4-0.4C141.3,5.6,162.7,5.6,184.1,5.6z
		"/>
	<path class="st0" d="M296.8,260.6c-1.9,7.7-4.8,15-10.3,20.9c-7.8,8.4-17.4,13.5-29,13.6c-18.3,0.2-36.5,0.2-54.8,0
		c-19.1-0.1-36.8-16.2-39.1-35.3c-0.4-2.9-0.5-5.8-0.5-8.7c0-15.6,0-31.3,0-46.9c0-24.1,18.6-42.7,42.7-42.8c15.9-0.1,31.9,0,47.8,0
		c21.8,0,37.7,12.5,42.7,33.7c0.1,0.5,0.3,0.9,0.5,1.4C296.8,217.8,296.8,239.2,296.8,260.6z"/>
	<path class="st0" d="M72.5,295.2c-9.2,0-18.5,0.1-27.7,0C23.4,295,5,276.6,4.9,255.2c-0.1-17.8-0.1-35.6,0-53.4
		c0.1-20.4,16.4-38.1,36.7-40.1c3-0.3,6-0.4,9-0.4c17.7,0.3,35.4-0.8,53,0.5c19.5,1.5,36.1,19.4,36.9,38.9
		c0.7,16.9,0.3,33.8,0.3,50.7c0,15.9-6,28.7-19.7,37.5c-6.4,4.1-13.3,6.2-21,6.2C91,295.1,81.8,295.2,72.5,295.2z"/>
</g>
</svg>
