<?xml version="1.0" encoding="utf-8"?>
<!-- Generator: Adobe Illustrator 26.0.2, SVG Export Plug-In . SVG Version: 6.00 Build 0)  -->
<svg version="1.1" id="Capa_1" xmlns="http://www.w3.org/2000/svg" xmlns:xlink="http://www.w3.org/1999/xlink" x="0px" y="0px"
	 viewBox="0 0 300 300" style="enable-background:new 0 0 300 300;" xml:space="preserve">
<style type="text/css">
	.st0{fill:#003C82;}
</style>
<g>
	<path class="st0" d="M8.6,260.8c0-73.3,0-146.6,0-219.9c0.2-0.7,0.4-1.4,0.6-2.2C13.9,20.3,28.3,9,47.3,8.9c41.7,0,83.3,0,125,0
		c2.2,0,4.4,0,6.5,0.3c19.2,3.2,32.3,18.6,32.4,38.1c0,1.2-0.3,2.5,0.4,4c0.6-1,1.1-1.8,1.5-2.5c5.7-9.8,11.3-19.7,17-29.5
		c3-5.3,5.9-6,11.2-2.9c15.3,8.8,30.6,17.7,45.9,26.5c5.8,3.3,6.5,6.2,3.1,12c-25.8,44.7-51.6,89.3-77.4,133.9
		c-1.2,2.1-1.7,4.3-1.7,6.7c0.1,19.8,0.1,39.7,0,59.5c-0.1,12.3-5.3,22.2-14.9,29.8c-5,4-10.8,6.1-17,7.5c-46.3,0-92.6,0-138.9,0
		c-1-0.3-2-0.6-3-0.8c-10.8-2.8-18.9-9.1-24.4-18.7C10.8,269.2,9.7,265,8.6,260.8z M187.6,206c1.7-0.3,2-1.8,2.6-2.8
		c23.8-41.1,47.5-82.3,71.3-123.4c1.3-2.3,1-3.3-1.2-4.6c-11.1-6.3-22.1-12.7-33.1-19.2c-2.4-1.4-3.4-0.8-4.6,1.4
		c-4.9,8.6-9.9,17.2-14.8,25.8c-18.8,32.6-37.7,65.3-56.6,97.9c-1.4,2.3-1.1,3.5,1.3,4.8c11,6.2,21.9,12.6,32.9,18.9
		C186.2,205.3,186.9,205.7,187.6,206z M109.9,84.5c-19.6,0-39.1,0-58.7,0c-5.4,0-7.9,1.8-7.9,5.5c0,3.7,2.7,5.7,7.8,5.7
		c39,0,78,0,117,0c1,0,2.1,0,3.1-0.1c2.8-0.4,4.9-3,4.8-5.8c-0.1-2.8-2.1-4.9-5-5.2c-1.2-0.1-2.5-0.1-3.7-0.1
		C148.3,84.5,129.1,84.5,109.9,84.5z M109.7,43.9c-19.3,0-38.5,0-57.8,0c-1.2,0-2.5-0.1-3.7,0.1c-2.9,0.4-5,2.9-4.9,5.7
		c0.1,2.9,2.1,5,5.2,5.3c1.1,0.1,2.3,0.1,3.4,0.1c38.5,0,77.1,0,115.6,0c1.1,0,2.3,0,3.4-0.1c3.1-0.3,5.1-2.4,5.2-5.3
		c0.1-2.8-2-5.3-4.9-5.7c-1.2-0.2-2.4-0.1-3.7-0.1C148.3,43.9,129,43.9,109.7,43.9z M95.6,136.1c8.5,0,17,0,25.5,0
		c6.8,0,13.6,0,20.4,0c2.2,0,4.1-0.5,5.4-2.5c1.1-1.8,1.3-3.7,0.3-5.6c-1.2-2.1-3-3.1-5.3-3.1c-9.4,0-18.7,0-28.1,0
		c-21.2,0-42.3,0-63.5,0c-4.2,0-6.8,2.1-6.9,5.5c-0.1,3.6,2.4,5.6,6.9,5.7c0.8,0,1.5,0,2.3,0C66.8,136.1,81.2,136.1,95.6,136.1z
		 M83.4,176.8C83.4,176.8,83.4,176.8,83.4,176.8c7.4,0,14.7,0,22.1,0c4.2,0,8.3,0.1,12.5-0.1c3.2-0.1,5.5-2.6,5.5-5.7
		c0-3.1-2.1-5.2-5.4-5.4c-1-0.1-2.1-0.1-3.1-0.1c-21,0-42.1,0-63.1,0c-1.2,0-2.5,0-3.7,0.1c-2.5,0.2-3.9,1.7-4.6,4
		c-1.1,3.7,1.8,7.1,6.2,7.1C61,176.8,72.2,176.8,83.4,176.8z M79.3,257.8c8.6,0,17.2,0,25.8,0c1.5,0,3,0,4.5,0
		c3.3-0.2,5.7-2.5,5.8-5.5c0.1-2.8-2-5.2-5.2-5.8c-1-0.2-2.1-0.2-3.1-0.2c-18.5,0-37,0-55.5,0c-1.3,0-2.7,0.1-3.9,0.4
		c-2.7,0.6-4.4,2.9-4.4,5.5c0,2.7,2.1,5,4.8,5.5c1,0.2,2.1,0.1,3.1,0.1C60.6,257.8,70,257.8,79.3,257.8z M79.3,217.2
		C79.3,217.2,79.3,217.2,79.3,217.2c10,0,20,0,30,0c3.7,0,6.2-2.4,6.2-5.6c0-3.1-2.6-5.4-6.3-5.5c-0.4,0-0.8,0-1.1,0
		c-19.1,0-38.1,0-57.2,0c-0.9,0-1.9,0-2.8,0.1c-2.2,0.4-3.7,1.8-4.4,3.9c-0.7,2.1-0.1,3.9,1.3,5.5c1.4,1.6,3.3,1.7,5.2,1.7
		C59.9,217.2,69.6,217.2,79.3,217.2z M239.6,30.3c-1.1-0.2-1.5,0.6-1.9,1.2c-2,3.4-3.9,6.9-6,10.3c-0.8,1.4-0.4,2.2,0.9,3
		c11.5,6.6,23.1,13.3,34.6,20c1.6,0.9,2.6,0.6,3.4-1c1.7-3.1,3.5-6.3,5.4-9.3c1.2-2,0.6-2.9-1.2-4c-11.2-6.4-22.3-12.8-33.4-19.2
		C240.8,30.9,240.1,30.6,239.6,30.3z M143.6,235.5c0.1,0.9-0.5,2.3,0.4,2.9c1.2,0.8,2-0.6,2.9-1.2c9.8-6.6,19.5-13.2,29.3-19.8
		c1.6-1.1,2.4-1.8,0.1-3.1c-9.3-5.3-18.5-10.6-27.7-16c-1.8-1-2.2-0.5-2.4,1.3C145.5,211.5,144.6,223.4,143.6,235.5z"/>
</g>
</svg>
