<?xml version="1.0" encoding="utf-8"?>
<!-- Generator: Adobe Illustrator 26.0.2, SVG Export Plug-In . SVG Version: 6.00 Build 0)  -->
<svg version="1.1" id="Capa_1" xmlns="http://www.w3.org/2000/svg" xmlns:xlink="http://www.w3.org/1999/xlink" x="0px" y="0px"
	 viewBox="0 0 300 300" style="enable-background:new 0 0 300 300;" xml:space="preserve">
<style type="text/css">
	.st0{fill:#003C82;}
</style>
<g>
	<path class="st0" d="M292.6,294.3c-1.1,0.1-2.1,0.2-3.2,0.2c-35.4,0-70.8,0-106.2,0c-4.3,0-4.5,0-4.2-4.3
		c1.5-21.9,8.7-41.2,26.1-55.6c19.3-16,46-14.9,64.3,2.3c13.2,12.4,20.1,28.1,22.7,45.8c0.1,0.8,0.3,1.7,0.5,2.5
		C292.6,288.2,292.6,291.2,292.6,294.3z"/>
	<path class="st0" d="M184.3,6.3c7.5,1.6,14.9,3.6,21.5,7.8c16.1,10.2,25.3,24.7,27.1,43.8c0.1,1.1,0.3,2.3,0.3,3.4
		c0,3.1-1.9,5.3-4.5,5.4c-2.5,0-4.1-2-4.3-5.1c-0.5-10.8-3.6-20.6-10.5-29c-8.9-10.9-20.4-17-34.5-17.7c-0.4,0-0.8,0-1.2,0
		c-2.3-0.1-4.5-0.5-5.5-2.9c-1-2.3,0.2-4.1,1.7-5.7C177.7,6.3,181,6.3,184.3,6.3z"/>
	<path class="st0" d="M111,101.1c0-9.2,0-18.4,0-27.6c0-13.9,10.2-24.1,24-24.1c10.6,0,21.1,0,31.7,0c13.8,0,24,10.2,24,24.1
		c0,18.4,0,36.9,0,55.3c0,13.9-10.1,23.9-24,24c-10.8,0-21.7,0.1-32.5,0c-12.8-0.1-23-10.2-23.1-23.1C111,120.2,111,110.6,111,101.1
		z"/>
	<path class="st0" d="M65.6,294.5c-17.6,0-35.1,0-52.7,0c-3.9,0-4.1,0-3.9-4c1.4-23.4,9.4-43.6,28.8-58c17.6-13.1,41.8-12.1,58.7,2
		c15.5,13,23.1,30,25.6,49.6c0.3,2.4,0.3,4.8,0.6,7.2c0.3,2.6-0.9,3.3-3.3,3.3c-14.6-0.1-29.2,0-43.8,0
		C72.3,294.5,69,294.5,65.6,294.5z"/>
	<path class="st0" d="M96.3,183.3c-0.1,16.8-13.7,30.4-30.4,30.4c-16.8,0-30.9-14.1-30.8-30.9c0-16.9,14.1-30.5,31.4-30.4
		C83.1,152.5,96.4,166.3,96.3,183.3z"/>
	<path class="st0" d="M205.4,183.1c0-17.1,13.4-30.6,30.3-30.6c17,0,30.8,13.7,30.9,30.6c0.1,16.6-14,30.6-30.7,30.7
		C219.1,213.7,205.4,200,205.4,183.1z"/>
	<path class="st0" d="M135.5,196.3c3.3,0,6.5,0,9.8,0c3.7,0,3.7,0,3.7-3.9c0-5,0-10,0-15c0-0.8-0.4-1.9,0.6-2.3
		c0.8-0.3,1.4,0.5,2,0.9c12.1,9.1,24.3,18.2,36.4,27.3c1.8,1.4,1.5,2.2-0.1,3.4c-12.2,9.1-24.3,18.2-36.4,27.3
		c-0.6,0.4-1.2,1.2-2,0.9c-0.9-0.4-0.5-1.4-0.5-2.1c0-5.1,0-10.2,0-15.3c0-3.8,0-3.8-3.9-3.8c-6.6,0-13.2,0.1-19.9,0
		c-5.6-0.1-9.3-3.2-9.6-7.9c-0.4-5.2,3.2-9.2,8.6-9.4c0.2,0,0.4,0,0.6,0C128.4,196.3,131.9,196.3,135.5,196.3z"/>
	<path class="st0" d="M178.7,20.5c20,0.3,38.5,17.9,39.7,37.9c0.1,1.2,0.3,2.5,0.2,3.7c-0.2,2.7-2,4.5-4.3,4.5
		c-2.3,0-4.1-1.8-4.2-4.5c-0.5-7.8-2.6-14.9-7.7-20.9c-6.1-7.1-13.7-11.2-23.1-11.9c-1-0.1-1.9-0.1-2.9-0.3c-2.5-0.5-4-2-3.8-4.6
		c0.2-2.7,2-3.8,4.5-3.9C177.6,20.5,178.1,20.5,178.7,20.5z"/>
	<path class="st0" d="M204.1,60.7c-0.1,1.2,0.1,2.4-0.4,3.4c-0.9,1.7-2.3,2.7-4.2,2.5c-2-0.2-3.4-1.4-3.8-3.4
		c-0.4-1.9-0.4-3.8-0.9-5.7c-2-7.7-8.7-13.2-16.6-13.7c-0.6,0-1.2-0.1-1.7-0.2c-2.6-0.5-4.3-2.4-4-4.8c0.3-2.7,2.1-3.8,4.6-3.8
		c4.8-0.1,9.3,1.2,13.4,3.7C198.8,43.7,203.3,51.1,204.1,60.7z"/>
</g>
</svg>
