<?xml version="1.0" encoding="utf-8"?>
<!-- Generator: Adobe Illustrator 26.0.2, SVG Export Plug-In . SVG Version: 6.00 Build 0)  -->
<svg version="1.1" id="Capa_1" xmlns="http://www.w3.org/2000/svg" xmlns:xlink="http://www.w3.org/1999/xlink" x="0px" y="0px"
	 viewBox="0 0 300 300" style="enable-background:new 0 0 300 300;" xml:space="preserve">
<style type="text/css">
	.st0{fill:#003C82;}
</style>
<g>
	<path class="st0" d="M296.7,88.2c0,2.5,0,5.1,0,7.6c-0.3,0.8-0.6,1.6-0.9,2.5c-2.1,6.7-6.2,11.5-13,13.9c-3.8,1.3-7.5,2.7-11.4,3.6
		c-3.8,0.9-3.8,0.9-1.4,3.9c3.4,4.2,6.7,8.6,9.5,13.3c5.3,8.7,9.7,17.8,10.3,28.2c0.9,17.5,0.3,34.9,0.3,52.4c0,3-0.7,6-2.4,8.6
		c-1.1,1.5-1.4,3.1-1.4,4.9c0,9.3,0,18.6,0,28c0,1.7,0,3.3-1.4,4.6c-12.1,0-24.1,0-36.2,0c-1-1.9-1.1-3.9-1.1-5.9
		c0-7.2,0-14.4,0-21.5c0-4.4-0.2-4.6-4.6-4.6c-19.3,0-38.7,0-58,0c-42.2,0-84.3,0-126.5,0c-4.4,0-4.6,0.2-4.6,4.6
		c0,7.2,0,14.4,0,21.5c0,2-0.1,4.1-1.1,5.9c-12.1,0-24.1,0-36.2,0c-1.4-1.2-1.4-2.9-1.4-4.6c0-9.3,0-18.7,0-28
		c0-1.4,0.1-2.7-0.8-3.9c-2.6-3.6-3.1-7.7-3.1-11.9c0-14.7,0-29.3,0-44c0-8,1.6-15.6,4.8-22.9c4-9.3,9.6-17.5,16.1-25.2
		c1.5-1.8,1.4-2.4-1-2.9c-4.6-1-9-2.5-13.3-4.3c-8.8-3.6-12.5-10.7-13.1-19.6c-0.3-4,0.8-5.2,4.8-5.8c4.8-0.8,9.7-0.5,14.5-0.2
		c4.6,0.3,7.6,2.3,9.8,6.2c1.9,3.5,3.8,7,5.4,10.6c0.3,0.6,0.4,1.5,1.3,1.4c0.6-0.1,0.8-0.8,1-1.3c0.4-0.9,0.7-1.8,1.1-2.7
		C48.2,87,53.7,73.9,59.7,60.9c2.9-6.3,7.3-9.8,14-11.4c20.6-5.1,41.6-6.7,62.7-7.3c22.4-0.7,44.7,0,66.9,2.8
		c9.3,1.2,18.5,2.6,27.4,5.3c4.6,1.4,8.1,3.9,10.1,8.5c2,4.5,4.4,8.9,6.3,13.4c4.3,10,8.4,20.1,12.6,30.1c0.3,0.8,0.3,2,1.4,2
		c1,0,1.1-1.2,1.5-2c1.3-2.6,2.7-5.2,3.9-7.8c2.5-5.6,6.5-8.7,12.9-8.6C285.2,86,291.2,85,296.7,88.2z M234.1,105
		c4.6,0.1,6.9-2,7.2-6c0.1-1.7-0.2-3.3-0.9-4.8c-3.4-7.8-7-15.6-10.1-23.6c-2.4-6.2-6.7-9.4-13.2-10.8c-20.1-4.5-40.6-5.7-61-6.2
		c-15.9-0.4-31.8,0.6-47.7,2.3c-9.4,1-18.7,2.3-27.7,5.1c-3.2,1-5.7,2.7-7.2,5.9c-4.6,9.2-8.7,18.7-12.3,28.3
		c-2.4,6.3,1.2,10.7,7.9,9.8c17.6-2.5,35.3-3.6,53.1-4.4c19.1-0.8,38.3-0.8,57.4,0c10.6,0.4,21.1,1,31.7,2
		C219,103.2,226.8,104.1,234.1,105z M151,158.3c-21.5,0-42.9,0-64.4,0c-4.2,0-6.1,2.5-4.4,5.9c7,13.4,19.8,26.4,39.2,26.4
		c19.6,0,39.2,0,58.9,0c2.8,0,5.6-0.3,8.4-0.9c13.8-3,22.9-12,29.9-23.7c3.1-5.1,1.5-7.7-4.4-7.7C193.2,158.3,172.1,158.3,151,158.3
		z M265,143.2c-7.9,0.6-15.7,2.1-23.4,4.3c-2.3,0.7-3.7,2.4-4.5,4.6c-2,6-4,11.9-6,17.9c-0.6,1.7-0.3,2.6,1.8,2.2
		c4.7-0.8,9.4-1.3,14.1-2.1c9.8-1.7,19.4-3.7,28.9-6.8c2-0.6,2.6-1.6,2-3.6c-1.2-4-2.4-8-4.4-11.7C271.7,144.6,268.9,143,265,143.2z
		 M36.9,143.2c-4.1-0.3-6.9,1.4-8.8,5c-1.8,3.4-3,6.9-4,10.6c-1,3.6-0.9,3.7,2.7,4.9c13.7,4.3,27.9,6.8,42.1,8.7
		c2,0.3,2.3-0.5,1.7-2.1c-2.1-6.2-4.1-12.3-6.2-18.5c-0.7-2.1-2.2-3.7-4.4-4.3C52.4,145.4,44.8,143.8,36.9,143.2z M264,204.3
		c0.1-6.3-3.8-11.3-9.1-11.6c-5.7-0.3-10,4.4-10.3,11c-0.3,6.3,4.1,11.6,9.6,11.7C259.7,215.5,263.9,210.7,264,204.3z M57,203.9
		c0-6.4-4-11.1-9.4-11.2c-5.6-0.1-9.8,4.6-9.9,11c-0.1,6.6,4,11.6,9.5,11.7C52.9,215.5,57,210.5,57,203.9z"/>
</g>
</svg>
