<?xml version="1.0" encoding="utf-8"?>
<!-- Generator: Adobe Illustrator 26.0.2, SVG Export Plug-In . SVG Version: 6.00 Build 0)  -->
<svg version="1.1" id="Capa_1" xmlns="http://www.w3.org/2000/svg" xmlns:xlink="http://www.w3.org/1999/xlink" x="0px" y="0px"
	 viewBox="0 0 300 300" style="enable-background:new 0 0 300 300;" xml:space="preserve">
<style type="text/css">
	.st0{fill:#003C82;}
</style>
<g>
	<path class="st0" d="M130.3,293.6c-0.4,0-0.8,0-1.1,0c-0.9-1-1.7-2-2.7-3c-38.6-38.7-77.3-77.3-116-116c-0.9-0.9-2-1.8-3-2.7
		c0-0.4,0-0.8,0-1.1c0.9-0.9,1.8-1.7,2.6-2.6C62.7,115.8,115.1,63.3,167.5,10.8c2.1-2.1,3.9-2.9,7-2.3c31.6,6.4,63.2,12.7,94.8,19
		c2.6,0.5,3.8,1.7,4.3,4.3c6.1,30.7,12.1,61.4,18.5,92c1,5,0,8.1-3.6,11.6C235.7,188.1,183,240.8,130.3,293.6z M191.2,69.8
		c-22.5-0.1-40.6,17.9-40.7,40.2c-0.1,22.1,18.2,40.5,40.4,40.7c22.3,0.1,40.4-18,40.5-40.4C231.5,87.6,213.8,69.8,191.2,69.8z"/>
</g>
</svg>
