<?xml version="1.0" encoding="utf-8"?>
<!-- Generator: Adobe Illustrator 26.0.2, SVG Export Plug-In . SVG Version: 6.00 Build 0)  -->
<svg version="1.1" xmlns="http://www.w3.org/2000/svg" xmlns:xlink="http://www.w3.org/1999/xlink" x="0px" y="0px"
	 viewBox="0 0 320 320" style="enable-background:new 0 0 320 320;" xml:space="preserve">
<style type="text/css">
	.st0{fill:#666666;}
	.st1{fill:#CCCCCC;}
	.st2{clip-path:url(#SVGID_00000052811311821592743100000001514544107657122749_);}
	.st3{fill:#4D4D4D;}
	.st4{fill:#606060;}
	.st5{fill:#999999;}
</style>
<g id="Perfil">
</g>
<g id="Menú_3B">
	<path class="st0" d="M282.3,204.1c-2-3.7-5-5.1-9.2-5c-7,0.2-13.9,0.1-20.9,0c-8-0.1-14.9-6.5-15.3-14.3
		c-0.5-8.4,5.3-15.3,13.6-16.3c7.8-0.9,15.6-0.3,23.5-0.4c3.9,0,6.7-1.4,8.3-5c0-24.5,0-49.1,0-73.6c-1.8-3.6-4.8-4.9-8.7-4.9
		c-18.6,0-37.1,0-55.7,0c-3.8,0-3.7,0-3.9-3.8c-0.1-4.4,0.2-8.8-0.2-13.2c-0.4-16.3-13.7-29.5-30.1-29.5c-13.5,0-24.9,8.8-28.7,21
		c0,0,0,0.1,0,0.1c0,0,0,0,0,0.1c-1,2.7-1.5,5.6-1.5,8.6c0,4.4,0,8.9,0,13.3c0,3.1-0.1,3.2-3.2,3.2c-18.8,0-37.5,0-56.3,0
		c-6.5,0-9.4,2.9-9.4,9.4c0,18.8,0,37.5,0,56.3c0,3.1-0.1,3.2-3.2,3.2c-5.4,0.1-10.8-0.5-16.1,0.2c-15.5,1.3-27.6,14.2-27.6,30
		c0,15.8,12.2,28.8,27.7,30c5.1,0.7,10.3,0.2,15.5,0.4c3.8,0.1,3.7,0,3.7,3.9c0,18.6,0,37.2,0,55.7c0,3,0.8,5.6,3,7.7
		c25.8,0,51.6,0,77.4,0c2.2-1.9,3.1-4.2,3.1-7.1c-0.1-6.7-0.1-13.4,0-20.1c0.1-5.7,1.6-10.8,6.6-14.2c5.2-3.6,10.7-4.1,16.3-1
		c5.2,2.8,8,7.4,8.1,13.3c0.1,6.9,0.2,13.7,0,20.6c-0.1,3.4,0.7,6.2,3,8.6c26.1,0,52.2,0,78.4,0c1.6,0,2-0.3,1.9-1.9
		C282.3,254.5,282.3,229.3,282.3,204.1z"/>
</g>
<g id="Menú_2B_01">
</g>
<g id="Menú_2_B">
</g>
<g id="Menú_2_A">
</g>
<g id="Menú_1">
</g>
</svg>
