<?xml version="1.0" encoding="utf-8"?>
<!-- Generator: Adobe Illustrator 26.0.2, SVG Export Plug-In . SVG Version: 6.00 Build 0)  -->
<svg version="1.1" xmlns="http://www.w3.org/2000/svg" xmlns:xlink="http://www.w3.org/1999/xlink" x="0px" y="0px"
	 viewBox="0 0 320 320" style="enable-background:new 0 0 320 320;" xml:space="preserve">
<style type="text/css">
	.st0{fill:#666666;}
	.st1{fill:#CCCCCC;}
	.st2{clip-path:url(#SVGID_00000120517368355049273080000013847284488151074479_);}
	.st3{fill:#4D4D4D;}
	.st4{fill:#606060;}
	.st5{fill:#999999;}
</style>
<g id="Perfil">
</g>
<g id="Menú_3B">
</g>
<g id="Menú_2B_01">
</g>
<g id="Menú_2_B">
</g>
<g id="Menú_2_A">
</g>
<g id="Menú_1">
	<g id="Grupo_291_00000139985156900576625720000007975308304093012641_" transform="translate(-44.453 -13.57)">
		<path id="Trazado_97_00000041259949832284877440000011169161160028208564_" class="st4" d="M226.8,83.8h-54.7
			c-4.3,0-7.9,3.5-7.9,7.9c0,0,0,0,0,0v64.8c0,4.3,3.5,7.9,7.9,7.9h0h126.3c4.3,0,7.9-3.5,7.9-7.9v0V91.7c0-4.3-3.5-7.9-7.9-7.9l0,0
			L226.8,83.8z"/>
		<path id="Trazado_98_00000077304416150955660620000004166956807845036202_" class="st4" d="M300.4,255H187.2
			c-4.1-13.6-14.5-24.3-28-28.7V58.2c0-3.6-2.4-6.7-5.8-7.7l-43.1-12.3c-3.7-1-7.5,1.1-8.6,4.8c-0.2,0.6-0.3,1.3-0.3,1.9v3.3
			c0,3.6,2.4,6.7,5.8,7.7l19.6,5.6c3.4,1,5.7,4.1,5.7,7.6v157.3c-22.1,7.2-34.6,30.6-28.2,52.9c3.9,14.3,15.1,25.5,29.4,29.5
			c22,6.4,45.2-5.5,52.8-27.2h113.9c3.9,0,7.1-3.2,7.1-7.1V262C307.5,258.1,304.4,255,300.4,255L300.4,255z M168.7,279.6
			c-6,11-18.9,16.2-30.8,12.4c-7.8-2.3-14-8.3-16.6-16c-4.9-13.5,2.1-28.4,15.6-33.3c12.1-4.4,25.6,0.8,31.7,12.1
			C172.9,262.7,172.9,271.9,168.7,279.6L168.7,279.6z"/>
		<path id="Trazado_99_00000009578821977092426580000008543917231919612602_" class="st4" d="M227,169.6h-54.9
			c-4.1,0-7.5,3.4-7.5,7.5v40.4c0,2.8,1.5,5.3,4,6.6c9,4.9,16.2,12.4,20.7,21.6c1.3,2.6,3.9,4.3,6.8,4.3h102.7
			c4.1,0,7.5-3.4,7.5-7.5v-65.4c0-4.1-3.3-7.5-7.5-7.5L227,169.6z"/>
	</g>
</g>
</svg>
