<?xml version="1.0" encoding="utf-8"?>
<!-- Generator: Adobe Illustrator 26.0.2, SVG Export Plug-In . SVG Version: 6.00 Build 0)  -->
<svg version="1.1" xmlns="http://www.w3.org/2000/svg" xmlns:xlink="http://www.w3.org/1999/xlink" x="0px" y="0px"
	 viewBox="0 0 320 320" style="enable-background:new 0 0 320 320;" xml:space="preserve">
<style type="text/css">
	.st0{fill:#666666;}
	.st1{fill:#CCCCCC;}
	.st2{clip-path:url(#SVGID_00000061467959667726458840000001202746360044358318_);}
	.st3{fill:#4D4D4D;}
	.st4{fill:#606060;}
	.st5{fill:#999999;}
</style>
<g id="Perfil">
</g>
<g id="Menú_3B">
	<g id="Grupo_432" transform="translate(-56.501 -22.536)">
		<g>
			<defs>
				<path id="SVGID_1_" d="M314.9,249.8c1-44.4-25.6-84.8-66.8-101.4c13.8-9.5,22-25.1,22.1-41.8c-1-29.6-25.8-52.8-55.4-51.8
					c-28.2,0.9-50.9,23.6-51.8,51.8c0.1,16.7,8.3,32.3,22.1,41.8c-41.2,16.6-67.8,57-66.8,101.4c-0.1,21.4,5.9,42.4,17.3,60.6h162.2
					C309,292.2,315,271.2,314.9,249.8z"/>
			</defs>
			<clipPath id="SVGID_00000013189433202717176750000013363758306163872913_">
				<use xlink:href="#SVGID_1_"  style="overflow:visible;"/>
			</clipPath>
			
				<g id="Grupo_432-2" transform="translate(56.501 22.536)" style="clip-path:url(#SVGID_00000013189433202717176750000013363758306163872913_);">
				<ellipse id="Elipse_9" class="st3" cx="160" cy="158.6" rx="133.9" ry="129.2"/>
			</g>
		</g>
	</g>
</g>
<g id="Menú_2B_01">
</g>
<g id="Menú_2_B">
</g>
<g id="Menú_2_A">
</g>
<g id="Menú_1">
</g>
</svg>
