<?xml version="1.0" encoding="utf-8"?>
<!-- Generator: Adobe Illustrator 26.0.2, SVG Export Plug-In . SVG Version: 6.00 Build 0)  -->
<svg version="1.1" xmlns="http://www.w3.org/2000/svg" xmlns:xlink="http://www.w3.org/1999/xlink" x="0px" y="0px"
	 viewBox="0 0 320 320" style="enable-background:new 0 0 320 320;" xml:space="preserve">
<style type="text/css">
	.st0{fill:#666666;}
	.st1{fill:#CCCCCC;}
	.st2{clip-path:url(#SVGID_00000130636733660671530510000016721536875307000996_);}
	.st3{fill:#4D4D4D;}
	.st4{fill:#606060;}
	.st5{fill:#999999;}
</style>
<g id="Perfil">
</g>
<g id="Menú_3B">
</g>
<g id="Menú_2B_01">
</g>
<g id="Menú_2_B">
	<g>
		<g>
			<g>
				<g>
					<path class="st4" d="M254.8,216.4l-37.3-37.3c-0.4-0.4-1.3-0.2-1.9,0.4l-7.4,7.4c-0.6,0.6-0.8,1.5-0.4,1.9l1.8,1.8l33.7,33.7
						l1.8,1.8c0.4,0.4,1.3,0.2,1.9-0.4l7.4-7.4C255,217.7,255.2,216.8,254.8,216.4z"/>
				</g>
				<g>
					<path class="st4" d="M104.4,179.5c-0.6-0.6-1.5-0.8-1.9-0.4l-37.3,37.3c-0.4,0.4-0.2,1.3,0.4,1.9l7.4,7.4
						c0.6,0.6,1.5,0.8,1.9,0.4l1.8-1.8l33.7-33.7l1.8-1.8c0.4-0.4,0.2-1.3-0.4-1.9L104.4,179.5z"/>
				</g>
			</g>
			<g>
				<path class="st4" d="M214.4,177.8H105.7c-2.5,0-4.6,2-4.6,4.6v91.1c0,3.1,2.5,5.6,5.6,5.6h106.7c3.1,0,5.6-2.5,5.6-5.6v-91.1
					C219,179.9,216.9,177.8,214.4,177.8z M183.9,199c0,2-1.6,3.6-3.6,3.6h-40.7c-2,0-3.6-1.6-3.6-3.6v-7.3c0-2,1.6-3.6,3.6-3.6h40.7
					c2,0,3.6,1.6,3.6,3.6V199z"/>
			</g>
		</g>
		<g>
			<path class="st4" d="M71.1,40.9v12.5c0.4,0.1,0.8,0.2,1.3,0.2c12-0.1,24,0,36,0c2.5,0,5.1,0.1,7.6,0c1.7-0.1,2.2,0.7,2.2,2.3
				c-0.1,6.2,0,12.3-0.1,18.5c0,1.8,0.5,2.8,2.3,3.3c6.4,2.1,12.8,4.3,19.2,6.4c0.4,0.1,0.9,0.3,1.3,0.5c0.6,0.2,1.2,0.5,1.2,1.2
				c0,0.7-0.6,1-1.1,1.3c-2.9,1.5-5.7,2.9-8.6,4.4c-8.2,4.1-16.4,8.2-24.6,12.2c-1.2,0.6-1.8,1.3-1.8,2.8c0,10,0,20.1,0,30.1
				c0,1.1,0.2,1.8,0.9,2.1h23.6v-12.2h-2.2c-2.7-0.1-5.4,0-8,0c-1.3,0-1.8-0.6-1.8-1.9c0-3.5,0-7.1,0-10.6c0-1.2,0.5-1.8,1.5-2.3
				c8.8-4.4,17.6-8.8,26.4-13.2c1-0.5,1.8-0.4,2.7,0.2c7.5,5.5,15.4,5.5,22.8-0.1c0.9-0.7,1.6-0.7,2.6-0.2c8.9,4.5,17.8,9,26.7,13.4
				c0.9,0.4,1.3,1.1,1.3,2.1c0,3.6,0,7.2,0,10.8c0,1.1-0.4,1.7-1.7,1.7c-2.1,0-4.2,0-6.3,0v0h-4v12.2h23.6c0.6-0.3,0.9-1,0.9-2.1
				c-0.1-10-0.1-20,0-29.9c0-1.6-0.6-2.4-2-3c-10.9-5.4-21.7-10.8-32.5-16.3c-0.7-0.3-1.7-0.5-1.6-1.6c0.1-1.2,1.2-1.2,1.9-1.4
				c6.6-2.2,13.2-4.5,19.8-6.6c1.8-0.6,2.4-1.5,2.3-3.3c-0.1-6.1,0-12.2-0.1-18.3c0-1.9,0.5-2.6,2.5-2.5c14.3,0.1,28.7,0,43,0
				c0.2,0,0.4,0,0.6,0V40.9C189.7,41,130.4,41,71.1,40.9z M188.9,68.3c-4.3,1.4-8.5,2.8-12.7,4.3c-1,0.3-1.6,0-2.3-0.7
				c-6.5-6.6-15.2-7.6-23.1-2.9c-1.2,0.7-2.3,1.5-3.1,2.5c-1,1.3-2.1,1.3-3.5,0.8c-3.9-1.4-7.8-2.7-11.8-3.9
				c-1.4-0.4-1.8-1.3-1.8-2.7c0.1-3.3,0.1-6.6,0-9.8c0-1.7,0.6-2.2,2.2-2.2c9.3,0,18.6,0,27.9,0c0,0,0,0,0,0c9,0,18.1,0,27.1,0
				c2.7,0,2.7,0.1,2.7,2.7c0,3.2,0,6.4,0,9.6C190.5,67.2,190.1,67.9,188.9,68.3z"/>
			<path class="st4" d="M141.6,166.1h38.1c4.3,0,7.8-3.5,7.8-7.8v-27.9c0-4.3-3.5-7.8-7.8-7.8h-38.1c-4.3,0-7.8,3.5-7.8,7.8v27.9
				C133.8,162.6,137.3,166.1,141.6,166.1z"/>
		</g>
	</g>
</g>
<g id="Menú_2_A">
</g>
<g id="Menú_1">
</g>
</svg>
