<?xml version="1.0" encoding="utf-8"?>
<!-- Generator: Adobe Illustrator 26.0.2, SVG Export Plug-In . SVG Version: 6.00 Build 0)  -->
<svg version="1.1" xmlns="http://www.w3.org/2000/svg" xmlns:xlink="http://www.w3.org/1999/xlink" x="0px" y="0px"
	 viewBox="0 0 320 320" style="enable-background:new 0 0 320 320;" xml:space="preserve">
<style type="text/css">
	.st0{fill:#666666;}
	.st1{fill:#CCCCCC;}
	.st2{clip-path:url(#SVGID_00000033366217112236179300000010420366658228891534_);}
	.st3{fill:#4D4D4D;}
	.st4{fill:#606060;}
	.st5{fill:#999999;}
</style>
<g id="Perfil">
</g>
<g id="Menú_3B">
</g>
<g id="Menú_2B_01">
</g>
<g id="Menú_2_B">
</g>
<g id="Menú_2_A">
</g>
<g id="Menú_1">
	<path id="Trazado_10_00000179614442762806355470000004025993187925898156_" class="st4" d="M160.2,35.7c5.2,0,10.4,0,15.6,0
		c3.4,0,4.2,0.8,4.2,4.2c0,8.1,0.1,16.2,0,24.3c0,2.4,0.8,3.4,3.1,3.9c9.3,2.2,18.1,5.9,26.1,11c1.1,1,2.9,0.9,3.9-0.2
		c0.1-0.1,0.1-0.2,0.2-0.3c5.6-5.8,11.4-11.5,17-17.3c2.8-2.8,4-2.9,6.8-0.1c7.2,7.2,14.4,14.4,21.7,21.6c2.5,2.5,2.6,3.9,0,6.4
		c-5.8,5.8-11.5,11.6-17.4,17.3c-1.3,0.9-1.7,2.8-0.7,4.2c0.1,0.1,0.2,0.2,0.3,0.3c5,7.9,8.6,16.6,10.7,25.7
		c0.6,2.5,1.7,3.2,4.1,3.2c7.9-0.1,15.8-0.1,23.7,0c3.8,0,4.5,0.7,4.5,4.5c0.1,10.4,0.1,20.8,0.2,31.2c0,3.2-0.8,4.1-4,4.1
		c-8.3,0-16.6,0.1-24.8,0c-1.7-0.3-3.3,0.9-3.5,2.5c0,0.1,0,0.2,0,0.3c-2.2,9.5-6,18.6-11.2,26.9c-0.9,1.1-0.7,2.6,0.3,3.5
		c0.1,0,0.1,0.1,0.2,0.1c5.9,5.8,11.7,11.7,17.5,17.5c2.7,2.7,2.7,3.9,0,6.6c-7.1,7.1-14.1,14.2-21.3,21.3c-2.9,2.9-4.1,2.9-7,0
		c-5.6-5.5-11.2-11.1-16.7-16.8c-1.1-1.5-3.2-1.9-4.7-0.8c-0.1,0.1-0.2,0.2-0.3,0.2c-8,5-16.8,8.6-26,10.7c-1.7,0.1-2.9,1.6-2.8,3.3
		c0,0.1,0,0.3,0.1,0.4c0.1,7.9,0,15.8,0,23.8c0,4.3-0.7,5-4.8,5c-10.2,0-20.4,0-30.6,0c-3.6,0-4.3-0.7-4.3-4.4
		c0-8.2-0.1-16.4,0-24.6c0.3-1.6-0.8-3.1-2.4-3.4c-0.1,0-0.2,0-0.3,0c-9.5-2.2-18.6-6-26.9-11.2c-0.9-0.9-2.4-0.8-3.3,0.1
		c-0.1,0.1-0.2,0.2-0.2,0.3c-5.8,5.9-11.7,11.7-17.5,17.6c-2.8,2.7-3.9,2.8-6.6,0c-7.2-7.1-14.3-14.3-21.4-21.5
		c-2.8-2.8-2.8-4.1,0-6.9c5.8-5.9,11.6-11.7,17.6-17.5c1.2-1.1,1.4-1.9,0.5-3.3c-5.3-8.3-9.1-17.4-11.3-26.9
		c-0.1-1.8-1.8-3.2-3.6-3.1c-0.1,0-0.2,0-0.4,0c-8.1,0.1-16.2,0.1-24.3,0c-3.4,0-4.2-0.8-4.2-4.2c0-10.2,0-20.4,0-30.6
		c0-3.9,0.9-4.9,4.8-4.9c7.8-0.1,15.6-0.1,23.5,0c2,0.4,3.9-0.9,4.3-2.9c0-0.1,0-0.2,0-0.4c2.1-9.1,5.7-17.8,10.7-25.7
		c1.1-1.2,1-3.1-0.2-4.2c-0.1-0.1-0.2-0.2-0.4-0.3c-5.9-5.7-11.6-11.5-17.4-17.3c-2.4-2.4-2.4-3.8,0-6.2
		c7.1-7.2,14.3-14.3,21.4-21.5c3-3,4-3,6.9-0.1c5.7,5.7,11.4,11.3,16.9,17c1,1.4,2.9,1.7,4.2,0.8c0.1-0.1,0.2-0.1,0.3-0.2
		c8.1-5,16.9-8.7,26.2-10.9c2.3-0.5,2.9-1.6,2.9-3.8c-0.1-8-0.1-16,0-24c0-3.9,0.6-4.5,4.6-4.6C150,35.7,155.1,35.7,160.2,35.7z
		 M211.1,160.2c0.5-28.2-21.9-51.5-50.2-52.1c-28.2-0.5-51.5,21.9-52.1,50.2c0,0.4,0,0.8,0,1.1c-0.5,28.2,21.9,51.5,50.2,52.1
		c28.2,0.5,51.5-21.9,52.1-50.2C211.1,161,211.1,160.6,211.1,160.2z"/>
</g>
</svg>
