<?xml version="1.0" encoding="utf-8"?>
<!-- Generator: Adobe Illustrator 26.0.2, SVG Export Plug-In . SVG Version: 6.00 Build 0)  -->
<svg version="1.1" xmlns="http://www.w3.org/2000/svg" xmlns:xlink="http://www.w3.org/1999/xlink" x="0px" y="0px"
	 viewBox="0 0 320 320" style="enable-background:new 0 0 320 320;" xml:space="preserve">
<style type="text/css">
	.st0{fill:#666666;}
	.st1{fill:#CCCCCC;}
	.st2{clip-path:url(#SVGID_00000049932408320578328480000010124997061075937201_);}
	.st3{fill:#4D4D4D;}
	.st4{fill:#606060;}
	.st5{fill:#999999;}
</style>
<g id="Perfil">
</g>
<g id="Menú_3B">
	<g>
		<path class="st0" d="M148.3,118.9c-18,18-18,47.3,0,65.3l0,0.1c18,18,47.3,18,65.3-0.1c0,0,0,0,0,0c18-18,18-47.3,0-65.3
			C195.6,100.9,166.3,100.9,148.3,118.9z"/>
		<path class="st0" d="M111.3,32.2l1.3,45.3l-50.6,0.1v210.2h196.2V32.2H111.3z M224.3,195c-20.6,20.6-52.9,23.9-77.2,7.8
			c-0.9-0.6-2-0.4-2.7,0.4c-14.6,17.1-30.5,33-47.5,47.8c-2.3,2-5.7,1.9-7.9-0.2l-7.3-7.3c-2.1-2.1-2.2-5.6-0.3-7.9
			c14.7-17.1,30.7-32.9,47.9-47.5c0.8-0.7,1-1.8,0.4-2.7c-16.1-24.3-12.8-56.6,7.8-77.2c24-23.9,62.8-23.9,86.7,0
			C248.3,132.2,248.3,171,224.3,195z"/>
		<polygon class="st1" points="111.3,32.2 111.3,32.1 61.9,77.7 111.3,32.2 		"/>
		<polygon class="st1" points="111.3,32.2 111.3,32.2 61.9,77.7 112.5,77.5 		"/>
	</g>
</g>
<g id="Menú_2B_01">
</g>
<g id="Menú_2_B">
</g>
<g id="Menú_2_A">
</g>
<g id="Menú_1">
</g>
</svg>
