<?xml version="1.0" encoding="utf-8"?>
<!-- Generator: Adobe Illustrator 26.0.2, SVG Export Plug-In . SVG Version: 6.00 Build 0)  -->
<svg version="1.1" xmlns="http://www.w3.org/2000/svg" xmlns:xlink="http://www.w3.org/1999/xlink" x="0px" y="0px"
	 viewBox="0 0 320 320" style="enable-background:new 0 0 320 320;" xml:space="preserve">
<style type="text/css">
	.st0{fill:#666666;}
	.st1{fill:#CCCCCC;}
	.st2{clip-path:url(#SVGID_00000026139489979327770110000011490148840948715654_);}
	.st3{fill:#4D4D4D;}
	.st4{fill:#606060;}
	.st5{fill:#999999;}
</style>
<g id="Perfil">
</g>
<g id="Menú_3B">
	<path id="Trazado_124" class="st0" d="M287.6,83.4l-56.5-50c-2-1.8-5.2-1.6-7,0.4c-0.8,0.9-1.2,2.1-1.2,3.3v24H67.4
		c-20.8,0-37.6,16.8-37.6,37.6v0v182.1c0,3.9,3.2,7.1,7.1,7.1h43.5c3.9,0,7.1-3.2,7.1-7.1V131.5c0-7,5.7-12.7,12.7-12.7h122.7v22.8
		c0,2.7,2.2,4.9,5,4.9c1.2,0,2.4-0.4,3.3-1.2l56.5-50c3.3-2.9,3.6-7.8,0.7-11.1C288,83.9,287.8,83.6,287.6,83.4z"/>
</g>
<g id="Menú_2B_01">
</g>
<g id="Menú_2_B">
</g>
<g id="Menú_2_A">
</g>
<g id="Menú_1">
</g>
</svg>
