<?xml version="1.0" encoding="utf-8"?>
<!-- Generator: Adobe Illustrator 26.0.2, SVG Export Plug-In . SVG Version: 6.00 Build 0)  -->
<svg version="1.1" xmlns="http://www.w3.org/2000/svg" xmlns:xlink="http://www.w3.org/1999/xlink" x="0px" y="0px"
	 viewBox="0 0 320 320" style="enable-background:new 0 0 320 320;" xml:space="preserve">
<style type="text/css">
	.st0{fill:#666666;}
	.st1{fill:#CCCCCC;}
	.st2{clip-path:url(#SVGID_00000156565052115894965720000017713004711326978702_);}
	.st3{fill:#4D4D4D;}
	.st4{fill:#606060;}
	.st5{fill:#999999;}
</style>
<g id="Perfil">
</g>
<g id="Menú_3B">
	<path class="st0" d="M160,32.2c-44.6,0-80.8,36.2-80.8,80.8c0,0,0,0.8,0.1,2.4c0.1,1.5,0.1,2.9,0.2,4.3
		c5,64.1,33.7,124.1,80.5,168.3c0,0,81-68.2,80.8-174.9v0C240.8,68.3,204.6,32.2,160,32.2z M160,168.8c-28.2,0-51.1-24-51.1-53.6
		s22.9-53.6,51.1-53.6s51.1,24,51.1,53.6S188.2,168.8,160,168.8z"/>
</g>
<g id="Menú_2B_01">
</g>
<g id="Menú_2_B">
</g>
<g id="Menú_2_A">
</g>
<g id="Menú_1">
</g>
</svg>
