<?xml version="1.0" encoding="utf-8"?>
<!-- Generator: Adobe Illustrator 26.0.2, SVG Export Plug-In . SVG Version: 6.00 Build 0)  -->
<svg version="1.1" xmlns="http://www.w3.org/2000/svg" xmlns:xlink="http://www.w3.org/1999/xlink" x="0px" y="0px"
	 viewBox="0 0 320 320" style="enable-background:new 0 0 320 320;" xml:space="preserve">
<style type="text/css">
	.st0{fill:#666666;}
	.st1{fill:#CCCCCC;}
	.st2{clip-path:url(#SVGID_00000069374592239538010380000007827243236548049040_);}
	.st3{fill:#4D4D4D;}
	.st4{fill:#606060;}
	.st5{fill:#999999;}
</style>
<g id="Perfil">
</g>
<g id="Menú_3B">
</g>
<g id="Menú_2B_01">
</g>
<g id="Menú_2_B">
</g>
<g id="Menú_2_A">
	<g id="Grupo_428_00000139993933545608733180000003191474080535150482_" transform="translate(-85.875 -79.099)">
		<path id="Trazado_115_00000127730021265557183690000004326727214721949841_" class="st0" d="M363.6,137.3
			c0-9.7-7.9-17.6-17.6-17.6H145.7c-9.7,0-17.6,7.9-17.6,17.6v13.4h235.4L363.6,137.3z"/>
		<path id="Trazado_116_00000170991788403556150320000007863207429468848037_" class="st0" d="M128.2,159.4v186.9
			c0,9.7,7.8,17.6,17.5,17.6c0,0,0,0,0,0H346c9.7,0,17.6-7.9,17.6-17.6c0,0,0,0,0,0V159.4H128.2z"/>
		<path id="Rectángulo_147_00000165213745947270709380000002989463302397016997_" class="st5" d="M245.9,116.1L245.9,116.1
			c14.3,0,25.8,11.6,25.8,25.8v104.2c0,14.3-11.6,25.8-25.8,25.8l0,0c-14.3,0-25.8-11.6-25.8-25.8V141.9
			C220.1,127.6,231.6,116.1,245.9,116.1z"/>
	</g>
</g>
<g id="Menú_1">
</g>
</svg>
