<?xml version="1.0" encoding="utf-8"?>
<!-- Generator: Adobe Illustrator 26.0.2, SVG Export Plug-In . SVG Version: 6.00 Build 0)  -->
<svg version="1.1" xmlns="http://www.w3.org/2000/svg" xmlns:xlink="http://www.w3.org/1999/xlink" x="0px" y="0px"
	 viewBox="0 0 320 320" style="enable-background:new 0 0 320 320;" xml:space="preserve">
<style type="text/css">
	.st0{fill:#666666;}
	.st1{fill:#CCCCCC;}
	.st2{clip-path:url(#SVGID_00000034077261517314082500000008498965738962939800_);}
	.st3{fill:#4D4D4D;}
	.st4{fill:#606060;}
	.st5{fill:#999999;}
</style>
<g id="Perfil">
</g>
<g id="Menú_3B">
</g>
<g id="Menú_2B_01">
</g>
<g id="Menú_2_B">
</g>
<g id="Menú_2_A">
</g>
<g id="Menú_1">
	<g id="Grupo_423_00000103239605509901826200000016739444958748392873_" transform="translate(-142.304 -165.154)">
		<path id="Trazado_111_00000027576346628429534530000015525402961480248997_" class="st4" d="M439,380.9l-17.9,0.1
			c-4.8,0-8.7,3.9-8.7,8.7l0,11.7c0,3.9-3.2,7.2-7.1,7.2c0,0,0,0,0,0l-206.1,0.7c-3.9,0-7.2-3.2-7.2-7.1c0,0,0,0,0,0l0-11.7
			c0-4.8-3.9-8.7-8.7-8.7l-17.9,0.1c-4.8,0-8.7,3.9-8.7,8.7l0.1,45.4c0,4.8,3.9,8.7,8.7,8.7l273.7-0.9c4.8,0,8.7-3.9,8.7-8.7
			l-0.1-45.4C447.7,384.7,443.8,380.9,439,380.9z"/>
		<g id="Grupo_423-2_00000078032370088509817980000010329180376090845876_" transform="translate(150.585 165.154)">
			<path id="Rectángulo_144_00000006675457613254328230000004507414560968249789_" class="st4" d="M114.4,32.6l73.2-0.2
				c6.8,0,12.3,5.5,12.3,12.2l0.2,73.2c0,6.8-5.5,12.3-12.2,12.3l-73.2,0.2c-6.8,0-12.3-5.5-12.3-12.2l-0.2-73.2
				C102.1,38.2,107.6,32.7,114.4,32.6z"/>
		</g>
		<g id="Grupo_424_00000018955075186915626430000014235045018851141788_" transform="translate(155.108 174.198)">
			<path id="Rectángulo_145_00000135659345735217910890000017217387336451546520_" class="st4" d="M163,129l73.2-0.2
				c6.8,0,12.3,5.5,12.3,12.2l0.2,73.2c0,6.8-5.5,12.3-12.2,12.3l-73.2,0.2c-6.8,0-12.3-5.5-12.3-12.2l-0.2-73.2
				C150.7,134.5,156.2,129,163,129z"/>
		</g>
		<g id="Grupo_425_00000065052611402392223180000003006757776788702364_" transform="translate(146.062 174.198)">
			<path id="Rectángulo_146_00000017488793996569617440000012593311658493309568_" class="st4" d="M66.4,129.3l73.2-0.2
				c6.8,0,12.3,5.5,12.3,12.2l0.2,73.2c0,6.8-5.5,12.3-12.2,12.3l-73.2,0.2c-6.8,0-12.3-5.5-12.3-12.2l-0.2-73.2
				C54.2,134.8,59.7,129.3,66.4,129.3z"/>
		</g>
	</g>
</g>
</svg>
