<?xml version="1.0" encoding="utf-8"?>
<!-- Generator: Adobe Illustrator 26.0.2, SVG Export Plug-In . SVG Version: 6.00 Build 0)  -->
<svg version="1.1" xmlns="http://www.w3.org/2000/svg" xmlns:xlink="http://www.w3.org/1999/xlink" x="0px" y="0px"
	 viewBox="0 0 320 320" style="enable-background:new 0 0 320 320;" xml:space="preserve">
<style type="text/css">
	.st0{fill:#666666;}
	.st1{fill:#CCCCCC;}
	.st2{clip-path:url(#SVGID_00000154392003416459759780000016772507021201540795_);}
	.st3{fill:#4D4D4D;}
	.st4{fill:#606060;}
	.st5{fill:#999999;}
</style>
<g id="Perfil">
</g>
<g id="Menú_3B">
</g>
<g id="Menú_2B_01">
</g>
<g id="Menú_2_B">
	<g>
		<path class="st4" d="M292.8,215.5c-1.6,9.2-4.7,17.9-10.7,25.2c-14.4,17.5-33,24.5-55,18.7c-21.6-5.7-34.9-20.3-38.7-42.4
			c-5.1-29.1,15.6-56.9,44.6-60.7c28.4-3.8,54,14.9,59.4,43.4c0.1,0.6,0.3,1.2,0.4,1.8C292.8,206.1,292.8,210.8,292.8,215.5z
			 M217.9,199.2c-0.3,0.2-0.8,0.5-1.1,0.8c-2.6,2.6-5.2,5.3-7.9,7.9c-1.3,1.2-0.7,2,0.3,3c7.1,7.1,14.2,14.1,21.3,21.3
			c1.1,1.2,1.9,1.3,3.1,0.1c12.3-12.4,24.7-24.7,37-37c1.1-1.1,1-1.7,0-2.7c-2.4-2.3-4.9-4.7-7.1-7.2c-1.6-1.7-2.6-1.8-4.3-0.1
			c-8.4,8.6-17,17-25.4,25.5c-1.4,1.4-2.2,1.4-3.6,0c-3.3-3.5-6.8-6.9-10.2-10.3C219.3,199.9,218.9,199.3,217.9,199.2z"/>
		<path class="st4" d="M132.5,89.2c0,1.4,0,2.4,0,3.3c0,41.9,0,83.9,0,125.8c0,3.9,0,3.9-3.8,3.9c-25.5,0-51,0-76.5,0
			c-3.9,0-4-0.1-4-3.9c0-32.2,0-64.3,0-96.5c0-3.8,0.1-3.9,3.9-3.9c21.3,0,42.5,0,63.8,0c2.5,0,3.9-0.8,4.8-3.2
			c3.2-7.8,6.5-15.4,9.9-23.1C131,90.9,131.2,90.1,132.5,89.2z M68.7,193.9c0,1.8,0,3.6,0,5.4c-0.1,1.6,0.7,2.2,2.2,2.2
			c3.5,0,6.9,0,10.4,0c1.6,0,2.4-0.6,2.3-2.3c-0.1-3.5-0.1-6.9,0-10.4c0-1.7-0.7-2.3-2.3-2.2c-3.5,0.1-6.9,0.1-10.4,0
			c-1.5,0-2.2,0.5-2.2,2.1C68.8,190.4,68.7,192.1,68.7,193.9z"/>
		<path class="st4" d="M148.1,89c0.9,2,1.6,3.7,2.3,5.3c3,6.9,6,13.8,8.9,20.7c0.9,2.2,2.2,2.9,4.5,2.9c21.3-0.1,42.5,0,63.8,0
			c4,0,4,0,4,4c0,5.4-0.1,10.9,0,16.3c0.1,2.3-0.7,3.2-2.9,3.6c-25.4,5-42.8,19.6-52.2,43.6c-4.2,10.8-5.2,22.2-3.2,33.7
			c0.4,2.3-0.2,3.1-2.6,3.1c-6.7-0.1-13.5-0.1-20.2,0c-2.3,0-3.3-0.6-3.3-3.1c0-42.5,0-85.1,0-127.6C147.4,90.9,147.3,90.2,148.1,89
			z"/>
		<path class="st4" d="M68.2,103c-12.7,0-25.4,0-38.1,0c-3.1,0-3.3-0.2-2.1-3c5.6-12.9,11.2-25.9,16.7-38.9c0.8-2,1.9-2.7,4.1-2.7
			c25.5,0.1,51,0,76.5,0c3.2,0,3.3,0.2,2,3.2c-5.5,12.9-11.1,25.7-16.6,38.6c-0.8,1.9-1.9,2.7-4.1,2.7C93.8,103,81,103,68.2,103z"/>
		<path class="st4" d="M211.5,103c-12.7,0-25.4,0-38.1,0c-2.1,0-3.2-0.7-4.1-2.7c-5.5-13-11.1-25.9-16.7-38.8c-1.2-2.7-1-3,1.8-3
			c25.7,0,51.4,0,77,0c2.1,0,3.1,0.8,3.9,2.6c5.5,13,11.1,25.9,16.7,38.8c1.3,3,1.3,3-2.1,3C237.1,103,224.3,103,211.5,103z"/>
	</g>
</g>
<g id="Menú_2_A">
</g>
<g id="Menú_1">
</g>
</svg>
