<?xml version="1.0" encoding="utf-8"?>
<!-- Generator: Adobe Illustrator 26.0.2, SVG Export Plug-In . SVG Version: 6.00 Build 0)  -->
<svg version="1.1" xmlns="http://www.w3.org/2000/svg" xmlns:xlink="http://www.w3.org/1999/xlink" x="0px" y="0px"
	 viewBox="0 0 320 320" style="enable-background:new 0 0 320 320;" xml:space="preserve">
<style type="text/css">
	.st0{fill:#666666;}
	.st1{fill:#CCCCCC;}
	.st2{clip-path:url(#SVGID_00000119820022128993689410000012653202111477168061_);}
	.st3{fill:#4D4D4D;}
	.st4{fill:#606060;}
	.st5{fill:#999999;}
</style>
<g id="Perfil">
</g>
<g id="Menú_3B">
	<g>
		<path class="st0" d="M270.5,281.6c-34.5,0-69,0-103.5,0c-0.1-1.1-0.2-2.2-0.2-3.3c0-10.4,0-20.9,0-31.3c0-5.2-2.8-7.9-7.9-7.9
			c-3.2,0-6.5,0-9.7,0c-8.1-0.2-14.5-6.6-14.6-14.5c0-8.1,6.3-14.5,14.6-14.7c3-0.1,6,0,9,0c6.1,0,8.6-2.6,8.6-8.7
			c0-10.1,0-20.2,0-30.4c0-3.7,0-3.7,3.8-3.7c7,0,13.9,0,20.9,0c4.4,0,4.4-0.7,4.5,4.5c0.4,19.5,20.2,32.7,38.4,25.6
			c10.9-4.2,17.7-14.2,17.9-26.1c0.1-4,0.1-4,4.1-4c7.3,0,14.6,0,21.8,0c3.3,0,3.3,0,3.3,3.3c0,32.2,0,64.4,0,96.6
			c0,1.3,0,2.5-0.3,3.8C279.8,276.4,276,279.8,270.5,281.6z"/>
		<path class="st0" d="M38.4,153c0-34.5,0-69,0-103.5c3.3-8.4,7.4-11.1,16.4-11.1c31.6,0,63.1,0,94.7,0c3.5,0,3.5,0,3.5,3.5
			c0,10.4,0,20.9,0,31.3c0,5.1,2.8,7.9,8,7.9c3,0,6,0,9,0c8.7,0.1,15.2,6.3,15.2,14.6c0,8.3-6.5,14.6-15.3,14.7c-3.2,0-6.5,0-9.7,0
			c-2.1,0-3.9,0.8-5.3,2.3c-1.5,1.7-1.9,3.8-1.9,5.9c0,10.6,0,21.2,0,31.8c0,1.4,0.1,2.7-2,2.7c-8.4-0.1-16.8,0-25.1,0
			c-1.6,0-2-0.8-2.1-2.2c0-1.9,0-3.8-0.2-5.7c-1.9-13.3-13.4-23.5-26.6-24.1c-14.2-0.7-26.3,9.3-29,22.3c-0.5,2.4-0.5,4.9-0.5,7.3
			c0,1.3-0.3,2.3-2,2.3C56.4,153,47.4,153.4,38.4,153z"/>
		<path class="st0" d="M38.4,270.7c0-34.5,0-69,0-103.5c1.1-0.1,2.2-0.2,3.3-0.2c10.4,0,20.9,0,31.3,0c5.2,0,7.9-2.8,7.9-7.9
			c0-3.4-0.1-6.8,0-10.2c0.3-7.4,6.1-13.5,13.3-14c7.3-0.6,13.9,4.3,15.5,11.5c0.8,3.9,0.3,7.9,0.4,11.8c0.1,6.4,2.5,8.9,9,8.9
			c10.4,0,20.7,0,31.1,0c2,0,2.8,0.6,2.8,2.7c-0.1,7.9-0.1,15.8,0,23.7c0,2-0.6,2.9-2.7,2.8c-1.8-0.1-3.7-0.1-5.4,0.2
			c-13.5,2.2-23.5,13.5-23.8,26.8c-0.4,14.2,8.7,25.8,22.5,28.8c2.4,0.5,4.7,0.4,7.1,0.5c1.3,0,2.3,0.3,2.3,2c-0.1,9,0.2,18-0.2,27
			c-34.5,0-69,0-103.5,0C43.8,279.9,40.1,276.2,38.4,270.7z"/>
		<path class="st0" d="M281.6,101.3c0,16.2,0,32.4,0,48.6c0,3.3,0,3.3-3.3,3.3c-10.3,0-20.6,0-30.8,0c-6.1,0-8.6,2.6-8.6,8.7
			c0,3,0,6,0,9c-0.2,8.2-6.7,14.6-14.8,14.5c-7.9-0.1-14.3-6.5-14.4-14.6c-0.1-3.3,0-6.6,0-10c-0.1-4.8-2.9-7.6-7.8-7.6
			c-10.3-0.1-20.6,0-30.8,0c-0.8,0-1.6,0-2.4,0c-1.2,0-1.8-0.5-1.8-1.7c0-8.5,0-17.1,0-25.6c0-1.5,1-1.8,2.2-1.9
			c2.4-0.1,4.7,0,7.1-0.5c13.8-2.9,23-14.5,22.7-28.7c-0.3-13.5-10.4-24.9-23.9-26.9c-1.9-0.3-3.9-0.2-5.9-0.3
			c-1.5,0-2.1-0.7-2.1-2.2c0-8.3,0-16.6,0-24.9c0-1.5,0.6-2.2,2.1-2.1c0.2,0,0.5,0,0.7,0c32.6,0,65.2,0,97.7,0
			c7.9,0,14.2,6.3,14.2,14.2C281.6,68.8,281.6,85,281.6,101.3z"/>
	</g>
</g>
<g id="Menú_2B_01">
</g>
<g id="Menú_2_B">
</g>
<g id="Menú_2_A">
</g>
<g id="Menú_1">
</g>
</svg>
