<?xml version="1.0" standalone="no"?>
<!DOCTYPE svg PUBLIC "-//W3C//DTD SVG 20010904//EN"
 "http://www.w3.org/TR/2001/REC-SVG-20010904/DTD/svg10.dtd">
<svg version="1.0" xmlns="http://www.w3.org/2000/svg"
 width="500.000000pt" height="300.000000pt" viewBox="0 0 500.000000 300.000000"
 preserveAspectRatio="xMidYMid meet">

<g transform="translate(0.000000,300.000000) scale(0.100000,-0.100000)"
fill="#000000" stroke="none">
<path d="M3263 2550 c-72 -10 -178 -50 -248 -95 -148 -94 -257 -259 -287 -432
l-12 -73 -235 0 -236 0 -97 97 -98 98 -98 -98 -97 -97 -60 0 -60 0 -97 97 -98
98 -98 -98 -97 -97 -55 0 -55 0 -100 100 -100 100 -100 -100 -100 -100 -182 0
-181 0 -231 -245 c-127 -134 -231 -247 -231 -251 0 -3 104 -116 231 -250 l231
-244 1128 0 1129 0 15 -50 c33 -110 76 -181 165 -271 69 -69 103 -94 171 -128
143 -70 174 -73 823 -69 555 4 563 4 632 27 220 72 383 242 442 461 16 58 18
120 18 570 0 450 -2 512 -18 570 -59 219 -221 389 -442 461 -69 23 -74 23
-640 25 -313 1 -598 -2 -632 -6z m1345 -454 c37 -19 68 -55 87 -98 13 -32 15
-105 15 -500 0 -515 0 -513 -69 -571 -40 -33 -68 -41 -132 -35 -53 5 -89 26
-123 72 -20 27 -21 41 -24 509 -2 265 0 496 3 514 7 40 49 91 90 109 40 17
119 18 153 0z"/>
</g>
</svg>
