<?xml version="1.0" standalone="no"?>
<!DOCTYPE svg PUBLIC "-//W3C//DTD SVG 20010904//EN"
 "http://www.w3.org/TR/2001/REC-SVG-20010904/DTD/svg10.dtd">
<svg version="1.0" xmlns="http://www.w3.org/2000/svg"
 width="500.000000pt" height="456.000000pt" viewBox="0 0 500.000000 456.000000"
 preserveAspectRatio="xMidYMid meet">

<g transform="translate(0.000000,456.000000) scale(0.100000,-0.100000)"
fill="#000000" stroke="none">
<path d="M2555 4554 c-815 -66 -1527 -546 -1880 -1269 -96 -197 -152 -363
-200 -598 l-6 -28 -47 39 c-57 48 -77 58 -133 71 -126 28 -253 -57 -281 -190
-9 -45 -8 -64 6 -114 17 -58 25 -67 274 -318 283 -284 314 -307 412 -307 98 0
129 23 412 307 249 251 257 260 274 318 21 73 10 147 -32 206 -66 95 -206 131
-305 78 -26 -14 -25 0 10 102 169 496 563 896 1064 1080 374 136 815 135 1197
-3 540 -196 958 -657 1099 -1213 71 -281 71 -589 0 -870 -77 -304 -234 -579
-460 -804 -258 -259 -591 -431 -949 -492 -107 -18 -307 -27 -422 -18 -393 29
-742 179 -1047 449 -124 110 -162 130 -251 130 -76 0 -130 -21 -178 -70 -55
-55 -76 -106 -77 -185 0 -113 38 -169 215 -316 146 -121 284 -210 455 -295
179 -88 276 -124 450 -169 202 -52 341 -69 565 -69 374 0 671 69 1005 233 449
221 798 565 1024 1011 117 231 190 459 227 716 24 162 24 466 0 628 -97 660
-460 1231 -1016 1596 -117 77 -361 196 -495 243 -124 43 -288 82 -426 102
-105 15 -391 26 -484 19z"/>
<path d="M2662 3550 c-79 -16 -146 -71 -181 -150 -20 -44 -21 -63 -21 -610 l0
-565 24 -50 c13 -27 39 -64 57 -82 44 -41 930 -552 988 -570 93 -28 180 -5
252 67 104 104 103 266 -3 367 -18 17 -204 130 -413 251 l-380 219 -5 469 c-3
323 -9 477 -17 494 -54 118 -179 184 -301 160z"/>
</g>
</svg>
