<?xml version="1.0" standalone="no"?>
<!DOCTYPE svg PUBLIC "-//W3C//DTD SVG 20010904//EN"
 "http://www.w3.org/TR/2001/REC-SVG-20010904/DTD/svg10.dtd">
<svg version="1.0" xmlns="http://www.w3.org/2000/svg"
 width="455.000000pt" height="500.000000pt" viewBox="0 0 455.000000 500.000000"
 preserveAspectRatio="xMidYMid meet">

<g transform="translate(0.000000,500.000000) scale(0.100000,-0.100000)"
fill="#000000" stroke="none">
<path d="M1375 4991 c-164 -42 -234 -234 -134 -369 47 -64 110 -89 254 -102
414 -37 730 -292 852 -687 25 -81 27 -101 27 -263 0 -162 -2 -182 -27 -263
-90 -291 -308 -528 -577 -626 -130 -47 -180 -55 -340 -55 -160 0 -211 8 -338
55 -219 80 -409 254 -521 476 -47 95 -80 222 -92 357 -7 88 -16 133 -32 165
-71 142 -271 170 -378 54 -63 -67 -75 -125 -60 -283 36 -356 167 -636 416
-886 208 -209 444 -334 740 -392 l90 -18 3 -1077 2 -1077 1645 0 1645 0 0
1205 0 1205 -120 0 -120 0 0 608 c0 476 -3 628 -15 707 -44 304 -178 575 -390
789 -163 165 -327 268 -550 346 -339 119 -754 92 -1073 -69 l-63 -32 -57 34
c-143 86 -289 142 -457 176 -113 22 -285 34 -330 22z m1753 -660 c293 -85 518
-322 589 -619 14 -57 17 -162 20 -684 l4 -618 -741 0 -741 0 73 58 c187 149
354 382 436 608 138 380 111 796 -75 1156 -25 49 -44 91 -42 93 2 2 36 10 74
19 99 22 304 15 403 -13z m-117 -2365 c75 -23 125 -53 179 -106 171 -172 158
-440 -29 -601 l-51 -44 0 -297 0 -298 -205 0 -205 0 0 298 0 299 -44 31 c-48
35 -108 110 -130 163 -92 220 27 477 254 550 67 22 169 24 231 5z"/>
<path d="M855 4261 c-120 -56 -169 -198 -110 -317 30 -61 530 -561 587 -587
56 -26 144 -22 206 9 119 59 162 216 92 329 -10 16 -139 150 -287 296 -290
288 -290 289 -398 289 -27 0 -68 -9 -90 -19z"/>
</g>
</svg>
