<?xml version="1.0" standalone="no"?>
<!DOCTYPE svg PUBLIC "-//W3C//DTD SVG 20010904//EN"
 "http://www.w3.org/TR/2001/REC-SVG-20010904/DTD/svg10.dtd">
<svg version="1.0" xmlns="http://www.w3.org/2000/svg"
 width="500.000000pt" height="500.000000pt" viewBox="0 0 500.000000 500.000000"
 preserveAspectRatio="xMidYMid meet">

<g transform="translate(0.000000,500.000000) scale(0.100000,-0.100000)"
fill="#000000" stroke="none">
<path d="M95 4986 c-42 -18 -83 -69 -91 -112 -14 -77 -6 -88 361 -454 190
-190 345 -348 345 -352 0 -5 -160 -8 -355 -8 l-355 0 0 -1560 0 -1560 1919 0
1919 0 469 -464 c410 -406 474 -465 507 -472 112 -20 210 87 178 194 -9 29
-89 115 -357 382 -190 190 -345 348 -345 352 0 5 160 8 355 8 l355 0 0 1560 0
1560 -495 0 -495 0 0 140 0 140 -395 0 -395 0 0 -140 0 -140 -720 0 -720 0 0
138 0 139 -142 6 c-181 9 -325 9 -505 0 l-143 -6 0 -56 0 -56 -378 377 c-207
207 -390 382 -405 388 -37 13 -75 12 -112 -4z m2181 -2483 l1241 -1248 -1591
-3 c-875 -1 -1597 0 -1603 3 -10 3 -13 261 -13 1243 0 681 3 1242 7 1245 3 4
166 7 362 7 l356 0 1241 -1247z m2409 -3 l0 -1245 -360 -3 -360 -2 -1242 1242
c-684 684 -1243 1246 -1243 1251 0 4 721 6 1603 5 l1602 -3 0 -1245z"/>
<path d="M720 2982 l0 -112 439 0 438 0 6 68 c4 37 7 84 7 105 l0 37 -263 0
c-145 0 -346 3 -445 7 l-182 6 0 -111z"/>
<path d="M3397 3015 c-4 -43 -7 -93 -7 -112 l0 -33 445 0 445 0 0 105 0 105
-258 0 c-143 0 -340 3 -439 7 l-180 6 -6 -78z"/>
</g>
</svg>
