<?xml version="1.0" standalone="no"?>
<!DOCTYPE svg PUBLIC "-//W3C//DTD SVG 20010904//EN"
 "http://www.w3.org/TR/2001/REC-SVG-20010904/DTD/svg10.dtd">
<svg version="1.0" xmlns="http://www.w3.org/2000/svg"
 width="333.000000pt" height="500.000000pt" viewBox="0 0 333.000000 400.000000"
 preserveAspectRatio="xMidYMid meet">

<g transform="translate(0.000000,400.000000) scale(0.100000,-0.100000)"
fill="#000000" stroke="none">
<path d="M362 3399 c-117 -23 -242 -120 -295 -229 -44 -90 -49 -144 -45 -509
3 -321 5 -339 26 -391 46 -113 140 -208 249 -252 56 -22 68 -23 445 -26 243
-2 408 1 444 7 154 29 285 143 331 288 l17 53 755 1 756 1 143 153 c94 101
142 160 142 175 0 15 -48 73 -142 175 l-143 153 -125 1 -124 1 -68 67 -68 67
-68 -67 c-57 -57 -73 -67 -102 -67 -29 0 -45 10 -102 67 l-68 67 -68 -67 c-57
-57 -73 -67 -102 -67 -29 0 -45 10 -102 67 l-68 67 -68 -67 -68 -67 -151 0
-151 0 -7 51 c-23 163 -174 317 -345 349 -64 12 -766 12 -828 -1z m19 -304
c16 -9 39 -30 49 -48 19 -30 20 -52 20 -347 0 -295 -1 -317 -20 -347 -21 -34
-66 -63 -100 -63 -29 0 -76 26 -94 52 -14 19 -16 70 -16 356 0 216 4 340 11
353 14 26 68 59 97 59 13 0 36 -7 53 -15z"/>
</g>
</svg>
