<?xml version="1.0" encoding="utf-8"?>
<!-- Generator: Adobe Illustrator 26.0.2, SVG Export Plug-In . SVG Version: 6.00 Build 0)  -->
<svg version="1.1" id="Capa_1" xmlns="http://www.w3.org/2000/svg" xmlns:xlink="http://www.w3.org/1999/xlink" x="0px" y="0px"
	 viewBox="0 0 300 300" style="enable-background:new 0 0 300 300;" xml:space="preserve">
<style type="text/css">
	.st0{fill:#003C82;}
</style>
<g>
	<path class="st0" d="M163.1,296c-8.1,0-16.3,0-24.4,0c-2.1-0.3-4.2-0.7-6.3-0.9c-33-4.3-61.5-18.1-84.8-41.9
		C16.3,221.1,2.4,182.4,6.1,137.7c3-35,17.1-65.2,42.1-89.8C83.1,13.8,125.2,0.3,173.5,7.3c56.7,8.3,103.9,51.4,118.2,106.9
		c2.1,8.1,3.2,16.3,4.4,24.5c0,8.1,0,16.3,0,24.4c-0.5,3.5-1,7.1-1.5,10.6c-8.4,56.1-51.3,103.6-106.4,117.8
		C179.9,293.6,171.5,294.8,163.1,296z M150.7,271.1c27,0,51.3-8.1,72.9-24.4c3-2.2,3-2.3,0.3-5c-13-13-26-26-39-39
		c-2.7-2.7-2.7-2.7-5.4,0.1c-15.2,15.2-30.4,30.3-45.5,45.6c-2.1,2.1-3.3,2-5.3,0c-25-25.2-50.1-50.3-75.3-75.3
		c-2.1-2.1-2-3.3,0-5.3c15.3-15.2,30.5-30.5,45.8-45.7c2-2,1.9-3.2,0-5.1C86.1,104,73,90.9,60,77.8c-2.7-2.7-2.7-2.7-5,0.4
		c-20.6,27.7-28.3,58.7-22.7,92.6C41.8,229,91.8,271,150.7,271.1z M271.1,151.1c0.2-6.8-0.4-13.6-1.5-20.2
		C260,77,218,37.3,163.6,31.4c-31.5-3.4-60,4.6-85.4,23.6c-3.1,2.3-3.1,2.4-0.3,5.2C90.8,73.1,103.8,86,116.7,99
		c2.8,2.8,2.8,2.8,5.7-0.1c11.1-11.1,22.2-22.1,33.2-33.3c1.5-1.5,2.9-2.2,5.1-1.8c20.2,4.1,40.4,8.2,60.6,12.1
		c2.8,0.5,4,1.8,4.6,4.6c3.9,19.8,7.8,39.7,11.9,59.5c0.6,2.8,0,4.7-2,6.7c-11.1,10.9-22,22-33.1,33c-1.9,1.9-2.2,3.1-0.2,5.1
		c13.2,13.1,26.3,26.2,39.4,39.4c2.5,2.5,2.7,2.4,4.8-0.4C262.9,202.2,271,178,271.1,151.1z M171.3,156.7
		c14.7,0,26.5-11.6,26.5-26.2c0-14.4-11.8-26.3-26.2-26.4c-14.7-0.1-26.4,11.5-26.5,26.2C145,145.1,156.5,156.6,171.3,156.7z"/>
</g>
</svg>
