<?xml version="1.0" encoding="utf-8"?>
<!-- Generator: Adobe Illustrator 26.0.2, SVG Export Plug-In . SVG Version: 6.00 Build 0)  -->
<svg version="1.1" id="Capa_1" xmlns="http://www.w3.org/2000/svg" xmlns:xlink="http://www.w3.org/1999/xlink" x="0px" y="0px"
	 viewBox="0 0 300 300" style="enable-background:new 0 0 300 300;" xml:space="preserve">
<style type="text/css">
	.st0{fill:#003C82;}
</style>
<g>
	<path class="st0" d="M163.1,296c-8.1,0-16.3,0-24.4,0c-2.2-0.3-4.4-0.6-6.6-0.9c-36.4-5-67-21.1-91-48.9
		c-28.3-32.8-39.7-71-34.4-114c4-32.8,17.9-61.2,41.6-84.3c35-34.1,77.3-48.6,125.4-40.3c59.9,10.3,98.8,46.2,117.2,104.1
		c2.8,8.8,3.9,17.9,5.1,27c0,8.1,0,16.3,0,24.4c-0.5,3.5-1,7.1-1.5,10.6c-8.5,55.8-50.5,102.8-105,117.5
		C180.8,293.5,172,294.8,163.1,296z M150.9,218.8c7.9,0,15.9,0,23.8,0c7.3,0,14.7-0.1,22,0c2.5,0,3.6-0.9,3.4-3.4
		c-0.2-2.3-0.3-4.6-0.6-6.9c-2.3-15.6-8.4-29.3-20.4-40c-15.3-13.7-36.2-15-52.6-3c-16.4,12.1-23.4,29.3-24.8,49
		c-0.3,3.9,0.1,4.2,4,4.2C120.7,218.8,135.8,218.8,150.9,218.8z M64.7,206.5c7.1,0,14.1-0.1,21.2,0c2.6,0,3.7-0.8,4.2-3.5
		c3.3-17.5,11-32.7,24.5-44.6c2.6-2.3,2.6-2.3-0.1-4.4c-15.8-12.2-36.8-12-52.2,0.8c-15.1,12.5-21.5,29.3-22.7,48.4
		c-0.2,2.6,0.9,3.4,3.4,3.3C50.2,206.4,57.4,206.5,64.7,206.5z M237.1,206.5c7.3,0,14.5-0.1,21.8,0c2.5,0,3.5-0.9,3.3-3.4
		c-0.4-6.8-1.4-13.5-3.6-19.9c-5-14.6-13.2-26.8-27.4-33.8c-15.6-7.6-30.6-5.5-44.4,4.9c-1.2,0.9-2.3,1.7-0.5,3.3
		c14.2,12,22,27.6,25.5,45.7c0.5,2.5,1.5,3.2,3.9,3.1C222.8,206.4,230,206.5,237.1,206.5z M177,121.7c0-14.6-11.5-26.3-25.9-26.4
		c-14.7-0.1-26.4,11.5-26.4,26.2c0,14.7,11.4,26.3,25.9,26.4C165.5,147.9,177,136.5,177,121.7z M239.1,109.2
		c0-14.7-11.3-26.2-26-26.2c-14.9-0.1-26.3,11.3-26.3,26.2c0,14.7,11.8,26.5,26.3,26.4C227.5,135.5,239.1,123.8,239.1,109.2z
		 M114.9,109.1c0-14.8-11.5-26.2-26.3-26.1c-14.6,0.1-26,11.5-26,26.2c0,14.6,11.6,26.3,26.1,26.3
		C103.2,135.6,114.9,123.8,114.9,109.1z"/>
</g>
</svg>
