<?xml version="1.0" encoding="utf-8"?>
<!-- Generator: Adobe Illustrator 26.0.2, SVG Export Plug-In . SVG Version: 6.00 Build 0)  -->
<svg version="1.1" id="Capa_1" xmlns="http://www.w3.org/2000/svg" xmlns:xlink="http://www.w3.org/1999/xlink" x="0px" y="0px"
	 viewBox="0 0 300 300" style="enable-background:new 0 0 300 300;" xml:space="preserve">
<style type="text/css">
	.st0{fill:#003C82;}
</style>
<g>
	<path class="st0" d="M150.3,5.6c0.4,0,0.8,0,1.2,0c18.2,14.4,38.1,25.8,59.7,34.4c27.1,10.7,55.3,16,84.4,16c0,6.9,0,13.9,0,20.8
		c-0.3,3.5-0.7,7.1-0.9,10.6c-1.6,23-5.5,45.5-12.3,67.6C262.5,219.3,221.9,265,160,291.6c-11.2,4.8-7,4.8-18.1,0.1
		C88.3,268.8,49.5,231,27.3,176.8C11.7,139.1,6.1,99.5,5.9,58.9c0-2.8,1.6-3.1,3.7-3.1c11.4,0,22.7-1.1,33.9-3
		C83.2,46.3,118.7,30.3,150.3,5.6z M99.5,162.8c0,12.5,0,25.1,0,37.6c0,0.2,0,0.4,0,0.6c0.1,12.3,8.5,21.2,20.7,21.4
		c20.4,0.2,40.9,0.2,61.3,0c12.1-0.1,20.6-9,20.7-21.1c0-8.2,0-16.4,0-24.6c0-17.6,0-35.1,0-52.7c0-4.3-0.1-4.3-4.4-4.3
		c-1.8,0-3.7,0-5.5,0c-4.5,0-4.6-0.1-4.6-4.5c0-8,0-16,0-24c-0.1-11.2-7.7-18.9-18.9-19c-11.7-0.1-23.4,0.3-35-0.1
		c-11.8-0.4-20.1,8.6-19.8,20c0.2,8.1,0,16.2,0.1,24.3c0,2.3-0.8,3.4-3.2,3.3c-2.5-0.1-5,0-7.5,0c-3.6,0-3.8,0.2-3.8,3.8
		C99.5,136.6,99.5,149.7,99.5,162.8z"/>
	<path class="st0" d="M150.6,119.7c-7.1,0-14.3-0.1-21.4,0c-2.4,0-3.5-0.8-3.4-3.4c0.1-8.5,0-17,0.1-25.5c0-4.3,2.4-7.1,6.7-7.1
		c12.2-0.2,24.5-0.2,36.8,0c4.3,0.1,6.7,2.8,6.7,7.1c0.1,8.5-0.1,17,0.1,25.5c0,2.6-1,3.4-3.4,3.4
		C165.2,119.6,157.9,119.7,150.6,119.7z"/>
	<path class="st0" d="M139.8,181.7c0-1.3-0.1-2.7,0-4c0.3-4-0.5-7.4-3.2-10.9c-5.4-7-3.8-17.2,2.9-22.9c6.7-5.8,16.8-5.5,23.2,0.5
		c6.5,6.1,7.5,16.1,1.9,23.1c-2.2,2.7-2.9,5.4-2.8,8.7c0.2,4.9,0.2,9.8,0,14.7c-0.3,7.8-6.6,12.7-13.7,11c-4.9-1.2-8-5.3-8.3-10.9
		C139.7,187.9,139.9,184.8,139.8,181.7C139.9,181.7,139.8,181.7,139.8,181.7z"/>
</g>
</svg>
