<?xml version="1.0" encoding="utf-8"?>
<!-- Generator: Adobe Illustrator 26.0.2, SVG Export Plug-In . SVG Version: 6.00 Build 0)  -->
<svg version="1.1" id="Capa_1" xmlns="http://www.w3.org/2000/svg" xmlns:xlink="http://www.w3.org/1999/xlink" x="0px" y="0px"
	 viewBox="0 0 300 300" style="enable-background:new 0 0 300 300;" xml:space="preserve">
<style type="text/css">
	.st0{fill:#003C82;}
</style>
<g>
	<path class="st0" d="M184.4,43c6.9,2.7,9.7,7.6,9.6,15c-0.2,26.6-0.1,53.2,0,79.7c0,2.6-0.6,3.9-3.5,3.9
		c-62.4-0.1-124.8-0.1-187.3-0.1c0-29.7,0-59.5,0-89.2c1.5-4.5,4.6-7.5,8.8-9.4C69.4,43,126.9,43,184.4,43z"/>
	<path class="st0" d="M3.2,153.9c1.3,0,2.5-0.1,3.8-0.1c60.6,0,121.2,0,181.7,0c5.2,0,5.2,0,5.2,5.3c0,14.4,0,28.7,0,43.1
		c0,3.9-0.1,4-3.9,4c-33.4,0-66.9,0-100.3,0.1c-2.5,0-3.8-1-5.1-3c-17.5-27.2-56.9-27-74,0.5c-2.1,3.3-4.8,2.2-7.5,2.3
		C3.2,188.7,3.2,171.3,3.2,153.9z"/>
	<path class="st0" d="M297.3,206.1c-0.5,0-1,0-1.5,0.1c-6.5,0.8-10.9-0.9-15.3-6.7c-18.3-23.6-54.3-21.4-70.6,3.8
		c-0.8,1.3-1.3,2.8-3.3,3c-4.7,0.4-5.3,0-5.3-4.7c0-23,0-45.9,0-68.9c0-4,0-4.1,4.1-4.1c17.2,0,34.5,0,51.7,0c2.4,0,4.4,0.6,6.4,1.8
		c10.6,6.1,21.3,12.1,32,18.1c0.6,0.3,1.3,0.5,1.9,0.8C297.3,168.2,297.3,187.1,297.3,206.1z"/>
	<path class="st0" d="M47.4,257.3c-17-0.1-30.3-13.6-30.3-30.8c0.1-16.8,14-30.5,30.9-30.4c16.9,0.1,30.6,14,30.6,30.8
		C78.5,243.8,64.6,257.4,47.4,257.3z"/>
	<path class="st0" d="M246.6,257.3c-17,0-30.6-13.6-30.6-30.6c0-16.9,14-30.7,31-30.7c16.8,0.1,30.5,13.9,30.4,30.9
		C277.4,243.8,263.7,257.3,246.6,257.3z"/>
	<path class="st0" d="M229,116.4c-8.1,0-16.3-0.1-24.4,0c-2.5,0-3.4-0.8-3.4-3.4c0.1-8.4,0.1-16.8,0-25.2c0-2.6,0.9-3.4,3.4-3.4
		c9.2,0.1,18.4,0,27.6,0.1c5.3,0,9.4,2.4,11.9,7.2c3.8,7.3,7.5,14.6,11.4,21.9c1.3,2.4,0.5,2.8-1.8,2.8
		C245.5,116.4,237.3,116.4,229,116.4z"/>
</g>
</svg>
