<?xml version="1.0" encoding="utf-8"?>
<!-- Generator: Adobe Illustrator 26.0.2, SVG Export Plug-In . SVG Version: 6.00 Build 0)  -->
<svg version="1.1" id="Capa_1" xmlns="http://www.w3.org/2000/svg" xmlns:xlink="http://www.w3.org/1999/xlink" x="0px" y="0px"
	 viewBox="0 0 300 300" style="enable-background:new 0 0 300 300;" xml:space="preserve">
<style type="text/css">
	.st0{fill:#003C82;}
</style>
<g>
	<path class="st0" d="M4.5,224c0-50.1,0-100.3,0-150.4C20,72.9,30.9,63.3,33,48c0.4-3.1,1.8-3.8,4.6-3.7c12.9,0.1,25.8,0.1,38.8,0
		c2.6,0,3.8,0.5,3.6,3.5c-0.3,4.8,3.3,8.1,7.9,8.1c4.6-0.1,8.3-3.7,7.8-8.3c-0.3-3.2,1.1-3.3,3.5-3.3c54.7,0,109.4,0,164.1,0
		c2.8,0,3.9,1,4.2,3.8c2.2,15.3,13,24.9,28.5,25.5c0,50.1,0,100.3,0,150.4c-1.1,0.2-2.1,0.4-3.2,0.6c-14,2-23.3,11.2-25.4,25.3
		c-0.4,2.9-1.6,3.6-4.3,3.6c-54.9-0.1-109.8-0.1-164.7,0c-2,0-3.4-0.5-4.8-2.1c-3.4-3.8-8.7-3.8-12,0c-1.4,1.6-2.8,2.1-4.8,2.1
		c-13.1,0-26.2,0-39.3,0c-4.1,0-4.1,0-4.6-4.1c-1-7.6-4.6-13.7-10.5-18.6C17.3,226.3,11,224.8,4.5,224z M232.9,104.1
		c-2.7,0.2-4.4,2.1-5.6,4.7c-11.6,24.9-23.2,49.8-34.8,74.7c-0.5,1-1,2.1-1.2,3.3c-0.6,2.9,0.8,5.6,3.4,6.6c2.7,1.1,5.5,0.2,7.1-2.4
		c0.8-1.3,1.4-2.7,2.1-4.2c10.6-22.7,21.2-45.4,31.7-68.1c1.1-2.4,2.3-4.7,3.1-7.2C240,107.9,237.1,104.1,232.9,104.1z M223.1,167.2
		c0,5.1,0.1,8.6,1.1,12c2,6.6,6.9,10.1,14.2,10.1c7.1,0,12.3-3.4,14.1-9.9c2-7.3,2-14.8-0.1-22.1c-1.9-6.4-6.8-9.6-14-9.6
		c-7.1,0-11.9,3.3-14,9.6C223.3,161.1,223.1,164.9,223.1,167.2z M207.2,130.2c0-4.3-0.4-8-1.5-11.7c-2-6.4-6.7-9.8-13.5-9.8
		c-7.4-0.1-12.4,2.9-14.4,9.4c-2.4,7.6-2.4,15.3-0.1,22.9c1.8,6,6.8,9.1,13.7,9.3c6.7,0.1,11.9-3,14-8.8
		C206.8,137.7,207.1,133.7,207.2,130.2z M143.9,143.1c-4.7,0-9.3-0.1-14,0c-3.6,0.1-6.1,2.3-6.3,5.5c-0.2,3.3,2.2,6.1,6,6.2
		c9.4,0.2,18.8,0.2,28.2,0c3.9-0.1,6.2-2.8,6-6.1c-0.1-3.3-2.7-5.5-6.6-5.6C152.8,143,148.4,143.1,143.9,143.1z M87.8,85.7
		c4.4,0,8-3.6,8-7.9c0-4.3-3.7-8-8-7.9c-4.4,0-7.9,3.6-7.9,8C79.9,82.4,83.2,85.7,87.8,85.7z M87.6,218.8c-4.5,0-7.8,3.5-7.8,8
		c0,4.4,3.7,7.9,8.1,7.8c4.3-0.1,7.9-3.8,7.9-8.1C95.7,222.2,92.1,218.8,87.6,218.8z M87.8,204.7c4.5,0,8-3.4,8-7.8
		c0-4.3-3.6-7.9-8-7.9c-4.6,0-7.9,3.3-7.9,7.8C79.8,201.4,83.2,204.7,87.8,204.7z M87.7,115.5c4.4,0,8-3.5,8.1-7.8
		c0-4.4-3.5-7.9-8-7.9c-4.6,0-7.9,3.3-8,7.8C79.8,112.1,83.1,115.4,87.7,115.5z M87.7,145.2c4.5,0,8-3.4,8.1-7.8
		c0.1-4.4-3.5-7.9-7.9-7.9c-4.6,0-8,3.2-8,7.7C79.8,141.8,83.1,145.2,87.7,145.2z M87.7,175c4.5,0.1,8-3.3,8.1-7.7
		c0.1-4.3-3.5-7.9-7.9-7.9c-4.6,0-8,3.2-8,7.7C79.8,171.6,83.1,174.9,87.7,175z"/>
	<path class="st0" d="M232.2,168.6c0.1-2.9,0-5.7,0.8-8.3c0.9-3,2.9-4.6,5.7-4.5c2.9,0.1,4.8,1.6,5.4,4.4c1.2,5.6,1.3,11.2,0,16.7
		c-0.6,2.8-2.6,4.3-5.5,4.3c-2.9,0-4.7-1.4-5.6-4.2C232.1,174.2,232.3,171.2,232.2,168.6z"/>
	<path class="st0" d="M198.2,129.6c0,2.8-0.2,5.6-1,8.3c-0.8,2.6-2.5,4-5.3,4.1c-2.9,0-4.9-1.3-5.6-4.1c-1.6-5.7-1.5-11.5,0-17.3
		c0.7-2.7,2.7-4,5.4-4c2.7,0,4.6,1.3,5.4,4C197.9,123.6,198.2,126.6,198.2,129.6z"/>
</g>
</svg>
