<?xml version="1.0" encoding="utf-8"?>
<!-- Generator: Adobe Illustrator 26.0.2, SVG Export Plug-In . SVG Version: 6.00 Build 0)  -->
<svg version="1.1" id="Capa_1" xmlns="http://www.w3.org/2000/svg" xmlns:xlink="http://www.w3.org/1999/xlink" x="0px" y="0px"
	 viewBox="0 0 300 300" style="enable-background:new 0 0 300 300;" xml:space="preserve">
<style type="text/css">
	.st0{fill:#003C82;}
</style>
<g>
	<path class="st0" d="M6.6,113.5c0-0.6,0-1.1,0-1.7c10-8,20-16.1,30-24.1c1.1-0.8,1.3-2,1.6-3.3c2-12,4.2-24,6.1-35.9
		c0.4-2.3,1.4-3.2,3.7-3.6c11-1.6,21.9-3.5,32.9-5.1c2.8-0.4,4.9-1.6,6.7-3.8c7.2-8.9,14.7-17.7,22-26.6c1.6-2,3.1-2.3,5.4-1.4
		c10.7,4.2,21.5,8.2,32.2,12.4c1.7,0.7,3.2,0.7,5,0c11.2-4.2,22.5-8.2,33.7-12.5c2.4-0.9,3.8-0.5,5.4,1.5c7,8.9,14.2,17.6,21.3,26.4
		c1.4,1.8,3,2.7,5.2,3.1c11.7,1.9,23.4,4,35.1,6c2.3,0.4,3.3,1.3,3.6,3.6c1.6,11,3.5,21.9,5.1,32.9c0.4,2.8,1.5,4.9,3.8,6.7
		c9,7.3,17.8,14.8,26.8,22.1c1.8,1.5,2.1,2.8,1.3,4.9c-4.1,10.4-8,20.9-12.1,31.4c-1,2.6-1,4.8,0,7.4c4.1,10.7,7.9,21.6,12,32.3
		c0.9,2.3,0.6,3.8-1.4,5.4c-8.9,7.1-17.7,14.3-26.6,21.5c-1.6,1.3-2.5,2.7-2.8,4.7c-1.9,11.8-4.1,23.6-6,35.4
		c-0.4,2.4-1.5,3.3-3.9,3.7c-11,1.6-21.9,3.4-32.9,5.2c-1.8,0.3-3.6,0.3-4.9,1.9c-8.4,10.2-16.8,20.4-25.2,30.6c-0.6,0-1.1,0-1.7,0
		c-11.7-4.5-23.4-9-35.1-13.6c-1-0.4-2-0.4-3.1,0c-12.2,4.5-24.4,9.1-36.6,13.6c-0.6,0-1.1,0-1.7,0c-8-10-16.1-20-24.1-30
		c-0.8-1-2-1.4-3.3-1.6c-11.9-2-23.7-4.2-35.6-6.1c-2.5-0.4-3.6-1.4-3.9-4c-1.6-11.2-3.5-22.3-5.3-33.4c-0.3-1.6-0.4-3.2-1.9-4.4
		c-10.2-8.4-20.4-16.8-30.6-25.2c0-0.6,0-1.1,0-1.7c4.5-11.7,9.1-23.4,13.6-35.1c0.4-1,0.4-2,0-3.1C15.6,137.9,11.1,125.7,6.6,113.5
		z M172.2,123.2c0-5.9-0.3-11.7-2.3-17.3c-3.1-8.3-9.7-12.9-19-13c-10.3-0.2-17.5,3.9-20.5,12.5c-4.1,11.7-4,23.7,0,35.5
		c2,5.7,6.3,9.2,12.1,10.9c3.2,0.9,6.4,0.9,9.7,0.7c9.6-0.5,16.1-5.8,18.5-15.1C172,132.8,172.2,128,172.2,123.2z M239.4,179
		c-0.1-3.9-0.1-7.8-0.8-11.7c-2.2-12-9.4-18.2-21.3-18.2c-12,0-19.2,6-21.4,18.1c-1.5,8.2-1.5,16.4,0.1,24.5
		c2,10,7.7,15.6,17.7,16.8c10.9,1.3,21.9-2.3,24.8-17.2C239.3,187.2,239.4,183.1,239.4,179z M215.2,94.9c0-2.2-0.9-3.9-2.8-5
		c-2-1.1-4.1-1-6,0.3c-1.3,0.8-1.9,2.1-2.5,3.4c-14.4,31-28.9,61.9-43.3,92.9c-2.8,5.9-5.6,11.8-8.2,17.7c-1.4,3.2-0.2,6.5,2.7,7.8
		c3,1.4,6,0.2,7.7-2.9c0.2-0.4,0.4-0.9,0.6-1.3c16.9-36.3,33.9-72.7,50.8-109C214.8,97.5,215.2,96.3,215.2,94.9z M81,156.5
		c6.6,0,13.2,0,19.8,0c4,0,6.6-2.2,6.7-5.6c0.1-3.4-2.6-5.7-6.8-5.7c-13,0-26,0-39.1,0c-4.2,0-6.6,2.1-6.6,5.6
		c-0.1,3.6,2.4,5.7,6.7,5.7C68.2,156.6,74.6,156.5,81,156.5z"/>
	<path class="st0" d="M140.9,122.9c-0.1-4.1,0-8.2,1.2-12.2c1.3-4.1,3.9-6.1,8-6c4,0.1,6.6,2,7.6,6.2c1.9,8,2,16.1,0,24.1
		c-1,4.1-3.7,6-7.7,6c-4,0-6.6-1.9-7.9-5.9C140.9,131.2,140.8,127.1,140.9,122.9z"/>
	<path class="st0" d="M208.1,178.9c0-4.1,0.1-8.2,1.4-12.2c1.3-4,3.8-5.9,7.8-5.9c4,0,6.7,1.8,7.7,5.9c2.1,8,2,16.1,0.1,24.1
		c-1,4.3-3.7,6.2-7.8,6.2c-4.1,0-6.7-2-7.9-6.2c-0.4-1.4-0.7-2.8-0.9-4.2C208.2,184,208.2,181.4,208.1,178.9z"/>
</g>
</svg>
