<?xml version="1.0" encoding="utf-8"?>
<!-- Generator: Adobe Illustrator 26.0.2, SVG Export Plug-In . SVG Version: 6.00 Build 0)  -->
<svg version="1.1" id="Capa_1" xmlns="http://www.w3.org/2000/svg" xmlns:xlink="http://www.w3.org/1999/xlink" x="0px" y="0px"
	 viewBox="0 0 300 300" style="enable-background:new 0 0 300 300;" xml:space="preserve">
<style type="text/css">
	.st0{fill:#003C82;}
</style>
<g>
	<path class="st0" d="M292.9,7c1.2,0.5,0.5,1.5,0.5,2.3c0,14.1,0,28.3,0,42.4c0,79.8,0,159.6,0.1,239.4c0,2.2-0.6,2.4-2.5,2.4
		c-93.8-0.1-187.6-0.1-281.5,0c-2.3,0-2.6-0.7-2.6-2.7C7,230.2,7,169.6,7,109c0.8-0.9,1.5-1.7,2.3-2.6C40.2,73.3,71.2,40.1,102.1,7
		c0.2,0,0.4,0,0.6,0c0,12.6,0,25.2,0.2,37.8c0,2.5-0.9,4-3,5.3c-7.7,4.8-14.6,10.5-20.3,17.5c-19.3,23.3-25.5,49.8-19,79.4
		c0.7,3.4,0.7,3.4-2.6,3.4c-6.6,0-13.2,0.1-19.8,0c-2.6-0.1-3.5,0.8-3.5,3.5c0.1,11.2,0.1,22.3,0,33.5c0,2.6,0.9,3.5,3.5,3.5
		c9.7-0.1,19.5,0,29.2,0c8.9,0,7.5,1,7.7-7.5c0-1-0.5-2.6,0.5-2.9c1.3-0.5,1.7,1.2,2.4,2c25.7,31.4,67.8,41.9,105.1,26.2
		c2.8-1.2,4.5-0.9,6.7,1.3c15.2,15.4,30.4,30.6,45.7,45.8c7.4,7.3,16.4,10.1,26.5,8.1c11.6-2.2,19.5-9.2,22.8-20.5
		c3.3-11.1,0.9-21.2-7.3-29.6c-6.1-6.3-12.4-12.4-18.6-18.7c-0.7-0.7-1.5-1.5-2.2-2.3c-0.9-1.1-0.5-1.8,0.8-1.8
		c1.6-0.1,3.3-0.2,4.9,0c2.6,0.2,3.5-0.8,3.5-3.5c-0.1-11.2-0.1-22.3,0-33.5c0-2.6-0.9-3.5-3.5-3.5c-7.9,0.1-15.8,0-23.8,0
		c-4.3,0-4.2,0-3.3-4.1c4.9-22.2,2.1-43.4-8.8-63.5c-1.1-2.1-1.1-3.5,0.6-5.2c12-12.7,23.9-25.5,35.8-38.3
		C272.9,28.6,282.9,17.8,292.9,7z"/>
	<path class="st0" d="M198.3,7c0,13.5,0,27.1,0,40.6c0,3.6-0.4,3.8-3.5,1.9c-7.4-4.5-15.2-7.9-23.5-10.2c-2.8-0.8-2.9-1-0.8-3.2
		c7.9-8.4,15.7-16.9,23.6-25.3c1.1-1.2,2.3-2.3,3.1-3.7C197.6,7,198,7,198.3,7z"/>
	<path class="st0" d="M148,48c39.5,0,73.1,30,77.3,69c1.8,16.5-1.3,32.1-9.4,46.7c-1.4,2.5-1.1,4,0.9,5.9
		c17.2,17.1,34.3,34.3,51.5,51.4c5.4,5.4,7.4,11.8,5.1,19.1c-3.8,12.2-19,16.4-28.7,8c-1-0.9-1.9-1.8-2.9-2.8
		c-16.9-16.9-33.8-33.7-50.6-50.7c-1.8-1.8-3-2.1-5.3-0.8c-47.9,26.8-107.1-2.4-115.4-56.7C64.1,94.4,95,53.8,138,48.6
		C141.3,48.2,144.7,48.1,148,48z M200,125.9c0-29-23.2-52.3-52.2-52.3c-28.9,0-52.4,23.4-52.5,52.2c0,29,23.4,52.4,52.5,52.4
		C176.9,178.2,200,155,200,125.9z"/>
	<path class="st0" d="M188.3,125.9c-0.1,12.8-5.1,23.3-15,31.5c-0.7,0.6-1.4,1.7-2.4,1.2c-1-0.5-0.6-1.7-0.6-2.6
		c-0.1-5.5-0.1-5.5-5.7-5.5c-10.1,0-20.2,0-30.4,0c-3.8,0-4,0.2-4,4.1c0,1.3,0,2.7,0,4c0,3.6-0.5,3.9-3.4,2
		c-10.3-6.5-16.9-15.7-18.9-27.8c-4.2-25.4,15.3-47.8,40.9-47.4C170.6,85.7,188.2,103.8,188.3,125.9z"/>
</g>
</svg>
