<?xml version="1.0" encoding="utf-8"?>
<!-- Generator: Adobe Illustrator 26.0.2, SVG Export Plug-In . SVG Version: 6.00 Build 0)  -->
<svg version="1.1" id="Capa_1" xmlns="http://www.w3.org/2000/svg" xmlns:xlink="http://www.w3.org/1999/xlink" x="0px" y="0px"
	 viewBox="0 0 300 300" style="enable-background:new 0 0 300 300;" xml:space="preserve">
<style type="text/css">
	.st0{fill:#003C82;}
</style>
<g>
	<path class="st0" d="M297.9,150.9c-11.7,11.6-23.3,23.2-35,34.8c-5.6,5.5-5.6,5.5-11.1,0c-10.8-10.8-21.6-21.6-32.4-32.4
		c-0.8-0.8-2.4-1.4-1.8-2.7c0.4-1,2-0.4,3-0.5c7.1,0,14.3,0,21.4,0c1.7,0,2.8-0.2,2.7-2.4c-0.7-15.9-4.5-31-12.8-44.7
		c-16.3-26.9-40.1-42.7-71.4-45.9C131.9,54.3,106.7,63,85.7,83c-5.2,5-11.2,6.1-16.5,3c-7.1-4.2-8.4-13.8-2.4-19.9
		c7.9-8.1,17-14.7,27-20.1c13.9-7.6,28.8-12.3,44.6-13.9c0.5-0.1,0.9-0.3,1.4-0.4c7.4,0,14.9,0,22.3,0c2.6,0.4,5.2,0.8,7.8,1.2
		c57.9,9.5,99,58.8,99.9,114.1c0,2.6,0.9,3.3,3.4,3.3c8.2-0.1,16.4,0.1,24.6,0.1C297.9,150.5,297.9,150.7,297.9,150.9z"/>
	<path class="st0" d="M70.9,150.5c-3.8,0-7.6,0-11.5,0c-1.7,0-2.5,0.5-2.4,2.4c0.9,20,6.9,38.3,19.2,54.2
		c15.9,20.5,36.6,32.9,62.4,36c29.8,3.6,55.8-5,77.6-25.7c6.7-6.3,16-5.7,20.5,1.4c3.3,5.2,2.4,11.7-2.3,16.3
		c-12,11.8-25.8,20.7-41.6,26.5c-31.9,11.7-63.7,10.7-94.1-4.4c-37-18.4-58.8-48.5-65.7-89.3c-0.8-4.6-1.4-9.3-1.1-14
		c0.2-2.8-1.1-3.4-3.6-3.4c-7.1,0.1-14.3,0.1-21.5,0c-0.8,0-2,0.4-2.3-0.6c-0.3-0.8,0.7-1.3,1.2-1.8c12.2-12.2,24.4-24.3,36.5-36.6
		c1.7-1.7,2.8-1.4,4.3,0.2c12,12.1,24.1,24.1,36.1,36.2c0.6,0.6,1.9,1.2,1.4,2.3c-0.4,0.8-1.6,0.4-2.4,0.4
		C78.2,150.5,74.5,150.5,70.9,150.5z"/>
	<path class="st0" d="M140.2,170.4c0-2.8-0.1-5.7,0-8.5c0.1-2.1-0.8-2.9-2.9-3.2c-13.1-1.8-22.5-10.7-25.1-23.4
		c-3.2-16,8.6-32.1,24.8-33.8c2.4-0.3,3.3-1,3.2-3.4c-0.1-2.7-0.1-5.5,0-8.2c0.2-6.2,4.8-10.7,10.7-10.7c5.8,0,10.4,4.6,10.6,10.8
		c0.1,2.7,0.1,5.5,0,8.2c-0.1,2.1,0.6,3.1,2.9,3.3c8.9,1,15.8,5.5,20.7,12.9c3.2,4.7,2.3,9.8-1.9,12.6c-4.1,2.8-8.9,1.7-12.2-2.9
		c-1.8-2.4-3.8-4.5-6.8-5.3c-1.7-0.4-2.7,0-2.7,1.9c0,6.2,0,12.3,0,18.5c0,2,1.3,2.4,2.9,2.6c13.1,1.8,22.5,10.7,25.1,23.4
		c3.2,16-8.6,32.1-24.8,33.8c-2.4,0.3-3.3,1.1-3.2,3.4c0.1,2.7,0.1,5.5,0,8.2c-0.2,6.1-4.9,10.7-10.7,10.7
		c-5.8,0-10.4-4.6-10.6-10.8c-0.1-2.7-0.1-5.5,0-8.2c0.1-2.2-0.6-3.1-3-3.3c-8.9-1-15.8-5.6-20.7-12.9c-3.2-4.7-2.4-9.7,1.9-12.6
		c4.1-2.8,8.9-1.7,12.2,2.8c1.7,2.4,3.6,4.3,6.5,5.2c1.9,0.6,3,0.2,3-2.1C140.2,176.5,140.2,173.4,140.2,170.4z M140.2,130
		c0-3,0-6,0-9.1c0-2.1-1-2.5-2.8-2c-4.7,1.2-8.2,6.1-8.2,11.3c0.1,5,3.7,9.8,8.2,10.9c1.8,0.4,2.8,0,2.8-2.1
		C140.2,136.1,140.2,133,140.2,130z M161.6,170.4c0,3,0,6,0,9.1c0,2.2,0.9,2.8,2.9,2.2c4.5-1.3,8-5.8,8.1-10.7
		c0.1-5.2-3.1-9.8-7.7-11.3c-2.2-0.7-3.4-0.3-3.3,2.3C161.6,164.7,161.6,167.5,161.6,170.4z"/>
</g>
</svg>
