<?xml version="1.0" encoding="utf-8"?>
<!-- Generator: Adobe Illustrator 26.0.2, SVG Export Plug-In . SVG Version: 6.00 Build 0)  -->
<svg version="1.1" id="Capa_1" xmlns="http://www.w3.org/2000/svg" xmlns:xlink="http://www.w3.org/1999/xlink" x="0px" y="0px"
	 viewBox="0 0 300 300" style="enable-background:new 0 0 300 300;" xml:space="preserve">
<style type="text/css">
	.st0{fill:#003C82;}
</style>
<g>
	<path class="st0" d="M99.4,5.6c34.3,0,68.7,0,103,0c0.6,0.1,1.1,0.3,1.7,0.4c41.4,6.2,69.9,28.8,85.5,67.6c3.3,8.1,4.7,16.7,6,25.2
		c0,34.3,0,68.7,0,103c-0.3,1.9-0.7,3.8-1,5.7c-7.1,49.2-51.2,87.5-100.8,87.7c-28.6,0.1-57.3,0-85.9,0c-4.6,0-9.2-0.4-13.8-1.1
		C43.5,286.4,6,242.9,6,191.9c0-27.8,0-55.6,0-83.3c0-3.5,0-6.9,0.5-10.4c5.8-42,28.5-70.7,67.6-86.5C82.2,8.3,90.8,6.9,99.4,5.6z
		 M218.6,183.1c10.3,0,20.6,0,31,0c4.2,0,4.3-0.1,4.3-4.2c0-19.1,0-38.2,0-57.3c0-4.1-0.1-4.2-4.2-4.2c-20.4,0-40.9,0-61.3,0
		c-4.5,0-4.5,0-4.5-4.4c0-20.5,0-41.1,0-61.6c0-3.9-0.1-4.1-4.1-4.1c-19.1,0-38.2,0-57.3,0c-4.2,0-4.3,0.1-4.3,4.2
		c0,20.5,0,41.1,0,61.6c0,4.3,0,4.3-4.4,4.3c-20.5,0-41.1,0-61.6,0c-4,0-4.1,0.1-4.1,4c0,19.2,0,38.4,0,57.6c0,3.9,0.1,4,4.1,4
		c20.4,0,40.9,0,61.3,0c4.7,0,4.7,0,4.7,4.6c0,20.4,0,40.9,0,61.3c0,4.1,0.1,4.2,4.2,4.2c19,0,38,0,57,0c4.4,0,4.4,0,4.4-4.3
		c0-20.6,0-41.3,0-61.9c0-3.8,0.1-3.9,3.9-3.9C197.9,183.1,208.3,183.1,218.6,183.1z"/>
</g>
</svg>
