<?xml version="1.0" encoding="utf-8"?>
<!-- Generator: Adobe Illustrator 26.0.2, SVG Export Plug-In . SVG Version: 6.00 Build 0)  -->
<svg version="1.1" id="Capa_1" xmlns="http://www.w3.org/2000/svg" xmlns:xlink="http://www.w3.org/1999/xlink" x="0px" y="0px"
	 viewBox="0 0 300 300" style="enable-background:new 0 0 300 300;" xml:space="preserve">
<style type="text/css">
	.st0{fill:#003C82;}
</style>
<g>
	<path class="st0" d="M288.9,78.8c-5,8.5-10,17.1-15,25.6c-2.5,4.3-4.9,8.6-7.5,12.8c-1.4,2.2-1.9,4.5-1.9,7.1
		c0.1,29.2,0,58.4,0.1,87.6c0,2.7-0.9,4.2-3.2,5.5c-37.2,21.3-74.3,42.7-111.4,64.1c-1.1,0.6-2.1,2.1-3.8,0.7c-0.5-0.5-1.3,0.6-2,1
		c-4.8,3.2-9.6,6.3-14.3,9.5c-2.5,1.7-5,2.2-7.7,0.7c-2.7-1.4-3.4-3.8-3.2-6.6c0.2-3.7,0.3-7.4,0.7-11c0.3-2.5-0.6-4-2.9-5.4
		C92,256.3,67.3,242,42.6,227.7c-6.2-3.6-12.4-7.2-18.7-10.7c-1.7-0.9-2.3-2.1-2.3-3.9c0-43.2,0-86.3,0-129.5c0-3,0.3-3.2,2.9-1.7
		c13,7.4,25.9,15,38.9,22.4c1.8,1,2.3,2.3,2.3,4.3c-0.1,10.7,0,21.3-0.1,32c0,2.2,0.6,3.5,2.6,4.6c9.4,5.3,18.7,10.7,28,16.1
		c2.9,1.6,2.9,1.6,2.9-1.6c0-10.4,0-20.8,0-31.1c0-3.4,0.2-3.5,3.2-1.8c11.7,6.7,23.4,13.5,35.1,20.2c1.8,1,2.2,2.4,2.2,4.3
		c0,11.4,0,22.9,0,34.3c0,1.1,0,2.1,0,3.2c2.7-4.7,7.2-8.5,6.9-14.7c-0.4-7.3,0.1-14.6-0.2-21.8c-0.1-3,0.9-4.8,3.6-6.2
		c6.2-3.4,12.2-7.2,18.5-10.5c3.2-1.7,5.4-3.9,7-7.1c1.1-2.1,2.4-4.2,3.8-6.6c-1.9,0.2-2.9,1.1-4,1.7c-9.9,5.7-19.9,11.4-29.8,17.2
		c-1.7,1-3.1,1-4.8,0c-11.7-6.8-23.5-13.6-35.3-20.4c-2.6-1.5-2.6-1.7,0.1-3.2c37.3-21.5,74.5-43,111.9-64.4c2-1.2,3.6-2.6,4.7-4.6
		c0.8-1.5,1.6-2.9,2.5-4.3c2.7-4.3,6-5.3,10.3-2.8c17,9.7,33.9,19.5,50.8,29.2c1.5,0.9,2.5,2.1,3.4,3.5
		C288.9,75.3,288.9,77,288.9,78.8z M258.2,104.9c-0.2-1.2-1.3-1.5-2.1-2c-11.7-6.7-23.4-13.4-35.1-20.3c-2.5-1.5-3.5-1.1-4.9,1.3
		c-10.1,17.7-20.4,35.3-30.6,52.9c-14.9,25.8-29.8,51.6-44.8,77.3c-1.1,1.9-1.2,2.9,0.9,4.1c12.1,6.8,24.1,13.7,36.1,20.8
		c1.9,1.1,2.6,0.5,3.5-1.1c8.9-15.6,17.9-31.1,26.9-46.6c16.2-28,32.4-55.9,48.5-83.9C257.4,106.6,257.8,105.7,258.2,104.9z
		 M132.9,274.9c12.3-8.5,24-16.5,35.6-24.6c1.6-1.1,0.2-1.5-0.5-2c-4.2-2.4-8.4-4.9-12.6-7.3c-5.7-3.3-11.4-6.6-17.1-9.9
		c-1.9-1.1-2.6-0.7-2.6,1.5c0,1.7-0.1,3.5-0.2,5.2C134.6,250,133.8,262,132.9,274.9z M273.1,79c-0.1-1.1-0.9-1.4-1.5-1.7
		c-12.3-7.1-24.5-14.1-36.8-21.2c-1.5-0.9-2.2-0.6-3,0.9c-2,3.6-4,7.1-6.1,10.6c-1,1.6-0.8,2.5,0.9,3.5c12.2,7,24.4,14,36.5,21
		c1.3,0.8,2.2,0.8,3-0.7c2-3.7,4.2-7.2,6.2-10.8C272.7,80,273,79.5,273.1,79z"/>
	<path class="st0" d="M143.7,6c14.3,8.3,28.7,16.6,43.5,25.2c-3.7,2.1-6.9,4-10.1,5.9c-34.8,20.1-69.7,40.1-104.5,60.3
		c-2.8,1.6-4.7,1.5-7.4-0.1C52.9,90,40.5,83,28.1,75.9C24.8,74,24.8,73.8,28,72c37.1-21.4,74.2-42.8,111.3-64.2
		c0.9-0.5,1.8-1.2,2.6-1.8C142.5,6,143.1,6,143.7,6z"/>
</g>
</svg>
