<?xml version="1.0" encoding="utf-8"?>
<!-- Generator: Adobe Illustrator 26.0.2, SVG Export Plug-In . SVG Version: 6.00 Build 0)  -->
<svg version="1.1" id="Capa_1" xmlns="http://www.w3.org/2000/svg" xmlns:xlink="http://www.w3.org/1999/xlink" x="0px" y="0px"
	 viewBox="0 0 300 300" style="enable-background:new 0 0 300 300;" xml:space="preserve">
<style type="text/css">
	.st0{fill:#003C82;}
</style>
<g>
	<path class="st0" d="M284.1,80.9c0,1.7,0,3.4,0,5.1c-5.5,8.6-10.3,17.6-15.4,26.4c-0.8,1.4-1.4,2.8-2.2,4.1
		c-2.9,4.4-5.9,8.6-5.8,14.7c0.4,29.6,0.1,59.3,0.2,88.9c0,3.2-1.1,4.9-3.8,6.5c-25.9,14.8-51.7,29.8-77.5,44.7
		c-8.8,5.1-17.7,10.2-26.5,15.3c-4,2.3-4.1,2.3-4.1-2.2c0-1.2,0-2.5,0-3.7c0-0.9-0.4-1.4-1.5-1c-2.7,0.9-4.9,3.5-5.1,6.4
		c-0.1,2.1-1,2.6-2.7,1.5c-1.6-1.1-3-0.9-4.4,0.3c-1.1,0.9-2.3,1.7-3.6,2.3c-4,2-8.4-0.5-8.9-4.9c-0.1-1.2-0.2-2.5,0.1-3.7
		c0.7-2.7-0.5-4.1-2.8-5.4c-28.9-16.6-57.8-33.3-86.7-49.9c-2.3-1.3-3.2-2.8-3.2-5.4c0.1-29.9,0-59.9,0-89.8c0-3.8,0.2-3.9,3.6-2
		c34.4,19.9,68.8,39.7,103.3,59.6c5.4,3.1,5.4,3.1,8.6-2.4c1.9-3.2,3.6-6.3,3.4-10.3c-0.3-6.9,0-13.9-0.2-20.9
		c-0.1-2.8,0.9-4.3,3.3-5.6c6.7-3.7,13.3-7.5,19.8-11.4c4.3-2.5,5.2-7.2,7.9-11.3c-1.8-0.1-2.5,0.6-3.3,1.1
		c-9.2,5.3-18.4,10.5-27.5,15.9c-2.5,1.5-4.4,1.6-7,0.1c-27.8-16.2-55.8-32.3-83.7-48.4c-9.7-5.6-19.3-11.1-29-16.7
		c-3-1.7-3-1.9,0-3.8c0.2-0.1,0.5-0.3,0.7-0.4c29.8-17.2,59.6-34.4,89.4-51.6c8.3-4.8,16.8-9.3,24.9-14.6c0.6,0,1.1,0,1.7,0
		c9.9,5.7,19.8,11.5,29.6,17.2c14.7,8.5,29.3,16.9,44,25.4c1.3,0.8,2.4,1.5,4,0c2.8-2.8,5.4-3,9-0.9c15.8,9.1,31.5,18.2,47.2,27.3
		C281.8,78.1,283.1,79.3,284.1,80.9z M179.8,238.8c1.6,0,1.9-1.1,2.4-2c23.9-41.4,47.8-82.8,71.8-124.2c1.1-1.9,0.7-2.8-1.1-3.8
		c-11.3-6.4-22.5-12.9-33.7-19.4c-2-1.2-2.9-0.8-4,1.1c-7.3,12.7-14.6,25.4-22,38.1c-16.4,28.4-32.8,56.7-49.2,85.1
		c-2,3.4-2,3.4,1.5,5.4c10.6,6.1,21.3,12.3,31.9,18.4C178.3,237.9,179.2,238.4,179.8,238.8z M102,212.9c4.8,0,8-3.2,8.1-7.7
		c0.1-3.6-1.8-5.9-4.7-7.6c-8.9-5.1-17.8-10.3-26.7-15.4c-4.5-2.6-9.4-1.5-11.7,2.6c-2.3,4.1-0.9,8.7,3.7,11.3
		c8.8,5.1,17.6,10.2,26.4,15.3C98.7,212.4,100.4,213.1,102,212.9z M136.3,269.2c-0.1,0.7-0.5,1.7,0.2,2.2c0.8,0.6,1.4-0.3,2-0.7
		c10-6.9,20.1-13.9,30.1-20.7c2.1-1.4,1.7-2.2-0.2-3.3c-8.6-4.9-17.2-9.9-25.7-14.8c-3.6-2.1-3.8-2-4.1,2.1
		C137.7,245.6,137,257.4,136.3,269.2z M269,86.3c0.1-1.1-0.5-1.4-1.1-1.7c-11.7-6.8-23.4-13.5-35.1-20.2c-1.3-0.7-2-0.6-2.8,0.7
		c-2,3.5-3.9,6.9-6,10.4c-0.8,1.3-0.5,2.1,0.7,2.8c11.6,6.7,23.3,13.4,34.9,20.1c1.4,0.8,2.2,0.5,3-0.8c1.9-3.4,3.9-6.8,5.8-10.1
		C268.7,87,268.9,86.6,269,86.3z"/>
	<path class="st0" d="M142.3,167.6c0,4.3,0,8.6,0,12.9c0,3.3-0.4,3.5-3.2,1.8c-15.8-9.1-31.7-18.3-47.5-27.4
		c-21.7-12.5-43.4-25.1-65.1-37.5c-2.6-1.5-3.6-3.1-3.5-6.1c0.2-8.2,0.1-16.4,0.1-24.6c0-3.8,0.3-4,3.6-2.1
		c28.7,16.6,57.4,33.1,86.1,49.7c8.9,5.1,17.8,10.3,26.7,15.4c2.1,1.2,2.9,2.7,2.9,5C142.3,159,142.3,163.3,142.3,167.6z"/>
</g>
</svg>
