<?xml version="1.0" encoding="utf-8"?>
<!-- Generator: Adobe Illustrator 26.0.2, SVG Export Plug-In . SVG Version: 6.00 Build 0)  -->
<svg version="1.1" id="Capa_1" xmlns="http://www.w3.org/2000/svg" xmlns:xlink="http://www.w3.org/1999/xlink" x="0px" y="0px"
	 viewBox="0 0 300 300" style="enable-background:new 0 0 300 300;" xml:space="preserve">
<style type="text/css">
	.st0{fill:#003C82;}
</style>
<g>
	<path class="st0" d="M212.2,5.6c6.8,2.7,9.3,8,9.3,15.1c-0.1,86.4,0,172.8,0,259.3c0,3.7-0.4,7.3-2.8,10.4
		c-3.1,4.1-8.6,5.9-13.7,4.3c-4.9-1.5-8.7-6.1-8.4-11.2c0.2-3.8-1.4-5.3-4.7-6.7C139,255,86.2,233.2,33.3,211.3
		c-2.4-1-3.9-1.2-5.8,1.2c-3.2,4-8.9,5.1-13.7,3.2c-4.6-1.8-7.7-6.1-7.7-11.2c0-36.1,0-72.1,0-108.2c0-5.3,3.1-9.6,7.9-11.4
		c4.8-1.8,10.4-0.7,13.7,3.3c1.7,2,3,2.2,5.3,1.3C86.5,67.3,140,45.1,193.6,23c1.8-0.7,3-1.5,2.8-3.7c-0.6-6.8,2.9-11.1,8.8-13.8
		C207.6,5.6,209.9,5.6,212.2,5.6z M86.1,151c-0.2,6,0.3,12.4,1.9,18.6c2.7,11,9.2,17.8,20.8,19.1c15.2,1.6,27.1-3.4,30.5-20.2
		c2.5-12.3,2.6-24.6-0.3-36.7c-3-12.7-9-18.3-21.7-19.8c-13.8-1.6-24.6,3.4-28.7,17.8C86.6,136.6,86,143.6,86.1,151z M47.8,189
		c8.8,0.1,15.1-1.3,20.1-6.3c4.9-5,6.1-11.3,6.3-17.8c0.2-9.1-2.7-16.5-11.8-20.2c-2-0.8-3.9-1.6-5.9-2.4c-3.1-1.2-6.3-2.3-9.5-3.5
		c-2.8-1.1-3.6-3.3-3.2-6.1c0.3-2.7,2.1-4,4.6-4.4c1.9-0.3,3.8-0.5,5.7-0.2c4.5,0.6,9,1,13.5,1.4c2.5,0.2,4.2-0.6,4.4-3.4
		c0.2-2.6,0.4-5.2,0.6-7.8c0.2-2.4-1-3.8-3.3-4.2c-6.8-1.4-13.6-2.5-20.6-2.3c-10.5,0.4-18.6,6.3-20.3,15.3
		C26,139.4,28.8,149,38.9,154c2.2,1.1,4.4,1.9,6.7,2.7c2.8,1,5.7,1.8,8.5,3c3.6,1.5,4.3,3,3.8,7.4c-0.4,3.2-2,4.8-5.4,5.5
		c-1.6,0.3-3.2,0.3-4.9,0.1c-4.7-0.5-9.4-1-14.1-1.5c-2.6-0.3-4,0.9-4.3,3.5c-0.3,2.4-0.5,4.8-0.8,7.2c-0.3,2.5,0.8,4,3.3,4.6
		C37.6,187.8,43.7,188.9,47.8,189z M175.3,189c5,0.1,9.8-0.6,14.2-3.3c9.5-6,10.5-15.3,9.9-25.2c-0.5-8.1-5.1-13.3-12.4-16.3
		c-4.8-2-9.7-3.7-14.6-5.6c-2.8-1.1-3.5-3.4-3.1-6.1c0.4-2.7,2.2-3.9,4.7-4.3c1.9-0.3,3.8-0.5,5.7-0.2c4.4,0.6,8.8,0.9,13.2,1.4
		c2.4,0.3,4.2-0.5,4.6-3.2c0.3-2.5,0.4-5,0.7-7.5c0.3-2.8-0.9-4.3-3.7-4.8c-4.6-0.9-9.3-1.7-14-2.1c-6.1-0.5-12.1,0-17.7,2.9
		c-13.1,6.8-11.7,29.6-3.5,36c3.5,2.7,7.3,4.7,11.5,6c3.3,1,6.7,1.9,9.8,3.5c1.8,0.9,2.7,2.3,2.8,4.3c0.4,6-3,9-9.5,8.3
		c-5-0.5-10-1.1-14.9-1.6c-2.4-0.2-4,0.7-4.3,3.1c-0.3,2.7-0.5,5.4-0.7,8.1c-0.2,2.2,0.8,3.4,2.9,3.9
		C162.9,187.8,169,188.8,175.3,189z"/>
	<path class="st0" d="M295.6,153.8c-2.3,5.8-6.5,9-12.8,9.1c-9.9,0.1-19.9,0.6-29.7-0.2c-6.6-0.6-11.4-6.3-11.2-12.6
		c0.2-6.8,5.6-12,12.6-12.1c8.9-0.1,17.7,0.2,26.6-0.1c7-0.2,11.9,2.4,14.6,9C295.6,149.1,295.6,151.4,295.6,153.8z"/>
	<path class="st0" d="M284.6,5.6c3.8,1.5,7,3.7,8.5,7.8c2.1,5.8,0.3,11.7-5.2,15c-8.4,5.1-16.9,10-25.5,14.7
		c-6.1,3.4-13.4,1.2-16.8-4.7c-3.3-5.8-1.6-13,4.4-16.7c6.8-4.2,13.8-8.1,20.7-12.1c2.5-1.4,5.1-2.7,7.6-4.1
		C280.3,5.6,282.5,5.6,284.6,5.6z"/>
	<path class="st0" d="M295.2,213.1c0,8.1-7.2,14-15.1,12c-9.5-2.3-19-4.9-28.5-7.6c-7-2-10.6-8.7-8.8-15.3
		c1.8-6.6,8.4-10.4,15.4-8.6c9.2,2.4,18.5,4.8,27.6,7.4C291.8,202.6,295.2,207.3,295.2,213.1z"/>
	<path class="st0" d="M295.2,87.5c0,5.5-3.1,10.3-8.4,11.8c-9.9,2.9-19.9,5.5-29.9,8c-5.3,1.3-11.1-2.1-13.4-7.3
		c-2.3-5.2-0.7-11.5,3.8-14.8c1.3-1,2.8-1.8,4.4-2.2c9.5-2.5,19-5.2,28.5-7.6C287.9,73.5,295.2,79.5,295.2,87.5z"/>
	<path class="st0" d="M243.9,269.9c0-10.7,9.5-16.9,17.6-12.7c9.1,4.8,18,10,26.8,15.4c5.8,3.6,7.2,10.8,3.9,16.5
		c-3.3,5.6-10.5,7.9-16.3,4.8c-9-4.9-17.8-10.1-26.5-15.3C245.6,276.3,244,272.6,243.9,269.9z"/>
	<path class="st0" d="M102.5,150.6c0.2-5.1,0.1-10.2,1.5-15.2c1.8-6.3,6.2-8.8,12.6-7.3c2.6,0.6,4.4,2.1,5.5,4.6
		c1.1,2.6,1.8,5.3,1.9,8.1c0.6,8.1,1,16.2-0.8,24.1c-1.3,5.7-4.1,7.9-9.7,7.9c-5.6,0-8.2-2.2-9.7-7.9
		C102.6,160.3,102.7,155.4,102.5,150.6z"/>
</g>
</svg>
