<?xml version="1.0" encoding="utf-8"?>
<!-- Generator: Adobe Illustrator 26.0.2, SVG Export Plug-In . SVG Version: 6.00 Build 0)  -->
<svg version="1.1" id="Capa_1" xmlns="http://www.w3.org/2000/svg" xmlns:xlink="http://www.w3.org/1999/xlink" x="0px" y="0px"
	 viewBox="0 0 300 300" style="enable-background:new 0 0 300 300;" xml:space="preserve">
<style type="text/css">
	.st0{fill:#003C82;}
</style>
<g>
	<path class="st0" d="M110.5,7.6c2.2,0.4,4.4,0.7,6.6,1.2c4.6,0.9,7.2,4.6,6.3,8.9c-0.8,3.9-4.6,6.2-8.9,5.6
		c-27.9-4.1-52.1,3.4-72.4,23C30.2,57.8,22.8,72,19.4,88.3c-0.1,0.4-0.1,0.8-0.2,1.1c-1.1,5.2-4.7,7.9-9,7c-4.3-0.9-6.5-4.8-5.4-10
		C10.7,57.9,26.1,36,51.1,20.9C62.7,13.9,75.4,9.7,89,8c0.6-0.1,1.1-0.3,1.7-0.4C97.3,7.6,103.9,7.6,110.5,7.6z"/>
	<path class="st0" d="M297.1,91.8c-2.9,4.5-6.4,5.9-10.2,4.1c-2.9-1.3-3.9-3.9-4.4-6.8c-2.3-11.8-6.8-22.8-14-32.5
		c-16.1-21.6-37.6-33.4-64.6-34.4c-5.6-0.2-11.3,0-16.9,1c-4.1,0.7-7.9-1.8-8.6-5.6c-0.8-4.1,1.5-7.8,5.7-8.8
		c2.4-0.6,4.8-0.9,7.2-1.3c6.6,0,13.3,0,19.9,0c0.6,0.1,1.1,0.3,1.7,0.4c34,4.9,59.1,22.5,75.3,52.7c4.3,8,6.7,16.5,9,25.2
		C297.1,87.9,297.1,89.9,297.1,91.8z"/>
	<path class="st0" d="M56.2,160.4c3-7.4,5.7-14,8.5-20.7c2.8-6.8,5.8-13.4,9.1-19.9c1.7-3.3,4.1-5.3,7.5-6.4
		c8.8-2.8,17.8-4.2,26.9-5.2c16.5-1.9,33-2.8,49.6-2.3c19.5,0.6,38.9,1.8,58,6.2c6.6,1.5,11,4.8,13.8,11.1c5,11,9.6,22.2,14.2,33.3
		c0.4,1.1,0.9,2.1,1.3,3.2c1.2-0.1,1.2-1,1.5-1.7c1.5-3.2,3.1-6.3,4.9-9.3c1.7-2.8,4-4.5,7.3-4.7c4.6-0.2,9.2-0.6,13.7,0.3
		c3.1,0.6,4.2,2,3.8,5.1c-1,7.9-4.2,14.1-12.2,17c-3.3,1.2-6.6,2.5-10,3.2c-2.5,0.5-2.6,1.3-1,3.2c6.6,7.9,12,16.5,15.3,26.4
		c1.5,4.4,2.1,8.9,2.2,13.5c0.1,13.1,0,26.1,0,39.2c0,3.4-0.5,6.6-2.5,9.5c-0.9,1.2-0.8,2.5-0.8,3.9c0,8,0,16,0,24
		c0,3.4-0.5,4-3.8,4c-8.5,0-17-0.1-25.4,0c-2.8,0-3.9-1.1-3.8-3.8c0.1-6.8-0.1-13.6,0.1-20.5c0-2.5-0.6-3.5-3.3-3.5
		c-53.5,0.1-107,0.1-160.5,0c-2.7,0-3.3,1-3.2,3.5c0.1,6.8,0,13.6,0.1,20.5c0,2.8-1.1,3.8-3.8,3.8c-8.5-0.1-17-0.1-25.4,0
		c-2.8,0-3.9-1.1-3.8-3.8c0.1-8.1,0-16.2,0-24.3c0-1.6-0.2-3-1.2-4.4c-1.7-2.6-2.2-5.6-2.2-8.7c0-13.1-0.1-26.1,0-39.2
		c0-12.2,5-22.7,11.7-32.5c1.9-2.8,4.1-5.5,6.2-8.1c1.1-1.4,1-2.2-0.9-2.6c-4-0.9-7.9-2.2-11.7-3.8c-6.6-2.8-11.3-10-11.2-17.1
		c0-2.4,1-4.1,3.6-4.5c5.5-0.9,11.1-0.8,16.6,0.2c2,0.4,3.1,1.9,4.2,3.5C52.2,151.6,53.8,155.7,56.2,160.4z M150.9,115.9
		c-11.9-0.1-23.8,0.7-35.6,1.9c-8.2,0.9-16.4,2-24.4,4.4c-2.5,0.7-4.7,1.7-6,4.2c-4.3,8.3-7.9,16.9-11.3,25.7
		c-1.8,4.9,1.3,8.6,6.5,8c5.4-0.6,10.8-1.2,16.2-1.8c18.2-2,36.5-2.4,54.8-2.4c10,0,20.1,0.1,30.1,0.7c13.2,0.8,26.4,1.6,39.5,3.5
		c6.2,0.9,9.4-3,7.1-8.7c-2.8-6.9-6-13.5-8.7-20.4c-2.2-5.7-6.2-8.4-12-9.7C188.6,117.1,169.8,116.1,150.9,115.9z M151.1,206
		c-18.4,0-36.8,0-55.2,0c-3.9,0-5.6,2.2-3.9,5.3c7.5,13.6,18.2,22.4,34.6,22.5c16.2,0,32.3,0,48.5,0c2.8,0,5.7-0.3,8.4-0.9
		c11.7-2.5,19.4-10.1,25.4-19.9c1-1.6,2.1-3.2,1.1-5.2c-1-2.1-3.1-1.8-4.9-1.8C187.1,206,169.1,206,151.1,206z M51.9,192.9
		c-2.9-0.6-5.6,1.8-7.2,5.5c-1.2,2.8-2,5.7-3,8.5c-0.7,1.9,0,2.8,1.9,3.4c11.8,3.8,24,5.8,36.2,7.6c1.7,0.3,2.7-0.2,1.9-2.2
		c-1.8-5.1-3.4-10.2-5.1-15.2c-0.6-1.7-1.6-3.2-3.5-3.7C66.7,195,60.2,193.5,51.9,192.9z M222.2,217.9c3-0.5,6.8-1,10.5-1.6
		c8.6-1.4,17-3.2,25.3-5.9c1.8-0.6,2.7-1.3,2.1-3.3c-1.2-3.6-2.1-7.3-4.1-10.6c-1.5-2.4-3.4-3.5-6.3-3.5c-7.2,0.1-14.1,1.8-20.9,3.7
		c-1.8,0.5-3,1.8-3.6,3.6c-1.8,5.2-3.5,10.3-5.2,15.5C219.4,217.3,219.7,218.1,222.2,217.9z M231.6,244.6c0,6.7,3.7,10.7,8.9,10.4
		c4-0.2,7.2-3.9,7.7-8.9c0.5-4.7-2.7-9.5-7-10.5c-3.6-0.8-7.8,1.9-9.1,6C231.7,242.8,231.7,244.1,231.6,244.6z M70.2,245.2
		c0-5.1-2.7-8.8-7.1-9.7c-3.5-0.7-7.3,1.7-8.7,5.7c-1.2,3.4-1,6.7,0.9,9.8c1.7,2.6,4,4.2,7.3,3.9c3.2-0.3,5.3-2.1,6.7-4.9
		C70,248.5,70.2,246.9,70.2,245.2z"/>
	<path class="st0" d="M200.5,32.6c33.6-0.6,65,23.4,71.8,58.5c1,5.1-1.3,8.9-5.7,9.8c-4.1,0.8-7.6-1.9-8.7-6.7
		c-5.5-25.2-22.9-42-48.2-46.3c-5.9-1-11.8-0.8-17.8,0.1c-3.4,0.5-6.2-0.2-8.2-3.1c-1.7-2.5-1.7-5.1-0.2-7.7
		c1.4-2.6,3.8-3.4,6.5-3.8C193.7,32.7,197.4,32.4,200.5,32.6z"/>
	<path class="st0" d="M111.1,48.1c-3.2-0.6-6.9-0.7-10.6-0.7c-27.7,0-51,19.1-56.5,46.3c-0.1,0.6-0.2,1.1-0.4,1.7
		c-1.2,4.1-4.8,6.4-8.6,5.6c-4.1-0.9-6.5-4.6-5.6-8.9c3.2-16.8,11.2-30.9,24.1-42c15.4-13.2,33.5-18.7,53.6-17.3
		c2.2,0.2,4.5,0.5,6.6,1c3.8,1,6.1,4.5,5.5,8.1C118.6,45.6,115.5,48.1,111.1,48.1z"/>
	<path class="st0" d="M105.7,72.6c-6.4-1.1-13.3-0.2-19.7,3.1C76.7,80.5,70.9,88,68.6,98.3c-0.4,1.9-1,3.7-2.5,5.1
		c-2.3,2.1-5.6,2.6-8.4,1.1c-2.8-1.5-4.3-4.7-3.8-7.9C57,77.7,72.8,61.8,91.8,58.3c5.4-1,10.8-1.2,16.2-0.2c4.9,0.9,7.3,4,6.7,8.6
		C114.2,70.6,111.1,72.8,105.7,72.6z"/>
	<path class="st0" d="M201.2,57.4c23.4,0.8,42,16.2,46.5,38.3c0.9,4.6-1.3,8.5-5.5,9.5c-4.1,0.9-7.8-1.6-8.9-6.4
		C230.1,85,221.7,76.4,208,73c-3.3-0.8-6.7-1.2-10.1-0.6c-1.3,0.3-2.7,0.2-4.1,0.2c-3.6-0.1-6.4-2.6-6.8-6c-0.5-3.9,1.4-7.1,5-8.2
		C195.1,57.5,198.4,57.8,201.2,57.4z"/>
</g>
</svg>
