<?xml version="1.0" encoding="utf-8"?>
<!-- Generator: Adobe Illustrator 26.0.2, SVG Export Plug-In . SVG Version: 6.00 Build 0)  -->
<svg version="1.1" id="Capa_1" xmlns="http://www.w3.org/2000/svg" xmlns:xlink="http://www.w3.org/1999/xlink" x="0px" y="0px"
	 viewBox="0 0 300 300" style="enable-background:new 0 0 300 300;" xml:space="preserve">
<style type="text/css">
	.st0{fill:#003C82;}
</style>
<g>
	<path class="st0" d="M58.5,9.6c0,1.3,0.1,2.6,0.1,3.9c0,90.9,0,181.8,0,272.7c0,5,0,5-5.1,5c-13.3,0-26.6-0.1-40,0.1
		c-2.8,0-3.7-0.8-3.7-3.6C10,195.7,10,103.9,10,12.1c0-0.8,0.1-1.7,0.2-2.5C26.3,9.6,42.4,9.6,58.5,9.6z"/>
	<path class="st0" d="M291.6,291c-8.5,0.1-17.1,0.1-25.6,0.2c-6.7,0-13.3-0.1-20,0c-2.2,0-3.2-0.7-3-2.9c0.1-0.7,0-1.5,0-2.2
		c0-90.8,0-181.7,0-272.5c0-1.3,0.1-2.6,0.1-3.9c15.3,0,30.6,0,45.8-0.1c2,0,2.6,0.3,2.6,2.5c-0.1,52.3-0.1,104.6-0.1,156.9
		C291.6,209.6,291.6,250.3,291.6,291z"/>
	<path class="st0" d="M175,9.6c0,8.6,0.1,17.2,0.1,25.9c0,13.6,0,27.2,0,40.8c0,3.8,0,3.9-3.9,3.9c-13.9,0-27.8,0-41.6,0
		c-2,0-3.1-0.4-3.1-2.8c0.1-22.3,0.1-44.6,0.1-67c0-0.3,0.1-0.6,0.1-0.8C142.8,9.6,158.9,9.6,175,9.6z"/>
	<path class="st0" d="M175.2,150.3c0,10.7-0.1,21.4,0.1,32.1c0,2.8-1,3.5-3.6,3.5c-13.9-0.1-27.7-0.1-41.6,0c-2.7,0-3.6-0.8-3.6-3.5
		c0.1-21.4,0.1-42.7,0-64.1c0-2.8,1-3.5,3.6-3.5c13.9,0.1,27.7,0.1,41.6,0c2.7,0,3.6,0.8,3.6,3.5
		C175.1,128.9,175.2,139.6,175.2,150.3z"/>
	<path class="st0" d="M126.5,255.7c0-10.6,0.1-21.2-0.1-31.8c0-2.7,0.9-3.5,3.6-3.5c13.9,0.1,27.7,0.1,41.6,0c2.9,0,3.6,1,3.6,3.8
		c-0.1,21.1,0,42.2-0.1,63.3c0,3.7,0,3.7-3.8,3.7c-13.7,0-27.4,0-41.1,0c-3.8,0-3.8,0-3.8-4C126.5,276.7,126.5,266.2,126.5,255.7z"
		/>
</g>
</svg>
