<?xml version="1.0" standalone="no"?>
<!DOCTYPE svg PUBLIC "-//W3C//DTD SVG 20010904//EN"
 "http://www.w3.org/TR/2001/REC-SVG-20010904/DTD/svg10.dtd">
<svg version="1.0" xmlns="http://www.w3.org/2000/svg"
 width="500.000000pt" height="500.000000pt" viewBox="0 0 500.000000 500.000000"
 preserveAspectRatio="xMidYMid meet">

<g transform="translate(0.000000,500.000000) scale(0.100000,-0.100000)"
fill="#000000" stroke="none">
<path d="M95 4986 c-42 -18 -83 -69 -91 -112 -16 -87 -43 -57 812 -914 l794
-796 -53 -51 -52 -51 -130 -4 c-110 -3 -137 -7 -177 -27 -97 -46 -144 -133
-155 -278 -5 -69 -9 -83 -23 -83 -13 0 -19 16 -27 71 -38 242 -246 421 -492
421 -214 0 -395 -130 -474 -340 -21 -55 -21 -74 -25 -606 -2 -361 1 -573 8
-620 50 -330 414 -522 709 -373 119 59 220 175 256 294 8 26 18 81 22 121 5
61 9 72 24 72 17 0 19 -9 19 -104 0 -118 12 -195 39 -246 l18 -35 -538 -541
c-449 -452 -539 -548 -550 -582 -33 -112 63 -218 178 -198 34 7 101 71 633
602 l595 594 186 0 185 0 207 -155 c226 -169 246 -178 397 -194 47 -5 369 -8
715 -6 663 4 672 5 741 50 20 13 44 -10 455 -422 431 -432 477 -473 539 -473
38 0 106 35 125 64 9 14 21 42 25 61 18 80 16 82 -412 511 l-400 402 203 4
c181 4 211 7 262 27 166 65 275 300 337 726 43 300 11 597 -105 963 -62 194
-96 250 -172 284 -39 17 -69 19 -310 18 -148 0 -284 -4 -303 -9 -50 -11 -100
-39 -132 -73 l-28 -30 -42 36 c-57 49 -147 76 -257 77 l-86 1 -68 66 -67 67
784 785 c841 842 815 812 796 895 -12 53 -37 84 -83 106 -51 23 -77 24 -125 4
-26 -11 -253 -232 -759 -737 l-721 -721 5 119 c14 307 -80 464 -306 513 -65
14 -911 15 -994 1 -72 -11 -151 -47 -198 -88 -43 -38 -92 -128 -109 -199 -14
-63 -18 -205 -7 -293 l8 -65 -733 732 c-410 409 -745 737 -761 743 -37 13 -75
12 -112 -4z m2842 -1133 c40 -5 44 -8 54 -47 13 -49 7 -219 -9 -258 l-12 -28
-135 0 -135 0 0 -254 0 -255 40 -3 40 -3 -142 -143 -143 -142 -145 145 -145
145 48 0 47 0 0 255 0 254 -137 3 -138 3 -14 40 c-15 44 -20 204 -8 248 4 15
18 32 30 37 23 10 831 12 904 3z m353 -978 c114 -114 141 -126 293 -122 l97 3
0 -173 0 -173 250 0 250 0 0 168 c0 92 4 172 8 179 5 9 19 9 47 3 22 -5 93
-10 157 -10 64 0 124 -3 133 -6 9 -4 25 -25 37 -47 42 -84 115 -380 102 -419
-3 -10 2 -44 12 -74 43 -139 -21 -608 -109 -784 l-32 -65 -170 0 -170 0 -6
110 c-4 61 -7 138 -8 173 l-1 62 -250 0 -249 0 -3 -80 -3 -80 -480 480 -480
480 235 235 c129 129 237 235 240 235 3 0 48 -43 100 -95z m-1235 -155 l220
-220 -463 -463 -462 -462 0 223 0 222 -330 0 -330 0 0 -194 c0 -113 -4 -206
-11 -223 -24 -64 -109 -123 -179 -123 -77 0 -158 62 -180 138 -8 25 -10 209
-8 573 l3 536 28 40 c54 79 161 107 245 64 88 -45 102 -85 102 -301 l0 -170
330 0 330 0 0 204 0 205 30 -10 c16 -6 83 -9 150 -7 l121 3 85 93 c47 50 89
92 92 92 4 0 106 -99 227 -220z m1002 -1002 l563 -563 -628 0 -628 0 -210 157
c-115 86 -230 166 -254 177 -30 14 -66 21 -110 21 l-65 0 385 385 c212 212
385 385 385 385 0 0 253 -253 562 -562z"/>
</g>
</svg>
