<?xml version="1.0" standalone="no"?>
<!DOCTYPE svg PUBLIC "-//W3C//DTD SVG 20010904//EN"
 "http://www.w3.org/TR/2001/REC-SVG-20010904/DTD/svg10.dtd">
<svg version="1.0" xmlns="http://www.w3.org/2000/svg"
 width="333.000000pt" height="500.000000pt" viewBox="0 0 499.000000 500.000000"
 preserveAspectRatio="xMidYMid meet">

<g transform="translate(0.000000,214.000000) scale(0.100000,-0.100000)"
fill="#000000" stroke="none">
<path d="M510 2124 c-180 -38 -358 -179 -438 -345 -69 -142 -72 -175 -72 -709
0 -534 3 -567 72 -709 57 -119 169 -231 288 -290 143 -70 154 -71 780 -71 626
0 637 1 780 71 150 73 283 230 330 388 l16 56 1127 3 1126 2 194 208 c106 114
212 227 234 252 l41 45 -230 248 -230 247 -181 0 -182 0 -102 102 -103 103
-103 -103 c-102 -102 -102 -102 -152 -102 -50 0 -50 0 -152 102 l-103 103
-103 -103 c-102 -101 -103 -102 -151 -102 -49 0 -50 1 -153 102 l-103 102
-103 -102 -102 -102 -226 0 -225 0 -16 87 c-26 134 -82 239 -183 340 -65 66
-99 90 -166 123 -144 69 -154 70 -784 69 -440 0 -574 -4 -625 -15z m53 -471
c24 -15 46 -41 58 -66 17 -39 19 -72 19 -517 0 -442 -2 -478 -19 -516 -46
-101 -175 -129 -261 -58 -66 56 -65 44 -68 529 -2 242 0 463 3 492 17 141 153
210 268 136z"/>
</g>
</svg>
