<?xml version="1.0" standalone="no"?>
<!DOCTYPE svg PUBLIC "-//W3C//DTD SVG 20010904//EN"
 "http://www.w3.org/TR/2001/REC-SVG-20010904/DTD/svg10.dtd">
<svg version="1.0" xmlns="http://www.w3.org/2000/svg"
 width="500.000000pt" height="429.000000pt" viewBox="0 0 500.000000 429.000000"
 preserveAspectRatio="xMidYMid meet">

<g transform="translate(0.000000,429.000000) scale(0.100000,-0.100000)"
fill="#000000" stroke="none">
<path d="M1450 4251 c-68 -261 -270 -1087 -267 -1095 4 -10 256 -87 282 -86 9
0 286 1094 285 1125 0 6 -65 28 -145 51 l-145 41 -10 -36z"/>
<path d="M2234 3647 l-372 -401 51 -58 c28 -32 53 -57 57 -56 3 2 154 163 334
358 181 195 349 375 373 400 l43 46 -51 57 c-28 31 -54 57 -57 57 -4 -1 -174
-182 -378 -403z"/>
<path d="M112 3889 c-56 -61 -102 -115 -102 -121 0 -11 200 -228 210 -228 9 0
210 219 210 229 0 9 -195 224 -208 229 -4 1 -53 -48 -110 -109z"/>
<path d="M640 3415 l0 -165 150 0 150 0 0 165 0 165 -150 0 -150 0 0 -165z"/>
<path d="M2480 2984 c-46 -20 -77 -50 -103 -99 -21 -39 -22 -52 -25 -464 -3
-453 0 -498 44 -564 28 -43 109 -87 160 -87 46 0 128 46 157 88 40 58 46 109
47 387 1 278 2 285 51 304 31 11 85 -9 92 -36 3 -10 9 -54 12 -98 12 -161 55
-302 127 -422 54 -89 154 -208 226 -268 156 -131 301 -191 491 -205 109 -7
114 -9 145 -39 26 -27 31 -39 31 -81 0 -42 -5 -54 -32 -81 -26 -27 -41 -33
-88 -37 -118 -10 -315 33 -438 94 -156 78 -328 224 -432 367 -27 37 -52 67
-55 67 -3 0 -14 -15 -24 -32 -11 -18 -34 -51 -52 -74 l-33 -41 -3 -479 c-3
-460 -4 -481 -24 -524 -12 -25 -33 -60 -48 -78 l-28 -32 209 0 c327 0 542 34
691 109 86 43 180 118 230 183 l45 58 574 0 573 0 0 670 0 670 -563 0 -562 0
-335 368 c-257 281 -343 370 -370 379 -24 8 -131 12 -345 12 -255 0 -316 -2
-345 -15z"/>
<path d="M486 2799 c-71 -21 -131 -41 -133 -43 -4 -4 163 -682 175 -707 6 -14
23 -12 150 24 78 22 142 45 142 51 0 6 -39 170 -87 364 -69 281 -89 352 -102
351 -9 -1 -74 -19 -145 -40z"/>
<path d="M1645 2791 c-169 -78 -165 -324 7 -395 30 -13 83 -16 273 -16 l235 0
0 215 0 215 -237 0 c-210 0 -243 -3 -278 -19z"/>
<path d="M1656 2155 c-148 -53 -184 -265 -63 -372 20 -18 53 -37 74 -42 22 -7
153 -11 316 -11 l278 0 -30 38 c-54 67 -64 104 -69 260 l-5 142 -231 0 c-170
-1 -241 -5 -270 -15z"/>
<path d="M293 1458 l-242 -261 106 -114 c59 -62 110 -113 113 -113 10 0 480
508 480 518 0 10 -196 225 -208 229 -4 2 -116 -115 -249 -259z"/>
<path d="M1656 1575 c-140 -50 -183 -248 -78 -358 59 -62 55 -62 432 -65 370
-3 410 0 469 45 40 31 81 114 81 167 0 96 -65 193 -145 215 -62 17 -709 14
-759 -4z"/>
<path d="M1005 1029 c-71 -45 -131 -82 -132 -83 -1 -1 105 -203 237 -449 132
-246 245 -458 252 -471 l13 -24 120 75 c66 41 126 78 134 82 10 6 -44 115
-234 472 -137 255 -251 467 -254 471 -3 4 -64 -29 -136 -73z"/>
<path d="M1815 961 c-49 -22 -99 -77 -115 -127 -8 -22 -10 -59 -7 -92 8 -75
46 -129 116 -164 l55 -28 260 0 c253 0 263 1 311 24 59 27 77 46 104 106 50
111 1 238 -111 284 -31 13 -85 16 -305 16 -238 0 -273 -3 -308 -19z"/>
</g>
</svg>
