<?xml version="1.0" standalone="no"?>
<!DOCTYPE svg PUBLIC "-//W3C//DTD SVG 20010904//EN"
 "http://www.w3.org/TR/2001/REC-SVG-20010904/DTD/svg10.dtd">
<svg version="1.0" xmlns="http://www.w3.org/2000/svg"
 width="500.000000pt" height="500.000000pt" viewBox="0 0 500.000000 500.000000"
 preserveAspectRatio="xMidYMid meet">

<g transform="translate(0.000000,500.000000) scale(0.100000,-0.100000)"
fill="#000000" stroke="none">
<path d="M2410 4978 c-59 -31 -82 -66 -87 -130 -3 -42 1 -61 19 -92 39 -67 68
-77 241 -87 171 -9 234 -18 424 -60 143 -32 169 -31 219 7 46 34 67 86 62 151
-7 82 -45 115 -168 148 -133 35 -301 62 -465 75 -189 14 -194 13 -245 -12z"/>
<path d="M1500 4801 c-48 -15 -285 -140 -375 -197 -115 -73 -235 -164 -269
-204 -20 -25 -26 -42 -26 -82 0 -114 95 -194 198 -166 20 6 75 38 122 73 124
92 241 164 384 234 100 49 132 70 151 99 48 71 28 170 -46 225 -30 21 -100 31
-139 18z"/>
<path d="M3935 4436 c-66 -29 -111 -111 -99 -180 6 -36 24 -58 164 -196 99
-98 189 -198 245 -274 98 -131 127 -152 202 -143 93 10 160 88 150 172 -5 50
-64 139 -190 290 -99 119 -287 299 -339 326 -43 22 -90 24 -133 5z"/>
<path d="M2385 4049 c-643 -52 -1123 -625 -1065 -1271 18 -203 57 -341 154
-543 144 -301 335 -553 819 -1087 98 -109 183 -198 187 -198 10 0 398 429 535
590 329 388 521 723 595 1035 102 428 -25 871 -331 1160 -183 173 -449 295
-679 311 -41 3 -86 6 -100 8 -14 1 -65 -1 -115 -5z m239 -599 c192 -49 343
-185 416 -375 31 -83 39 -244 15 -335 -27 -103 -81 -196 -161 -276 -229 -231
-599 -230 -829 1 -116 116 -175 255 -175 411 1 387 362 669 734 574z"/>
<path d="M305 3694 c-51 -26 -62 -42 -119 -168 -100 -224 -196 -555 -182 -632
18 -94 134 -150 229 -110 60 25 77 55 112 198 40 165 72 258 141 415 30 68 54
136 54 155 -1 108 -140 192 -235 142z"/>
<path d="M4747 3046 c-46 -17 -74 -41 -94 -80 -17 -32 -15 -66 8 -271 7 -62 9
-174 5 -295 -7 -221 -2 -244 64 -288 30 -20 45 -23 100 -20 118 6 146 46 161
231 19 218 -10 583 -53 658 -36 64 -118 92 -191 65z"/>
<path d="M153 2110 c-65 -15 -108 -58 -123 -124 -9 -39 18 -151 75 -316 38
-110 158 -368 195 -420 28 -40 73 -62 125 -62 53 0 92 20 134 67 50 57 45 108
-24 245 -76 152 -117 255 -160 400 -21 69 -46 137 -57 153 -34 48 -104 72
-165 57z"/>
<path d="M4440 1462 c-24 -11 -52 -43 -88 -97 -100 -150 -174 -245 -283 -361
-124 -131 -141 -165 -119 -236 24 -83 119 -140 195 -119 46 12 64 28 180 151
103 111 178 205 264 333 95 142 108 191 68 261 -42 74 -142 106 -217 68z"/>
<path d="M1011 763 c-54 -27 -91 -87 -91 -145 0 -68 22 -101 111 -163 141
-100 430 -251 575 -300 81 -27 157 4 195 81 25 54 22 121 -8 163 -21 28 -21
28 -273 150 -91 43 -213 112 -273 152 -121 81 -172 95 -236 62z"/>
<path d="M3124 420 c-167 -49 -252 -67 -415 -85 -87 -9 -141 -20 -162 -33
-103 -59 -104 -202 -4 -276 24 -18 42 -21 107 -19 161 3 418 51 610 115 73 24
104 40 133 68 34 35 37 42 37 97 0 65 -21 109 -71 145 -44 33 -93 31 -235 -12z"/>
</g>
</svg>
