<?xml version="1.0" standalone="no"?>
<!DOCTYPE svg PUBLIC "-//W3C//DTD SVG 20010904//EN"
 "http://www.w3.org/TR/2001/REC-SVG-20010904/DTD/svg10.dtd">
<svg version="1.0" xmlns="http://www.w3.org/2000/svg"
 width="300.000000pt" height="500.000000pt" viewBox="0 0 300.000000 500.000000"
 preserveAspectRatio="xMidYMid meet">

<g transform="translate(0.000000,500.000000) scale(0.100000,-0.100000)"
fill="#000000" stroke="none">
<path d="M2420 4994 c-46 -9 -145 -47 -185 -71 -55 -34 -2108 -2086 -2149
-2148 -61 -91 -80 -157 -80 -275 0 -112 18 -177 72 -265 33 -55 2084 -2107
2147 -2149 91 -61 157 -80 275 -80 86 0 116 5 165 24 149 58 248 156 305 305
19 49 24 79 24 165 0 112 -18 177 -72 265 -13 22 -405 421 -870 888 l-847 847
847 848 c465 466 857 865 870 887 54 88 72 153 72 265 0 86 -5 116 -24 165
-76 198 -242 321 -445 330 -44 2 -91 2 -105 -1z"/>
</g>
</svg>
