<?xml version="1.0" standalone="no"?>
<!DOCTYPE svg PUBLIC "-//W3C//DTD SVG 20010904//EN"
 "http://www.w3.org/TR/2001/REC-SVG-20010904/DTD/svg10.dtd">
<svg version="1.0" xmlns="http://www.w3.org/2000/svg"
 width="333.000000pt" height="500.000000pt" viewBox="0 0 333.000000 500.000000"
 preserveAspectRatio="xMidYMid meet">

<g transform="translate(0.000000,500.000000) scale(0.100000,-0.100000)"
fill="#000000" stroke="none">
<path d="M1555 4989 c-332 -24 -633 -160 -878 -398 -166 -160 -279 -339 -357
-566 -70 -201 -79 -323 -80 -1037 l0 -558 -120 0 -120 0 0 -1215 0 -1215 1665
0 1665 0 0 1215 0 1215 -120 0 -120 0 0 558 c-1 714 -10 836 -80 1037 -78 227
-191 406 -357 566 -299 290 -679 428 -1098 398z m315 -594 c88 -21 251 -103
327 -165 91 -73 168 -171 223 -285 89 -182 85 -143 85 -870 l0 -640 -840 0
-840 0 0 640 c0 727 -4 688 85 870 116 240 338 411 597 460 94 18 268 13 363
-10z m-54 -2416 c152 -57 264 -222 264 -389 0 -120 -63 -249 -159 -322 l-41
-32 0 -303 0 -303 -215 0 -215 0 0 303 0 303 -41 32 c-62 47 -116 125 -139
199 -72 234 73 483 312 533 62 13 168 3 234 -21z"/>
</g>
</svg>
