<?xml version="1.0" standalone="no"?>
<!DOCTYPE svg PUBLIC "-//W3C//DTD SVG 20010904//EN"
 "http://www.w3.org/TR/2001/REC-SVG-20010904/DTD/svg10.dtd">
<svg version="1.0" xmlns="http://www.w3.org/2000/svg"
 width="333.000000pt" height="500.000000pt" viewBox="0 0 333.000000 500.000000"
 preserveAspectRatio="xMidYMid meet">

<g transform="translate(0.000000,500.000000) scale(0.100000,-0.100000)"
fill="#000000" stroke="none">
<path d="M1440 4976 c-529 -95 -950 -453 -1118 -951 -67 -197 -65 -175 -71
-915 l-6 -675 -122 -3 -123 -3 0 -1214 0 -1215 1660 0 1660 0 0 1215 0 1215
-1250 0 -1250 0 0 618 c0 655 1 671 50 817 54 161 208 347 365 439 144 84 309
123 480 113 222 -13 411 -102 564 -263 153 -160 230 -359 231 -591 l0 -103
286 0 287 0 -6 163 c-6 174 -20 259 -69 402 -33 99 -107 248 -165 337 -199
301 -527 522 -893 603 -102 23 -408 29 -510 11z m312 -2977 c111 -24 221 -104
276 -202 66 -116 69 -268 8 -392 -33 -67 -120 -165 -147 -165 -5 0 -10 -138
-11 -307 l-3 -308 -210 0 -210 0 -3 308 c-1 169 -6 307 -11 307 -5 0 -32 21
-60 46 -138 124 -171 346 -77 515 29 52 105 127 160 158 79 45 192 60 288 40z"/>
</g>
</svg>
