<?xml version="1.0" standalone="no"?>
<!DOCTYPE svg PUBLIC "-//W3C//DTD SVG 20010904//EN"
 "http://www.w3.org/TR/2001/REC-SVG-20010904/DTD/svg10.dtd">
<svg version="1.0" xmlns="http://www.w3.org/2000/svg"
 width="310.000000pt" height="314.000000pt" viewBox="0 0 310.000000 314.000000"
 preserveAspectRatio="xMidYMid meet">

<g transform="translate(0.000000,314.000000) scale(0.100000,-0.100000)"
fill="#003C82" stroke="none">
<path d="M303 3099 c-120 -38 -225 -145 -263 -266 -20 -64 -20 -90 -20 -1364
0 -1147 2 -1304 15 -1336 39 -94 85 -113 275 -113 120 0 152 4 185 19 81 37
105 90 105 231 l0 100 950 0 950 0 0 -100 c0 -141 24 -194 105 -231 33 -15 65
-19 185 -19 190 0 236 19 275 113 13 32 15 189 15 1336 0 1274 0 1300 -20
1364 -38 123 -144 229 -267 267 -64 20 -89 20 -1247 19 -1143 0 -1183 -1
-1243 -20z m2448 -164 c26 -9 63 -34 87 -58 73 -75 72 -61 72 -688 l0 -558
-45 26 -45 25 0 62 c0 225 -158 421 -377 466 l-54 12 38 29 c200 158 164 479
-67 588 -78 37 -192 37 -270 0 -231 -109 -267 -430 -67 -588 l38 -29 -54 -12
c-212 -44 -377 -241 -377 -452 l0 -48 -132 0 -133 0 3 248 3 247 -153 88 -154
87 -198 0 c-131 0 -205 4 -219 12 -12 6 -48 33 -80 60 -33 27 -68 48 -81 48
-27 0 -64 -28 -67 -50 -4 -39 6 -54 76 -111 l75 -62 0 -139 0 -138 -61 -122
c-40 -79 -59 -129 -56 -145 4 -21 1 -23 -33 -23 -46 0 -153 -32 -197 -60 l-33
-20 0 558 c0 629 -1 617 73 690 77 75 -10 71 1283 71 1018 1 1166 -1 1205 -14z
m-1521 -1079 c0 -63 3 -121 6 -130 5 -14 -12 -16 -149 -16 l-154 0 4 24 c3 16
-13 54 -51 121 -31 53 -56 101 -56 106 0 5 85 9 200 9 l200 0 0 -114z m-477
-36 c31 -55 57 -102 57 -105 0 -3 -52 -5 -115 -5 -63 0 -115 2 -115 5 0 13
101 205 108 205 4 0 33 -45 65 -100z m-15 -567 c119 -73 155 -221 82 -337 -99
-156 -326 -151 -425 8 -26 43 -30 59 -30 120 0 60 4 79 28 118 52 89 132 131
235 124 47 -3 75 -11 110 -33z m1857 20 c92 -31 165 -134 165 -233 0 -132
-118 -250 -250 -250 -60 0 -130 30 -175 75 -98 98 -98 252 0 350 69 70 164 91
260 58z m-570 -228 c16 -15 25 -36 25 -55 0 -19 -9 -40 -25 -55 l-24 -25 -416
0 -416 0 -24 25 c-16 15 -25 36 -25 55 0 19 9 40 25 55 l24 25 416 0 416 0 24
-25z"/>
<path d="M1317 2803 c-8 -10 -24 -41 -35 -70 -11 -28 -57 -108 -102 -178 -48
-73 -79 -130 -74 -135 5 -5 69 -43 143 -85 l133 -77 29 28 c27 26 29 26 75 14
106 -30 186 -6 213 63 14 37 13 39 -15 68 -16 17 -56 44 -88 61 -33 17 -69 42
-80 57 -11 14 -39 46 -63 70 -40 41 -43 47 -43 98 0 44 -5 58 -25 78 -29 29
-46 31 -68 8z"/>
</g>
</svg>
