<?xml version="1.0" standalone="no"?>
<!DOCTYPE svg PUBLIC "-//W3C//DTD SVG 20010904//EN"
 "http://www.w3.org/TR/2001/REC-SVG-20010904/DTD/svg10.dtd">
<svg version="1.0" xmlns="http://www.w3.org/2000/svg"
 width="500.000000pt" height="300.000000pt" viewBox="0 0 500.000000 300.000000"
 preserveAspectRatio="xMidYMid meet">

<g transform="translate(0.000000,300.000000) scale(0.100000,-0.100000)"
fill="#000000" stroke="none">
<path d="M510 2554 c-183 -39 -358 -177 -438 -344 -71 -148 -74 -177 -70 -751
4 -496 4 -505 27 -569 42 -119 81 -181 171 -270 89 -89 157 -130 276 -167 54
-17 106 -18 674 -18 l615 0 73 27 c211 77 358 229 417 431 l16 57 1129 0 1129
0 232 249 c127 137 231 252 231 256 0 3 -102 117 -227 251 l-226 244 -182 0
-182 0 -105 105 -105 105 -105 -105 c-103 -102 -107 -105 -150 -105 -44 0 -48
3 -145 100 -55 55 -104 100 -109 100 -5 0 -52 -45 -105 -100 l-96 -100 -50 0
c-50 0 -50 0 -152 102 l-103 102 -104 -102 -103 -102 -229 2 -228 3 -12 70
c-25 145 -81 252 -184 355 -88 88 -202 152 -315 175 -100 21 -1168 20 -1265
-1z m42 -460 c15 -8 40 -31 55 -51 l28 -36 3 -481 c2 -265 0 -496 -3 -514 -8
-46 -70 -107 -123 -121 -75 -21 -159 18 -200 93 -15 28 -17 77 -17 516 0 433
2 488 17 515 50 91 152 125 240 79z"/>
</g>
</svg>
