<?xml version="1.0" standalone="no"?>
<!DOCTYPE svg PUBLIC "-//W3C//DTD SVG 20010904//EN"
 "http://www.w3.org/TR/2001/REC-SVG-20010904/DTD/svg10.dtd">
<svg version="1.0" xmlns="http://www.w3.org/2000/svg"
 width="500.000000pt" height="500.000000pt" viewBox="0 0 500.000000 500.000000"
 preserveAspectRatio="xMidYMid meet">

<g transform="translate(0.000000,500.000000) scale(0.100000,-0.100000)"
fill="#000000" stroke="none">
<path d="M2282 4989 c-1042 -93 -1925 -831 -2193 -1834 -115 -434 -115 -876 0
-1310 164 -614 574 -1154 1129 -1489 781 -470 1782 -471 2562 -1 363 219 657
514 870 874 463 783 464 1758 1 2539 -219 371 -512 664 -883 883 -445 264
-972 384 -1486 338z m-142 -1014 c19 -9 329 -310 689 -669 710 -708 701 -697
701 -806 0 -109 9 -98 -701 -806 -360 -359 -670 -660 -689 -670 -48 -25 -172
-26 -218 -1 -52 28 -109 93 -126 144 -20 59 -20 107 0 169 15 44 70 103 573
607 l555 557 -555 558 c-503 503 -558 562 -573 606 -28 85 -16 167 35 236 26
35 85 77 125 90 42 14 144 5 184 -15z"/>
</g>
</svg>
