<?xml version="1.0" encoding="utf-8"?>
<!-- Generator: Adobe Illustrator 26.0.2, SVG Export Plug-In . SVG Version: 6.00 Build 0)  -->
<svg version="1.1" id="Capa_1" xmlns="http://www.w3.org/2000/svg" xmlns:xlink="http://www.w3.org/1999/xlink" x="0px" y="0px"
	 viewBox="0 0 300 300" style="enable-background:new 0 0 300 300;" xml:space="preserve">
<style type="text/css">
	.st0{fill:#003C82;}
</style>
<g>
	<path class="st0" d="M201.9,292.6c-4.3-0.9-8.8-1.5-13-2.9c-33-10.5-52.9-32.9-58.3-67c-6.8-43.4,24.1-84.6,67.6-91.4
		c44.8-7,86.3,23.1,93.1,68.1c6.9,45.7-24.8,85.2-66.6,92.2c-1.6,0.3-3.1,0.6-4.7,0.9C214,292.6,207.9,292.6,201.9,292.6z
		 M205.4,223.2c0,1.5,0,3,0,4.5c0.1,2.5-1.2,2.6-3,1.9c-1.6-0.7-2.6-2.2-3.7-3.4c-1.7-1.8-4.4-2.1-6.1-0.7c-1.9,1.6-2.3,3.6-1.1,5.8
		c1.6,2.9,3.9,5.6,7,6.3c5.5,1.1,7.9,3.6,7.2,9.4c-0.3,2.8,2.6,4.8,5.6,4.7c3-0.1,5.1-2.1,5.3-5.2c0.1-1.2,0.1-2.5,0-3.7
		c-0.2-2.4,0.5-3.4,3.1-3.9c10.5-2,16.1-12.7,11.8-22.3c-2.4-5.3-6.7-8.3-12.3-9.3c-1.4-0.3-2.6-0.5-2.6-2.3c0-3.3,0-6.6,0-9.9
		c0-1.7,1-2.1,2.4-1.6c1.8,0.6,3,1.8,4.1,3.3c1.8,2.3,4.2,2.6,6.2,1.1c2-1.5,2.4-3.9,1-6.3c-1.7-2.8-4-5.5-7.2-6
		c-5.5-1-7.4-3.7-6.8-9.1c0.3-2.8-2.4-4.8-5.2-4.9c-2.7-0.1-5.3,2.1-5.7,4.9c-0.1,0.9-0.1,1.9-0.1,2.8c0,4.2,0,4.2-4.2,5.3
		c-7,1.8-12,8.1-12.1,15.3c-0.1,6.9,4.6,13.4,11.1,15.5c5.1,1.6,5.1,1.6,5.1,7C205.4,222.6,205.4,222.9,205.4,223.2z"/>
	<path class="st0" d="M8.6,202.4c1.4-6.9,2.5-13.9,5.3-20.5c12.2-28.7,33.7-46.1,64.5-50.8c22.6-3.5,43.2,2.6,61.4,16.5
		c2,1.5,1.7,2.5,0.3,4.2c-12.2,14.7-19.7,31.5-21.3,50.6c-2.2,25.6,4.7,48.6,21.2,68.5c1.7,2.1,1.6,3.1-0.5,4.6
		c-11.6,8.8-24.5,14.4-38.9,16.4c-0.6,0.1-1.3,0.3-1.9,0.5c-6,0-12.1,0-18.1,0c-0.7-0.2-1.5-0.4-2.2-0.5
		c-29.2-4.8-50.3-20.6-63-47.4c-3.6-7.6-5.4-15.8-6.8-24.1C8.6,214.5,8.6,208.5,8.6,202.4z M95.2,200.1
		C95.2,200.1,95.2,200.1,95.2,200.1c0-1.7,0-3.4,0-5.1c0-1.8,0.9-2.1,2.4-1.6c1.9,0.6,3,2.1,4.3,3.6c1.7,2,4.2,2.2,6.1,0.9
		c2-1.4,2.5-3.8,1.1-6c-1.7-3-4.1-5.7-7.3-6.3c-5.5-1-7.4-3.7-6.7-9.1c0.3-2.7-2.8-5-5.5-4.9c-2.8,0.1-5,2-5.3,4.9
		c-0.1,1.2-0.2,2.5-0.1,3.7c0.3,2.6-0.6,3.8-3.4,4.4c-7.8,1.5-13.2,8.2-13,15.9c0.2,7.9,5.8,14.3,13.8,15.6c1.9,0.3,2.6,1.1,2.5,2.9
		c-0.1,2.5,0,4.9,0,7.4c0,1.3,0.6,3-0.8,3.6c-1.6,0.7-3.1-0.5-4.3-1.5c-0.6-0.5-1-1.2-1.5-1.7c-1.7-2.1-4.4-2.6-6.3-1.2
		c-2.1,1.5-2.4,4.2-0.9,6.6c1.9,2.9,4.4,5.6,7.8,6.1c5.1,0.8,6.5,3.3,6,8.1c-0.3,3.4,2.2,5.5,5.4,5.5c3.2,0,5.4-2.2,5.6-5.5
		c0.1-1.5,0.1-3,0-4.5c0-1.4,0.5-2.3,2-2.5c0.9-0.1,1.9-0.4,2.8-0.6c6.6-1.9,11.4-8.3,11.5-15.2c0.1-6.8-4.8-13.4-11.3-15.4
		c-5-1.5-5-1.5-5-6.9C95.2,200.6,95.2,200.4,95.2,200.1z"/>
	<path class="st0" d="M231.5,89.1c0.2,10-1.6,19-4.4,27.8c-0.8,2.5-2,3.1-4.5,2.8c-24.9-2.9-47.4,3-67.5,18
		c-4.8,3.6-4.7,3.6-9.5,0.1c-20.1-15-42.6-20.9-67.5-18.1c-2.5,0.3-3.7-0.2-4.5-2.8C57.4,70.2,85.9,20.2,134.5,10.4
		c44.7-9.1,88.7,21.5,96,66.6C231.1,81.3,231.6,85.6,231.5,89.1z M155.9,78.7C155.9,78.7,155.9,78.7,155.9,78.7c0-1.7,0-3.4,0-5.1
		c0-1.9,1-2.2,2.6-1.7c1.8,0.6,2.9,2,4,3.4c1.6,1.9,4.1,2.3,6.1,1c2-1.3,2.6-3.7,1.2-6c-1.7-2.9-4-5.7-7.3-6.4
		c-5.3-1.1-7.6-3.4-6.9-9c0.4-3-2.4-5-5.4-4.9c-3,0-5.1,1.9-5.5,5c-0.1,1.2-0.2,2.5-0.1,3.7c0.2,2.4-0.5,3.6-3.2,4.1
		c-9,1.7-14.6,10.1-12.8,18.7c1.5,7.3,6.2,11.5,13.3,12.9c1.8,0.4,2.7,0.9,2.6,2.9c-0.1,3.1,0,6.2,0,9.4c0,2-1.1,2.1-2.6,1.6
		c-1.7-0.6-2.8-1.9-3.9-3.2c-1.9-2.2-4.2-2.7-6.2-1.2c-2.2,1.5-2.6,4-1,6.5c1.7,2.6,3.8,5.2,6.8,5.7c5.5,1.1,7.9,3.7,7.1,9.5
		c-0.3,2.7,2.6,4.7,5.4,4.7c2.8,0,5.1-1.9,5.5-4.8c0.2-1.2,0.2-2.5,0.1-3.7c-0.3-2.7,0.5-4,3.5-4.6c7.4-1.4,12.5-7.6,12.9-15.2
		c0.3-6.8-4.4-13.4-11.2-15.8c-1.6-0.6-4,0.3-4.8-1.7c-0.6-1.6-0.3-3.5-0.3-5.3C155.8,79.1,155.9,78.9,155.9,78.7z"/>
	<path class="st0" d="M216.5,222.9c0-1.4,0.1-2.8,0-4.2c-0.1-2.3,0.9-2.9,3-2c2.8,1.2,4.3,3.5,4.3,6.4c0.1,2.8-1.3,5.1-3.9,6.3
		c-2.5,1.2-3.2,0.7-3.3-2C216.5,225.9,216.5,224.4,216.5,222.9z"/>
	<path class="st0" d="M205.4,200c0,1.7,0,3.4,0,5.1c0,1.5-0.7,2-2.2,1.7c-2.8-0.7-4.9-3.6-4.9-6.9c0-3,2.2-5.9,4.9-6.6
		c1.4-0.3,2.2,0,2.2,1.6C205.4,196.6,205.4,198.3,205.4,200C205.4,200,205.4,200,205.4,200z"/>
	<path class="st0" d="M84,200c0,1.5,0.1,3,0,4.5c-0.1,2.5-0.9,3-3.2,1.9c-2.6-1.2-4.1-3.4-4.1-6.2c0-2.9,1.5-5.2,4.2-6.5
		c1.9-0.9,3.1-0.6,3.1,1.8C84,197,84,198.5,84,200z"/>
	<path class="st0" d="M95.2,223.1c0-1.6,0-3.2,0-4.8c0-1.8,0.8-2.3,2.5-1.8c2.7,0.9,4.6,3.5,4.6,6.5c0,2.9-1.8,5.7-4.4,6.6
		c-1.7,0.6-2.8,0.3-2.7-1.8C95.2,226.3,95.2,224.7,95.2,223.1z"/>
	<path class="st0" d="M144.7,78.6c0,1.7,0,3.4,0,5.1c0,1.6-0.8,1.9-2.2,1.6c-2.8-0.7-4.9-3.6-4.9-6.8c0-3.1,2.3-6.1,5.1-6.7
		c1.3-0.3,2,0.1,2,1.5C144.7,75.1,144.7,76.9,144.7,78.6z"/>
	<path class="st0" d="M155.9,101.8c0-1.7,0-3.4,0-5.1c0-1.7,0.9-2.1,2.4-1.6c2.7,0.8,4.7,3.5,4.7,6.4c0.1,3-1.9,5.9-4.6,6.8
		c-1.6,0.5-2.6,0.2-2.5-1.7C155.9,105,155.9,103.4,155.9,101.8C155.9,101.8,155.9,101.8,155.9,101.8z"/>
</g>
</svg>
