<?xml version="1.0" encoding="utf-8"?>
<!-- Generator: Adobe Illustrator 26.0.2, SVG Export Plug-In . SVG Version: 6.00 Build 0)  -->
<svg version="1.1" id="Capa_1" xmlns="http://www.w3.org/2000/svg" xmlns:xlink="http://www.w3.org/1999/xlink" x="0px" y="0px"
	 viewBox="0 0 300 300" style="enable-background:new 0 0 300 300;" xml:space="preserve">
<style type="text/css">
	.st0{fill:#003C82;}
</style>
<g>
	<path class="st0" d="M31.4,116.6c0-4.5,0-9,0-13.5c0.1-0.8,0.3-1.5,0.4-2.3c1.3-13,5.1-25.2,11.5-36.6c9.3-16.4,22.3-29,39.1-37.6
		c1.7-0.9,2.8-1.6,2.4-4C83.6,14.6,88.3,7.3,96,5.1c7.6-2.2,15.5,1.5,18.8,9c0.9,2.1,2.1,2.9,4.4,2.8c5.3-0.1,10.5-0.3,15.8,0.5
		c34.4,5,59.3,23,74.2,54.5c5.1,10.8,7.2,22.7,10.4,34.1c4,14.3,7.8,28.6,11.5,43c0.7,2.8,2,3.5,4.5,2.5c1.4-0.5,2.8-0.8,4.2-1.2
		c11.1-2.9,18.7,1.5,21.7,12.6c2.4,8.7,4.7,17.3,7,26c2.9,10.9-1.6,18.6-12.5,21.6c-18,4.9-36,9.7-54,14.5
		c-47.2,12.6-94.4,25.3-141.6,37.9c-2.6,0.7-5.1,1.3-7.8,0.8c-6.9-1.3-11.3-5.4-13.2-12.2c-2.7-9.8-5.4-19.6-8-29.3
		c0-2.5,0-5.1,0-7.6c2.3-6.8,7-10.8,14.1-12.2c1-0.2,2.1-0.6,3.1-0.8c3.9-1,3.8-1,2.8-5C44.9,169.8,35.7,143.8,31.4,116.6z"/>
	<path class="st0" d="M160.2,297.1c-17.7-4.2-28.4-15.7-34.4-32.3c-1.3-3.6-1.1-3.8,2.6-4.8c22.3-6,44.6-12,66.9-17.9
		c4.4-1.2,4.6-1,5.5,3.5c1.3,7,1.4,14-0.3,20.9c-3.8,15.7-12.8,26.7-29.2,30.6C167.7,297.1,164,297.1,160.2,297.1z"/>
</g>
</svg>
