<?xml version="1.0" encoding="utf-8"?>
<!-- Generator: Adobe Illustrator 26.0.2, SVG Export Plug-In . SVG Version: 6.00 Build 0)  -->
<svg version="1.1" id="Capa_1" xmlns="http://www.w3.org/2000/svg" xmlns:xlink="http://www.w3.org/1999/xlink" x="0px" y="0px"
	 viewBox="0 0 300 300" style="enable-background:new 0 0 300 300;" xml:space="preserve">
<style type="text/css">
	.st0{fill:#003C82;}
</style>
<g>
	<path class="st0" d="M7.6,46.4c3-6.6,8.2-8.8,15.4-8.8c39.2,0.2,78.4,0.1,117.6,0.1c4.8,0,8.9,1.4,11.5,5.5
		c5.3,8.2,0,18.4-9.9,19.2c-0.9,0.1-1.9,0-2.9,0c-39,0-78,0-117,0c-7,0-12.2-2.4-14.8-9.2C7.6,51,7.6,48.7,7.6,46.4z"/>
	<path class="st0" d="M7.6,248.5c2.5-6.7,7.6-9.2,14.5-9.2c39.4,0.1,78.8,0,118.2,0c6.9,0,12,3.5,13.5,9.2c2,7.5-3.1,14.9-10.9,15.5
		c-1.2,0.1-2.5,0.1-3.7,0.1c-38.7,0-77.4-0.1-116.2,0.1c-7.2,0-12.4-2.1-15.4-8.8C7.6,253,7.6,250.8,7.6,248.5z"/>
	<path class="st0" d="M7.6,147.4c2.6-6.5,7.5-8.9,14.4-8.8c39.8,0.2,79.5,0.1,119.3,0.1c6.8,0,11.3,3.6,12.8,9.9
		c1.5,6.8-3.9,13.9-10.8,14.4c-1.2,0.1-2.5,0.1-3.7,0.1c-39.2,0-78.4-0.1-117.6,0.1c-6.9,0-11.7-2.4-14.4-8.8
		C7.6,152,7.6,149.7,7.6,147.4z"/>
	<path class="st0" d="M233.6,293.6c-4-1.6-6.7-4.3-8.6-8.2c-5.1-10.2-10.7-20.2-15.8-30.4c-4.2-8.4,0.5-17.4,9.6-18.2
		c5.3-0.5,9.4,1.9,12,6.6c2.2,4.1,4.3,8.3,6.5,12.4c1.4,2.6,1.5,2.6,3.3,0.1c9.9-13.4,19.8-26.8,29.6-40.2c3.2-4.4,7.3-7,12.9-5.9
		c9.2,1.7,13,12,7.3,19.8c-7.5,10.3-15.1,20.5-22.7,30.7c-6.6,8.9-13.2,17.9-19.8,26.9c-2,2.8-4.5,4.8-7.5,6.3
		C238.2,293.6,235.9,293.6,233.6,293.6z"/>
	<path class="st0" d="M293.1,20.3c0.1,2.8-0.9,5.2-2.5,7.4c-14.6,19.7-29.1,39.5-43.7,59.2c-5.8,7.7-16.5,6.8-21-1.7
		c-5.6-10.6-11.1-21.2-16.6-31.9c-3.4-6.7-1.2-13.9,5.1-17.1c6.2-3.1,13.2-0.7,16.6,5.9c2,3.9,4.1,7.7,6.1,11.6c1.6,3,1.6,3,3.5,0.4
		c10.1-13.6,20.1-27.2,30.2-40.8C273.3,9.9,276.6,8,281,8C288,8,293.2,13.3,293.1,20.3z"/>
	<path class="st0" d="M293.1,121.4c0.2,2.6-1,5-2.6,7.2c-14.6,19.8-29.2,39.7-44,59.4c-5.3,7.1-15.8,6.7-20.1-1.1
		c-6.3-11.2-12.1-22.6-17.8-34.1c-2.8-5.7-0.1-12.7,5.6-15.6c5.7-3,12.8-1,16.1,4.7c2.5,4.3,4.7,8.7,6.9,13.1c1,1.9,1.5,2.6,3.1,0.4
		c9.4-12.8,18.8-25.6,28.3-38.3c1-1.4,2-2.8,3.1-4.1c3.4-3.9,8.8-5.2,13.5-3.5C290.3,111.5,293.2,115.8,293.1,121.4z"/>
</g>
</svg>
