<?xml version="1.0" encoding="utf-8"?>
<!-- Generator: Adobe Illustrator 26.0.2, SVG Export Plug-In . SVG Version: 6.00 Build 0)  -->
<svg version="1.1" id="Capa_1" xmlns="http://www.w3.org/2000/svg" xmlns:xlink="http://www.w3.org/1999/xlink" x="0px" y="0px"
	 viewBox="0 0 300 300" style="enable-background:new 0 0 300 300;" xml:space="preserve">
<style type="text/css">
	.st0{fill:#003C82;}
</style>
<g>
	<path class="st0" d="M245.9,296.5c-7.4-3.9-8.7-9.5-3.6-16.1c1.8-2.3,3.6-4.6,5.6-6.7c1.5-1.6,2-2.5-0.8-3
		c-3.5-0.6-6.9-1.8-10.3-3.2c-5.1-2.1-7.6-6.9-6-11.6c1.6-4.8,6.5-7.3,11.8-5.9c3.6,0.9,6.9,2.7,10.1,4.4c1.9,1,2.4,0.5,2.2-1.5
		c-0.3-2.7-0.5-5.4-0.8-8.1c-0.6-6,3.2-11.1,8.6-11.4c6.1-0.4,10,3.6,10.1,10.1c0.1,3.9-0.7,7.7-0.9,11.8c2.3-0.5,3.9-1.7,5.7-2.5
		c2.3-1.1,4.5-2.2,7-2.8c5.4-1.2,9.2,1.1,11.9,5.7c0,1.9,0,3.9,0,5.8c-1.4,3.6-4.2,5.7-7.9,6.7c-3.1,0.8-6.1,1.9-9.2,2.6
		c-1.7,0.4-1.9,1-0.7,2.2c2,2.1,3.7,4.4,5.7,6.5c5.2,5.6,4.9,13-2.6,16.9c-1.9,0-3.9,0-5.8,0c-5.3-2.6-8.1-7.3-10.9-12.1
		c-1.8-3.1-1.9-3.1-3.6,0c-2.6,4.6-4.9,9.5-10,12.1C249.7,296.5,247.8,296.5,245.9,296.5z"/>
	<path class="st0" d="M20.3,296.5c-7.4-4.1-8.5-9.5-3.4-16.2c1.7-2.2,3.5-4.4,5.4-6.5c2-2.4,2.1-2.4-0.8-3.1
		c-3.5-0.8-6.9-2.1-10.3-3.2c-5.5-1.9-7-8-5.8-11.5c1.5-4.6,6.4-7.2,11.5-6c3.4,0.8,6.5,2.5,9.7,4c0.8,0.4,1.6,1.1,2.4,0.6
		c1-0.6,0.6-1.8,0.5-2.7c-0.5-2.8-0.5-5.6-0.5-8.4c0-6.4,3.9-10.3,9.8-10.1c5.5,0.2,9.4,5.1,8.9,11.1c-0.2,2.7-0.5,5.4-0.9,8.1
		c-0.3,2.2,0.2,2.9,2.5,1.7c3.2-1.7,6.4-3.4,9.9-4.3c7-1.9,13.2,3.3,12.2,10.1c-0.5,3.4-2.3,6-5.6,7.2c-3.6,1.2-7.2,2.3-10.9,3.3
		c-2.1,0.6-2.4,1.3-0.9,2.9c1.8,1.9,3.4,4,5.1,5.9c5.8,6.8,5,12.3-2.5,17c-1.9,0-3.9,0-5.8,0c-5-2.7-8-7.2-10.7-12
		c-1.8-3.3-1.9-3.3-3.7-0.1c-2.7,4.6-5,9.5-10.1,12.1C24.2,296.5,22.3,296.5,20.3,296.5z"/>
	<path class="st0" d="M95.5,296.5c-7.4-4-8.6-9.5-3.4-16.1c2-2.5,4.1-5,6.2-7.4c1-1.2,0.9-1.7-0.7-2.1c-3.8-0.8-7.5-1.9-11.1-3.4
		c-5-2-7.3-6.7-5.9-11.5c1.4-4.6,6.4-7.2,11.5-6.1c3.4,0.8,6.5,2.5,9.7,4c0.8,0.4,1.8,1.4,2.6,0.8c0.9-0.7,0.4-2,0.3-3
		c-0.2-2.5-0.5-5-0.6-7.5c-0.4-6.5,3.6-11,9.7-10.8c5.7,0.1,9.6,4.9,9,11.2c-0.3,3.5-0.6,6.9-1,10.8c3.8-1.7,7.1-3.3,10.6-4.7
		c3.6-1.5,7.2-1.6,10.5,0.8c3,2.1,4.1,5.1,3.6,8.7c-0.5,3.3-2.2,5.8-5.4,7.1c-3.5,1.4-7.2,2.5-10.8,3.3c-3.1,0.7-3,0.8-1,3
		c1.7,1.9,3.5,3.9,5.1,6c5.6,6.9,4.8,12.1-2.6,16.9c-1.9,0-3.9,0-5.8,0c-5-2.6-7.9-7-10.6-11.7c-2-3.5-2.1-3.5-4.1,0.1
		c-2.6,4.5-4.9,9.1-9.8,11.6C99.4,296.5,97.5,296.5,95.5,296.5z"/>
	<path class="st0" d="M170.7,296.5c-7.5-4-8.7-9.7-3.3-16.3c1.9-2.3,3.8-4.7,5.8-6.9c1.2-1.3,1.3-2-0.7-2.4
		c-3.7-0.7-7.3-1.9-10.8-3.3c-5.1-2.1-7.5-6.9-5.9-11.7c1.5-4.5,6.5-7.1,11.6-5.8c3.6,0.9,6.9,2.6,10.1,4.3c2,1.1,2.6,0.5,2.3-1.6
		c-0.3-2.7-0.5-5.4-0.7-8.1c-0.5-6.2,3.2-11,8.7-11.2c6-0.3,10.2,4.1,10,10.6c-0.1,3.7-0.6,7.3-1,11.2c2.6-0.5,4.5-1.9,6.7-2.9
		c2.8-1.2,5.4-2.6,8.6-2.6c4.5,0,8.4,2.9,9.3,6.9c1,4.5-1.2,8.8-5.5,10.7c-3.7,1.6-7.5,2.6-11.4,3.5c-2,0.4-1.9,1.1-0.7,2.4
		c1.9,2.1,3.7,4.2,5.5,6.4c5.6,6.9,4.8,12.1-2.5,16.9c-1.9,0-3.9,0-5.8,0c-5.2-2.6-8.1-7.3-10.8-12.1c-0.5-0.8-0.7-2.2-1.7-2.2
		c-1.2-0.1-1.4,1.4-1.9,2.3c-2.7,4.6-4.9,9.5-10,12.1C174.6,296.5,172.6,296.5,170.7,296.5z"/>
	<path class="st0" d="M213.8,135.1c0,14.8,0,29.5,0,44.3c0,6.3-1.3,12.1-5.8,16.9c-4.4,4.7-9.8,6.9-16.1,7
		c-27.3,0.1-54.6,0.1-81.8,0c-11,0-22.2-7.6-22.1-24.1c0.2-20.5,0-41,0.1-61.5c0-10.2-0.4-20.4,0.3-30.6
		c0.7-10.2,7.5-17.8,17.7-19.6c2.5-0.4,2.9-1.4,2.9-3.6c0.2-8.5-0.8-17.1,0.9-25.6c6.1-30.7,43.2-44,67.4-24.2
		c10.3,8.4,15.2,19.4,15.6,32.5c0.2,5.9,0,11.8,0,17.8c0,1.4,0,2.5,1.9,3c13,2.9,18.9,10.3,18.9,23.7
		C213.8,105.8,213.8,120.5,213.8,135.1z M150.8,67.4c5.8,0,11.6-0.1,17.4,0c2.3,0,3.1-0.8,3-3.1c-0.1-6.4,0.1-12.8-0.1-19.2
		c-0.4-10.5-9.6-19-20.5-18.9c-10.7,0.1-19.8,8.6-20.1,19c-0.2,6.4,0,12.8-0.1,19.2c0,2.1,0.8,2.9,2.9,2.9
		C139.2,67.3,145,67.4,150.8,67.4z"/>
</g>
</svg>
