<?xml version="1.0" encoding="utf-8"?>
<!-- Generator: Adobe Illustrator 26.0.2, SVG Export Plug-In . SVG Version: 6.00 Build 0)  -->
<svg version="1.1" id="Capa_1" xmlns="http://www.w3.org/2000/svg" xmlns:xlink="http://www.w3.org/1999/xlink" x="0px" y="0px"
	 viewBox="0 0 300 300" style="enable-background:new 0 0 300 300;" xml:space="preserve">
<style type="text/css">
	.st0{fill:#003C82;}
</style>
<g>
	<path class="st0" d="M153,145.1c-0.9-0.4-1.7-0.8-2.4-1.2c-38.2-22.1-76.5-44.1-114.7-66.2c-2.5-1.4-2.5-1.7,0.2-3.3
		C59,61.1,81.9,47.9,104.7,34.7C119.8,26,135,17.3,150,8.5c2.2-1.3,3.8-1.3,6,0c37.8,21.9,75.6,43.7,113.4,65.5
		c3.2,1.9,3.3,2,0.1,3.9c-22.9,13.2-45.8,26.4-68.7,39.6c-15.1,8.7-30.2,17.4-45.3,26.1C154.8,144.2,153.9,144.6,153,145.1z"/>
	<path class="st0" d="M268.8,176c0,15,0,30.1,0,45.1c0,2.4-0.8,3.8-2.9,5c-35.5,20.4-71,40.9-106.5,61.4c-2.8,1.6-3.1,1.4-3.1-1.9
		c0-30.4,0-60.7-0.1-91.1c0-2.4,0.9-3.6,2.8-4.7c24.2-13.9,48.4-27.9,72.6-41.9c11.3-6.5,22.5-13,33.8-19.5c3-1.8,3.1-1.7,3.1,1.9
		C268.8,145.5,268.8,160.8,268.8,176z"/>
	<path class="st0" d="M149.8,240.1c0,15,0,30.1,0,45.1c0,3.9-0.3,4.1-3.8,2.1c-35.6-20.5-71.2-41.1-106.8-61.6
		c-1.8-1-2.3-2.3-2.3-4.2c0-30.6,0-61.1,0-91.7c0-2.9,0.3-3.1,2.9-1.6c35.8,20.7,71.7,41.4,107.5,62c2,1.2,2.4,2.7,2.4,4.7
		C149.8,210,149.8,225,149.8,240.1z M109.6,212.9c3.7,0,6.5-2,7.5-5.5c1.1-3.6-0.1-7.3-3.7-9.4c-9.4-5.6-18.8-11-28.3-16.4
		c-2.9-1.7-6.1-1.6-8.9,0.5c-4.6,3.5-4.5,10.1,0.4,13.1c9.6,5.8,19.3,11.2,29,16.8C106.9,212.8,108.2,212.9,109.6,212.9z"/>
	<path class="st0" d="M276.2,98.6c0,4.2-0.1,8.4,0,12.6c0.1,2.4-0.7,3.8-2.9,5c-21.7,12.4-43.3,25-64.9,37.5
		c-16.3,9.4-32.7,18.9-49,28.3c-3,1.7-3.1,1.7-3.1-1.7c0-8.7,0.1-17.4-0.1-26.1c0-2.5,0.9-3.8,3-5c25.1-14.4,50.3-29,75.4-43.5
		c12.8-7.4,25.5-14.7,38.3-22.1c3.2-1.8,3.2-1.8,3.2,2C276.3,90,276.2,94.3,276.2,98.6z"/>
	<path class="st0" d="M30,98.4c0-3.9-0.1-7.9,0-11.8c0-1.3-0.7-3,0.7-3.7c1.1-0.6,2.3,0.7,3.3,1.3c11.8,6.8,23.6,13.6,35.3,20.4
		c25.8,14.9,51.6,29.8,77.4,44.6c2.3,1.3,3.2,2.8,3.2,5.5c-0.2,8.4,0,16.9-0.1,25.3c0,3.7-0.3,3.8-3.4,2
		c-21.2-12.3-42.5-24.5-63.7-36.8c-16.6-9.6-33.2-19.2-49.8-28.7c-2.2-1.3-3.1-2.7-3-5.2C30.1,107,30,102.7,30,98.4z"/>
</g>
</svg>
