<?xml version="1.0" encoding="utf-8"?>
<!-- Generator: Adobe Illustrator 26.0.2, SVG Export Plug-In . SVG Version: 6.00 Build 0)  -->
<svg version="1.1" id="Capa_1" xmlns="http://www.w3.org/2000/svg" xmlns:xlink="http://www.w3.org/1999/xlink" x="0px" y="0px"
	 viewBox="0 0 300 300" style="enable-background:new 0 0 300 300;" xml:space="preserve">
<style type="text/css">
	.st0{fill:#003C82;}
</style>
<g>
	<path class="st0" d="M40.9,47.1c73.3,0,146.6,0,219.9,0c1.2,0.3,2.4,0.7,3.6,1c14.5,4.1,24.2,13.2,29.3,27.3
		c0.7,2.1,1.2,4.2,1.8,6.4c0,45.7,0,91.4,0,137.1c-0.3,1-0.6,2-0.9,3.1c-4.8,19-21.1,31.8-40.7,31.8c-69,0-137.9,0-206.9,0
		C24.5,253.7,6,235.2,6,212.6C5.9,171.1,6,129.6,6,88c0-16.8,10.4-32,26.1-38.2C34.9,48.7,38,48,40.9,47.1z M68.3,135.1
		c-9.2,0-18.3,0.1-27.5,0c-2.5,0-3.4,0.9-3.4,3.4c0.1,7.9,0.1,15.8,0,23.7c0,2.5,0.9,3.4,3.4,3.4c18.1-0.1,36.2-0.1,54.3,0
		c2.6,0,3.6-0.9,3.6-3.5c-0.1-7.8-0.1-15.6,0-23.4c0-2.6-0.9-3.6-3.6-3.5C86.3,135.2,77.3,135.1,68.3,135.1z"/>
</g>
</svg>
