<?xml version="1.0" encoding="utf-8"?>
<!-- Generator: Adobe Illustrator 26.0.2, SVG Export Plug-In . SVG Version: 6.00 Build 0)  -->
<svg version="1.1" id="Capa_1" xmlns="http://www.w3.org/2000/svg" xmlns:xlink="http://www.w3.org/1999/xlink" x="0px" y="0px"
	 viewBox="0 0 300 300" style="enable-background:new 0 0 300 300;" xml:space="preserve">
<style type="text/css">
	.st0{fill:#003C82;}
</style>
<g>
	<path class="st0" d="M56,256.4c0-70.8,0-141.5,0-212.3c0.3-1.1,0.6-2.3,0.9-3.4c2.2-9.2,6.6-17.1,13.3-23.7
		C77.8,9.6,86.9,5.5,97.1,3.6c35.4,0,70.9,0,106.3,0c0.5,0.1,0.9,0.3,1.4,0.4c23.9,4.6,39.9,23.8,39.9,48.2c0,65.7,0,131.5,0,197.2
		c0,26.6-21.3,47.8-47.8,47.9c-31.1,0-62.2,0.1-93.3,0c-18-0.1-31.6-8.4-41.2-23.5C59.1,268.4,57.5,262.4,56,256.4z M223.3,149.7
		c0-26.5,0-52.9,0-79.4c0-4.2,0-4.3-4.3-4.3c-45.8,0-91.6,0-137.4,0c-4.3,0-4.3,0-4.3,4.2c0,52.9,0,105.8,0,158.7
		c0,4.2,0,4.3,4.3,4.3c45.8,0,91.6,0,137.4,0c4.3,0,4.3,0,4.3-4.2C223.3,202.6,223.3,176.2,223.3,149.7z M150.3,254.8
		c-22.9,0-45.8,0-68.7,0c-3.6,0-3.9,0.4-2.6,3.9c4,10.2,13.5,16.9,24.6,16.9c31.1,0,62.2,0,93.3,0c10.9,0,20.4-6.5,24.5-16.6
		c1.5-3.8,1.3-4.2-2.7-4.2C195.9,254.8,173.1,254.8,150.3,254.8z M150.3,44.6c22.7,0,45.4,0,68.1,0c3.9,0,4.2-0.6,2.5-4.1
		c-4.8-10-12.9-15.5-24-15.6c-31.1-0.2-62.3-0.2-93.4,0c-11,0.1-19,5.5-23.8,15.3c-1.9,3.8-1.5,4.4,2.7,4.4
		C105.1,44.6,127.7,44.6,150.3,44.6z"/>
</g>
</svg>
