<?xml version="1.0" encoding="utf-8"?>
<!-- Generator: Adobe Illustrator 26.0.2, SVG Export Plug-In . SVG Version: 6.00 Build 0)  -->
<svg version="1.1" id="Capa_1" xmlns="http://www.w3.org/2000/svg" xmlns:xlink="http://www.w3.org/1999/xlink" x="0px" y="0px"
	 viewBox="0 0 300 300" style="enable-background:new 0 0 300 300;" xml:space="preserve">
<style type="text/css">
	.st0{fill:#009B41;}
</style>
<g>
	<path class="st0" d="M7.2,135.4C9,128,12.4,121.6,18.6,117c14.9-11.1,35.1-6.3,44,10.4c8.1,15.3,16,30.7,24,46
		c5.3,10.3,10.7,20.5,16.1,30.7c1.5,2.8,1.6,2.8,3.4,0.3c33.4-45.2,66.7-90.5,100.1-135.7c11.9-16.1,23.6-32.2,35.7-48.1
		c7.3-9.6,20.8-13,32.4-8.9c11.3,4,19,15,19.3,27c0.2,7.6-2.6,13.9-7,19.9c-13.4,18.1-26.8,36.3-40.2,54.4
		c-40.3,54.6-80.6,109.2-120.8,163.8c-5.3,7.2-11.7,12.2-20.3,14.4c-3.6,0-7.3,0-10.9,0c-1.3-0.4-2.5-0.8-3.8-1.3
		c-7.3-2.5-12.9-7.1-16.5-13.9c-6.5-12.3-12.9-24.7-19.4-37.1c-10.5-20.2-21.2-40.2-31.5-60.5c-5.5-10.9-12.3-21.2-16-32.9
		C7.2,142.3,7.2,138.8,7.2,135.4z"/>
</g>
</svg>
