<?xml version="1.0" encoding="utf-8"?>
<!-- Generator: Adobe Illustrator 26.0.2, SVG Export Plug-In . SVG Version: 6.00 Build 0)  -->
<svg version="1.1" id="Capa_1" xmlns="http://www.w3.org/2000/svg" xmlns:xlink="http://www.w3.org/1999/xlink" x="0px" y="0px"
	 viewBox="0 0 300 300" style="enable-background:new 0 0 300 300;" xml:space="preserve">
<style type="text/css">
	.st0{fill:#003C82;}
</style>
<g>
	<path class="st0" d="M19.2,88.2c1.2,1.6,2.8,2.7,4.5,3.6c40.2,23.3,80.4,46.6,120.6,69.8c2.3,1.3,3,2.8,3,5.3
		c-0.1,38.6,0,77.3,0,115.9c0,1.8,0,3.7,0,5.5c-1.1,0.3-1.8-0.4-2.6-0.9c-40.5-23.4-81.1-46.8-121.6-70.3c-1.4-0.8-2.6-1.8-3.8-2.8
		C19.2,172.4,19.2,130.3,19.2,88.2z M110.9,191.1c0.1-2.9-1.2-5.5-4.2-7.2c-10.5-6.1-21.1-12.3-31.7-18.2c-4.6-2.6-9.8-0.9-12.2,3.5
		c-2.3,4.3-0.8,9.4,3.6,12.1c3,1.8,6.1,3.6,9.2,5.3c7.2,4.2,14.3,8.3,21.5,12.4C103.7,202.8,110.8,198.9,110.9,191.1z"/>
	<path class="st0" d="M152.2,10.6c5.3,3.7,11,6.6,16.5,9.8c35.9,20.8,71.9,41.6,107.8,62.3c0.5,0.3,1.2,0.5,1.5,1.4
		c-6.7,3.9-13.8,7.3-20.1,11.8c-6.4,4.6-11.4,4.1-18.1,0.1c-27.6-16.6-55.7-32.4-83.5-48.5c-1-0.6-2-1-2.9-1.7
		c-2.1-1.4-4.1-1.3-6.2,0c-14.9,8.7-29.8,17.2-44.7,25.9c-16.1,9.3-32.3,18.6-48.3,28c-1.8,1-3.1,1-4.9,0c-7.6-4.5-15.3-8.9-23-13.3
		c-1.4-0.8-2.7-1.7-4.3-1.8c0.4-0.9,1.3-1.3,2.1-1.8C60.1,61.9,96.2,41,132.3,20.1c5.4-3.1,10.9-6,16-9.6
		C149.6,10.6,150.9,10.6,152.2,10.6z"/>
	<path class="st0" d="M281.1,89c0.6,1.1,0.4,2.1,0.4,3.1c0,39.5,0,79,0.1,118.5c0,3.1-1,5-3.7,6.5c-40.7,23.5-81.4,47-122.2,70.5
		c-0.7,0.4-1.5,1.2-2.3,0.8c-0.8-0.5-0.2-1.5-0.2-2.3c0-27.9,0-55.9,0-83.8c0-11.5,0.2-22.9-0.1-34.4c-0.1-3.5,1.3-5.3,4.2-6.9
		c30.6-17.6,61.1-35.3,91.7-52.9c9.6-5.5,19.2-11.1,28.7-16.7C278.8,90.7,279.9,89.9,281.1,89z"/>
	<path class="st0" d="M177.7,141.4c-0.1,0.7-0.6,0.9-1.1,1.2c-8.3,4.8-16.6,9.6-24.9,14.4c-1.1,0.7-2.1,0.5-3.1-0.1
		c-8-4.7-16.1-9.3-24.1-13.9c-1.8-1-2.2-1.8-0.1-3c8.2-4.7,16.3-9.4,24.4-14.1c1.1-0.6,2-0.7,3.1,0c8.1,4.7,16.3,9.4,24.4,14.1
		C176.8,140.3,177.6,140.6,177.7,141.4z"/>
	<path class="st0" d="M241.8,104.5c-0.2,0.6-0.7,0.9-1.2,1.1c-8.2,4.8-16.4,9.5-24.6,14.3c-1.3,0.7-2.3,0.8-3.6,0
		c-7.9-4.9-15.9-9.7-23.8-14.5c-1.6-1-1.4-1.7,0.1-2.5c8.1-4.6,16.1-9.3,24.2-14c1.1-0.6,2.1-0.6,3.1,0.1
		c8.2,4.8,16.4,9.5,24.6,14.3C241.1,103.5,241.8,103.7,241.8,104.5z"/>
	<path class="st0" d="M111.4,102.7c-0.1,0.8-0.7,1-1.2,1.3c-8.2,4.8-16.4,9.5-24.6,14.3c-1.4,0.8-2.5,0.8-3.9,0
		c-7.2-4.2-14.5-8.4-21.7-12.6c-1.6-0.9-1.6-1.6,0-2.5c8.2-4.7,16.4-9.5,24.6-14.2c1-0.6,2-0.8,3.1-0.1c7.6,4.4,15.1,8.7,22.7,13.1
		C110.8,102.2,111.1,102.5,111.4,102.7z"/>
	<path class="st0" d="M118.2,106.7c0.7,0.3,1.4,0.6,2,0.9c7,4,14,8.1,21,12.1c2,1.1,2.2,1.9,0,3.1c-7.9,4.5-15.8,9.1-23.7,13.7
		c-1.4,0.9-2.6,1-4.1,0.1c-7.1-4.2-14.3-8.3-21.5-12.4c-1.7-1-1.8-1.6,0-2.6c8.2-4.7,16.4-9.5,24.7-14.2
		C117.1,107.1,117.7,106.9,118.2,106.7z"/>
	<path class="st0" d="M180.3,100.1c-0.8-0.4-1.5-0.7-2.2-1.1c-6.7-4.1-13.5-8.3-20.2-12.3c-2.1-1.3-1.9-2,0.1-3.1
		c7.5-4.3,15-8.6,22.5-12.9c1.3-0.7,2.4-0.8,3.6,0c7.3,4.3,14.6,8.5,22,12.7c1,0.6,1.9,1.2,0.3,2.1c-8.2,4.8-16.4,9.5-24.6,14.2
		C181.2,99.8,180.8,99.9,180.3,100.1z"/>
	<path class="st0" d="M175.2,65.9c0,0.7-0.6,0.9-1.1,1.2c-7.7,4.5-15.4,8.9-23.2,13.4c-1.1,0.6-2.1,0.5-3.1-0.1
		c-7.1-4.4-14.3-8.8-21.4-13.1c-1.6-1-1.3-1.7,0.1-2.5c7.4-4.3,14.8-8.5,22.2-12.8c1.2-0.7,2.3-0.5,3.4,0.1
		c7.2,4.2,14.5,8.4,21.7,12.6C174.4,64.9,175,65.2,175.2,65.9z"/>
	<path class="st0" d="M180.5,107.8c0.7,0.4,1.4,0.7,2,1.1c7.7,4.7,15.4,9.4,23.1,14.1c2,1.2,1.8,1.9-0.1,3
		c-6.2,3.5-12.4,7.1-18.6,10.7c-1.2,0.7-2.3,0.9-3.6,0.1c-8.1-4.7-16.3-9.4-24.4-14.1c-1.7-1-1.7-1.7,0-2.7
		c6.7-3.8,13.4-7.7,20.1-11.6C179.4,108.1,180,108,180.5,107.8z"/>
	<path class="st0" d="M142.4,84.9c-0.2,0.7-0.8,1-1.3,1.3c-6.9,4-13.9,8-20.8,12c-1.4,0.8-2.6,0.7-3.9-0.1
		c-7.2-4.2-14.5-8.4-21.7-12.5c-1.6-0.9-1.6-1.6,0-2.5c7.3-4.2,14.5-8.3,21.7-12.5c1.3-0.7,2.3-0.8,3.6,0c7,4.4,14.1,8.6,21.2,13
		C141.7,83.8,142.4,84.1,142.4,84.9z"/>
	<path class="st0" d="M150.3,117.4c-0.7-0.3-1.4-0.6-2.2-1c-6.9-4-13.9-8-20.8-12c-2.4-1.4-2.4-1.8,0.1-3.3
		c6.6-3.8,13.2-7.6,19.8-11.5c1.3-0.8,2.5-1,3.9-0.1c7,4.4,14.1,8.6,21.2,13c1.1,0.7,1.9,1.4,0.2,2.3c-7,4-14,8.1-21,12.1
		C151.1,117.1,150.8,117.2,150.3,117.4z"/>
</g>
</svg>
