<?xml version="1.0" encoding="utf-8"?>
<!-- Generator: Adobe Illustrator 26.0.2, SVG Export Plug-In . SVG Version: 6.00 Build 0)  -->
<svg version="1.1" id="Capa_1" xmlns="http://www.w3.org/2000/svg" xmlns:xlink="http://www.w3.org/1999/xlink" x="0px" y="0px"
	 viewBox="0 0 300 300" style="enable-background:new 0 0 300 300;" xml:space="preserve">
<style type="text/css">
	.st0{fill:#003C82;}
</style>
<g>
	<path class="st0" d="M8.9,285.4c1.3-8.1,2.9-16.2,6.3-23.8c6.2-14.1,15-25.9,29.2-32.8c18.5-9,36-6.5,51.9,6.2
		c15.7,12.6,22.9,29.8,25.5,49.3c0.5,3.4,0.8,6.8,0.5,10.3c-37,0-74,0-111,0.1c-2,0-2.5-0.4-2.3-2.4C9,290,8.9,287.7,8.9,285.4z"/>
	<path class="st0" d="M178.5,294.6c0.3-25.2,8.3-47,29.4-62.1c19-13.6,43.3-11.4,60.5,4.5c13.4,12.5,20.4,28.2,22.9,46.2
		c0.5,3.8,0.9,7.6,0.5,11.4C253.9,294.6,216.2,294.6,178.5,294.6z"/>
	<path class="st0" d="M190,101.7c0,9.2,0,18.4,0,27.6c0,13.9-10,24-23.8,24c-10.8,0-21.7,0.1-32.5,0c-12.8-0.1-23.1-10.1-23.1-22.9
		c-0.1-19.1-0.1-38.1,0-57.2c0.1-12.5,10.4-22.9,22.9-23c11.1-0.1,22.2-0.1,33.3,0c12.7,0.1,23,10.3,23.2,23.1
		C190.1,82.7,190,92.2,190,101.7z"/>
	<path class="st0" d="M95.9,183.7c-0.1,16.9-13.8,30.6-30.6,30.4c-16.7-0.1-30.5-14-30.5-30.7c0-16.8,14-30.5,31.3-30.4
		C82.6,153.1,95.9,166.8,95.9,183.7z"/>
	<path class="st0" d="M235.1,153c16.9,0,30.8,13.9,30.7,30.7c-0.2,16.7-14.1,30.5-30.8,30.4c-16.8-0.1-30.3-13.7-30.3-30.7
		C204.7,166.4,218.1,153,235.1,153z"/>
	<path class="st0" d="M135,196.7c3.6,0,7.3-0.1,10.9,0c1.9,0,2.5-0.7,2.5-2.6c-0.1-5.4,0-10.7,0-16.1c0-0.8-0.3-1.9,0.5-2.4
		c0.9-0.6,1.6,0.4,2.2,0.9c12,9,24.1,18.1,36.1,27c1.9,1.4,1.8,2.2,0,3.6c-12.1,9-24.1,18-36.1,27c-0.7,0.5-1.3,1.5-2.2,1
		c-0.8-0.5-0.5-1.6-0.5-2.4c0-5.3-0.1-10.5,0-15.8c0-2.1-0.8-2.9-2.9-2.9c-7,0.1-14,0.1-21,0c-5.5-0.1-9.2-3.3-9.5-8
		c-0.3-5.2,3.3-9.1,8.7-9.3c0.2,0,0.4,0,0.6,0C127.9,196.7,131.5,196.7,135,196.7C135,196.7,135,196.7,135,196.7z"/>
	<path class="st0" d="M178.9,7C204,7.4,227,27.5,231.4,53.2c0.5,2.8,0.8,5.7,1,8.5c0.2,3.3-1.6,5.6-4.3,5.7c-2.5,0.1-4.3-2-4.4-5.3
		c-1-23.7-17.1-42.1-40.5-46c-1.9-0.3-3.8-0.3-5.7-0.4c-3.8-0.3-5.8-2-5.6-4.8c0.2-2.7,2-4,5.9-4C178.1,7,178.5,7,178.9,7z"/>
	<path class="st0" d="M217.8,60.5c0,0.8,0.2,1.5,0.1,2.3c-0.2,2.8-2.1,4.8-4.5,4.7c-2.3-0.1-3.9-1.9-4.1-4.6
		c-0.9-13.9-7.3-24.2-20.1-30.1c-3.3-1.5-6.9-2.4-10.5-2.5c-1,0-1.9-0.1-2.9-0.3c-2.7-0.5-4.3-2.4-4-4.8c0.3-2.7,2.1-3.7,4.6-3.8
		c8-0.1,15.3,2.2,22,6.5C210.3,35.5,216.6,46.5,217.8,60.5z"/>
	<path class="st0" d="M203.4,61.6c0,0.3,0,0.6,0,0.9c-0.1,2.9-1.7,4.9-4.1,5c-2.3,0.1-4.1-1.7-4.3-4.4c-0.5-4.9-1.9-9.4-5.5-12.9
		c-3.3-3.3-7.2-5.3-12-5.5c-0.7,0-1.4-0.1-2-0.2c-2.4-0.6-3.9-2.2-3.6-4.8c0.2-2.5,2-3.7,4.3-3.8c4.8-0.2,9.3,1.2,13.4,3.6
		C198.1,44.4,202.6,51.8,203.4,61.6z"/>
</g>
</svg>
