<?xml version="1.0" encoding="utf-8"?>
<!-- Generator: Adobe Illustrator 26.0.2, SVG Export Plug-In . SVG Version: 6.00 Build 0)  -->
<svg version="1.1" id="Capa_1" xmlns="http://www.w3.org/2000/svg" xmlns:xlink="http://www.w3.org/1999/xlink" x="0px" y="0px"
	 viewBox="0 0 300 300" style="enable-background:new 0 0 300 300;" xml:space="preserve">
<style type="text/css">
	.st0{fill:#003C82;}
</style>
<g>
	<path class="st0" d="M42.5,6c5.3,2.4,8.8,6,8.8,12.2c-0.1,6.1-4.2,11-10.2,12.1c-2.5,0.5-5,0.4-7.5,0.4c-1.8,0-2.7,0.7-2.6,2.5
		c0,0.7,0,1.3,0,2c0,32.6,0,65.2,0,97.8c0,4.5,0,4.5,4.6,4.5c1.2,0,2.3,0,3.5,0c7.1,0.2,12.2,5.2,12.2,12.2c0,7.1-5,12.2-12.3,12.4
		c-8,0.2-8,0.2-8,8.3c0,21.9,0,43.7,0,65.6c0,1-0.3,2.1,0.5,3.5c15.6-23.4,31-46.5,46.7-70c0.7,1.4,0.1,2.2-0.1,3
		c-4.5,14.5-7.1,29.3-6.5,44.4c0.2,5.5-1.4,9.6-4.3,13.9c-8,11.6-15.7,23.4-23.5,35.1c-0.5,0.7-1.6,1.5-0.9,2.5
		c0.5,0.8,1.6,0.4,2.4,0.4c15,0,29.9,0,44.9,0.1c2.8,0,3.8-0.9,3.6-3.6c-0.2-2.5-0.2-5,0.5-7.4c1.6-6.2,7.1-9.9,13.7-9.2
		c5.6,0.6,10.4,5.9,10.6,11.8c0.1,1.7,0.2,3.5,0,5.2c-0.2,2.5,0.8,3.3,3.3,3.3c10.8-0.1,21.7,0,32.5,0c7.9,0,15.7-0.1,23.6,0.1
		c3,0.1,4-1,3.7-3.8c-0.2-1.5-0.1-3.1,0-4.6c0.2-6,4.9-11.3,10.6-11.9c6.7-0.8,12.3,3,13.9,9.4c0.6,2.6,0.5,5.1,0.5,7.7
		c-0.1,2.1,0.6,3.1,2.9,3.1c19-0.1,38,0,56.9,0c2.1,0,2.9-0.9,2.8-2.9c0-2.1,0-4.2,0.3-6.3c0.8-5.9,4.8-10.2,10.2-11
		c5.8-0.9,10.7,1.7,13.5,7.2c0.3,0.5,0.5,1,0.8,1.5c0,9.2,0,18.4,0,27.6c-2.6,6.4-7.3,8.9-14.2,8.9c-86.7-0.1-173.4-0.2-260,0
		c-8,0-13.7-5.8-13.7-13.7c0.2-86.7,0.2-173.4,0-260C6,13.3,8.5,8.6,14.9,6C24.1,6,33.3,6,42.5,6z"/>
	<path class="st0" d="M294,21.6c-1.2,2-2.2,4-3.5,5.9c-25.5,38.3-51,76.6-76.6,114.9c-0.5,0.7-1,1.4-1.4,2.1c-1,1.6-1.8,1.3-2.7-0.1
		c-3.8-6.1-8.2-11.8-13.4-16.9c-1.1-1.1-1.2-2.1-0.3-3.3c0.4-0.5,0.6-1,1-1.4c24.2-36.3,48.4-72.6,72.6-108.9
		c2.3-3.4,4.8-6.4,8.8-7.9c4.7,0,9.3,0.1,14,0c1.3,0,1.6,0.3,1.6,1.6C293.9,12.3,294,16.9,294,21.6z"/>
	<path class="st0" d="M150.2,217.9c-19.2,0-38.3,0-57.5,0c-3.6,0-3.8-0.1-3.7-3.7c0.9-24.9,6.8-48.2,22.4-68.2
		c5.7-7.3,12.5-13.2,21-17.1c1.6-0.7,3-1,4.7-0.5c8.8,2.1,17.6,2.1,26.5,0c1.8-0.4,3.3-0.2,5,0.6c12.1,5.9,20.7,15.3,27.4,26.7
		c9.5,16.1,14.1,33.6,15.3,52.2c0.1,2.2,0.3,4.4,0.5,6.6c0.3,2.6-0.7,3.5-3.4,3.5c-16.5-0.1-33-0.1-49.5,0
		C156,217.9,153.1,217.9,150.2,217.9z"/>
	<path class="st0" d="M150.4,112.1c-22.1,0-40-17.8-40-39.7c0-22,17.8-40,39.8-40c22.2,0,40.3,18,40.2,39.9
		C190.3,94.4,172.5,112.1,150.4,112.1z"/>
</g>
</svg>
