<?xml version="1.0" encoding="utf-8"?>
<!-- Generator: Adobe Illustrator 26.0.2, SVG Export Plug-In . SVG Version: 6.00 Build 0)  -->
<svg version="1.1" id="Capa_1" xmlns="http://www.w3.org/2000/svg" xmlns:xlink="http://www.w3.org/1999/xlink" x="0px" y="0px"
	 viewBox="0 0 300 300" style="enable-background:new 0 0 300 300;" xml:space="preserve">
<style type="text/css">
	.st0{fill:#003C82;}
</style>
<g>
	<path class="st0" d="M104.7,9.6c2.3,0,4.5,0,6.8,0c26.6,12.9,53.3,25.9,79.9,38.8c1.8,0.9,3.3,0.8,5-0.1c26.6-13,53.3-25.8,80-38.8
		c4.6,0,9.2,0.1,13.8,0c1.2,0,1.7,0.2,1.4,1.4c-0.1,0.4,0,0.7,0,1.1c0,76.3,0,152.5,0,228.8c-1.5,3.6-3.9,6.3-7.5,8
		c-28.2,13.6-56.4,27.3-84.6,40.9c-3.9,1.9-7.8,1.8-11.6-0.1c-25.5-12.4-51-24.7-76.4-37.1c-2.7-1.3-4.7-1.2-7.3,0.1
		c-25.2,12.3-50.4,24.5-75.7,36.7c-9.7,4.7-18.5-0.9-18.5-11.7c0-71.2,0-142.4-0.1-213.6c0-6.2,2.6-10.3,8.2-12.9
		c8.7-4.1,17.4-8.4,26.1-12.6C64.3,29.1,84.5,19.3,104.7,9.6z M120.1,135.3c0,30.3,0,60.6-0.1,90.9c0,2.7,0.9,4.2,3.3,5.4
		c18.4,8.8,36.7,17.7,55,26.6c3.3,1.6,3.3,1.6,3.3-2.1c0-60.6,0-121.2,0.1-181.8c0-2.7-0.9-4.2-3.3-5.4c-18.4-8.8-36.7-17.7-55-26.6
		c-3.3-1.6-3.3-1.6-3.3,2.1C120.1,74.8,120.1,105.1,120.1,135.3z"/>
</g>
</svg>
